<svg width="260" height="100" viewBox="0 0 260 100" fill="none" xmlns="http://www.w3.org/2000/svg">
<path d="M0 89.05V97.2L2.8 100H10.94L7.59 96.65L0 89.05Z" fill="white"/>
<path d="M236.58 0H0V76.57L23.43 100H260V23.42L236.58 0ZM256 96H25.09L4 74.91V4H234.92L256 25.08V96Z" fill="white"/>
<path opacity="0.25" d="M256 25.08V96H25.09L4 74.91V12H36.59L38.59 10L44.6 4H234.92L256 25.08Z" fill="white"/>
<path d="M11.32 100H2.8L0 97.2001V88.6801L11.32 100Z" fill="white"/>
<path d="M260 2.8V11.32L248.68 0H257.2L260 2.8Z" fill="white"/>
<path d="M38.5901 10L36.5901 12H22.0601V10H38.5901Z" fill="white"/>
<path d="M45.35 3.24996L44.6 3.99996L38.59 9.99996L36.59 12H33.77L41.77 3.99996L43.94 1.82996L45.35 3.24996Z" fill="white"/>
<path d="M30.26 4L24.25 10L22.25 12H4V4H30.26Z" fill="white"/>
</svg>
