<svg width="180" height="54" viewBox="0 0 180 54" fill="none" xmlns="http://www.w3.org/2000/svg">
<path d="M173.596 54H6.30533C2.82933 54 0 51.1272 0 47.6104V6.3801C0 2.862 2.82933 0 6.30533 0H173.596C177.071 0 180 2.862 180 6.3801V47.6104C180 51.1272 177.071 54 173.596 54Z" fill="#A6A6A6"/>
<path d="M178.71 47.6118C178.71 50.4684 176.424 52.7823 173.598 52.7823H6.30568C3.48035 52.7823 1.18701 50.4684 1.18701 47.6118V6.37879C1.18701 3.52354 3.48035 1.20154 6.30568 1.20154H173.596C176.424 1.20154 178.708 3.52354 178.708 6.37879L178.71 47.6118Z" fill="black"/>
<path d="M40.1709 26.7084C40.1323 22.3573 43.6896 20.2405 43.8523 20.142C41.8376 17.1679 38.7149 16.7616 37.6176 16.7292C34.9949 16.4497 32.4509 18.3181 31.1149 18.3181C29.7523 18.3181 27.6949 16.7562 25.4776 16.8021C22.6243 16.8466 19.9549 18.5193 18.4909 21.1167C15.4696 26.4127 17.7229 34.1955 20.6176 38.4763C22.0656 40.5729 23.7576 42.9138 25.9723 42.8314C28.1389 42.741 28.9483 41.4328 31.5629 41.4328C34.1536 41.4328 34.9136 42.8314 37.1723 42.7788C39.4976 42.741 40.9616 40.6728 42.3589 38.5573C44.0323 36.1543 44.7043 33.7878 44.7309 33.6663C44.6763 33.6474 40.2149 31.9234 40.1709 26.7084Z" fill="white"/>
<path d="M35.9045 13.9131C37.0699 12.4375 37.8672 10.4301 37.6459 8.39294C35.9592 8.46854 33.8499 9.57419 32.6352 11.0173C31.5605 12.289 30.6005 14.3734 30.8485 16.3336C32.7432 16.4767 34.6885 15.3657 35.9045 13.9131Z" fill="white"/>
<path d="M71.5269 42.5304H68.4989L66.8402 37.2532H61.0749L59.4949 42.5304H56.5469L62.2589 24.5646H65.7869L71.5269 42.5304ZM66.3402 35.0392L64.8402 30.348C64.6815 29.8687 64.3842 28.7401 63.9455 26.9635H63.8922C63.7175 27.7276 63.4362 28.8562 63.0495 30.348L61.5762 35.0392H66.3402Z" fill="white"/>
<path d="M86.2163 35.8938C86.2163 38.097 85.6283 39.8385 84.4523 41.1169C83.399 42.255 82.091 42.8233 80.5297 42.8233C78.8443 42.8233 77.6337 42.2104 76.8964 40.9846H76.843V47.8089H74.0004V33.8404C74.0004 32.4553 73.9644 31.0338 73.895 29.5758H76.395L76.5537 31.6291H76.607C77.555 30.082 78.9937 29.3098 80.9243 29.3098C82.4337 29.3098 83.6937 29.9133 84.7017 31.1215C85.7123 32.3311 86.2163 33.9214 86.2163 35.8938ZM83.3203 35.9991C83.3203 34.7382 83.0403 33.6987 82.4777 32.8806C81.863 32.0274 81.0377 31.6008 80.003 31.6008C79.3017 31.6008 78.6643 31.8384 78.095 32.3068C77.5243 32.7793 77.151 33.3963 76.9763 34.1604C76.8883 34.5168 76.8443 34.8084 76.8443 35.0379V37.1979C76.8443 38.1402 77.1297 38.9353 77.7004 39.5847C78.271 40.234 79.0123 40.558 79.9243 40.558C80.995 40.558 81.8283 40.1395 82.4243 39.3052C83.0217 38.4696 83.3203 37.368 83.3203 35.9991Z" fill="white"/>
<path d="M100.932 35.8938C100.932 38.097 100.344 39.8385 99.1665 41.1169C98.1145 42.255 96.8065 42.8233 95.2452 42.8233C93.5598 42.8233 92.3492 42.2104 91.6132 40.9846H91.5598V47.8089H88.7172V33.8404C88.7172 32.4553 88.6811 31.0338 88.6118 29.5758H91.1118L91.2705 31.6291H91.3238C92.2705 30.082 93.7092 29.3098 95.6412 29.3098C97.1492 29.3098 98.4092 29.9133 99.4198 31.1215C100.426 32.3311 100.932 33.9214 100.932 35.8938ZM98.0358 35.9991C98.0358 34.7382 97.7545 33.6987 97.1918 32.8806C96.5772 32.0274 95.7545 31.6008 94.7185 31.6008C94.0158 31.6008 93.3798 31.8384 92.8092 32.3068C92.2385 32.7793 91.8665 33.3963 91.6918 34.1604C91.6051 34.5168 91.5598 34.8084 91.5598 35.0379V37.1979C91.5598 38.1402 91.8451 38.9353 92.4132 39.5847C92.9838 40.2327 93.7252 40.558 94.6398 40.558C95.7105 40.558 96.5438 40.1395 97.1398 39.3052C97.7372 38.4696 98.0358 37.368 98.0358 35.9991Z" fill="white"/>
<path d="M117.385 37.4922C117.385 39.0204 116.861 40.2638 115.809 41.2236C114.653 42.2726 113.044 42.7964 110.976 42.7964C109.067 42.7964 107.536 42.4238 106.377 41.6772L107.036 39.2783C108.284 40.0424 109.653 40.4258 111.145 40.4258C112.216 40.4258 113.049 40.1801 113.648 39.6914C114.244 39.2027 114.541 38.5466 114.541 37.7285C114.541 36.9995 114.296 36.3852 113.804 35.8871C113.315 35.3889 112.497 34.9259 111.356 34.4979C108.249 33.3248 106.697 31.6062 106.697 29.3463C106.697 27.8694 107.241 26.6585 108.331 25.7162C109.416 24.7725 110.864 24.3014 112.675 24.3014C114.289 24.3014 115.631 24.5862 116.701 25.1546L115.991 27.5009C114.991 26.9501 113.86 26.6747 112.595 26.6747C111.595 26.6747 110.813 26.9244 110.253 27.4212C109.78 27.8654 109.543 28.4067 109.543 29.048C109.543 29.7581 109.813 30.3453 110.357 30.807C110.831 31.2336 111.691 31.6953 112.939 32.1935C114.465 32.8158 115.587 33.5435 116.308 34.3778C117.027 35.2094 117.385 36.2502 117.385 37.4922Z" fill="white"/>
<path d="M126.784 31.7359H123.651V38.0255C123.651 39.6253 124.203 40.4245 125.31 40.4245C125.818 40.4245 126.239 40.3799 126.572 40.2908L126.651 42.4765C126.091 42.6884 125.354 42.7951 124.44 42.7951C123.318 42.7951 122.44 42.4481 121.807 41.7556C121.176 41.0617 120.859 39.898 120.859 38.2631V31.7332H118.992V29.5732H120.859V27.2012L123.651 26.348V29.5732H126.784V31.7359Z" fill="white"/>
<path d="M140.922 35.9465C140.922 37.9378 140.359 39.5726 139.236 40.8511C138.059 42.1673 136.496 42.8234 134.548 42.8234C132.671 42.8234 131.176 42.193 130.062 40.9321C128.947 39.6712 128.39 38.0795 128.39 36.1612C128.39 34.1537 128.963 32.5094 130.114 31.231C131.262 29.9512 132.811 29.3113 134.759 29.3113C136.636 29.3113 138.147 29.9417 139.287 31.204C140.378 32.4284 140.922 34.0093 140.922 35.9465ZM137.972 36.0397C137.972 34.8449 137.72 33.8203 137.21 32.9657C136.614 31.9316 135.762 31.4159 134.658 31.4159C133.515 31.4159 132.647 31.933 132.051 32.9657C131.54 33.8216 131.288 34.8625 131.288 36.0937C131.288 37.2884 131.54 38.3131 132.051 39.1663C132.666 40.2004 133.524 40.7161 134.632 40.7161C135.718 40.7161 136.57 40.1896 137.184 39.1393C137.708 38.2685 137.972 37.2331 137.972 36.0397Z" fill="white"/>
<path d="M150.162 32.107C149.88 32.0544 149.58 32.0274 149.266 32.0274C148.266 32.0274 147.492 32.4094 146.948 33.1749C146.475 33.8499 146.238 34.7031 146.238 35.7331V42.5304H143.396L143.423 33.6555C143.423 32.1624 143.387 30.8029 143.316 29.5771H145.792L145.896 32.0557H145.975C146.275 31.2039 146.748 30.5181 147.396 30.0037C148.03 29.5407 148.714 29.3098 149.451 29.3098C149.714 29.3098 149.951 29.3287 150.162 29.3625V32.107Z" fill="white"/>
<path d="M162.875 35.4403C162.875 35.956 162.841 36.3907 162.771 36.7457H154.243C154.276 38.0255 154.688 39.0043 155.48 39.6793C156.199 40.2827 157.128 40.5851 158.269 40.5851C159.532 40.5851 160.684 40.3813 161.72 39.9722L162.165 41.9702C160.955 42.5048 159.525 42.7708 157.876 42.7708C155.892 42.7708 154.335 42.1795 153.201 40.9982C152.071 39.817 151.504 38.2307 151.504 36.2408C151.504 34.2874 152.031 32.6606 153.085 31.3633C154.189 29.9782 155.681 29.2856 157.559 29.2856C159.403 29.2856 160.799 29.9782 161.747 31.3633C162.497 32.4635 162.875 33.8243 162.875 35.4403ZM160.164 34.6937C160.183 33.8405 159.997 33.1034 159.612 32.4811C159.12 31.6805 158.364 31.2809 157.347 31.2809C156.417 31.2809 155.661 31.6711 155.084 32.4541C154.611 33.0764 154.329 33.823 154.243 34.6924H160.164V34.6937Z" fill="white"/>
<path d="M65.3997 13.5124C65.3997 15.1013 64.929 16.2974 63.989 17.1007C63.1184 17.8418 61.881 18.2131 60.2784 18.2131C59.4837 18.2131 58.8037 18.178 58.2344 18.1078V9.42591C58.977 9.30441 59.777 9.24231 60.641 9.24231C62.1677 9.24231 63.3184 9.57846 64.0944 10.2508C64.9637 11.0108 65.3997 12.0976 65.3997 13.5124ZM63.9264 13.5515C63.9264 12.5215 63.657 11.7317 63.1184 11.1809C62.5797 10.6315 61.793 10.3561 60.757 10.3561C60.317 10.3561 59.9424 10.3858 59.6317 10.4479V17.048C59.8037 17.075 60.1184 17.0872 60.5757 17.0872C61.645 17.0872 62.4704 16.7861 63.0517 16.184C63.633 15.5819 63.9264 14.7044 63.9264 13.5515Z" fill="white"/>
<path d="M73.2117 14.9001C73.2117 15.8789 72.9357 16.6808 72.3837 17.3099C71.805 17.9565 71.0383 18.2792 70.081 18.2792C69.1583 18.2792 68.4237 17.97 67.8757 17.349C67.329 16.7294 67.0557 15.9477 67.0557 15.0054C67.0557 14.0199 67.337 13.2113 67.9023 12.5835C68.4677 11.9558 69.2277 11.6412 70.185 11.6412C71.1077 11.6412 71.849 11.9504 72.4103 12.57C72.9437 13.1721 73.2117 13.9497 73.2117 14.9001ZM71.7623 14.946C71.7623 14.3588 71.637 13.8552 71.3877 13.4354C71.0943 12.9278 70.677 12.674 70.1343 12.674C69.573 12.674 69.1463 12.9278 68.853 13.4354C68.6023 13.8552 68.4783 14.3669 68.4783 14.9717C68.4783 15.5589 68.6037 16.0625 68.853 16.4823C69.1557 16.9899 69.577 17.2437 70.121 17.2437C70.6543 17.2437 71.073 16.9859 71.3743 16.4688C71.633 16.0409 71.7623 15.5333 71.7623 14.946Z" fill="white"/>
<path d="M83.6862 11.7708L81.7196 18.1347H80.4396L79.6249 15.3712C79.4183 14.6814 79.2502 13.9956 79.1196 13.3152H79.0942C78.9729 14.0145 78.8049 14.6989 78.5889 15.3712L77.7236 18.1347H76.4289L74.5796 11.7708H76.0156L76.7262 14.7961C76.8982 15.5116 77.0396 16.1934 77.1529 16.8387H77.1782C77.2822 16.3068 77.4542 15.6291 77.6969 14.8096L78.5889 11.7721H79.7276L80.5822 14.7448C80.7889 15.4698 80.9569 16.1677 81.0862 16.84H81.1249C81.2196 16.1853 81.3622 15.4873 81.5516 14.7448L82.3142 11.7721H83.6862V11.7708Z" fill="white"/>
<path d="M90.9302 18.1346H89.5329V14.4896C89.5329 13.3664 89.1116 12.8048 88.2662 12.8048C87.8516 12.8048 87.5169 12.9587 87.2569 13.2679C86.9996 13.577 86.8689 13.9415 86.8689 14.3587V18.1333H85.4716V13.5892C85.4716 13.0303 85.4542 12.4241 85.4209 11.768H86.6489L86.7142 12.763H86.7529C86.9156 12.4538 87.1582 12.1987 87.4769 11.9948C87.8556 11.7572 88.2796 11.6371 88.7436 11.6371C89.3302 11.6371 89.8182 11.8288 90.2062 12.2135C90.6889 12.6847 90.9302 13.388 90.9302 14.3222V18.1346Z" fill="white"/>
<path d="M94.7842 18.1347H93.3882V8.85071H94.7842V18.1347Z" fill="white"/>
<path d="M103.011 14.9001C103.011 15.8789 102.735 16.6808 102.183 17.3099C101.604 17.9565 100.836 18.2792 99.8798 18.2792C98.9558 18.2792 98.2212 17.97 97.6745 17.349C97.1278 16.7294 96.8545 15.9477 96.8545 15.0054C96.8545 14.0199 97.1358 13.2113 97.7012 12.5835C98.2665 11.9558 99.0265 11.6412 99.9825 11.6412C100.907 11.6412 101.647 11.9504 102.209 12.57C102.743 13.1721 103.011 13.9497 103.011 14.9001ZM101.56 14.946C101.56 14.3588 101.435 13.8552 101.185 13.4354C100.893 12.9278 100.474 12.674 99.9332 12.674C99.3705 12.674 98.9438 12.9278 98.6518 13.4354C98.4012 13.8552 98.2772 14.3669 98.2772 14.9717C98.2772 15.5589 98.4025 16.0625 98.6518 16.4823C98.9545 16.9899 99.3758 17.2437 99.9198 17.2437C100.453 17.2437 100.871 16.9859 101.172 16.4688C101.432 16.0409 101.56 15.5333 101.56 14.946Z" fill="white"/>
<path d="M109.773 18.1347H108.519L108.415 17.4017H108.376C107.947 17.9862 107.335 18.2792 106.54 18.2792C105.947 18.2792 105.467 18.0861 105.105 17.7027C104.777 17.3544 104.613 16.9211 104.613 16.4067C104.613 15.6291 104.933 15.0365 105.577 14.6261C106.22 14.2157 107.124 14.0145 108.288 14.024V13.9052C108.288 13.0668 107.853 12.6483 106.983 12.6483C106.363 12.6483 105.816 12.8063 105.344 13.1195L105.06 12.1907C105.644 11.8248 106.365 11.6412 107.216 11.6412C108.859 11.6412 109.683 12.5187 109.683 14.2737V16.6173C109.683 17.2532 109.713 17.7594 109.773 18.1347ZM108.323 15.9477V14.9663C106.781 14.9393 106.011 15.3672 106.011 16.2488C106.011 16.5809 106.099 16.8293 106.279 16.9953C106.459 17.1614 106.688 17.2437 106.961 17.2437C107.268 17.2437 107.555 17.1452 107.816 16.9494C108.079 16.7523 108.24 16.5026 108.3 16.1961C108.315 16.1273 108.323 16.0436 108.323 15.9477Z" fill="white"/>
<path d="M117.713 18.1347H116.473L116.408 17.1127H116.369C115.973 17.8903 115.298 18.2791 114.35 18.2791C113.593 18.2791 112.962 17.9781 112.462 17.376C111.962 16.7739 111.713 15.9922 111.713 15.0324C111.713 14.0023 111.984 13.168 112.528 12.5308C113.054 11.9368 113.7 11.6398 114.468 11.6398C115.312 11.6398 115.902 11.9274 116.238 12.5038H116.265V8.85071H117.664V16.4202C117.664 17.0398 117.68 17.6109 117.713 18.1347ZM116.265 15.4509V14.3898C116.265 14.2062 116.252 14.0577 116.226 13.9443C116.148 13.6041 115.978 13.3179 115.721 13.087C115.461 12.8562 115.148 12.7401 114.786 12.7401C114.265 12.7401 113.857 12.9493 113.557 13.3692C113.26 13.789 113.109 14.325 113.109 14.9797C113.109 15.6088 113.252 16.1191 113.538 16.512C113.841 16.9305 114.249 17.1397 114.76 17.1397C115.218 17.1397 115.585 16.9656 115.864 16.6159C116.133 16.2933 116.265 15.9045 116.265 15.4509Z" fill="white"/>
<path d="M129.664 14.9001C129.664 15.8789 129.388 16.6808 128.836 17.3099C128.257 17.9565 127.492 18.2792 126.533 18.2792C125.612 18.2792 124.877 17.97 124.328 17.349C123.781 16.7294 123.508 15.9477 123.508 15.0054C123.508 14.0199 123.789 13.2113 124.354 12.5835C124.92 11.9558 125.68 11.6412 126.638 11.6412C127.56 11.6412 128.302 11.9504 128.863 12.57C129.396 13.1721 129.664 13.9497 129.664 14.9001ZM128.216 14.946C128.216 14.3588 128.09 13.8552 127.841 13.4354C127.546 12.9278 127.13 12.674 126.586 12.674C126.026 12.674 125.6 12.9278 125.305 13.4354C125.054 13.8552 124.93 14.3669 124.93 14.9717C124.93 15.5589 125.056 16.0625 125.305 16.4823C125.608 16.9899 126.029 17.2437 126.573 17.2437C127.106 17.2437 127.526 16.9859 127.828 16.4688C128.085 16.0409 128.216 15.5333 128.216 14.946Z" fill="white"/>
<path d="M137.177 18.1346H135.781V14.4896C135.781 13.3664 135.36 12.8048 134.513 12.8048C134.098 12.8048 133.764 12.9587 133.505 13.2679C133.246 13.577 133.117 13.9415 133.117 14.3587V18.1333H131.718V13.5892C131.718 13.0303 131.702 12.4241 131.669 11.768H132.896L132.961 12.763H133C133.164 12.4538 133.406 12.1987 133.724 11.9948C134.104 11.7572 134.526 11.6371 134.992 11.6371C135.577 11.6371 136.065 11.8288 136.453 12.2135C136.937 12.6847 137.177 13.388 137.177 14.3222V18.1346Z" fill="white"/>
<path d="M146.581 12.8306H145.043V15.9221C145.043 16.7078 145.316 17.1006 145.857 17.1006C146.108 17.1006 146.316 17.079 146.48 17.0345L146.516 18.1077C146.24 18.213 145.877 18.2657 145.431 18.2657C144.879 18.2657 144.449 18.0956 144.139 17.7554C143.827 17.4152 143.672 16.8428 143.672 16.0395V12.8306H142.753V11.7708H143.672V10.6044L145.041 10.1859V11.7695H146.58V12.8306H146.581Z" fill="white"/>
<path d="M153.978 18.1347H152.58V14.5167C152.58 13.3759 152.158 12.8049 151.314 12.8049C150.666 12.8049 150.224 13.1356 149.981 13.7971C149.94 13.9362 149.916 14.1063 149.916 14.3061V18.1333H148.52V8.85071H149.916V12.6861H149.942C150.382 11.9881 151.013 11.6398 151.83 11.6398C152.409 11.6398 152.888 11.8315 153.268 12.2163C153.741 12.6955 153.978 13.4083 153.978 14.3506V18.1347Z" fill="white"/>
<path d="M161.609 14.6517C161.609 14.9055 161.59 15.1188 161.557 15.2929H157.366C157.385 15.922 157.585 16.4013 157.973 16.7334C158.328 17.0304 158.785 17.1789 159.345 17.1789C159.965 17.1789 160.53 17.079 161.04 16.8778L161.258 17.8606C160.662 18.1225 159.961 18.2535 159.149 18.2535C158.176 18.2535 157.409 17.9632 156.854 17.3827C156.297 16.8022 156.021 16.0233 156.021 15.0459C156.021 14.086 156.278 13.2868 156.797 12.6496C157.338 11.9692 158.07 11.629 158.994 11.629C159.898 11.629 160.585 11.9692 161.049 12.6496C161.424 13.1896 161.609 13.8579 161.609 14.6517ZM160.276 14.2858C160.286 13.866 160.194 13.5042 160.005 13.1991C159.762 12.8062 159.393 12.6091 158.893 12.6091C158.437 12.6091 158.065 12.8008 157.781 13.1856C157.549 13.492 157.412 13.8579 157.366 14.2858H160.276Z" fill="white"/>
</svg>
