<svg width="38" height="38" viewBox="0 0 38 38" fill="none" xmlns="http://www.w3.org/2000/svg">
<path d="M37.39 14.1471V14.1237C37.3855 14.0876 37.3763 14.0522 37.3627 14.0184C37.298 13.8163 37.1942 13.629 37.057 13.467C36.9199 13.3051 36.7521 13.1718 36.5634 13.0747C36.3747 12.9776 36.1686 12.9187 35.9571 12.9013C35.7456 12.8839 35.5327 12.9084 35.3307 12.9733L35.2702 12.9928H35.2585L35.0635 13.0825C34.8081 13.2209 34.5949 13.4256 34.4463 13.6751C34.2976 13.9246 34.2192 14.2096 34.2191 14.5001C34.2187 14.6316 34.2351 14.7626 34.2679 14.89C34.2693 14.904 34.2725 14.9178 34.2776 14.931C35.1648 18.2776 34.9246 21.8233 33.5943 25.0199C32.264 28.2164 29.9176 30.8858 26.9178 32.6153C23.9181 34.3448 20.432 35.0382 16.9986 34.5882C13.5652 34.1382 10.3757 32.5699 7.92313 30.1258C5.47055 27.6817 3.89151 24.4978 3.43012 21.0665C2.96873 17.6351 3.6507 14.1473 5.37058 11.1423C7.09047 8.13735 9.75249 5.78251 12.9451 4.44185C16.1377 3.10119 19.6831 2.84938 23.0332 3.72536L23.1775 3.76436C23.5141 3.83158 23.8633 3.78997 24.1747 3.64555C24.486 3.50112 24.7433 3.26138 24.9093 2.96103C24.9366 2.89474 24.9639 2.83039 24.9951 2.76605V2.7524L25.0185 2.68806C25.0674 2.53019 25.0924 2.36588 25.0926 2.2006C25.0924 1.86669 24.9889 1.54102 24.7961 1.26834C24.6033 0.995665 24.3309 0.789365 24.0161 0.677794L23.9478 0.658295L23.8484 0.630998L23.7723 0.61345C19.7343 -0.435189 15.4634 -0.125694 11.6189 1.49416C7.7743 3.11401 4.56994 5.95413 2.50044 9.57607C0.430952 13.198 -0.38858 17.4004 0.168366 21.5343C0.725312 25.6683 2.62777 29.5041 5.58202 32.4494C8.53628 35.3947 12.3781 37.2859 16.5143 37.8309C20.6505 38.3758 24.8511 37.5444 28.4676 35.4648C32.0842 33.3852 34.9155 30.1732 36.5246 26.3246C38.1336 22.476 38.4309 18.2049 37.3705 14.1705L37.39 14.1471Z" fill="white"/>
<path d="M31.9975 10.4842C34.4768 10.4842 36.4866 8.4746 36.4866 5.99568C36.4866 3.51676 34.4768 1.5072 31.9975 1.5072C29.5182 1.5072 27.5083 3.51676 27.5083 5.99568C27.5083 8.4746 29.5182 10.4842 31.9975 10.4842Z" fill="white"/>
</svg>
