<svg width="36" height="41" viewBox="0 0 36 41" fill="none" xmlns="http://www.w3.org/2000/svg">
<g filter="url(#filter0_bd_558:1465)">
<path d="M17.5595 10C17.6928 10.1096 17.8434 10.2044 17.9573 10.3326C18.3815 10.8087 18.7938 11.2963 19.2099 11.7795C19.2531 11.8294 19.2919 11.8825 19.3367 11.9395C17.8796 12.3866 17.2908 14.0029 18.1386 15.3271C17.3232 16.3478 16.5152 17.3965 15.6658 18.4068C15.2626 18.8867 14.7294 19.2242 14.1547 19.4735C13.8271 19.6149 13.6317 19.5722 13.3991 19.3048C12.6716 18.4629 11.9437 17.62 11.2155 16.7763C10.8744 16.3791 10.9349 16.0224 11.3882 15.7808C12.1729 15.3616 12.7914 14.7491 13.3284 14.0483C13.8843 13.3268 14.411 12.5833 14.969 11.8628C15.587 11.0722 16.3112 10.4109 17.2519 10.0301C17.2627 10.0258 17.2686 10.0104 17.2767 10H17.5595Z" fill="white"/>
<path d="M19.3408 23.0545C19.2992 24.0407 19.2636 25.0017 19.2134 25.9633C19.2049 26.1599 19.165 26.3538 19.0952 26.5375C18.5809 27.8277 18.0563 29.1125 17.5301 30.4001C17.3714 30.788 17.0519 31.0027 16.6709 30.9973C16.4915 30.9933 16.3172 30.935 16.1706 30.8299C16.024 30.7248 15.9116 30.5776 15.8479 30.4072C15.7513 30.1557 15.781 29.9141 15.8803 29.6714C16.366 28.4858 16.8463 27.3007 17.3207 26.1101C17.386 25.9471 17.4225 25.7737 17.4286 25.5978C17.4697 24.0336 17.4999 22.4688 17.5333 20.9041C17.5333 20.8581 17.5387 20.812 17.5425 20.749C18.1615 21.121 18.7655 21.4837 19.3699 21.8448C19.63 22.0015 19.8912 22.1571 20.1514 22.3138C20.7504 22.6743 21.0262 22.6847 21.6582 22.3615C21.6672 22.3917 21.6723 22.423 21.6733 22.4546C21.6269 22.8748 21.7456 23.26 21.8956 23.6457C22.1007 24.1722 22.3177 24.6977 22.4661 25.2417C22.5967 25.7184 22.6512 26.218 22.7203 26.71C22.8681 27.7719 23.0025 28.8353 23.145 29.8977C23.2195 30.451 22.9011 30.9113 22.3851 30.988C21.8881 31.0619 21.4423 30.7085 21.3657 30.1661C21.248 29.3279 21.1412 28.4879 21.03 27.6486C20.9587 27.1138 20.9166 26.5731 20.806 26.0471C20.7202 25.6367 20.554 25.2428 20.4147 24.845C20.2323 24.3245 20.0299 23.8106 19.8589 23.2863C19.7936 23.0858 19.697 23.0096 19.4989 23.0458C19.4464 23.0517 19.3936 23.0546 19.3408 23.0545V23.0545Z" fill="white"/>
<path d="M21.6857 19.0949V20.4515C21.6193 20.4186 21.5729 20.3967 21.5297 20.3731C21.003 20.0581 20.4822 19.7315 19.9462 19.4319C19.752 19.3223 19.6796 19.2006 19.7082 18.9815C19.7232 18.8102 19.7189 18.6378 19.6953 18.4676C19.5933 18.8451 19.4918 19.2231 19.385 19.6181C19.6854 19.8008 19.9851 19.9818 20.2841 20.1611C20.6079 20.3556 20.9344 20.5446 21.2555 20.744C21.649 20.9862 21.7704 21.413 21.5545 21.7785C21.3386 22.1439 20.9107 22.2332 20.5156 21.9976C19.7565 21.5443 18.9982 21.0894 18.2408 20.6328C17.8787 20.4137 17.7621 20.1255 17.8695 19.7135C18.0088 19.1804 18.1512 18.6484 18.2543 18.0972L17.5554 19.3891C17.5457 19.2872 17.5371 19.2368 17.5371 19.1864C17.5371 18.6056 17.5338 18.0249 17.5371 17.4447C17.5414 16.7006 17.9931 16.2393 18.7212 16.2393C19.3202 16.2393 19.9187 16.2355 20.5178 16.2393C21.1805 16.2437 21.6133 16.6552 21.6808 17.3258C21.6853 17.3592 21.6969 17.3912 21.7148 17.4195C21.7327 17.4479 21.7564 17.472 21.7844 17.4901C21.8173 17.5071 21.9042 17.4578 21.9415 17.4156C22.1654 17.1609 22.3819 16.8995 22.6155 16.6228C22.3219 16.2853 22.0402 15.9396 21.7337 15.6185C21.5777 15.4542 21.5362 15.3298 21.6894 15.143C21.7769 15.0334 21.8217 14.8926 21.901 14.7354C22.2939 15.1852 22.6781 15.6251 23.0753 16.0788C23.1568 15.9834 23.2281 15.8952 23.3047 15.8114C23.365 15.7377 23.4389 15.6767 23.5224 15.6319C23.6058 15.5872 23.6971 15.5596 23.7911 15.5507C23.8851 15.5418 23.9798 15.5518 24.07 15.5801C24.1602 15.6083 24.244 15.6544 24.3166 15.7155C24.3893 15.7767 24.4493 15.8518 24.4934 15.9365C24.5375 16.0212 24.5647 16.1139 24.5734 16.2093C24.5822 16.3047 24.5724 16.4009 24.5445 16.4925C24.5167 16.584 24.4713 16.6691 24.4111 16.7428C24.2983 16.894 24.1715 17.0348 24.043 17.1899L24.8099 18.0725C24.8412 18.1087 24.8747 18.1427 24.9038 18.1821C25.0398 18.3563 25.0328 18.5656 24.8882 18.6971C24.7435 18.8286 24.5347 18.8155 24.3857 18.6506C24.1666 18.4095 23.954 18.1608 23.7419 17.9153C23.6933 17.8605 23.6431 17.8057 23.58 17.7361C23.2907 18.0764 23.01 18.4046 22.731 18.7344C22.3619 19.1634 22.2297 19.2116 21.6857 19.0949Z" fill="white"/>
<path d="M19.8546 12.4036C20.284 12.4006 20.697 12.5708 21.0028 12.8769C21.3085 13.183 21.482 13.5998 21.485 14.0358C21.488 14.4717 21.3203 14.891 21.0188 15.2014C20.7173 15.5118 20.3067 15.6879 19.8773 15.6909C19.6646 15.6924 19.4538 15.6514 19.2568 15.5702C19.0598 15.489 18.8805 15.3692 18.7291 15.2177C18.4233 14.9116 18.2499 14.4947 18.2469 14.0588C18.2439 13.6228 18.4116 13.2036 18.7131 12.8932C19.0146 12.5828 19.4252 12.4067 19.8546 12.4036V12.4036Z" fill="white"/>
</g>
<defs>
<filter id="filter0_bd_558:1465" x="0.997559" y="0" width="34.0039" height="40.9977" filterUnits="userSpaceOnUse" color-interpolation-filters="sRGB">
<feFlood flood-opacity="0" result="BackgroundImageFix"/>
<feGaussianBlur in="BackgroundImage" stdDeviation="4"/>
<feComposite in2="SourceAlpha" operator="in" result="effect1_backgroundBlur_558:1465"/>
<feColorMatrix in="SourceAlpha" type="matrix" values="0 0 0 0 0 0 0 0 0 0 0 0 0 0 0 0 0 0 127 0" result="hardAlpha"/>
<feOffset/>
<feGaussianBlur stdDeviation="5"/>
<feComposite in2="hardAlpha" operator="out"/>
<feColorMatrix type="matrix" values="0 0 0 0 1 0 0 0 0 1 0 0 0 0 1 0 0 0 0.75 0"/>
<feBlend mode="normal" in2="effect1_backgroundBlur_558:1465" result="effect2_dropShadow_558:1465"/>
<feBlend mode="normal" in="SourceGraphic" in2="effect2_dropShadow_558:1465" result="shape"/>
</filter>
</defs>
</svg>
