<svg width="20" height="20" viewBox="0 0 20 20" fill="none" xmlns="http://www.w3.org/2000/svg">
<path fill-rule="evenodd" clip-rule="evenodd" d="M6.77441 12.5641C6.77441 12.2101 7.06326 11.9231 7.41958 11.9231H10.8605C11.2167 11.9231 11.5056 12.2101 11.5056 12.5641C11.5056 12.9182 11.2167 13.2052 10.8605 13.2052H7.41958C7.06326 13.2052 6.77441 12.9182 6.77441 12.5641Z" fill="white"/>
<path fill-rule="evenodd" clip-rule="evenodd" d="M9.13931 14.9145C8.78306 14.9145 8.49414 14.6275 8.49414 14.2735V10.8546C8.49414 10.5006 8.78306 10.2136 9.13931 10.2136C9.49564 10.2136 9.78447 10.5006 9.78447 10.8546V14.2735C9.78447 14.6275 9.49564 14.9145 9.13931 14.9145Z" fill="white"/>
<path fill-rule="evenodd" clip-rule="evenodd" d="M9.99967 2.94868C8.72892 2.94868 7.02262 3.08814 5.82919 3.20388C5.33398 3.2519 4.94752 3.64421 4.90918 4.14157C4.79051 5.68124 4.62333 8.17731 4.62333 9.99996C4.62333 11.8226 4.79051 14.3187 4.90918 15.8584C4.94752 16.3557 5.33398 16.748 5.82919 16.796C7.02262 16.9118 8.72892 17.0512 9.99967 17.0512C11.2704 17.0512 12.9768 16.9118 14.1702 16.796C14.6653 16.748 15.0518 16.3557 15.0902 15.8584C15.2088 14.3187 15.376 11.8226 15.376 9.99996C15.376 9.41221 15.3586 8.75296 15.3309 8.07688H12.581L12.5803 7.43586V6.79483H15.2672C15.1082 4.76345 13.523 3.14538 11.5051 2.99658V5.72646C11.5051 6.3165 11.9865 6.79483 12.5803 6.79483V7.43586L12.581 8.07688C11.2745 8.07688 10.2148 7.02456 10.2148 5.72646V2.94993C10.1418 2.94911 10.07 2.94868 9.99967 2.94868ZM10.8804 1.68387C10.5756 1.67293 10.2789 1.66663 9.99967 1.66663C8.66092 1.66663 6.90043 1.81185 5.70386 1.92788C4.58058 2.03682 3.70847 2.93 3.62262 4.04367C3.50391 5.58388 3.33301 8.1234 3.33301 9.99996C3.33301 11.8765 3.50391 14.416 3.62262 15.9562C3.70847 17.07 4.58058 17.9631 5.70386 18.072C6.90043 18.188 8.66092 18.3333 9.99967 18.3333C11.3384 18.3333 13.0989 18.188 14.2955 18.072C15.4188 17.9631 16.2909 17.07 16.3768 15.9562C16.4954 14.416 16.6663 11.8765 16.6663 9.99996C16.6663 9.20988 16.6361 8.30463 16.5925 7.40846C16.5923 7.4057 16.5922 7.40295 16.5921 7.40021C16.5827 7.20741 16.5727 7.01506 16.5622 6.82438C16.412 4.09162 14.2645 1.85615 11.4853 1.71078C11.2844 1.70027 11.0844 1.69124 10.8879 1.68414" fill="white"/>
</svg>
