<svg width="236" height="39" viewBox="0 0 236 39" fill="none" xmlns="http://www.w3.org/2000/svg">
<rect x="0.90625" y="0.90625" width="233.812" height="36.25" rx="18.125" fill="black" fill-opacity="0.4" stroke="white" stroke-width="1.8125"/>
<rect x="0.453125" y="0.453125" width="87" height="37.1562" rx="18.5781" fill="white" stroke="white" stroke-width="0.90625"/>
<path d="M37.2005 23.4393V25.1562H29.2708V12.3856H31.2532V23.4393H37.2005ZM38.7316 25.1562V15.8459H40.6432V25.1562H38.7316ZM40.475 14.1644C40.2567 14.3768 39.9942 14.483 39.6874 14.483C39.3806 14.483 39.118 14.3768 38.8997 14.1644C38.6873 13.952 38.5811 13.6954 38.5811 13.3945C38.5811 13.0877 38.6873 12.8281 38.8997 12.6157C39.118 12.4033 39.3806 12.2971 39.6874 12.2971C40.0001 12.2971 40.2626 12.4033 40.475 12.6157C40.6933 12.8281 40.8025 13.0877 40.8025 13.3945C40.8025 13.6954 40.6933 13.952 40.475 14.1644ZM50.5464 15.8459L47.21 25.1562H45.1567L41.8026 15.8459H43.8381L46.1745 23.2889H46.2099L48.5463 15.8459H50.5464ZM56.892 17.8903C56.4731 17.4419 55.9332 17.2177 55.2724 17.2177C54.6116 17.2177 54.0629 17.4449 53.6263 17.8992C53.1897 18.3476 52.9478 18.9287 52.9006 19.6426H57.5557C57.5321 18.9228 57.3109 18.3387 56.892 17.8903ZM57.5469 22.4216H59.3611C59.2254 23.2771 58.7888 23.9762 58.0513 24.519C57.3138 25.0618 56.4141 25.3333 55.3521 25.3333C53.9891 25.3333 52.9153 24.9055 52.1306 24.05C51.3518 23.1886 50.9624 22.0204 50.9624 20.5453C50.9624 19.0821 51.3518 17.9051 52.1306 17.0142C52.9153 16.1233 53.9626 15.6778 55.2724 15.6778C56.5586 15.6778 57.5793 16.0997 58.3345 16.9434C59.0897 17.7812 59.4673 18.9081 59.4673 20.3241V20.979H52.8917V21.0941C52.8917 21.9083 53.1189 22.5602 53.5732 23.0499C54.0275 23.5396 54.6352 23.7845 55.3963 23.7845C55.9332 23.7845 56.3934 23.6606 56.7769 23.4128C57.1604 23.165 57.4171 22.8346 57.5469 22.4216Z" fill="#646464"/>
<path d="M125.047 25.1562H123.064V12.3856H131.038V14.0936H125.047V18.1381H130.534V19.8108H125.047V25.1562ZM132.596 25.1562V15.8459H134.507V25.1562H132.596ZM134.339 14.1644C134.121 14.3768 133.858 14.483 133.552 14.483C133.245 14.483 132.982 14.3768 132.764 14.1644C132.551 13.952 132.445 13.6954 132.445 13.3945C132.445 13.0877 132.551 12.8281 132.764 12.6157C132.982 12.4033 133.245 12.2971 133.552 12.2971C133.864 12.2971 134.127 12.4033 134.339 12.6157C134.557 12.8281 134.667 13.0877 134.667 13.3945C134.667 13.6954 134.557 13.952 134.339 14.1644ZM136.463 25.1562V15.8459H138.286V17.4036H138.331C138.59 16.8608 138.968 16.4389 139.463 16.138C139.959 15.8371 140.558 15.6866 141.26 15.6866C142.281 15.6866 143.074 15.9934 143.641 16.6071C144.207 17.2148 144.49 18.0555 144.49 19.1293V25.1562H142.57V19.501C142.57 18.793 142.402 18.2561 142.065 17.8903C141.735 17.5186 141.242 17.3328 140.587 17.3328C139.915 17.3328 139.378 17.5511 138.977 17.9877C138.575 18.4243 138.375 19.0054 138.375 19.7311V25.1562H136.463ZM146.402 25.1562V15.8459H148.313V25.1562H146.402ZM148.145 14.1644C147.927 14.3768 147.664 14.483 147.358 14.483C147.051 14.483 146.788 14.3768 146.57 14.1644C146.358 13.952 146.251 13.6954 146.251 13.3945C146.251 13.0877 146.358 12.8281 146.57 12.6157C146.788 12.4033 147.051 12.2971 147.358 12.2971C147.67 12.2971 147.933 12.4033 148.145 12.6157C148.364 12.8281 148.473 13.0877 148.473 13.3945C148.473 13.6954 148.364 13.952 148.145 14.1644ZM150.101 18.4833C150.101 17.6514 150.438 16.9758 151.11 16.4566C151.783 15.9374 152.662 15.6778 153.747 15.6778C154.78 15.6778 155.627 15.9403 156.287 16.4655C156.954 16.9847 157.302 17.6602 157.332 18.4921H155.535C155.488 18.0673 155.302 17.734 154.978 17.4921C154.653 17.2502 154.225 17.1292 153.694 17.1292C153.175 17.1292 152.756 17.2443 152.438 17.4744C152.125 17.7045 151.969 18.0024 151.969 18.3682C151.969 18.9346 152.444 19.3358 153.393 19.5718L154.96 19.9347C155.898 20.1589 156.562 20.4657 156.951 20.8551C157.346 21.2386 157.544 21.7755 157.544 22.4658C157.544 23.3154 157.184 24.0057 156.464 24.5367C155.751 25.0677 154.821 25.3333 153.677 25.3333C152.585 25.3333 151.694 25.0736 151.004 24.5544C150.319 24.0352 149.939 23.3449 149.862 22.4835H151.756C151.833 22.9319 152.042 23.2771 152.385 23.519C152.727 23.755 153.187 23.873 153.765 23.873C154.337 23.873 154.789 23.7638 155.119 23.5455C155.456 23.3213 155.624 23.0204 155.624 22.6428C155.624 22.3419 155.523 22.103 155.323 21.926C155.122 21.749 154.78 21.5985 154.296 21.4746L152.632 21.0675C150.945 20.6604 150.101 19.799 150.101 18.4833ZM159.102 25.1562V12.3856H160.996V17.4036H161.04C161.3 16.8549 161.68 16.433 162.182 16.138C162.683 15.8371 163.285 15.6866 163.987 15.6866C165.002 15.6866 165.798 15.9993 166.377 16.6248C166.961 17.2502 167.253 18.0939 167.253 19.1559V25.1562H165.332V19.5276C165.332 18.8314 165.158 18.2915 164.81 17.908C164.468 17.5245 163.963 17.3328 163.297 17.3328C162.595 17.3328 162.037 17.557 161.624 18.0054C161.217 18.4479 161.013 19.0379 161.013 19.7754V25.1562H159.102ZM174.616 17.8903C174.197 17.4419 173.657 17.2177 172.996 17.2177C172.336 17.2177 171.787 17.4449 171.35 17.8992C170.914 18.3476 170.672 18.9287 170.625 19.6426H175.28C175.256 18.9228 175.035 18.3387 174.616 17.8903ZM175.271 22.4216H177.085C176.949 23.2771 176.513 23.9762 175.775 24.519C175.038 25.0618 174.138 25.3333 173.076 25.3333C171.713 25.3333 170.639 24.9055 169.855 24.05C169.076 23.1886 168.686 22.0204 168.686 20.5453C168.686 19.0821 169.076 17.9051 169.855 17.0142C170.639 16.1233 171.687 15.6778 172.996 15.6778C174.283 15.6778 175.303 16.0997 176.059 16.9434C176.814 17.7812 177.191 18.9081 177.191 20.3241V20.979H170.616V21.0941C170.616 21.9083 170.843 22.5602 171.297 23.0499C171.751 23.5396 172.359 23.7845 173.12 23.7845C173.657 23.7845 174.117 23.6606 174.501 23.4128C174.884 23.165 175.141 22.8346 175.271 22.4216ZM182.174 25.3156C180.994 25.3156 180.047 24.8789 179.333 24.0057C178.619 23.1325 178.262 21.9643 178.262 20.5011C178.262 19.0379 178.616 17.8726 179.324 17.0053C180.038 16.1321 180.982 15.6955 182.156 15.6955C182.811 15.6955 183.395 15.8489 183.909 16.1557C184.422 16.4566 184.811 16.8696 185.077 17.3947H185.112V12.3856H187.033V25.1562H185.174V23.5721H185.139C184.861 24.1149 184.463 24.5426 183.944 24.8553C183.431 25.1622 182.841 25.3156 182.174 25.3156ZM182.678 17.3062C181.923 17.3062 181.324 17.5953 180.882 18.1735C180.439 18.7458 180.218 19.5217 180.218 20.5011C180.218 21.4864 180.439 22.2652 180.882 22.8375C181.324 23.4098 181.923 23.696 182.678 23.696C183.416 23.696 184.009 23.4069 184.457 22.8287C184.906 22.2446 185.13 21.4687 185.13 20.5011C185.13 19.5394 184.906 18.7665 184.457 18.1824C184.009 17.5983 183.416 17.3062 182.678 17.3062Z" fill="white"/>
</svg>
