<svg width="280" height="47" viewBox="0 0 280 47" fill="none" xmlns="http://www.w3.org/2000/svg">
<rect x="0.90625" y="0.90625" width="278.188" height="44.25" rx="14.0938" fill="black" fill-opacity="0.4" stroke="#1E1E1E" stroke-width="1.8125"/>
<path d="M19.6738 26.0742H21.832C21.9102 26.7708 22.2585 27.3307 22.877 27.7539C23.4954 28.1771 24.2702 28.3887 25.2012 28.3887C26.0866 28.3887 26.8158 28.1836 27.3887 27.7734C27.9681 27.3633 28.2578 26.8424 28.2578 26.2109C28.2578 25.6641 28.0527 25.2181 27.6426 24.873C27.2324 24.5215 26.5716 24.235 25.6602 24.0137L23.834 23.5742C22.5384 23.2617 21.5814 22.7962 20.9629 22.1777C20.3509 21.5592 20.0449 20.7585 20.0449 19.7754C20.0449 18.5645 20.5202 17.5781 21.4707 16.8164C22.4277 16.0547 23.6615 15.6738 25.1719 15.6738C26.6562 15.6738 27.8672 16.0547 28.8047 16.8164C29.7422 17.5716 30.2272 18.5579 30.2598 19.7754H28.1309C28.0658 19.0788 27.763 18.5286 27.2227 18.125C26.6888 17.7214 25.9954 17.5195 25.1426 17.5195C24.2962 17.5195 23.6061 17.7148 23.0723 18.1055C22.5449 18.4961 22.2812 19.0039 22.2812 19.6289C22.2812 20.1237 22.4798 20.5306 22.877 20.8496C23.2741 21.1621 23.9284 21.4323 24.8398 21.6602L26.3926 22.041C27.8379 22.3796 28.8796 22.8581 29.5176 23.4766C30.1621 24.0885 30.4844 24.9121 30.4844 25.9473C30.4844 27.2624 29.9961 28.3073 29.0195 29.082C28.043 29.8503 26.7181 30.2344 25.0449 30.2344C23.4759 30.2344 22.2031 29.86 21.2266 29.1113C20.2565 28.3561 19.7389 27.3438 19.6738 26.0742ZM38.2773 21.9824C37.8151 21.4876 37.2194 21.2402 36.4902 21.2402C35.7611 21.2402 35.1556 21.4909 34.6738 21.9922C34.1921 22.487 33.9251 23.1283 33.873 23.916H39.0098C38.9837 23.1217 38.7396 22.4772 38.2773 21.9824ZM39 26.9824H41.002C40.8522 27.9264 40.3704 28.6979 39.5566 29.2969C38.7428 29.8958 37.75 30.1953 36.5781 30.1953C35.0742 30.1953 33.8893 29.7233 33.0234 28.7793C32.1641 27.8288 31.7344 26.5397 31.7344 24.9121C31.7344 23.2975 32.1641 21.9987 33.0234 21.0156C33.8893 20.0326 35.0449 19.541 36.4902 19.541C37.9095 19.541 39.0358 20.0065 39.8691 20.9375C40.7025 21.862 41.1191 23.1055 41.1191 24.668V25.3906H33.8633V25.5176C33.8633 26.416 34.1139 27.1354 34.6152 27.6758C35.1165 28.2161 35.7871 28.4863 36.627 28.4863C37.2194 28.4863 37.7272 28.3496 38.1504 28.0762C38.5736 27.8027 38.8568 27.4382 39 26.9824ZM46.3535 28.5059C47.0957 28.5059 47.7174 28.2812 48.2188 27.832C48.7266 27.3763 48.9805 26.8164 48.9805 26.1523V25.3418L46.4512 25.498C45.8197 25.5436 45.3314 25.6999 44.9863 25.9668C44.6478 26.2272 44.4785 26.5788 44.4785 27.0215C44.4785 27.4707 44.6478 27.832 44.9863 28.1055C45.3314 28.3724 45.7871 28.5059 46.3535 28.5059ZM45.7676 30.1758C44.7585 30.1758 43.9349 29.8893 43.2969 29.3164C42.6654 28.7435 42.3496 27.998 42.3496 27.0801C42.3496 26.1816 42.6816 25.4688 43.3457 24.9414C44.0098 24.4076 44.9505 24.1081 46.168 24.043L48.9805 23.877V23.0859C48.9805 22.513 48.7982 22.0671 48.4336 21.748C48.069 21.4225 47.5645 21.2598 46.9199 21.2598C46.321 21.2598 45.8327 21.3932 45.4551 21.6602C45.084 21.9271 44.8496 22.2949 44.752 22.7637H42.7598C42.8184 21.8132 43.2285 21.0384 43.9902 20.4395C44.752 19.8405 45.7546 19.541 46.998 19.541C48.2415 19.541 49.2311 19.847 49.9668 20.459C50.709 21.071 51.0801 21.8913 51.0801 22.9199V30H49.0586V28.3105H49.0098C48.7168 28.877 48.2708 29.3294 47.6719 29.668C47.0794 30.0065 46.4447 30.1758 45.7676 30.1758ZM53.1309 30V19.7266H55.1426V21.4746H55.1914C55.3607 20.8757 55.6634 20.4069 56.0996 20.0684C56.5358 19.7298 57.0566 19.5605 57.6621 19.5605C57.8639 19.5605 58.1048 19.5866 58.3848 19.6387V21.6016C58.196 21.5234 57.8802 21.4844 57.4375 21.4844C56.7604 21.4844 56.2233 21.696 55.8262 22.1191C55.4355 22.5423 55.2402 23.1185 55.2402 23.8477V30H53.1309ZM68.0625 23.2617H66.0508C65.9401 22.6823 65.6732 22.2103 65.25 21.8457C64.8333 21.4811 64.2962 21.2988 63.6387 21.2988C62.8184 21.2988 62.1608 21.6211 61.666 22.2656C61.1777 22.9036 60.9336 23.7695 60.9336 24.8633C60.9336 25.9766 61.1777 26.849 61.666 27.4805C62.1608 28.112 62.8249 28.4277 63.6582 28.4277C64.3027 28.4277 64.8301 28.2617 65.2402 27.9297C65.6569 27.5911 65.9271 27.1224 66.0508 26.5234H68.082C67.9714 27.6237 67.5091 28.5124 66.6953 29.1895C65.888 29.86 64.8691 30.1953 63.6387 30.1953C62.1608 30.1953 60.9824 29.7201 60.1035 28.7695C59.2246 27.8125 58.7852 26.5104 58.7852 24.8633C58.7852 23.2357 59.2246 21.9434 60.1035 20.9863C60.9824 20.0228 62.1543 19.541 63.6191 19.541C64.8952 19.541 65.9303 19.8991 66.7246 20.6152C67.5189 21.3249 67.9648 22.207 68.0625 23.2617ZM69.6543 30V15.9082H71.7441V21.4453H71.793C72.0794 20.8398 72.4993 20.3743 73.0527 20.0488C73.6061 19.7168 74.2702 19.5508 75.0449 19.5508C76.1647 19.5508 77.0436 19.8958 77.6816 20.5859C78.3262 21.276 78.6484 22.207 78.6484 23.3789V30H76.5293V23.7891C76.5293 23.0208 76.3372 22.4251 75.9531 22.002C75.5755 21.5788 75.0189 21.3672 74.2832 21.3672C73.5085 21.3672 72.8932 21.6146 72.4375 22.1094C71.9883 22.5977 71.7637 23.2487 71.7637 24.0625V30H69.6543ZM87.1934 30H85.0059V15.9082H93.8047V17.793H87.1934V22.2559H93.248V24.1016H87.1934V30ZM98.4434 28.5059C99.1855 28.5059 99.8073 28.2812 100.309 27.832C100.816 27.3763 101.07 26.8164 101.07 26.1523V25.3418L98.541 25.498C97.9095 25.5436 97.4212 25.6999 97.0762 25.9668C96.7376 26.2272 96.5684 26.5788 96.5684 27.0215C96.5684 27.4707 96.7376 27.832 97.0762 28.1055C97.4212 28.3724 97.877 28.5059 98.4434 28.5059ZM97.8574 30.1758C96.8483 30.1758 96.0247 29.8893 95.3867 29.3164C94.7552 28.7435 94.4395 27.998 94.4395 27.0801C94.4395 26.1816 94.7715 25.4688 95.4355 24.9414C96.0996 24.4076 97.0404 24.1081 98.2578 24.043L101.07 23.877V23.0859C101.07 22.513 100.888 22.0671 100.523 21.748C100.159 21.4225 99.6543 21.2598 99.0098 21.2598C98.4108 21.2598 97.9225 21.3932 97.5449 21.6602C97.1738 21.9271 96.9395 22.2949 96.8418 22.7637H94.8496C94.9082 21.8132 95.3184 21.0384 96.0801 20.4395C96.8418 19.8405 97.8444 19.541 99.0879 19.541C100.331 19.541 101.321 19.847 102.057 20.459C102.799 21.071 103.17 21.8913 103.17 22.9199V30H101.148V28.3105H101.1C100.807 28.877 100.361 29.3294 99.7617 29.668C99.1693 30.0065 98.5345 30.1758 97.8574 30.1758ZM105.221 30V19.7266H107.232V21.4746H107.281C107.451 20.8757 107.753 20.4069 108.189 20.0684C108.626 19.7298 109.146 19.5605 109.752 19.5605C109.954 19.5605 110.195 19.5866 110.475 19.6387V21.6016C110.286 21.5234 109.97 21.4844 109.527 21.4844C108.85 21.4844 108.313 21.696 107.916 22.1191C107.525 22.5423 107.33 23.1185 107.33 23.8477V30H105.221ZM111.783 30V19.7266H113.795V21.4551H113.844C114.078 20.8757 114.452 20.4134 114.967 20.0684C115.481 19.7233 116.08 19.5508 116.764 19.5508C117.473 19.5508 118.076 19.7266 118.57 20.0781C119.072 20.4297 119.426 20.9245 119.635 21.5625H119.684C119.951 20.9375 120.367 20.446 120.934 20.0879C121.507 19.7298 122.158 19.5508 122.887 19.5508C123.902 19.5508 124.716 19.86 125.328 20.4785C125.94 21.097 126.246 21.9173 126.246 22.9395V30H124.127V23.4473C124.127 22.7832 123.954 22.2689 123.609 21.9043C123.271 21.5397 122.789 21.3574 122.164 21.3574C121.539 21.3574 121.028 21.5658 120.631 21.9824C120.24 22.3991 120.045 22.9329 120.045 23.584V30H117.975V23.291C117.975 22.6986 117.799 22.2298 117.447 21.8848C117.096 21.5332 116.624 21.3574 116.031 21.3574C115.406 21.3574 114.892 21.5755 114.488 22.0117C114.091 22.4414 113.893 22.9883 113.893 23.6523V30H111.783ZM128.102 22.6367C128.102 21.7188 128.473 20.9733 129.215 20.4004C129.957 19.8275 130.927 19.541 132.125 19.541C133.264 19.541 134.199 19.8307 134.928 20.4102C135.663 20.9831 136.048 21.7285 136.08 22.6465H134.098C134.046 22.1777 133.84 21.8099 133.482 21.543C133.124 21.276 132.652 21.1426 132.066 21.1426C131.493 21.1426 131.031 21.2695 130.68 21.5234C130.335 21.7773 130.162 22.1061 130.162 22.5098C130.162 23.1348 130.686 23.5775 131.734 23.8379L133.463 24.2383C134.498 24.4857 135.23 24.8242 135.66 25.2539C136.096 25.6771 136.314 26.2695 136.314 27.0312C136.314 27.9688 135.917 28.7305 135.123 29.3164C134.335 29.9023 133.31 30.1953 132.047 30.1953C130.842 30.1953 129.859 29.9089 129.098 29.3359C128.342 28.763 127.923 28.0013 127.838 27.0508H129.928C130.012 27.5456 130.243 27.9264 130.621 28.1934C130.999 28.4538 131.507 28.584 132.145 28.584C132.776 28.584 133.274 28.4635 133.639 28.2227C134.01 27.9753 134.195 27.6432 134.195 27.2266C134.195 26.8945 134.085 26.6309 133.863 26.4355C133.642 26.2402 133.264 26.0742 132.73 25.9375L130.895 25.4883C129.033 25.0391 128.102 24.0885 128.102 22.6367Z" fill="#E3E3E3"/>
</svg>
