<svg width="188" height="28" viewBox="0 0 188 28" fill="none" xmlns="http://www.w3.org/2000/svg">
<path d="M74.7633 17.5528H77.2082C77.2967 18.342 77.6912 18.9762 78.3919 19.4556C79.0925 19.935 79.9701 20.1747 81.0248 20.1747C82.0278 20.1747 82.8538 19.9424 83.5028 19.4777C84.1592 19.0131 84.4874 18.4231 84.4874 17.7077C84.4874 17.0882 84.2551 16.583 83.7904 16.1921C83.3258 15.7939 82.5772 15.4694 81.5447 15.2186L79.476 14.7208C78.0084 14.3668 76.9242 13.8395 76.2236 13.1388C75.5303 12.4382 75.1837 11.5311 75.1837 10.4174C75.1837 9.04567 75.7221 7.92834 76.7988 7.06546C77.883 6.20258 79.2806 5.77113 80.9916 5.77113C82.6731 5.77113 84.0449 6.20258 85.1069 7.06546C86.1689 7.92097 86.7183 9.03829 86.7552 10.4174H84.3436C84.2698 9.6283 83.9269 9.00511 83.3147 8.54785C82.71 8.0906 81.9245 7.86197 80.9584 7.86197C79.9996 7.86197 79.2179 8.08322 78.6131 8.52573C78.0157 8.96823 77.717 9.54349 77.717 10.2515C77.717 10.812 77.942 11.2729 78.3919 11.6343C78.8417 11.9883 79.5829 12.2944 80.6154 12.5525L82.3744 12.984C84.0117 13.3675 85.1917 13.9095 85.9144 14.6102C86.6446 15.3034 87.0096 16.2364 87.0096 17.409C87.0096 18.8988 86.4565 20.0825 85.3503 20.9601C84.244 21.8304 82.7432 22.2655 80.8478 22.2655C79.0704 22.2655 77.6285 21.8414 76.5223 20.9933C75.4234 20.1378 74.8371 18.991 74.7633 17.5528ZM89.6425 7.60753H92.0431V10.3621H94.2557V12.2538H92.0431V18.6702C92.0431 19.1717 92.1575 19.5404 92.3861 19.7764C92.6147 20.0124 92.9724 20.1304 93.4592 20.1304C93.8132 20.1304 94.075 20.112 94.2446 20.0751V21.9668C93.9496 22.0406 93.5071 22.0774 92.9171 22.0774C91.7444 22.0774 90.9037 21.8377 90.3948 21.3584C89.8933 20.8716 89.6425 20.064 89.6425 18.9357V12.2538H87.95V10.3621H89.6425V7.60753ZM100.119 20.3074C100.96 20.3074 101.664 20.053 102.232 19.5441C102.807 19.0278 103.095 18.3936 103.095 17.6413V16.7231L100.229 16.9001C99.5141 16.9518 98.961 17.1288 98.5701 17.4311C98.1866 17.7261 97.9948 18.1244 97.9948 18.6259C97.9948 19.1348 98.1866 19.5441 98.5701 19.8539C98.961 20.1562 99.4772 20.3074 100.119 20.3074ZM99.4551 22.1991C98.312 22.1991 97.379 21.8746 96.6562 21.2256C95.9409 20.5766 95.5832 19.7322 95.5832 18.6923C95.5832 17.6745 95.9593 16.8669 96.7116 16.2696C97.4638 15.6648 98.5295 15.3256 99.9087 15.2518L103.095 15.0637V14.1677C103.095 13.5187 102.888 13.0135 102.475 12.6521C102.062 12.2833 101.491 12.099 100.76 12.099C100.082 12.099 99.5288 12.2501 99.1011 12.5525C98.6807 12.8549 98.4152 13.2716 98.3046 13.8026H96.0478C96.1142 12.7258 96.5788 11.8482 97.4417 11.1697C98.3046 10.4912 99.4403 10.1519 100.849 10.1519C102.258 10.1519 103.379 10.4986 104.212 11.1918C105.053 11.8851 105.473 12.8143 105.473 13.9796V22H103.183V20.0862H103.128C102.796 20.7278 102.291 21.2404 101.612 21.6239C100.941 22.0074 100.222 22.1991 99.4551 22.1991ZM110.296 15.3514L114.998 10.3621H117.808L112.985 15.3735L117.996 22H115.219L111.27 16.8338L110.274 17.8183V22H107.885V6.03664H110.274V15.3514H110.296ZM125.574 12.9176C125.05 12.3571 124.375 12.0768 123.549 12.0768C122.723 12.0768 122.038 12.3608 121.492 12.9286C120.946 13.4892 120.644 14.2156 120.585 15.108H126.404C126.374 14.2082 126.098 13.4781 125.574 12.9176ZM126.393 18.5816H128.66C128.491 19.651 127.945 20.525 127.023 21.2035C126.101 21.882 124.977 22.2213 123.649 22.2213C121.945 22.2213 120.603 21.6866 119.622 20.6172C118.649 19.5404 118.162 18.0801 118.162 16.2364C118.162 14.4074 118.649 12.936 119.622 11.8224C120.603 10.7088 121.912 10.1519 123.549 10.1519C125.157 10.1519 126.433 10.6793 127.377 11.7339C128.321 12.7811 128.793 14.1898 128.793 15.9598V16.7784H120.574V16.9223C120.574 17.94 120.858 18.755 121.425 19.3671C121.993 19.9792 122.753 20.2853 123.704 20.2853C124.375 20.2853 124.951 20.1304 125.43 19.8207C125.91 19.5109 126.23 19.0979 126.393 18.5816ZM135.021 22.1991C133.546 22.1991 132.363 21.6534 131.47 20.5619C130.578 19.4703 130.132 18.0101 130.132 16.1811C130.132 14.352 130.574 12.8955 131.459 11.8113C132.352 10.7198 133.532 10.1741 134.999 10.1741C135.818 10.1741 136.548 10.3658 137.19 10.7493C137.831 11.1254 138.318 11.6417 138.65 12.2981H138.694V6.03664H141.095V22H138.772V20.0198H138.727C138.381 20.6983 137.883 21.233 137.234 21.6239C136.592 22.0074 135.855 22.1991 135.021 22.1991ZM135.652 12.1875C134.708 12.1875 133.959 12.5488 133.406 13.2716C132.853 13.987 132.577 14.9568 132.577 16.1811C132.577 17.4127 132.853 18.3862 133.406 19.1016C133.959 19.817 134.708 20.1747 135.652 20.1747C136.574 20.1747 137.315 19.8133 137.876 19.0905C138.436 18.3604 138.716 17.3906 138.716 16.1811C138.716 14.9789 138.436 14.0128 137.876 13.2827C137.315 12.5525 136.574 12.1875 135.652 12.1875ZM157.169 20.6061C156.166 21.6829 154.827 22.2213 153.153 22.2213C151.479 22.2213 150.14 21.6829 149.137 20.6061C148.134 19.522 147.633 18.047 147.633 16.1811C147.633 14.3225 148.134 12.8549 149.137 11.7781C150.14 10.694 151.479 10.1519 153.153 10.1519C154.827 10.1519 156.166 10.694 157.169 11.7781C158.172 12.8549 158.673 14.3225 158.673 16.1811C158.673 18.047 158.172 19.522 157.169 20.6061ZM153.153 20.2521C154.104 20.2521 154.857 19.8944 155.41 19.179C155.963 18.4636 156.24 17.4643 156.24 16.1811C156.24 14.9052 155.959 13.9095 155.399 13.1942C154.846 12.4788 154.097 12.1211 153.153 12.1211C152.209 12.1211 151.457 12.4788 150.896 13.1942C150.343 13.9095 150.067 14.9052 150.067 16.1811C150.067 17.4643 150.343 18.4636 150.896 19.179C151.457 19.8944 152.209 20.2521 153.153 20.2521ZM160.521 22V10.3621H162.8V12.3091H162.855C163.179 11.6306 163.651 11.1033 164.271 10.7272C164.891 10.3511 165.639 10.163 166.517 10.163C167.793 10.163 168.785 10.5465 169.493 11.3135C170.201 12.0731 170.555 13.1241 170.555 14.4664V22H168.154V14.931C168.154 14.046 167.944 13.3748 167.523 12.9176C167.11 12.453 166.495 12.2206 165.676 12.2206C164.835 12.2206 164.164 12.4935 163.663 13.0393C163.161 13.585 162.91 14.3115 162.91 15.2186V22H160.521ZM172.955 22V6.03664H175.345V22H172.955ZM178.951 26.3365C178.501 26.3365 178.177 26.3181 177.978 26.2812V24.3453C178.096 24.3748 178.354 24.3895 178.752 24.3895C179.312 24.3895 179.751 24.2605 180.068 24.0023C180.386 23.7516 180.636 23.3275 180.821 22.7301C180.821 22.7228 180.858 22.6011 180.931 22.3651L181.031 22.0111L176.827 10.3621H179.416L182.369 19.8317H182.403L185.356 10.3621H187.879L183.509 22.6084C183.015 24.0171 182.436 24.9906 181.772 25.529C181.108 26.0674 180.168 26.3365 178.951 26.3365Z" fill="white"/>
<rect x="0.90625" y="0.90625" width="52.5625" height="25.375" rx="12.6875" fill="black" fill-opacity="0.4" stroke="white" stroke-width="1.8125"/>
<rect x="0.453125" y="0.453125" width="26.2812" height="26.2812" rx="13.1406" fill="white" stroke="white" stroke-width="0.90625"/>
</svg>
