<svg width="23" height="22" viewBox="0 0 23 22" fill="none" xmlns="http://www.w3.org/2000/svg">
<path fill-rule="evenodd" clip-rule="evenodd" d="M0.894018 0.324926C1.29957 -0.0806396 1.9571 -0.0806396 2.36265 0.324926L11.3209 9.28311L20.2792 0.324926C20.6847 -0.0806396 21.3422 -0.0806396 21.7477 0.324926C22.1533 0.730479 22.1533 1.38801 21.7477 1.79356L12.7896 10.7518L21.7477 19.7101C22.1533 20.1156 22.1533 20.7731 21.7477 21.1786C21.3422 21.5842 20.6847 21.5842 20.2792 21.1786L11.3209 12.2205L2.36265 21.1786C1.9571 21.5842 1.29957 21.5842 0.894018 21.1786C0.488452 20.7731 0.488452 20.1156 0.894018 19.7101L9.85221 10.7518L0.894018 1.79356C0.488452 1.38801 0.488452 0.730479 0.894018 0.324926Z" fill="white"/>
</svg>
