<svg width="20" height="20" viewBox="0 0 20 20" fill="none" xmlns="http://www.w3.org/2000/svg">
<g opacity="0.8">
<path fill-rule="evenodd" clip-rule="evenodd" d="M9.99984 2.9488C6.10552 2.9488 2.94855 6.10576 2.94855 10.0001C2.94855 13.8944 6.10552 17.0513 9.99984 17.0513C13.8942 17.0513 17.0511 13.8944 17.0511 10.0001C17.0511 6.10576 13.8942 2.9488 9.99984 2.9488ZM1.6665 10.0001C1.6665 5.39771 5.39746 1.66675 9.99984 1.66675C14.6022 1.66675 18.3332 5.39771 18.3332 10.0001C18.3332 14.6024 14.6022 18.3334 9.99984 18.3334C5.39746 18.3334 1.6665 14.6024 1.6665 10.0001Z" fill="white"/>
<path fill-rule="evenodd" clip-rule="evenodd" d="M9.99984 6.79499C9.40976 6.79499 8.93142 7.27331 8.93142 7.86336C8.93142 8.21739 8.64451 8.50436 8.29044 8.50436C7.93641 8.50436 7.64941 8.21739 7.64941 7.86336C7.64941 6.56526 8.70176 5.51294 9.99984 5.51294C11.2979 5.51294 12.3503 6.56526 12.3503 7.86336C12.3503 8.33031 12.2134 8.76728 11.9774 9.13395C11.8297 9.3637 11.6568 9.58295 11.4975 9.78103C11.4683 9.8172 11.4398 9.8527 11.4116 9.88753C11.2794 10.0511 11.158 10.2014 11.0459 10.3554C10.7693 10.7356 10.6408 11.0212 10.6408 11.2822C10.6408 11.6362 10.3538 11.9232 9.99984 11.9232C9.64584 11.9232 9.35884 11.6362 9.35884 11.2822C9.35884 10.599 9.69417 10.0341 10.0092 9.6012C10.1423 9.41828 10.2882 9.23786 10.4208 9.07378C10.4473 9.04095 10.4734 9.0087 10.4987 8.97728C10.6569 8.78053 10.7917 8.60753 10.8993 8.44028C11.0062 8.27421 11.0683 8.07701 11.0683 7.86336C11.0683 7.27331 10.5899 6.79499 9.99984 6.79499Z" fill="white"/>
<path d="M10.8548 13.8462C10.8548 14.3182 10.4722 14.7009 10.0002 14.7009C9.52817 14.7009 9.14551 14.3182 9.14551 13.8462C9.14551 13.3741 9.52817 12.9915 10.0002 12.9915C10.4722 12.9915 10.8548 13.3741 10.8548 13.8462Z" fill="white"/>
</g>
</svg>
