<svg width="31" height="31" viewBox="0 0 31 31" fill="none" xmlns="http://www.w3.org/2000/svg">
<path fill-rule="evenodd" clip-rule="evenodd" d="M11.5256 5.86786C9.87933 5.86786 8.54481 7.20621 8.54481 8.85714C8.54481 10.5081 9.87933 11.8464 11.5256 11.8464C13.1719 11.8464 14.5063 10.5081 14.5063 8.85714C14.5063 7.20621 13.1719 5.86786 11.5256 5.86786ZM6.55762 8.85714C6.55762 6.10558 8.78185 3.875 11.5256 3.875C14.2693 3.875 16.4935 6.10558 16.4935 8.85714C16.4935 11.6087 14.2693 13.8393 11.5256 13.8393C8.78185 13.8393 6.55762 11.6087 6.55762 8.85714Z" fill="white"/>
<path fill-rule="evenodd" clip-rule="evenodd" d="M2.58301 8.85729C2.58301 8.30698 3.02786 7.86086 3.5766 7.86086H7.55095C8.0997 7.86086 8.54453 8.30682 8.54453 8.85714C8.54453 9.40745 8.0997 9.85371 7.55095 9.85371H3.5766C3.02786 9.85371 2.58301 9.40759 2.58301 8.85729Z" fill="white"/>
<path fill-rule="evenodd" clip-rule="evenodd" d="M14.5068 8.85714C14.5068 8.30683 14.9517 7.86101 15.5004 7.86101H27.4235C27.9722 7.86101 28.417 8.30712 28.417 8.85744C28.417 9.40774 27.9722 9.85386 27.4235 9.85386H15.5004C14.9517 9.85386 14.5068 9.40746 14.5068 8.85714Z" fill="white"/>
<path fill-rule="evenodd" clip-rule="evenodd" d="M19.4748 19.1535C21.1211 19.1535 22.4556 20.4918 22.4556 22.1428C22.4556 23.7937 21.1211 25.1321 19.4748 25.1321C17.8286 25.1321 16.4941 23.7937 16.4941 22.1428C16.4941 20.4918 17.8286 19.1535 19.4748 19.1535ZM24.4427 22.1428C24.4427 19.3911 22.2186 17.1606 19.4748 17.1606C16.7311 17.1606 14.5068 19.3911 14.5068 22.1428C14.5068 24.8943 16.7311 27.1249 19.4748 27.1249C22.2186 27.1249 24.4427 24.8943 24.4427 22.1428Z" fill="white"/>
<path fill-rule="evenodd" clip-rule="evenodd" d="M28.4166 22.1429C28.4166 21.5927 27.9718 21.1465 27.423 21.1465H23.4486C22.8999 21.1465 22.4551 21.5924 22.4551 22.1428C22.4551 22.693 22.8999 23.1394 23.4486 23.1394H27.423C27.9718 23.1394 28.4166 22.6933 28.4166 22.1429Z" fill="white"/>
<path fill-rule="evenodd" clip-rule="evenodd" d="M16.4932 22.1428C16.4932 21.5924 16.0485 21.1466 15.4996 21.1466H3.5766C3.02786 21.1466 2.58301 21.5928 2.58301 22.143C2.58301 22.6934 3.02786 23.1394 3.5766 23.1394H15.4996C16.0485 23.1394 16.4932 22.693 16.4932 22.1428Z" fill="white"/>
</svg>
