<svg width="300" height="45" viewBox="0 0 300 45" fill="none" xmlns="http://www.w3.org/2000/svg">
<rect x="1.06289" y="1.06289" width="297.874" height="42.5154" rx="13.9371" fill="black" fill-opacity="0.4" stroke="#1E1E1E" stroke-width="2.12577"/>
<path d="M20.7162 24.8273H23.0101C23.0932 25.5678 23.4634 26.1629 24.1208 26.6127C24.7781 27.0624 25.6016 27.2873 26.5911 27.2873C27.5322 27.2873 28.3073 27.0694 28.9162 26.6334C29.5321 26.1975 29.84 25.6439 29.84 24.9727C29.84 24.3914 29.622 23.9174 29.1861 23.5506C28.7501 23.177 28.0478 22.8725 27.079 22.6372L25.138 22.1701C23.7609 21.838 22.7437 21.3432 22.0863 20.6858C21.4359 20.0284 21.1106 19.1773 21.1106 18.1324C21.1106 16.8453 21.6158 15.797 22.6261 14.9873C23.6433 14.1777 24.9546 13.7729 26.56 13.7729C28.1377 13.7729 29.4248 14.1777 30.4213 14.9873C31.4177 15.79 31.9332 16.8384 31.9678 18.1324H29.7051C29.6359 17.392 29.3141 16.8073 28.7397 16.3782C28.1723 15.9492 27.4354 15.7347 26.5289 15.7347C25.6293 15.7347 24.8958 15.9423 24.3284 16.3575C23.7678 16.7727 23.4876 17.3124 23.4876 17.9767C23.4876 18.5026 23.6986 18.9351 24.1208 19.2742C24.5429 19.6063 25.2383 19.8935 26.2071 20.1357L27.8575 20.5405C29.3937 20.9003 30.5008 21.4089 31.179 22.0663C31.864 22.7168 32.2066 23.5922 32.2066 24.6924C32.2066 26.0902 31.6876 27.2008 30.6496 28.0243C29.6116 28.8408 28.2035 29.2491 26.4251 29.2491C24.7574 29.2491 23.4046 28.8512 22.3666 28.0554C21.3355 27.2527 20.7854 26.1767 20.7162 24.8273ZM40.4896 20.4782C39.9983 19.9523 39.3651 19.6894 38.5901 19.6894C37.8151 19.6894 37.1716 19.9558 36.6595 20.4886C36.1474 21.0145 35.8637 21.6961 35.8084 22.5334H41.2681C41.2404 21.6892 40.9809 21.0041 40.4896 20.4782ZM41.2577 25.7927H43.3856C43.2264 26.796 42.7143 27.616 41.8494 28.2527C40.9844 28.8893 39.9291 29.2076 38.6835 29.2076C37.0851 29.2076 35.8257 28.7059 34.9053 27.7025C33.9919 26.6922 33.5352 25.3221 33.5352 23.5922C33.5352 21.876 33.9919 20.4955 34.9053 19.4506C35.8257 18.4057 37.0539 17.8833 38.5901 17.8833C40.0986 17.8833 41.2958 18.3781 42.1815 19.3676C43.0673 20.3502 43.5101 21.6719 43.5101 23.3327V24.1008H35.798V24.2357C35.798 25.1906 36.0644 25.9553 36.5972 26.5296C37.13 27.104 37.8428 27.3911 38.7354 27.3911C39.3651 27.3911 39.9049 27.2458 40.3547 26.9552C40.8045 26.6646 41.1055 26.277 41.2577 25.7927ZM49.0737 27.4119C49.8625 27.4119 50.5234 27.1732 51.0562 26.6957C51.5959 26.2113 51.8658 25.6162 51.8658 24.9104V24.0489L49.1775 24.2149C48.5062 24.2634 47.9873 24.4295 47.6205 24.7132C47.2607 24.99 47.0808 25.3636 47.0808 25.8342C47.0808 26.3116 47.2607 26.6957 47.6205 26.9863C47.9873 27.27 48.4716 27.4119 49.0737 27.4119ZM48.4509 29.1868C47.3783 29.1868 46.5029 28.8824 45.8248 28.2734C45.1536 27.6645 44.818 26.8722 44.818 25.8965C44.818 24.9415 45.1709 24.1838 45.8767 23.6233C46.5825 23.0559 47.5824 22.7376 48.8764 22.6684L51.8658 22.4919V21.6511C51.8658 21.0422 51.6721 20.5682 51.2846 20.2291C50.897 19.8831 50.3608 19.7101 49.6757 19.7101C49.0391 19.7101 48.5201 19.852 48.1187 20.1357C47.7243 20.4194 47.4752 20.8104 47.3714 21.3086H45.2539C45.3162 20.2983 45.7521 19.4749 46.5618 18.8382C47.3714 18.2016 48.437 17.8833 49.7587 17.8833C51.0804 17.8833 52.1322 18.2085 52.9142 18.859C53.703 19.5095 54.0975 20.3814 54.0975 21.4747V29H51.9489V27.2043H51.897C51.5856 27.8063 51.1116 28.2873 50.4749 28.6471C49.8452 29.0069 49.1705 29.1868 48.4509 29.1868ZM56.2772 29V18.0805H58.4154V19.9385H58.4673C58.6472 19.3019 58.969 18.8036 59.4326 18.4438C59.8963 18.084 60.4499 17.9041 61.0934 17.9041C61.3079 17.9041 61.564 17.9317 61.8615 17.9871V20.0734C61.6608 19.9904 61.3252 19.9489 60.8547 19.9489C60.135 19.9489 59.5641 20.1738 59.142 20.6235C58.7268 21.0733 58.5192 21.6857 58.5192 22.4608V29H56.2772ZM72.1478 21.838H70.0096C69.892 21.2221 69.6083 20.7204 69.1585 20.3329C68.7156 19.9454 68.1447 19.7516 67.4458 19.7516C66.5739 19.7516 65.875 20.0942 65.3491 20.7792C64.8301 21.4574 64.5706 22.3777 64.5706 23.5403C64.5706 24.7235 64.8301 25.6508 65.3491 26.322C65.875 26.9932 66.5808 27.3289 67.4666 27.3289C68.1516 27.3289 68.7121 27.1524 69.1481 26.7995C69.591 26.4397 69.8781 25.9414 70.0096 25.3048H72.1686C72.051 26.4743 71.5597 27.4188 70.6947 28.1385C69.8366 28.8512 68.7537 29.2076 67.4458 29.2076C65.875 29.2076 64.6225 28.7024 63.6883 27.6922C62.7542 26.6749 62.2871 25.291 62.2871 23.5403C62.2871 21.8103 62.7542 20.4367 63.6883 19.4195C64.6225 18.3954 65.8681 17.8833 67.4251 17.8833C68.7813 17.8833 69.8816 18.2639 70.7258 19.0251C71.57 19.7793 72.044 20.717 72.1478 21.838ZM73.8397 29V14.022H76.061V19.9073H76.1129C76.4174 19.2638 76.8637 18.769 77.4519 18.423C78.0401 18.0701 78.7459 17.8937 79.5694 17.8937C80.7596 17.8937 81.6937 18.2604 82.3719 18.9939C83.0569 19.7274 83.3995 20.717 83.3995 21.9625V29H81.1471V22.3985C81.1471 21.5819 80.9429 20.9488 80.5347 20.499C80.1333 20.0492 79.5417 19.8243 78.7597 19.8243C77.9363 19.8243 77.2824 20.0873 76.798 20.6132C76.3205 21.1322 76.0818 21.8241 76.0818 22.6891V29H73.8397ZM95.5749 17.9041C96.9658 17.9041 98.0799 18.4127 98.9172 19.4299C99.7545 20.4471 100.173 21.8172 100.173 23.5403C100.173 25.2633 99.758 26.6369 98.9276 27.661C98.0972 28.6782 96.9935 29.1868 95.6164 29.1868C94.8414 29.1868 94.1529 29.0104 93.5509 28.6575C92.9558 28.3046 92.4991 27.8202 92.1807 27.2043H92.1288V32.6122H89.8868V18.0805H92.0562V19.9592H92.0977C92.4229 19.3226 92.89 18.8209 93.499 18.4542C94.1079 18.0874 94.7999 17.9041 95.5749 17.9041ZM94.9833 27.2873C95.869 27.2873 96.5714 26.9517 97.0904 26.2805C97.6093 25.6024 97.8688 24.6889 97.8688 23.5403C97.8688 22.3985 97.6093 21.4885 97.0904 20.8104C96.5714 20.1322 95.869 19.7932 94.9833 19.7932C94.1252 19.7932 93.4332 20.1357 92.9073 20.8208C92.3814 21.5058 92.1185 22.4123 92.1185 23.5403C92.1185 24.6751 92.378 25.5851 92.8969 26.2701C93.4228 26.9483 94.1183 27.2873 94.9833 27.2873ZM110.366 27.6922C109.425 28.7024 108.169 29.2076 106.598 29.2076C105.027 29.2076 103.771 28.7024 102.83 27.6922C101.889 26.6749 101.419 25.291 101.419 23.5403C101.419 21.7965 101.889 20.4194 102.83 19.4091C103.771 18.3919 105.027 17.8833 106.598 17.8833C108.169 17.8833 109.425 18.3919 110.366 19.4091C111.307 20.4194 111.778 21.7965 111.778 23.5403C111.778 25.291 111.307 26.6749 110.366 27.6922ZM106.598 27.36C107.491 27.36 108.197 27.0244 108.716 26.3532C109.235 25.6819 109.494 24.7443 109.494 23.5403C109.494 22.3431 109.231 21.4089 108.705 20.7377C108.186 20.0665 107.484 19.7309 106.598 19.7309C105.712 19.7309 105.007 20.0665 104.481 20.7377C103.962 21.4089 103.702 22.3431 103.702 23.5403C103.702 24.7443 103.962 25.6819 104.481 26.3532C105.007 27.0244 105.712 27.36 106.598 27.36ZM121.971 27.6922C121.03 28.7024 119.774 29.2076 118.203 29.2076C116.632 29.2076 115.376 28.7024 114.435 27.6922C113.494 26.6749 113.023 25.291 113.023 23.5403C113.023 21.7965 113.494 20.4194 114.435 19.4091C115.376 18.3919 116.632 17.8833 118.203 17.8833C119.774 17.8833 121.03 18.3919 121.971 19.4091C122.912 20.4194 123.382 21.7965 123.382 23.5403C123.382 25.291 122.912 26.6749 121.971 27.6922ZM118.203 27.36C119.095 27.36 119.801 27.0244 120.32 26.3532C120.839 25.6819 121.099 24.7443 121.099 23.5403C121.099 22.3431 120.836 21.4089 120.31 20.7377C119.791 20.0665 119.088 19.7309 118.203 19.7309C117.317 19.7309 116.611 20.0665 116.085 20.7377C115.566 21.4089 115.307 22.3431 115.307 23.5403C115.307 24.7443 115.566 25.6819 116.085 26.3532C116.611 27.0244 117.317 27.36 118.203 27.36ZM125.199 29V14.022H127.441V29H125.199ZM129.548 21.1737C129.548 20.198 129.942 19.4057 130.731 18.7967C131.52 18.1878 132.551 17.8833 133.824 17.8833C135.035 17.8833 136.028 18.1912 136.803 18.8071C137.585 19.416 137.993 20.2084 138.028 21.1841H135.921C135.866 20.6858 135.648 20.2949 135.267 20.0111C134.886 19.7274 134.385 19.5856 133.762 19.5856C133.153 19.5856 132.662 19.7205 132.288 19.9904C131.921 20.2603 131.738 20.6097 131.738 21.0387C131.738 21.703 132.295 22.1736 133.409 22.4504L135.246 22.876C136.347 23.1389 137.125 23.4987 137.582 23.9554C138.045 24.4052 138.277 25.0349 138.277 25.8446C138.277 26.841 137.855 27.6506 137.011 28.2734C136.174 28.8962 135.084 29.2076 133.741 29.2076C132.461 29.2076 131.416 28.9031 130.607 28.2942C129.804 27.6852 129.358 26.8756 129.268 25.8653H131.489C131.579 26.3912 131.824 26.796 132.226 27.0797C132.627 27.3565 133.167 27.4949 133.845 27.4949C134.516 27.4949 135.046 27.3669 135.433 27.1109C135.828 26.8479 136.025 26.495 136.025 26.0522C136.025 25.6992 135.907 25.419 135.672 25.2114C135.437 25.0038 135.035 24.8273 134.468 24.682L132.516 24.2046C130.537 23.7271 129.548 22.7168 129.548 21.1737ZM152.798 27.6922C151.857 28.7024 150.601 29.2076 149.031 29.2076C147.46 29.2076 146.204 28.7024 145.263 27.6922C144.322 26.6749 143.851 25.291 143.851 23.5403C143.851 21.7965 144.322 20.4194 145.263 19.4091C146.204 18.3919 147.46 17.8833 149.031 17.8833C150.601 17.8833 151.857 18.3919 152.798 19.4091C153.74 20.4194 154.21 21.7965 154.21 23.5403C154.21 25.291 153.74 26.6749 152.798 27.6922ZM149.031 27.36C149.923 27.36 150.629 27.0244 151.148 26.3532C151.667 25.6819 151.927 24.7443 151.927 23.5403C151.927 22.3431 151.664 21.4089 151.138 20.7377C150.619 20.0665 149.916 19.7309 149.031 19.7309C148.145 19.7309 147.439 20.0665 146.913 20.7377C146.394 21.4089 146.135 22.3431 146.135 23.5403C146.135 24.7443 146.394 25.6819 146.913 26.3532C147.439 27.0244 148.145 27.36 149.031 27.36ZM155.944 29V18.0805H158.082V19.9385H158.134C158.314 19.3019 158.635 18.8036 159.099 18.4438C159.563 18.084 160.116 17.9041 160.76 17.9041C160.974 17.9041 161.23 17.9317 161.528 17.9871V20.0734C161.327 19.9904 160.992 19.9489 160.521 19.9489C159.801 19.9489 159.23 20.1738 158.808 20.6235C158.393 21.0733 158.186 21.6857 158.186 22.4608V29H155.944ZM167.891 15.496H170.143V18.0805H172.219V19.8554H170.143V25.8757C170.143 26.3462 170.25 26.6922 170.465 26.9137C170.679 27.1351 171.015 27.2458 171.472 27.2458C171.804 27.2458 172.049 27.2285 172.209 27.1939V28.9689C171.932 29.0381 171.517 29.0727 170.963 29.0727C169.863 29.0727 169.074 28.8478 168.596 28.398C168.126 27.9413 167.891 27.1835 167.891 26.1248V19.8554H166.302V18.0805H167.891V15.496ZM182.256 27.6922C181.315 28.7024 180.059 29.2076 178.488 29.2076C176.918 29.2076 175.662 28.7024 174.72 27.6922C173.779 26.6749 173.309 25.291 173.309 23.5403C173.309 21.7965 173.779 20.4194 174.72 19.4091C175.662 18.3919 176.918 17.8833 178.488 17.8833C180.059 17.8833 181.315 18.3919 182.256 19.4091C183.197 20.4194 183.668 21.7965 183.668 23.5403C183.668 25.291 183.197 26.6749 182.256 27.6922ZM178.488 27.36C179.381 27.36 180.087 27.0244 180.606 26.3532C181.125 25.6819 181.384 24.7443 181.384 23.5403C181.384 22.3431 181.121 21.4089 180.595 20.7377C180.076 20.0665 179.374 19.7309 178.488 19.7309C177.603 19.7309 176.897 20.0665 176.371 20.7377C175.852 21.4089 175.592 22.3431 175.592 23.5403C175.592 24.7443 175.852 25.6819 176.371 26.3532C176.897 27.0244 177.603 27.36 178.488 27.36ZM187.747 22.7618L192.158 18.0805H194.795L190.269 22.7825L194.971 29H192.366L188.66 24.1527L187.726 25.0765V29H185.484V14.022H187.726V22.7618H187.747ZM202.081 20.4782C201.59 19.9523 200.957 19.6894 200.182 19.6894C199.407 19.6894 198.763 19.9558 198.251 20.4886C197.739 21.0145 197.456 21.6961 197.4 22.5334H202.86C202.832 21.6892 202.573 21.0041 202.081 20.4782ZM202.85 25.7927H204.977C204.818 26.796 204.306 27.616 203.441 28.2527C202.576 28.8893 201.521 29.2076 200.275 29.2076C198.677 29.2076 197.418 28.7059 196.497 27.7025C195.584 26.6922 195.127 25.3221 195.127 23.5922C195.127 21.876 195.584 20.4955 196.497 19.4506C197.418 18.4057 198.646 17.8833 200.182 17.8833C201.691 17.8833 202.888 18.3781 203.773 19.3676C204.659 20.3502 205.102 21.6719 205.102 23.3327V24.1008H197.39V24.2357C197.39 25.1906 197.656 25.9553 198.189 26.5296C198.722 27.104 199.435 27.3911 200.327 27.3911C200.957 27.3911 201.497 27.2458 201.947 26.9552C202.396 26.6646 202.697 26.277 202.85 25.7927ZM206.846 29V18.0805H208.984V19.9073H209.036C209.34 19.2707 209.783 18.776 210.365 18.423C210.946 18.0701 211.648 17.8937 212.472 17.8937C213.669 17.8937 214.599 18.2535 215.264 18.9732C215.928 19.6859 216.26 20.672 216.26 21.9314V29H214.008V22.3673C214.008 21.537 213.811 20.9073 213.416 20.4782C213.029 20.0423 212.451 19.8243 211.683 19.8243C210.894 19.8243 210.264 20.0803 209.794 20.5924C209.323 21.1045 209.088 21.7861 209.088 22.6372V29H206.846ZM218.232 21.1737C218.232 20.198 218.627 19.4057 219.416 18.7967C220.205 18.1878 221.236 17.8833 222.509 17.8833C223.72 17.8833 224.713 18.1912 225.488 18.8071C226.27 19.416 226.678 20.2084 226.713 21.1841H224.606C224.55 20.6858 224.332 20.2949 223.952 20.0111C223.571 19.7274 223.069 19.5856 222.447 19.5856C221.838 19.5856 221.346 19.7205 220.973 19.9904C220.606 20.2603 220.422 20.6097 220.422 21.0387C220.422 21.703 220.98 22.1736 222.094 22.4504L223.931 22.876C225.031 23.1389 225.81 23.4987 226.266 23.9554C226.73 24.4052 226.962 25.0349 226.962 25.8446C226.962 26.841 226.54 27.6506 225.695 28.2734C224.858 28.8962 223.768 29.2076 222.426 29.2076C221.146 29.2076 220.101 28.9031 219.291 28.2942C218.488 27.6852 218.042 26.8756 217.952 25.8653H220.173C220.263 26.3912 220.509 26.796 220.91 27.0797C221.312 27.3565 221.851 27.4949 222.53 27.4949C223.201 27.4949 223.73 27.3669 224.118 27.1109C224.512 26.8479 224.709 26.495 224.709 26.0522C224.709 25.6992 224.592 25.419 224.356 25.2114C224.121 25.0038 223.72 24.8273 223.152 24.682L221.201 24.2046C219.222 23.7271 218.232 22.7168 218.232 21.1737Z" fill="#CECECE"/>
</svg>
