<svg width="380" height="45" viewBox="0 0 380 45" fill="none" xmlns="http://www.w3.org/2000/svg">
<rect x="1.06289" y="1.06289" width="377.874" height="42.5154" rx="21.2577" fill="black" fill-opacity="0.4" stroke="#1E1E1E" stroke-width="2.12577"/>
<rect x="1.065" y="1.065" width="150.339" height="42.4379" rx="21.219" fill="#1E1E1E"/>
<path d="M40.6973 12.9826C42.8494 12.9826 44.5551 13.6781 45.8145 15.069C47.0809 16.4598 47.714 18.3455 47.714 20.7259C47.714 23.1063 47.0843 24.992 45.8249 26.3829C44.5655 27.7668 42.8563 28.4588 40.6973 28.4588C38.5383 28.4588 36.8291 27.7668 35.5697 26.3829C34.3103 24.992 33.6806 23.1063 33.6806 20.7259C33.6806 18.3455 34.3103 16.4598 35.5697 15.069C36.8291 13.6781 38.5383 12.9826 40.6973 12.9826ZM40.6973 15.0274C39.2718 15.0274 38.1404 15.5395 37.3031 16.5636C36.4728 17.5878 36.0576 18.9752 36.0576 20.7259C36.0576 22.4697 36.4728 23.8537 37.3031 24.8778C38.1404 25.902 39.2718 26.414 40.6973 26.414C42.1159 26.414 43.2403 25.902 44.0707 24.8778C44.908 23.8537 45.3267 22.4697 45.3267 20.7259C45.3267 18.9752 44.908 17.5878 44.0707 16.5636C43.2403 15.5395 42.1159 15.0274 40.6973 15.0274ZM58.9864 17.2902L55.0733 28.2097H52.6652L48.7312 17.2902H51.1186L53.8588 26.0196H53.9003L56.6406 17.2902H58.9864ZM66.4287 19.6879C65.9374 19.162 65.3042 18.8991 64.5292 18.8991C63.7542 18.8991 63.1106 19.1655 62.5986 19.6983C62.0865 20.2242 61.8028 20.9058 61.7474 21.7431H67.2072C67.1795 20.8989 66.92 20.2139 66.4287 19.6879ZM67.1968 25.0024H69.3246C69.1655 26.0058 68.6534 26.8258 67.7884 27.4624C66.9235 28.099 65.8682 28.4173 64.6226 28.4173C63.0241 28.4173 61.7647 27.9156 60.8444 26.9122C59.931 25.902 59.4743 24.5318 59.4743 22.8019C59.4743 21.0858 59.931 19.7052 60.8444 18.6604C61.7647 17.6155 62.993 17.093 64.5292 17.093C66.0377 17.093 67.2349 17.5878 68.1206 18.5773C69.0063 19.5599 69.4492 20.8816 69.4492 22.5424V23.3105H61.7371V23.4454C61.7371 24.4004 62.0035 25.165 62.5363 25.7393C63.0691 26.3137 63.7819 26.6009 64.6745 26.6009C65.3042 26.6009 65.844 26.4555 66.2938 26.1649C66.7436 25.8743 67.0446 25.4868 67.1968 25.0024ZM71.193 28.2097V17.2902H73.3312V19.1482H73.3831C73.563 18.5116 73.8848 18.0133 74.3484 17.6535C74.8121 17.2937 75.3657 17.1138 76.0092 17.1138C76.2237 17.1138 76.4797 17.1414 76.7773 17.1968V19.2831C76.5766 19.2001 76.241 19.1586 75.7705 19.1586C75.0508 19.1586 74.4799 19.3835 74.0578 19.8333C73.6426 20.2831 73.435 20.8955 73.435 21.6705V28.2097H71.193ZM87.4892 17.2902L83.576 28.2097H81.1679L77.234 17.2902H79.6214L82.3616 26.0196H82.4031L85.1434 17.2902H87.4892ZM88.8489 28.2097V17.2902H91.091V28.2097H88.8489ZM90.8938 15.3181C90.6377 15.5672 90.3298 15.6917 89.97 15.6917C89.6101 15.6917 89.3022 15.5672 89.0462 15.3181C88.797 15.069 88.6725 14.7679 88.6725 14.415C88.6725 14.0552 88.797 13.7507 89.0462 13.5016C89.3022 13.2525 89.6101 13.1279 89.97 13.1279C90.3367 13.1279 90.6446 13.2525 90.8938 13.5016C91.1498 13.7507 91.2778 14.0552 91.2778 14.415C91.2778 14.7679 91.1498 15.069 90.8938 15.3181ZM99.8515 19.6879C99.3602 19.162 98.727 18.8991 97.952 18.8991C97.177 18.8991 96.5334 19.1655 96.0213 19.6983C95.5093 20.2242 95.2256 20.9058 95.1702 21.7431H100.63C100.602 20.8989 100.343 20.2139 99.8515 19.6879ZM100.62 25.0024H102.747C102.588 26.0058 102.076 26.8258 101.211 27.4624C100.346 28.099 99.291 28.4173 98.0454 28.4173C96.4469 28.4173 95.1875 27.9156 94.2672 26.9122C93.3538 25.902 92.897 24.5318 92.897 22.8019C92.897 21.0858 93.3538 19.7052 94.2672 18.6604C95.1875 17.6155 96.4158 17.093 97.952 17.093C99.4605 17.093 100.658 17.5878 101.543 18.5773C102.429 19.5599 102.872 20.8816 102.872 22.5424V23.3105H95.1598V23.4454C95.1598 24.4004 95.4262 25.165 95.9591 25.7393C96.4919 26.3137 97.2046 26.6009 98.0973 26.6009C98.727 26.6009 99.2667 26.4555 99.7165 26.1649C100.166 25.8743 100.467 25.4868 100.62 25.0024ZM119.023 17.2902L116.033 28.2097H113.698L111.404 20.0305H111.352L109.079 28.2097H106.764L103.765 17.2902H106.007L108 25.8847H108.041L110.314 17.2902H112.473L114.757 25.8847H114.809L116.802 17.2902H119.023Z" fill="white"/>
<rect x="1.065" y="1.065" width="150.339" height="42.4379" rx="21.219" stroke="#1E1E1E" stroke-width="2.13"/>
<path d="M193.834 14.4046H199.449C200.902 14.4046 202.086 14.8613 202.999 15.7747C203.919 16.6881 204.379 17.8714 204.379 19.3246C204.379 20.7847 203.912 21.9749 202.978 22.8952C202.051 23.8086 200.85 24.2654 199.376 24.2654H196.159V29.3826H193.834V14.4046ZM196.159 16.3664V22.314H198.826C199.837 22.314 200.619 22.0545 201.172 21.5355C201.726 21.0165 202.003 20.283 202.003 19.335C202.003 18.3939 201.726 17.6638 201.172 17.1448C200.625 16.6259 199.847 16.3664 198.837 16.3664H196.159ZM214.126 28.0747C213.185 29.085 211.929 29.5902 210.358 29.5902C208.787 29.5902 207.531 29.085 206.59 28.0747C205.649 27.0575 205.179 25.6735 205.179 23.9228C205.179 22.179 205.649 20.802 206.59 19.7917C207.531 18.7745 208.787 18.2659 210.358 18.2659C211.929 18.2659 213.185 18.7745 214.126 19.7917C215.067 20.802 215.538 22.179 215.538 23.9228C215.538 25.6735 215.067 27.0575 214.126 28.0747ZM210.358 27.7426C211.251 27.7426 211.957 27.407 212.476 26.7357C212.995 26.0645 213.254 25.1269 213.254 23.9228C213.254 22.7257 212.991 21.7915 212.465 21.1203C211.946 20.4491 211.244 20.1135 210.358 20.1135C209.472 20.1135 208.767 20.4491 208.241 21.1203C207.722 21.7915 207.462 22.7257 207.462 23.9228C207.462 25.1269 207.722 26.0645 208.241 26.7357C208.767 27.407 209.472 27.7426 210.358 27.7426ZM225.731 28.0747C224.79 29.085 223.534 29.5902 221.963 29.5902C220.392 29.5902 219.136 29.085 218.195 28.0747C217.254 27.0575 216.783 25.6735 216.783 23.9228C216.783 22.179 217.254 20.802 218.195 19.7917C219.136 18.7745 220.392 18.2659 221.963 18.2659C223.534 18.2659 224.79 18.7745 225.731 19.7917C226.672 20.802 227.142 22.179 227.142 23.9228C227.142 25.6735 226.672 27.0575 225.731 28.0747ZM221.963 27.7426C222.855 27.7426 223.561 27.407 224.08 26.7357C224.599 26.0645 224.859 25.1269 224.859 23.9228C224.859 22.7257 224.596 21.7915 224.07 21.1203C223.551 20.4491 222.849 20.1135 221.963 20.1135C221.077 20.1135 220.371 20.4491 219.845 21.1203C219.326 21.7915 219.067 22.7257 219.067 23.9228C219.067 25.1269 219.326 26.0645 219.845 26.7357C220.371 27.407 221.077 27.7426 221.963 27.7426ZM228.959 29.3826V14.4046H231.201V29.3826H228.959ZM233.308 21.5562C233.308 20.5805 233.702 19.7882 234.491 19.1793C235.28 18.5703 236.311 18.2659 237.584 18.2659C238.795 18.2659 239.788 18.5738 240.563 19.1897C241.345 19.7986 241.753 20.5909 241.788 21.5666H239.681C239.626 21.0684 239.408 20.6774 239.027 20.3937C238.646 20.11 238.145 19.9681 237.522 19.9681C236.913 19.9681 236.422 20.1031 236.048 20.3729C235.681 20.6428 235.498 20.9923 235.498 21.4213C235.498 22.0856 236.055 22.5562 237.169 22.8329L239.006 23.2585C240.107 23.5215 240.885 23.8813 241.342 24.338C241.805 24.7878 242.037 25.4175 242.037 26.2271C242.037 27.2236 241.615 28.0332 240.771 28.656C239.934 29.2788 238.844 29.5902 237.501 29.5902C236.221 29.5902 235.176 29.2857 234.367 28.6767C233.564 28.0678 233.118 27.2582 233.028 26.2479H235.249C235.339 26.7738 235.584 27.1786 235.986 27.4623C236.387 27.7391 236.927 27.8775 237.605 27.8775C238.276 27.8775 238.806 27.7495 239.193 27.4935C239.588 27.2305 239.785 26.8776 239.785 26.4347C239.785 26.0818 239.667 25.8016 239.432 25.594C239.197 25.3864 238.795 25.2099 238.228 25.0646L236.276 24.5871C234.297 24.1097 233.308 23.0994 233.308 21.5562Z" fill="white"/>
<path d="M295.232 29.3826H292.907V16.4079H288.319V14.4046H299.81V16.4079H295.232V29.3826ZM307.221 28.0747C306.28 29.085 305.024 29.5902 303.453 29.5902C301.882 29.5902 300.626 29.085 299.685 28.0747C298.744 27.0575 298.274 25.6735 298.274 23.9228C298.274 22.179 298.744 20.802 299.685 19.7917C300.626 18.7745 301.882 18.2659 303.453 18.2659C305.024 18.2659 306.28 18.7745 307.221 19.7917C308.162 20.802 308.633 22.179 308.633 23.9228C308.633 25.6735 308.162 27.0575 307.221 28.0747ZM303.453 27.7426C304.346 27.7426 305.052 27.407 305.571 26.7357C306.09 26.0645 306.349 25.1269 306.349 23.9228C306.349 22.7257 306.086 21.7915 305.56 21.1203C305.041 20.4491 304.339 20.1135 303.453 20.1135C302.567 20.1135 301.862 20.4491 301.336 21.1203C300.817 21.7915 300.557 22.7257 300.557 23.9228C300.557 25.1269 300.817 26.0645 301.336 26.7357C301.862 27.407 302.567 27.7426 303.453 27.7426ZM312.712 23.1443L317.123 18.4631H319.76L315.234 23.1651L319.936 29.3826H317.331L313.625 24.5352L312.691 25.459V29.3826H310.449V14.4046H312.691V23.1443H312.712ZM327.046 20.8608C326.555 20.3349 325.922 20.0719 325.147 20.0719C324.372 20.0719 323.728 20.3384 323.216 20.8712C322.704 21.3971 322.42 22.0787 322.365 22.916H327.825C327.797 22.0718 327.538 21.3867 327.046 20.8608ZM327.814 26.1752H329.942C329.783 27.1786 329.271 27.9986 328.406 28.6352C327.541 29.2719 326.486 29.5902 325.24 29.5902C323.642 29.5902 322.382 29.0885 321.462 28.0851C320.549 27.0748 320.092 25.7047 320.092 23.9747C320.092 22.2586 320.549 20.8781 321.462 19.8332C322.382 18.7883 323.611 18.2659 325.147 18.2659C326.655 18.2659 327.852 18.7606 328.738 19.7502C329.624 20.7328 330.067 22.0545 330.067 23.7152V24.4833H322.355V24.6183C322.355 25.5732 322.621 26.3378 323.154 26.9122C323.687 27.4865 324.399 27.7737 325.292 27.7737C325.922 27.7737 326.461 27.6284 326.911 27.3378C327.361 27.0471 327.662 26.6596 327.814 26.1752ZM331.811 29.3826V18.4631H333.949V20.2899H334.001C334.305 19.6533 334.748 19.1585 335.329 18.8056C335.911 18.4527 336.613 18.2762 337.436 18.2762C338.633 18.2762 339.564 18.6361 340.228 19.3557C340.893 20.0685 341.225 21.0546 341.225 22.314V29.3826H338.973V22.7499C338.973 21.9195 338.775 21.2898 338.381 20.8608C337.993 20.4248 337.416 20.2069 336.647 20.2069C335.859 20.2069 335.229 20.4629 334.758 20.975C334.288 21.487 334.053 22.1686 334.053 23.0198V29.3826H331.811ZM343.197 21.5562C343.197 20.5805 343.592 19.7882 344.38 19.1793C345.169 18.5703 346.2 18.2659 347.474 18.2659C348.685 18.2659 349.678 18.5738 350.453 19.1897C351.234 19.7986 351.643 20.5909 351.677 21.5666H349.57C349.515 21.0684 349.297 20.6774 348.916 20.3937C348.536 20.11 348.034 19.9681 347.411 19.9681C346.802 19.9681 346.311 20.1031 345.937 20.3729C345.571 20.6428 345.387 20.9923 345.387 21.4213C345.387 22.0856 345.944 22.5562 347.058 22.8329L348.896 23.2585C349.996 23.5215 350.774 23.8813 351.231 24.338C351.695 24.7878 351.926 25.4175 351.926 26.2271C351.926 27.2236 351.504 28.0332 350.66 28.656C349.823 29.2788 348.733 29.5902 347.391 29.5902C346.11 29.5902 345.065 29.2857 344.256 28.6767C343.453 28.0678 343.007 27.2582 342.917 26.2479H345.138C345.228 26.7738 345.474 27.1786 345.875 27.4623C346.276 27.7391 346.816 27.8775 347.494 27.8775C348.166 27.8775 348.695 27.7495 349.082 27.4935C349.477 27.2305 349.674 26.8776 349.674 26.4347C349.674 26.0818 349.556 25.8016 349.321 25.594C349.086 25.3864 348.685 25.2099 348.117 25.0646L346.166 24.5871C344.187 24.1097 343.197 23.0994 343.197 21.5562Z" fill="white"/>
</svg>
