<svg width="105" height="105" viewBox="0 0 105 105" fill="none" xmlns="http://www.w3.org/2000/svg">
<circle cx="52.5" cy="52.5" r="50.82" stroke="white" stroke-width="3.36"/>
<path fill-rule="evenodd" clip-rule="evenodd" d="M73.9027 54.089C74.5711 54.8093 74.4937 55.9038 73.73 56.5337L54.13 72.7038C53.4371 73.2753 52.4027 73.2753 51.7099 72.7038L32.11 56.5337C31.3462 55.9038 31.2688 54.8091 31.9371 54.089C32.6054 53.369 33.7662 53.296 34.5299 53.9262L51.0824 67.5819L51.0824 34.4399C51.0824 33.4831 51.9051 32.7074 52.9199 32.7074C53.9347 32.7074 54.7574 33.4831 54.7574 34.4399L54.7574 67.5819L71.3099 53.9262C72.0738 53.296 73.2346 53.369 73.9027 54.089Z" fill="white"/>
</svg>
