<svg width="16" height="20" viewBox="0 0 16 20" fill="none" xmlns="http://www.w3.org/2000/svg">
<g clip-path="url(#clip0)">
<path fill-rule="evenodd" clip-rule="evenodd" d="M15.69 9.05998L11.96 14.06L7.87 19.32C7.66309 19.5828 7.38034 19.7755 7.06012 19.8721C6.73991 19.9687 6.39772 19.9645 6.08 19.86C5.77481 19.7584 5.50788 19.5661 5.3149 19.3088C5.12191 19.0515 5.01205 18.7414 5 18.42V13.42H1.6C1.30125 13.4188 1.00864 13.3351 0.754505 13.178C0.500373 13.021 0.294624 12.7967 0.160003 12.53C0.0275781 12.2634 -0.0258393 11.9646 0.00605469 11.6687C0.0379487 11.3728 0.153823 11.0922 0.340003 10.86L4.43 5.77998L8.12 0.659983C8.31954 0.387213 8.59939 0.18368 8.92037 0.0778827C9.24135 -0.0279143 9.58738 -0.0306766 9.91 0.0699827C10.2274 0.175118 10.5035 0.37762 10.6992 0.648702C10.8949 0.919784 11.0001 1.24565 11 1.57998V4.33998C11.0023 4.47927 10.9677 4.61668 10.8998 4.73829C10.8319 4.85991 10.733 4.96139 10.6132 5.03246C10.4934 5.10354 10.3569 5.14167 10.2176 5.14299C10.0783 5.14431 9.94114 5.10877 9.82 5.03998L9.72 4.99998H9.65C9.57673 4.92635 9.5187 4.83898 9.47923 4.74289C9.43977 4.6468 9.41964 4.54386 9.42 4.43998V1.57998L5.71 6.72998L1.6 11.87H6.6V18.42L10.69 13.16L14.42 8.15998H13.23C13.0938 8.15876 12.96 8.12444 12.84 8.05998L12.72 7.96998H12.66C12.587 7.8982 12.5291 7.81258 12.4896 7.71815C12.4501 7.62371 12.4299 7.52235 12.43 7.41998C12.43 7.31539 12.4508 7.21184 12.4911 7.11534C12.5314 7.01883 12.5905 6.93129 12.6649 6.8578C12.7393 6.78431 12.8276 6.72633 12.9246 6.68722C13.0216 6.64812 13.1254 6.62866 13.23 6.62998H14.4C14.694 6.6301 14.9823 6.71021 15.2342 6.8617C15.4862 7.0132 15.6921 7.23038 15.83 7.48998C15.9482 7.74054 15.9975 8.01804 15.9729 8.29397C15.9483 8.56989 15.8506 8.83429 15.69 9.05998Z" fill="white"/>
<path fill-rule="evenodd" clip-rule="evenodd" d="M11.3898 7.33998C11.3898 7.64856 11.2679 7.94465 11.0507 8.16378C10.8334 8.38291 10.5384 8.50735 10.2298 8.50998C10.0304 8.50773 9.83456 8.4562 9.65983 8.35998L9.47983 8.23998L9.38983 8.15998C9.2812 8.05299 9.19514 7.92528 9.13674 7.78444C9.07834 7.64359 9.04879 7.49245 9.04983 7.33998C9.04983 7.18549 9.08042 7.03253 9.13984 6.88992C9.19926 6.74731 9.28634 6.61789 9.39604 6.50911C9.50575 6.40034 9.63591 6.31436 9.77902 6.25616C9.92213 6.19795 10.0753 6.16866 10.2298 6.16998C10.3838 6.16723 10.5367 6.19568 10.6793 6.25363C10.822 6.31158 10.9514 6.39783 11.0598 6.50717C11.1682 6.6165 11.2533 6.74666 11.31 6.8898C11.3668 7.03293 11.3939 7.18607 11.3898 7.33998Z" fill="white"/>
</g>
<defs>
<clipPath id="clip0">
<rect width="16" height="20" fill="white"/>
</clipPath>
</defs>
</svg>
