<svg width="22" height="20" viewBox="0 0 22 20" fill="none" xmlns="http://www.w3.org/2000/svg">
<g clip-path="url(#clip0)">
<path d="M18.3301 19C18.3301 19.1978 18.2714 19.3911 18.1615 19.5556C18.0517 19.72 17.8955 19.8482 17.7128 19.9239C17.53 19.9996 17.329 20.0194 17.135 19.9808C16.941 19.9422 16.7628 19.847 16.623 19.7071C16.4831 19.5673 16.3879 19.3891 16.3493 19.1951C16.3107 19.0011 16.3305 18.8 16.4062 18.6173C16.4819 18.4346 16.6101 18.2784 16.7745 18.1685C16.939 18.0586 17.1323 18 17.3301 18C17.5953 18 17.8496 18.1054 18.0372 18.2929C18.2247 18.4804 18.3301 18.7348 18.3301 19Z" fill="white"/>
<path d="M8 19C8 19.1978 7.94135 19.3911 7.83147 19.5556C7.72159 19.72 7.56541 19.8482 7.38268 19.9239C7.19996 19.9996 6.99889 20.0194 6.80491 19.9808C6.61093 19.9422 6.43275 19.847 6.29289 19.7071C6.15304 19.5673 6.0578 19.3891 6.01922 19.1951C5.98063 19.0011 6.00043 18.8 6.07612 18.6173C6.15181 18.4346 6.27998 18.2784 6.44443 18.1685C6.60888 18.0586 6.80222 18 7 18C7.26522 18 7.51957 18.1054 7.70711 18.2929C7.89464 18.4804 8 18.7348 8 19Z" fill="white"/>
<path d="M21.4001 4.81001C21.4001 5.04142 21.3314 5.26763 21.2029 5.46003C21.0743 5.65244 20.8916 5.8024 20.6778 5.89095C20.464 5.97951 20.2288 6.00268 20.0018 5.95753C19.7748 5.91239 19.5664 5.80096 19.4027 5.63733C19.2391 5.4737 19.1277 5.26523 19.0825 5.03827C19.0374 4.81131 19.0606 4.57606 19.1491 4.36228C19.2377 4.14849 19.3876 3.96576 19.58 3.8372C19.7724 3.70863 19.9987 3.64001 20.2301 3.64001C20.5404 3.64001 20.838 3.76328 21.0574 3.9827C21.2768 4.20212 21.4001 4.49971 21.4001 4.81001Z" fill="white"/>
<path d="M20.7098 7.81005C20.7146 7.86327 20.7146 7.91683 20.7098 7.97005L19.8898 13.3201C19.7843 13.9877 19.4426 14.5952 18.9269 15.032C18.4111 15.4689 17.7556 15.7059 17.0798 15.7001H7.19977C6.5239 15.7059 5.86841 15.4689 5.35266 15.032C4.8369 14.5952 4.4952 13.9877 4.38977 13.3201L3.10977 4.92005L2.80977 2.63005C2.76834 2.32082 2.6154 2.03737 2.3797 1.83297C2.14399 1.62857 1.84174 1.51729 1.52977 1.52005H0.769766C0.568201 1.52005 0.374892 1.43998 0.232365 1.29745C0.0898369 1.15492 0.00976563 0.961616 0.00976562 0.760051C0.00976562 0.558487 0.0898369 0.365178 0.232365 0.22265C0.374892 0.0801222 0.568201 5.10773e-05 0.769766 5.10773e-05H1.52977C2.21569 -0.00406805 2.87976 0.241079 3.39848 0.689898C3.9172 1.13872 4.25525 1.76066 4.34977 2.44005L4.55977 4.05005H17.5598C17.7508 4.06518 17.929 4.15188 18.0588 4.2928C18.1886 4.43372 18.2604 4.61846 18.2598 4.81005C18.2609 4.98905 18.1996 5.16284 18.0864 5.30154C17.9733 5.44024 17.8153 5.53518 17.6398 5.57005H4.76977L5.91977 13.1001C5.96973 13.4029 6.12607 13.6781 6.36068 13.876C6.59529 14.074 6.8928 14.1818 7.19977 14.1801H17.0598C17.3673 14.1838 17.6659 14.0768 17.9009 13.8784C18.136 13.6801 18.2917 13.4038 18.3398 13.1001L19.1498 7.81005C19.1393 7.7438 19.1393 7.67631 19.1498 7.61005C19.201 7.43023 19.3152 7.27481 19.4714 7.1721C19.6276 7.06938 19.8156 7.02621 20.001 7.05045C20.1864 7.07468 20.3569 7.16471 20.4815 7.30414C20.6061 7.44356 20.6765 7.6231 20.6798 7.81005H20.7098Z" fill="white"/>
</g>
<defs>
<clipPath id="clip0">
<rect width="21.4" height="20" fill="white"/>
</clipPath>
</defs>
</svg>
