<svg width="24" height="24" viewBox="0 0 24 24" fill="none" xmlns="http://www.w3.org/2000/svg">
<path fill-rule="evenodd" clip-rule="evenodd" d="M12 3.53846C7.32682 3.53846 3.53846 7.32682 3.53846 12C3.53846 16.6732 7.32682 20.4615 12 20.4615C16.6732 20.4615 20.4615 16.6732 20.4615 12C20.4615 7.32682 16.6732 3.53846 12 3.53846ZM2 12C2 6.47715 6.47715 2 12 2C17.5228 2 22 6.47715 22 12C22 17.5228 17.5228 22 12 22C6.47715 22 2 17.5228 2 12Z" fill="white"/>
<path fill-rule="evenodd" clip-rule="evenodd" d="M12.0002 8.15382C11.2921 8.15382 10.7181 8.72781 10.7181 9.43587C10.7181 9.8607 10.3738 10.2051 9.94892 10.2051C9.52408 10.2051 9.17969 9.8607 9.17969 9.43587C9.17969 7.87814 10.4425 6.61536 12.0002 6.61536C13.5579 6.61536 14.8207 7.87814 14.8207 9.43587C14.8207 9.99621 14.6565 10.5206 14.3733 10.9606C14.196 11.2363 13.9886 11.4994 13.7974 11.7371C13.7624 11.7805 13.7281 11.8231 13.6943 11.8649C13.5357 12.0612 13.39 12.2415 13.2555 12.4264C12.9236 12.8826 12.7694 13.2253 12.7694 13.5385C12.7694 13.9633 12.425 14.3077 12.0002 14.3077C11.5754 14.3077 11.231 13.9633 11.231 13.5385C11.231 12.7187 11.6334 12.0408 12.0114 11.5213C12.1712 11.3018 12.3462 11.0853 12.5053 10.8884C12.5372 10.849 12.5685 10.8103 12.5988 10.7726C12.7887 10.5365 12.9504 10.3289 13.0796 10.1282C13.2078 9.92888 13.2823 9.69224 13.2823 9.43587C13.2823 8.72781 12.7083 8.15382 12.0002 8.15382Z" fill="white"/>
<path d="M13.0258 16.6154C13.0258 17.1818 12.5666 17.641 12.0002 17.641C11.4338 17.641 10.9746 17.1818 10.9746 16.6154C10.9746 16.0489 11.4338 15.5897 12.0002 15.5897C12.5666 15.5897 13.0258 16.0489 13.0258 16.6154Z" fill="white"/>
</svg>