<svg width="20" height="20" viewBox="0 0 20 20" fill="none" xmlns="http://www.w3.org/2000/svg">
<path fill-rule="evenodd" clip-rule="evenodd" d="M9.99977 5.1163C7.30257 5.1163 5.11605 7.30282 5.11605 10C5.11605 12.6972 7.30257 14.8837 9.99977 14.8837C12.697 14.8837 14.8835 12.6972 14.8835 10C14.8835 7.30282 12.697 5.1163 9.99977 5.1163ZM3.7207 10C3.7207 6.53219 6.53194 3.72095 9.99977 3.72095C13.4676 3.72095 16.2789 6.53219 16.2789 10C16.2789 13.4678 13.4676 16.2791 9.99977 16.2791C6.53194 16.2791 3.7207 13.4678 3.7207 10Z" fill="#C4C4C4"/>
<path fill-rule="evenodd" clip-rule="evenodd" d="M9.99995 0C10.3852 0 10.6976 0.31236 10.6976 0.69767V1.62791C10.6976 2.01322 10.3852 2.32558 9.99995 2.32558C9.61465 2.32558 9.30225 2.01322 9.30225 1.62791V0.69767C9.30225 0.31236 9.61465 0 9.99995 0Z" fill="#C4C4C4"/>
<path fill-rule="evenodd" clip-rule="evenodd" d="M9.99995 17.6743C10.3852 17.6743 10.6976 17.9867 10.6976 18.372V19.3022C10.6976 19.6875 10.3852 19.9999 9.99995 19.9999C9.61465 19.9999 9.30225 19.6875 9.30225 19.3022V18.372C9.30225 17.9867 9.61465 17.6743 9.99995 17.6743Z" fill="#C4C4C4"/>
<path fill-rule="evenodd" clip-rule="evenodd" d="M19.9999 9.99995C19.9999 10.3852 19.6875 10.6976 19.3022 10.6976H18.372C17.9867 10.6976 17.6743 10.3852 17.6743 9.99995C17.6743 9.61465 17.9867 9.30225 18.372 9.30225H19.3022C19.6875 9.30225 19.9999 9.61465 19.9999 9.99995Z" fill="#C4C4C4"/>
<path fill-rule="evenodd" clip-rule="evenodd" d="M2.32558 9.99995C2.32558 10.3852 2.01322 10.6976 1.62791 10.6976H0.69767C0.31236 10.6976 0 10.3852 0 9.99995C0 9.61465 0.31236 9.30225 0.69767 9.30225H1.62791C2.01322 9.30225 2.32558 9.61465 2.32558 9.99995Z" fill="#C4C4C4"/>
<path fill-rule="evenodd" clip-rule="evenodd" d="M17.071 2.92895C17.3434 3.20141 17.3434 3.64315 17.071 3.91561L16.4132 4.57339C16.1407 4.84585 15.699 4.84585 15.4265 4.57339C15.1541 4.30093 15.1541 3.85918 15.4265 3.58673L16.0843 2.92895C16.3568 2.65649 16.7985 2.65649 17.071 2.92895Z" fill="#C4C4C4"/>
<path fill-rule="evenodd" clip-rule="evenodd" d="M4.57339 15.4267C4.84585 15.6992 4.84585 16.1409 4.57339 16.4134L3.91561 17.0712C3.64315 17.3436 3.20141 17.3436 2.92895 17.0712C2.65649 16.7987 2.65649 16.357 2.92895 16.0845L3.58673 15.4267C3.85918 15.1543 4.30093 15.1543 4.57339 15.4267Z" fill="#C4C4C4"/>
<path fill-rule="evenodd" clip-rule="evenodd" d="M17.071 17.0712C16.7985 17.3436 16.3568 17.3436 16.0843 17.0712L15.4265 16.4134C15.1541 16.1409 15.1541 15.6992 15.4265 15.4267C15.699 15.1543 16.1407 15.1543 16.4132 15.4267L17.071 16.0845C17.3434 16.357 17.3434 16.7987 17.071 17.0712Z" fill="#C4C4C4"/>
<path fill-rule="evenodd" clip-rule="evenodd" d="M4.57339 4.57339C4.30093 4.84585 3.85919 4.84585 3.58673 4.57339L2.92895 3.91561C2.65649 3.64315 2.65649 3.20141 2.92895 2.92895C3.20141 2.65649 3.64315 2.65649 3.91561 2.92895L4.57339 3.58673C4.84585 3.85918 4.84585 4.30093 4.57339 4.57339Z" fill="#C4C4C4"/>
</svg>