<svg width="24" height="24" viewBox="0 0 24 24" fill="none" xmlns="http://www.w3.org/2000/svg">
<path fill-rule="evenodd" clip-rule="evenodd" d="M19.1998 3.79995C19.1998 4.39995 18.6998 4.99995 17.9998 4.99995C17.7998 4.99995 17.5998 4.89995 17.3998 4.89995L17.1998 4.79995C17.1998 4.79995 17.0998 4.79995 17.0998 4.69995C16.8998 4.49995 16.7998 4.19995 16.7998 3.89995C16.7998 3.29995 17.2998 2.69995 17.9998 2.69995C18.1998 2.69995 18.4998 2.79995 18.6998 2.89995C18.9998 3.09995 19.1998 3.39995 19.1998 3.79995Z" fill="white"/>
<path fill-rule="evenodd" clip-rule="evenodd" d="M20 12.2C20 14 19.9 16.2 19.8 18.1C19.7 19 19.7 19.8 19.6 20.4C19.6 20.7 19.6 20.9 19.5 21.1V21.3V21.4C19.5 21.7 19.3 21.9 19.1 22C18.9 22.1 18.6 22.1 18.4 22L12.1 18.7C12 18.7 11.9 18.7 11.9 18.7L5.6 22C5.4 22.1 5.1 22.1 4.9 22C4.7 21.9 4.5 21.7 4.5 21.4V21.3V21.1C4.5 20.9 4.5 20.7 4.4 20.4C4.4 19.8 4.3 19 4.2 18.1C4.1 16.3 4 14 4 12.2C4 9.9 4.2 6.7 4.3 4.8C4.4 3.5 5.5 2.4 6.8 2.3C8.3 2.2 10.4 2 12 2C12.8 2 13.8 2 14.8 2.1C14.9 2.1 15.1 2.2 15.2 2.2C15.4 2.3 15.5 2.6 15.5 2.8C15.5 3.2 15.2 3.6 14.7 3.6C13.8 3.5 12.8 3.5 12 3.5C10.5 3.5 8.4 3.7 7 3.8C6.4 3.9 5.9 4.4 5.9 5C5.8 6.9 5.6 10 5.6 12.3C5.6 14 5.7 16.3 5.8 18.1C5.9 18.9 5.9 19.6 5.9 20.1L11.1 17.3C11.6 17 12.3 17 12.8 17.3L18 20.1C18 19.6 18.1 18.9 18.1 18.1C18.2 16.3 18.3 14.1 18.3 12.3C18.3 10.8 18.2 8.9 18.1 7.2C18.1 7.2 18.1 7.1 18.1 7C18.1 6.6 18.4 6.3 18.9 6.3C19.1 6.3 19.2 6.4 19.3 6.4C19.4 6.5 19.6 6.7 19.6 6.9V7C19.6 7 19.6 7 19.6 7.1C19.9 8.7 20 10.7 20 12.2Z" fill="white"/>
<path fill-rule="evenodd" clip-rule="evenodd" d="M18.3001 7.1V7C18.2001 7 18.2001 7.1 18.3001 7.1Z" fill="white"/>
</svg>
