<svg width="20" height="20" viewBox="0 0 20 20" fill="none" xmlns="http://www.w3.org/2000/svg">
<g clip-path="url(#clip0)">
<path fill-rule="evenodd" clip-rule="evenodd" d="M19.8401 13.17C19.4468 15.1405 18.3673 16.9077 16.7936 18.1572C15.2199 19.4067 13.254 20.0575 11.2456 19.9939C9.23723 19.9303 7.31648 19.1564 5.82499 17.8099C4.3335 16.4634 3.36795 14.6314 3.10008 12.64C3.06976 12.3985 3.09195 12.1534 3.16512 11.9213C3.23829 11.6892 3.36072 11.4756 3.52403 11.2952C3.68735 11.1148 3.8877 10.9718 4.11138 10.876C4.33507 10.7801 4.57681 10.7337 4.82008 10.74H8.63008C8.75821 10.7493 8.88197 10.7906 8.99008 10.86C9.09449 10.9333 9.17983 11.0306 9.23897 11.1437C9.29812 11.2568 9.32936 11.3824 9.33008 11.51C9.33088 11.7026 9.25943 11.8886 9.12984 12.0311C9.00025 12.1737 8.82193 12.2624 8.63008 12.28H4.82008C4.78985 12.2788 4.75975 12.2844 4.73204 12.2966C4.70432 12.3087 4.67972 12.327 4.66008 12.35C4.65105 12.3632 4.64623 12.3789 4.64623 12.395C4.64623 12.411 4.65105 12.4267 4.66008 12.44C4.83391 13.7212 5.36222 14.9284 6.18544 15.9255C7.00867 16.9226 8.09407 17.6698 9.31926 18.083C10.5445 18.4962 11.8607 18.559 13.1197 18.2641C14.3786 17.9693 15.5301 17.3286 16.4444 16.4143C17.3587 15.5 17.9994 14.3485 18.2942 13.0895C18.5891 11.8306 18.5264 10.5143 18.1132 9.28914C17.7 8.06394 16.9527 6.97855 15.9556 6.15532C14.9586 5.3321 13.7513 4.80379 12.4701 4.62996C12.4568 4.62093 12.4411 4.6161 12.4251 4.6161C12.409 4.6161 12.3934 4.62093 12.3801 4.62996C12.3571 4.6496 12.3388 4.6742 12.3267 4.70192C12.3146 4.72963 12.3089 4.75973 12.3101 4.78996V8.55996C12.2926 8.74916 12.2048 8.92494 12.0642 9.05266C11.9235 9.18037 11.7401 9.25077 11.5501 9.24996C11.4171 9.24874 11.2865 9.21437 11.1701 9.14996L11.0001 9.09996H10.9401C10.8109 8.97609 10.7324 8.80853 10.7201 8.62996V4.81996C10.7139 4.57669 10.7603 4.33495 10.8561 4.11126C10.9519 3.88758 11.0949 3.68723 11.2753 3.52391C11.4557 3.36059 11.6693 3.23816 11.9014 3.165C12.1335 3.09183 12.3786 3.06964 12.6201 3.09996C13.7692 3.25534 14.8743 3.64419 15.8676 4.24259C16.8608 4.84098 17.7211 5.63627 18.3955 6.57953C19.0699 7.52279 19.5442 8.59406 19.7892 9.72745C20.0342 10.8608 20.0447 12.0324 19.8201 13.17H19.8401Z" fill="white"/>
<path fill-rule="evenodd" clip-rule="evenodd" d="M10.74 8.43994V8.58994C10.7351 8.5635 10.7351 8.53638 10.74 8.50994C10.7351 8.48686 10.7351 8.46302 10.74 8.43994Z" fill="#FFAA00"/>
<path fill-rule="evenodd" clip-rule="evenodd" d="M12.29 8.50995C12.2949 8.53639 12.2949 8.56351 12.29 8.58995V8.44995C12.2947 8.46968 12.2947 8.49023 12.29 8.50995Z" fill="#FFAA00"/>
<path fill-rule="evenodd" clip-rule="evenodd" d="M12.69 11.51C12.6862 11.7121 12.6302 11.9098 12.5274 12.0837C12.4245 12.2577 12.2784 12.4021 12.1031 12.5028C11.9279 12.6035 11.7296 12.6571 11.5275 12.6584C11.3254 12.6596 11.1264 12.6085 10.95 12.51L10.77 12.39C10.7355 12.3731 10.7048 12.3493 10.68 12.32C10.5146 12.1558 10.4021 11.9459 10.3568 11.7173C10.3115 11.4887 10.3355 11.2518 10.4258 11.0369C10.516 10.822 10.6684 10.639 10.8633 10.5113C11.0583 10.3835 11.2869 10.317 11.52 10.32C11.7541 10.3251 11.9824 10.3943 12.18 10.52C12.3386 10.6316 12.4679 10.7799 12.5568 10.9523C12.6456 11.1247 12.6913 11.3161 12.69 11.51Z" fill="white"/>
<path fill-rule="evenodd" clip-rule="evenodd" d="M5.05978 7.14H4.77979H4.93979C4.97919 7.13025 5.02038 7.13025 5.05978 7.14Z" fill="#FFAA00"/>
<path fill-rule="evenodd" clip-rule="evenodd" d="M8.68019 1.73994V4.99994C8.66285 5.19008 8.57547 5.36699 8.43504 5.49634C8.2946 5.62569 8.11112 5.69825 7.92019 5.69994C7.78718 5.69872 7.65658 5.66435 7.54019 5.59994L7.42019 5.51994H7.36019C7.29038 5.45256 7.2349 5.37177 7.1971 5.28241C7.15929 5.19305 7.13994 5.09697 7.14019 4.99994V1.73994C7.14111 1.67793 7.11983 1.61764 7.08019 1.56994H7.00019C5.62528 1.7603 4.34974 2.39317 3.36645 3.37285C2.38316 4.35253 1.74561 5.62574 1.55019 6.99994C1.59789 7.03958 1.65819 7.06086 1.72019 7.05994H5.06019C5.17408 7.07067 5.28378 7.10837 5.38019 7.16994C5.4846 7.24332 5.56994 7.3406 5.62909 7.45367C5.68823 7.56675 5.71947 7.69233 5.72019 7.81994C5.72019 8.02681 5.63802 8.22521 5.49174 8.37148C5.34546 8.51776 5.14706 8.59994 4.94019 8.59994H1.74019C1.50272 8.60769 1.26627 8.56526 1.0463 8.47545C0.826321 8.38563 0.627756 8.25044 0.463561 8.0787C0.299366 7.90696 0.173231 7.70252 0.093389 7.47873C0.0135465 7.25494 -0.0182092 7.01683 0.000194266 6.77994C0.238399 5.06591 1.02937 3.47641 2.25302 2.25277C3.47667 1.02912 5.06616 0.238146 6.78019 -5.87301e-05C7.02337 -0.0306862 7.2703 -0.00805363 7.50385 0.0662696C7.73741 0.140593 7.95201 0.264828 8.13276 0.43036C8.31351 0.595891 8.4561 0.798758 8.55063 1.02489C8.64516 1.25103 8.68937 1.49502 8.68019 1.73994Z" fill="white"/>
<path fill-rule="evenodd" clip-rule="evenodd" d="M7.13003 4.88995C7.12518 4.86687 7.12518 4.84303 7.13003 4.81995V4.99995C7.12072 4.96387 7.12072 4.92602 7.13003 4.88995Z" fill="#FFAA00"/>
<path fill-rule="evenodd" clip-rule="evenodd" d="M8.68994 4.88996C8.69483 4.9164 8.69483 4.94351 8.68994 4.96996V4.82996C8.69462 4.84968 8.69462 4.87023 8.68994 4.88996Z" fill="#FFAA00"/>
<path fill-rule="evenodd" clip-rule="evenodd" d="M8.67988 7.89C8.68121 7.99195 8.66227 8.09316 8.62417 8.18773C8.58606 8.28231 8.52956 8.36838 8.45792 8.44094C8.38629 8.51351 8.30096 8.57112 8.20688 8.61044C8.1128 8.64976 8.01185 8.67 7.90988 8.67C7.77984 8.67021 7.65211 8.63569 7.53988 8.56999L7.41988 8.49L7.35988 8.43999C7.28691 8.36821 7.22899 8.28259 7.1895 8.18816C7.15 8.09372 7.12974 7.99236 7.12988 7.89C7.13251 7.68486 7.21585 7.48903 7.36185 7.3449C7.50784 7.20078 7.70474 7.11998 7.90988 7.12C8.06577 7.12166 8.21812 7.16667 8.34988 7.25C8.45051 7.324 8.53266 7.42028 8.58991 7.53131C8.64716 7.64233 8.67795 7.7651 8.67988 7.89Z" fill="white"/>
</g>
<defs>
<clipPath id="clip0">
<rect width="20" height="20" fill="white"/>
</clipPath>
</defs>
</svg>
