<svg width="19" height="20" viewBox="0 0 19 20" fill="none" xmlns="http://www.w3.org/2000/svg">
<path d="M6.2347 5.67868L6.2347 5.67868C7.40155 4.27983 8.86459 3.06606 10.251 2.34891C12.9676 0.943839 15.8062 0.867322 17.2551 0.94648C18.0083 0.987588 18.6075 1.58668 18.6485 2.3399C18.7276 3.78871 18.6512 6.62734 17.2461 9.34398C16.529 10.7305 15.3152 12.1935 13.9163 13.3603L13.8682 13.3028L13.9163 13.3603C13.9075 13.3676 13.8981 13.3753 13.8889 13.3829L13.6877 15.9869C13.6525 16.4439 13.4128 16.8513 13.0305 17.1041L12.9891 17.0415L13.0305 17.1041L10.3104 18.9025C10.1373 19.0169 9.93846 19.0753 9.7381 19.0753C9.59544 19.0753 9.45224 19.0457 9.3171 18.9859C8.99202 18.8421 8.76523 18.5462 8.7108 18.1949L8.78491 18.1834L8.71079 18.1949L8.37859 16.0499C8.36038 16.0532 8.3421 16.0563 8.32381 16.0594C8.24413 16.0727 8.16406 16.0793 8.08442 16.0793C7.69793 16.0793 7.32098 15.9254 7.04202 15.6465L3.94856 12.553C3.61214 12.2166 3.45763 11.7376 3.53558 11.2712L6.2347 5.67868ZM6.2347 5.67868C6.22736 5.68748 6.21969 5.69683 6.21218 5.70602L3.60807 5.90718C3.1511 5.9425 2.74368 6.18225 2.49094 6.56451L2.5535 6.60587M6.2347 5.67868L2.5535 6.60587M2.5535 6.60587L2.49094 6.56451L0.692555 9.28462C0.496459 9.58121 0.465255 9.95273 0.609081 10.2778L0.609082 10.2778C0.752942 10.603 1.04882 10.8298 1.40014 10.8842L1.41163 10.8101L1.40015 10.8842L3.54503 11.2164M2.5535 6.60587L3.54503 11.2164M3.54503 11.2164C3.54181 11.2346 3.53864 11.2529 3.53559 11.2712L3.54503 11.2164ZM12.3661 16.0991L12.4074 16.1617L12.3661 16.0991L9.86171 17.7549L9.55439 15.7708C10.5951 15.4577 11.6239 14.972 12.6076 14.3298L12.4867 15.8941C12.4802 15.9782 12.4364 16.0526 12.3661 16.0991ZM4.72377 11.4698L4.72377 11.4698C4.80801 10.9661 4.93541 10.4845 5.0928 10.0281L9.56588 14.5012C9.02315 14.6882 8.53587 14.8025 8.12525 14.8712C8.0429 14.8849 7.95624 14.857 7.89386 14.7946L4.80037 11.7011C4.73793 11.6387 4.71002 11.5519 4.72377 11.4698ZM3.70086 7.10829L5.26511 6.98746C4.62288 7.97115 4.1372 8.99986 3.82409 10.0406L1.84003 9.73334L3.49585 7.22893C3.54236 7.15858 3.61685 7.11477 3.70086 7.10829ZM13.1447 12.4352C12.3153 13.127 11.5103 13.6309 10.7667 13.9983L5.59652 8.82821C6.07596 7.86115 6.65601 7.0543 7.15979 6.45036C8.22946 5.16797 9.5588 4.06324 10.8045 3.41892C13.2651 2.14618 15.86 2.07695 17.1895 2.14933C17.3281 2.15688 17.4381 2.26695 17.4457 2.40554C17.5182 3.73503 17.4488 6.32991 16.1761 8.79051C15.5318 10.0362 14.427 11.3655 13.1447 12.4352Z" fill="white" stroke="white" stroke-width="0.15"/>
<path d="M2.48209 13.2118L2.42905 13.1588C2.66429 12.9236 3.04569 12.9236 3.28089 13.1588C3.51612 13.394 3.51612 13.7754 3.28089 14.0106L1.5592 15.7323C1.44162 15.85 1.28732 15.9088 1.13328 15.9088C0.979241 15.9088 0.824951 15.8499 0.707383 15.7323L2.48209 13.2118ZM2.48209 13.2118L2.42905 13.1588L0.707382 14.8805C0.472151 15.1157 0.472148 15.4971 0.707374 15.7323L2.48209 13.2118Z" fill="white" stroke="white" stroke-width="0.15"/>
<path d="M4.85858 14.7364C4.62338 14.5012 4.24197 14.5012 4.00674 14.7364M4.85858 14.7364L4.80557 14.7894L4.85858 14.7364C4.85858 14.7364 4.85858 14.7364 4.85858 14.7364ZM4.85858 14.7364C5.09381 14.9717 5.09381 15.353 4.85854 15.5883M4.00674 14.7364L1.49541 18.8453C1.39247 18.9484 1.25751 18.9998 1.12254 18.9998C0.987576 18.9998 0.852646 18.9484 0.749674 18.8454C0.543729 18.6394 0.543729 18.3056 0.749674 18.0996L4.05978 14.7895C4.26572 14.5835 4.59963 14.5835 4.80554 14.7895C5.01149 14.9954 5.01149 15.3293 4.80551 15.5352M4.00674 14.7364L0.69664 18.0466C0.461406 18.2818 0.461406 18.6632 0.696641 18.8984C0.814245 19.016 0.9685 19.0748 1.12254 19.0748C1.27658 19.0748 1.43088 19.016 1.54846 18.8984M4.00674 14.7364L1.54846 18.8984M4.85854 15.5883L4.85854 15.5883L4.80551 15.5352M4.85854 15.5883L1.54846 18.8984M4.85854 15.5883L4.80551 15.5352M4.80551 15.5352L1.54846 18.8984" fill="white" stroke="white" stroke-width="0.15"/>
<path d="M5.58485 16.3146L3.86314 18.0363C3.62791 18.2715 3.62791 18.6529 3.86314 18.8881C3.98074 19.0057 4.13503 19.0646 4.28904 19.0646C4.44303 19.0646 4.59737 19.0058 4.71494 18.8881C4.71495 18.8881 4.71496 18.8881 4.71496 18.8881L6.43665 17.1664C6.67189 16.9312 6.67189 16.5498 6.43665 16.3146C6.20146 16.0793 5.82005 16.0793 5.58485 16.3146C5.58485 16.3146 5.58485 16.3146 5.58485 16.3146Z" fill="white" stroke="white" stroke-width="0.15"/>
<path d="M12.9252 9.30545C13.6003 9.30538 14.2756 9.04839 14.7896 8.53444C15.2876 8.03645 15.5618 7.37432 15.5618 6.67007C15.5618 5.96582 15.2876 5.30369 14.7896 4.8057C13.7616 3.77762 12.0888 3.77769 11.0609 4.8057C10.5628 5.30369 10.2886 5.96582 10.2886 6.67007C10.2886 7.37432 10.5629 8.03645 11.0609 8.53444C11.5749 9.04849 12.2499 9.30552 12.9252 9.30545ZM11.8066 5.55143C12.1149 5.24301 12.52 5.08881 12.9252 5.08881C13.3303 5.08881 13.7354 5.24301 14.0438 5.55143C14.3426 5.85022 14.5071 6.24749 14.5071 6.67003C14.5071 7.09258 14.3426 7.48988 14.0438 7.78867C13.427 8.40549 12.4233 8.40545 11.8065 7.78867C11.5077 7.48988 11.3432 7.09261 11.3432 6.67007C11.3432 6.24753 11.5078 5.85022 11.8066 5.55143Z" fill="white"/>
</svg>