<svg width="14" height="21" viewBox="0 0 14 21" fill="none" xmlns="http://www.w3.org/2000/svg">
<g clip-path="url(#clip0)">
<path d="M7.00003 -2.54511e-05C6.08289 -0.010633 5.17279 0.16119 4.32264 0.505454C3.4725 0.849718 2.69927 1.35955 2.04793 2.00532C1.39658 2.65108 0.880108 3.41989 0.528539 4.26704C0.17697 5.11419 -0.00268196 6.02277 3.02576e-05 6.93997C0.0762202 8.04477 0.364827 9.1245 0.85003 10.12C1.18091 10.8474 1.5653 11.5494 2.00003 12.22C2.076 12.3349 2.13652 12.4593 2.18003 12.59L3.08003 15.25V16.15C3.08109 16.412 3.10788 16.6732 3.16003 16.93C3.16003 16.93 3.16003 16.93 3.16003 16.99V17.12C3.23479 17.2894 3.36739 17.4267 3.53411 17.5073C3.70084 17.5879 3.89081 17.6066 4.07003 17.56C4.26696 17.5124 4.43723 17.3892 4.54392 17.217C4.65062 17.0448 4.68515 16.8375 4.64003 16.64C4.60372 16.4928 4.58691 16.3415 4.59003 16.19V15.9H9.25003V16.15C9.24874 16.3079 9.23199 16.4653 9.20003 16.62C9.15563 16.8086 9.18307 17.0071 9.27699 17.1766C9.37092 17.3462 9.52461 17.4747 9.70811 17.5371C9.89162 17.5995 10.0918 17.5914 10.2696 17.5143C10.4474 17.4372 10.5902 17.2966 10.67 17.12C10.67 17.12 10.67 17.04 10.67 17C10.67 17 10.67 17 10.67 16.95C10.7222 16.6932 10.749 16.432 10.75 16.17V15.27L11.65 12.61C11.6935 12.4793 11.7541 12.3549 11.83 12.24C12.2751 11.5703 12.6695 10.8684 13.01 10.14C13.5463 9.1484 13.8827 8.06117 14 6.93997C14.0027 6.02277 13.8231 5.11419 13.4715 4.26704C13.12 3.41989 12.6035 2.65108 11.9521 2.00532C11.3008 1.35955 10.5276 0.849718 9.67742 0.505454C8.82727 0.16119 7.91717 -0.010633 7.00003 -2.54511e-05ZM11.73 9.47997C11.4302 10.1385 11.0756 10.7707 10.67 11.37C10.5205 11.5976 10.3995 11.8428 10.31 12.1L9.55003 14.36H4.45003L3.69003 12.1C3.60052 11.8428 3.47961 11.5976 3.33003 11.37C2.92448 10.7707 2.5699 10.1385 2.27003 9.47997C1.86534 8.67884 1.624 7.80524 1.56003 6.90997C1.55862 6.19847 1.69889 5.4938 1.97265 4.83706C2.24641 4.18033 2.64819 3.58467 3.15455 3.08482C3.66091 2.58498 4.26172 2.19095 4.92195 1.92572C5.58217 1.66048 6.2886 1.52935 7.00003 1.53997C7.71146 1.52935 8.41789 1.66048 9.07811 1.92572C9.73834 2.19095 10.3392 2.58498 10.8455 3.08482C11.3519 3.58467 11.7536 4.18033 12.0274 4.83706C12.3012 5.4938 12.4414 6.19847 12.44 6.90997C12.3761 7.80524 12.1347 8.67884 11.73 9.47997Z" fill="white"/>
<path d="M8.17008 19.2399C8.17008 19.4714 8.10146 19.6976 7.9729 19.89C7.84434 20.0824 7.66161 20.2323 7.44782 20.3209C7.23403 20.4094 6.99878 20.4326 6.77182 20.3875C6.54487 20.3423 6.33639 20.2309 6.17276 20.0673C6.00914 19.9036 5.8977 19.6952 5.85256 19.4682C5.80742 19.2412 5.83059 19.006 5.91914 18.7922C6.00769 18.5784 6.15766 18.3957 6.35006 18.2671C6.54247 18.1386 6.76867 18.0699 7.00008 18.0699C7.31038 18.0699 7.60798 18.1932 7.82739 18.4126C8.04681 18.632 8.17008 18.9296 8.17008 19.2399Z" fill="white"/>
</g>
<defs>
<clipPath id="clip0">
<rect width="14" height="20.41" fill="white"/>
</clipPath>
</defs>
</svg>
