<svg width="550" height="50" viewBox="0 0 550 50" fill="none" xmlns="http://www.w3.org/2000/svg">
<path d="M73.2327 26.6694C73.2327 30.8979 73.2327 35.1265 73.2327 39.355C73.2327 42.9533 71.878 45.8487 68.6412 47.5944C65.4814 49.2904 62.287 48.9848 59.2388 47.1437C45.0293 38.5618 30.8173 29.9786 16.6027 21.3942C15.5795 20.7636 14.5104 20.2095 13.4044 19.7364C11.9034 19.1137 10.922 19.618 10.7103 21.2108C10.4719 22.9844 10.3332 24.7697 10.2947 26.5586C10.2254 28.671 10.2947 30.7871 10.2716 32.9033C10.2797 33.4856 10.1716 34.0637 9.95356 34.6043C9.73549 35.1449 9.41176 35.6373 9.00102 36.0531C8.59028 36.4689 8.10067 36.7999 7.56041 37.0271C7.02015 37.2542 6.43994 37.3729 5.85324 37.3764C5.26764 37.3931 4.68451 37.2944 4.1376 37.086C3.59069 36.8776 3.09087 36.5636 2.66706 36.1621C2.24326 35.7607 1.90389 35.2798 1.66861 34.7473C1.43333 34.2148 1.3068 33.6413 1.29636 33.0599C1.23093 27.7389 1.14241 22.4446 1.28481 17.1427C1.46955 10.2899 8.91681 6.34786 14.89 9.91558C23.1879 14.8814 31.4164 19.9388 39.6873 24.939C46.3456 28.9651 52.9923 32.9988 59.7006 36.9562C62.7142 38.74 64.0343 38.0525 64.1189 34.5841C64.2613 27.567 64.2344 20.5462 64.269 13.5253C64.269 10.2708 66.509 8.20812 69.5302 8.67414C71.7394 9.01792 73.2596 10.8476 73.2712 13.2579C73.2712 17.7271 73.2712 22.1963 73.2712 26.6655L73.2327 26.6694Z" fill="white"/>
<path d="M210.466 39.8744C210.239 39.3511 210.112 39.0264 209.962 38.7285C208.452 35.6736 207.663 32.3179 207.653 28.9153C207.653 23.7305 207.653 18.5445 207.653 13.3571C207.653 10.5687 209.523 8.61673 212.129 8.62437C214.734 8.63201 216.616 10.603 216.62 13.3648C216.62 18.3306 216.555 23.2581 216.643 28.2048C216.65 29.9563 216.896 31.6987 217.375 33.3845C218.529 37.2043 221.166 39.6299 225.303 39.798C229.196 39.9706 233.095 39.9311 236.984 39.6796C240.89 39.4122 244.019 36.4633 244.847 32.6397C245.144 31.2363 245.3 29.807 245.312 28.3729C245.366 23.4071 245.312 18.4795 245.336 13.5329C245.336 10.6565 247.175 8.65493 249.8 8.61673C252.425 8.57853 254.419 10.6451 254.419 13.5329C254.419 18.7202 254.569 23.9113 254.357 29.091C254.053 36.4824 251.136 42.5941 244.666 46.7081C242.614 48.0022 240.231 48.6826 237.8 48.6677C227.59 48.7059 217.381 48.7059 207.172 48.6677C204.397 48.6677 202.553 46.8341 202.553 44.2023C202.553 41.6659 204.404 39.9241 207.149 39.8821C208.172 39.8591 209.215 39.8744 210.466 39.8744Z" fill="white"/>
<path d="M121.411 48.6715C116.869 48.6715 112.32 48.534 107.787 48.702C100.409 48.9771 95.5515 45.31 92.1992 39.2212C90.3963 35.8999 89.4695 32.1798 89.5051 28.4073C89.5051 24.6982 89.4782 20.9892 89.5051 17.2801C89.4883 16.2739 89.8138 15.2915 90.4291 14.4916C91.0444 13.6917 91.9135 13.1211 92.8959 12.872C93.8554 12.6196 94.8729 12.6979 95.7819 13.0941C96.6908 13.4904 97.4373 14.181 97.8992 15.0531C98.26 15.8041 98.4518 16.6239 98.4611 17.4558C98.5188 20.9242 98.4611 24.3965 98.4919 27.8687C98.4917 29.0641 98.5804 30.2578 98.7574 31.4402C99.6042 36.6734 103.056 39.7827 108.379 39.8439C117.103 39.9406 125.827 39.9406 134.55 39.8439C140.708 39.7751 144.469 35.642 144.557 29.0452C144.611 25.2254 144.557 21.3864 144.557 17.5551C144.557 14.7094 146.439 12.7307 149.095 12.7536C151.75 12.7765 153.525 14.7285 153.529 17.536C153.529 21.6042 153.706 25.6837 153.471 29.7404C153.086 36.3411 150.473 41.9142 145.004 45.9479C142.558 47.7519 139.583 48.7076 136.536 48.6677C131.537 48.6791 126.468 48.6677 121.411 48.6715Z" fill="white"/>
<path d="M300.884 6.77185C304.575 6.92082 307.812 8.34562 310.202 11.5352C317.643 21.4464 325.095 31.3499 332.559 41.2458C334.037 43.2054 334.098 45.291 332.782 46.9756C332.19 47.7705 331.334 48.3326 330.366 48.5632C329.397 48.7937 328.377 48.6779 327.486 48.2361C326.651 47.7707 325.929 47.1276 325.373 46.3529C318.63 37.5088 311.907 28.6569 305.202 19.7975C304.46 18.8066 303.644 17.872 302.762 17.0014C301.311 15.6033 299.903 15.546 298.556 17.0014C296.939 18.7623 295.477 20.676 294.026 22.5783C287.847 30.6458 281.683 38.7196 275.533 46.7999C274.085 48.6907 271.795 49.1873 269.848 48.1215C268.916 47.6284 268.193 46.8202 267.809 45.8434C267.426 44.8665 267.408 43.7856 267.758 42.7967C267.895 42.4236 268.089 42.0733 268.332 41.7577C274.336 33.6724 280.342 25.5845 286.351 17.4941C287.832 15.5078 289.338 13.5393 290.87 11.5887C293.348 8.43348 296.623 6.84061 300.884 6.77185Z" fill="white"/>
<path d="M179.057 30.0307C179.103 30.8252 179.142 31.2302 179.196 31.6427C179.354 32.9036 179.746 34.1247 180.35 35.2448C181.389 36.9353 182.926 38.2685 184.753 39.0646C187.513 40.3634 188.64 42.9532 187.505 45.4361C186.37 47.919 183.552 48.874 180.762 47.5637C175.628 45.1343 172.614 40.8981 171.071 35.6535C170.373 33.1633 169.985 30.5977 169.916 28.0139C169.739 23.113 169.828 18.2007 169.874 13.296C169.905 10.1561 172.283 8.16219 175.239 8.67405C176.279 8.86331 177.216 9.41334 177.885 10.2258C178.553 11.0383 178.909 12.0602 178.888 13.1089C178.888 13.3419 178.911 13.7544 178.926 14.5833C178.926 14.8775 178.926 15.4619 178.926 16.222C178.926 16.4703 178.926 17.0662 178.895 18.2504C178.895 18.6782 178.895 19.0411 178.876 19.5529V20.4238C178.876 20.9624 178.876 21.3597 178.876 21.4819C178.876 22.372 178.876 23.3537 178.899 24.5951C178.942 28.1208 179.018 29.4768 179.057 30.0307Z" fill="white"/>
<path d="M94.412 1.0459C95.0361 1.03949 95.655 1.15815 96.2318 1.3948C96.8086 1.63144 97.3313 1.98119 97.7686 2.4231C98.206 2.865 98.5489 3.38997 98.777 3.96656C99.0051 4.54315 99.1135 5.15949 99.0959 5.77867C99.0995 6.39856 98.9785 7.01293 98.7397 7.58576C98.501 8.15858 98.1494 8.67833 97.7056 9.11453C97.2618 9.55072 96.7348 9.89457 96.1553 10.1259C95.5758 10.3573 94.9557 10.4715 94.3312 10.4618C93.6981 10.47 93.0698 10.3524 92.4831 10.1161C91.8964 9.87976 91.3633 9.52939 90.9151 9.08558C90.4669 8.64178 90.1126 8.11351 89.873 7.53183C89.6335 6.95015 89.5136 6.32681 89.5203 5.69846C89.5203 3.01693 91.6178 1.0268 94.412 1.0459Z" fill="white"/>
<path d="M148.76 10.4656C148.135 10.4666 147.517 10.345 146.94 10.1076C146.363 9.87031 145.839 9.522 145.398 9.08277C144.957 8.64355 144.608 8.1221 144.371 7.54847C144.135 6.97485 144.015 6.36039 144.018 5.7405C144.018 3.06661 146.112 1.04592 148.883 1.05738C149.506 1.04538 150.124 1.15852 150.702 1.39C151.28 1.62149 151.804 1.96653 152.244 2.40438C152.683 2.84222 153.029 3.36383 153.261 3.9378C153.492 4.51178 153.604 5.12627 153.59 5.74432C153.602 6.37373 153.484 6.99896 153.245 7.58189C153.005 8.16482 152.649 8.69325 152.197 9.13499C151.745 9.57672 151.207 9.92251 150.616 10.1513C150.025 10.38 149.394 10.487 148.76 10.4656Z" fill="white"/>
<path d="M517.755 48.6256C513.214 48.6256 508.668 48.4881 504.135 48.6562C496.757 48.9274 491.9 45.2642 488.547 39.1754C486.743 35.8546 485.816 32.1341 485.853 28.3614C485.853 24.6524 485.826 20.9433 485.853 17.2343C485.841 16.2276 486.172 15.2463 486.791 14.4492C487.411 13.652 488.283 13.0856 489.267 12.8415C490.227 12.5897 491.244 12.6684 492.153 13.0645C493.061 13.4607 493.808 14.151 494.27 15.0226C494.633 15.7728 494.823 16.5933 494.828 17.4253C494.886 20.8937 494.828 24.3659 494.863 27.8343C494.861 29.031 494.95 30.2262 495.129 31.4097C495.972 36.6428 499.428 39.7522 504.75 39.8133C513.474 39.905 522.198 39.905 530.922 39.8133C537.08 39.7445 540.84 35.6115 540.928 29.0146C540.982 25.1948 540.928 21.375 540.928 17.5246C540.928 14.6788 542.81 12.7001 545.466 12.7192C548.122 12.7383 549.896 14.6941 549.9 17.5055C549.9 21.5736 550.077 25.6532 549.846 29.706C549.461 36.3105 546.844 41.8836 541.379 45.9174C538.933 47.7202 535.958 48.6746 532.912 48.6333C527.889 48.6333 522.82 48.6218 517.755 48.6256Z" fill="white"/>
<path d="M490.757 1.00001C491.382 0.990891 492.002 1.10772 492.58 1.34341C493.158 1.57911 493.682 1.92878 494.12 2.37124C494.558 2.8137 494.9 3.33976 495.128 3.91756C495.355 4.49537 495.461 5.1129 495.441 5.73278C495.445 6.35266 495.323 6.96704 495.085 7.53986C494.846 8.11269 494.494 8.63244 494.051 9.06863C493.607 9.50483 493.08 9.84868 492.5 10.08C491.921 10.3114 491.301 10.4256 490.676 10.4159C490.042 10.4251 489.413 10.3083 488.825 10.0725C488.237 9.83667 487.703 9.48652 487.254 9.04267C486.804 8.59882 486.449 8.07023 486.209 7.48802C485.968 6.90581 485.848 6.28175 485.854 5.65256C485.869 2.97104 487.967 1.00001 490.757 1.00001Z" fill="white"/>
<path d="M545.104 10.4159C544.48 10.4169 543.861 10.2952 543.284 10.0579C542.707 9.82055 542.183 9.47223 541.743 9.03301C541.302 8.59378 540.953 8.07234 540.716 7.49871C540.479 6.92509 540.359 6.31062 540.363 5.69073C540.363 3.01685 542.46 0.999979 545.228 1.01144C545.851 0.998909 546.47 1.11166 547.048 1.34292C547.626 1.57417 548.151 1.91913 548.591 2.35703C549.031 2.79493 549.377 3.31671 549.609 3.89095C549.841 4.46519 549.953 5.08 549.938 5.69837C549.95 6.32795 549.833 6.95334 549.593 7.53634C549.353 8.11933 548.996 8.64771 548.544 9.0892C548.092 9.53069 547.553 9.87603 546.962 10.1041C546.37 10.3322 545.739 10.4383 545.104 10.4159Z" fill="white"/>
<path d="M195.168 49C194.223 48.9899 193.304 48.7014 192.525 48.1712C191.747 47.641 191.145 46.8931 190.795 46.0224C190.446 45.1517 190.366 44.1977 190.564 43.2816C190.763 42.3655 191.232 41.5286 191.91 40.8774C192.589 40.2262 193.448 39.7901 194.377 39.6244C195.307 39.4588 196.265 39.5712 197.129 39.9472C197.994 40.3233 198.727 40.946 199.234 41.7364C199.741 42.5267 200 43.4489 199.978 44.3857C199.977 45.0049 199.851 45.6176 199.606 46.1875C199.362 46.7573 199.005 47.2726 198.557 47.703C198.108 48.1333 197.577 48.4698 196.995 48.6926C196.412 48.9154 195.791 49.02 195.168 49Z" fill="white"/>
<path d="M300.957 43.4804C298.263 43.4804 296.239 41.3909 296.277 38.6445C296.316 36.0317 298.41 34.0607 301.119 34.0607C301.742 34.0712 302.356 34.2034 302.927 34.4496C303.499 34.6958 304.015 35.0513 304.448 35.4958C304.881 35.9402 305.221 36.4649 305.45 37.0399C305.678 37.6149 305.791 38.2289 305.78 38.8469C305.769 39.4649 305.636 40.0748 305.388 40.6417C305.14 41.2087 304.782 41.7215 304.334 42.1511C303.886 42.5806 303.357 42.9184 302.778 43.1452C302.199 43.372 301.58 43.4833 300.957 43.4727V43.4804Z" fill="white"/>
<path d="M10.5371 44.3551C10.5415 44.9739 10.4203 45.5872 10.1808 46.1585C9.94128 46.7299 9.58835 47.2475 9.14301 47.6806C8.69768 48.1136 8.16906 48.4533 7.58867 48.6793C7.00827 48.9054 6.38796 49.0131 5.76472 48.9962C5.13075 49.0095 4.50071 48.8945 3.91301 48.6582C3.3253 48.4218 2.79227 48.0692 2.34642 47.6216C1.90057 47.1741 1.55125 46.6412 1.31976 46.0553C1.08827 45.4694 0.979477 44.8428 1.00001 44.2138C1.00402 43.5953 1.13112 42.9837 1.37401 42.4142C1.61689 41.8446 1.97077 41.3283 2.41531 40.8949C2.85985 40.4615 3.3863 40.1196 3.9644 39.8887C4.5425 39.6579 5.16086 39.5427 5.78396 39.5497C6.41807 39.5412 7.04734 39.6603 7.63377 39.8998C8.2202 40.1394 8.7516 40.4945 9.19587 40.9437C9.64014 41.3928 9.98805 41.9267 10.2186 42.513C10.4491 43.0994 10.5575 43.726 10.5371 44.3551Z" fill="white"/>
<path d="M469.623 26.3407C469.623 30.5693 469.623 34.7979 469.623 39.0264C469.623 42.6247 468.269 45.5201 465.032 47.2696C461.872 48.9656 458.681 48.66 455.629 46.815C441.42 38.2332 427.208 29.6513 412.993 21.0694C411.97 20.4376 410.901 19.8822 409.795 19.4078C408.294 18.7851 407.313 19.2893 407.082 20.8822C406.843 22.6558 406.705 24.4411 406.666 26.23C406.601 28.3423 406.666 30.4585 406.643 32.5709C406.635 33.7318 406.17 34.8437 405.348 35.669C404.525 36.4942 403.41 36.9674 402.24 36.9874C401.071 37.0073 399.94 36.5725 399.089 35.7758C398.238 34.979 397.735 33.8837 397.687 32.7237C397.622 27.4179 397.533 22.1084 397.687 16.8065C397.868 9.94986 405.315 6.01161 411.288 9.57551C419.586 14.5413 427.815 19.5987 436.086 24.5989C442.744 28.625 449.394 32.6626 456.099 36.6161C459.12 38.4 460.44 37.7124 460.51 34.244C460.652 27.2269 460.629 20.2061 460.66 13.1853C460.66 9.93458 462.9 7.87187 465.921 8.33789C468.13 8.67785 469.65 10.5114 469.662 12.9217C469.662 17.3909 469.662 21.8563 469.662 26.3255L469.623 26.3407Z" fill="white"/>
<path d="M406.928 44.0266C406.909 45.2818 406.389 46.4784 405.482 47.3531C404.575 48.2277 403.355 48.7089 402.09 48.6907C400.825 48.6724 399.62 48.1563 398.738 47.2558C397.857 46.3554 397.372 45.1443 397.391 43.8891C397.4 43.2676 397.532 42.654 397.78 42.0832C398.028 41.5125 398.387 40.9958 398.836 40.5627C399.286 40.1296 399.816 39.7886 400.398 39.5591C400.98 39.3296 401.602 39.2161 402.228 39.2251C402.855 39.2341 403.473 39.3655 404.048 39.6117C404.623 39.8579 405.144 40.2141 405.58 40.6599C406.016 41.1058 406.36 41.6326 406.591 42.2102C406.822 42.7879 406.937 43.4051 406.928 44.0266Z" fill="white"/>
<path d="M381.419 5.84741C381.37 7.07365 380.841 8.23257 379.943 9.0767C379.046 9.92084 377.852 10.3833 376.615 10.3653C375.379 10.3474 374.199 9.85046 373.326 8.98063C372.454 8.11081 371.959 6.93702 371.947 5.70989C371.941 5.08274 372.061 4.46069 372.301 3.88036C372.54 3.30003 372.895 2.77314 373.342 2.33072C373.79 1.8883 374.323 1.53928 374.909 1.3042C375.495 1.06913 376.122 0.952755 376.754 0.961929C377.386 0.971102 378.009 1.10564 378.588 1.35762C379.167 1.6096 379.689 1.97393 380.123 2.42917C380.558 2.8844 380.897 3.42134 381.119 4.00839C381.341 4.59543 381.443 5.2207 381.419 5.84741Z" fill="white"/>
<path d="M381.449 17.1312C381.449 14.7051 379.468 12.7384 377.023 12.7384C374.579 12.7384 372.597 14.7051 372.597 17.1312V44.2788C372.597 46.7048 374.579 48.6716 377.023 48.6716C379.468 48.6716 381.449 46.7048 381.449 44.2788V17.1312Z" fill="white"/>
</svg>