<svg width="20" height="20" viewBox="0 0 20 20" fill="none" xmlns="http://www.w3.org/2000/svg">
<g clip-path="url(#clip0)">
<path fill-rule="evenodd" clip-rule="evenodd" d="M14.8697 4.77003C14.8925 4.97249 14.8351 5.17581 14.7099 5.33652C14.5847 5.49723 14.4016 5.60258 14.1997 5.63003C14.0701 5.64045 13.9399 5.61988 13.8197 5.57003L13.6997 5.51003H13.6297C13.4696 5.38496 13.3653 5.20164 13.3397 5.00003C13.3213 4.89786 13.324 4.793 13.3476 4.6919C13.3712 4.59081 13.4153 4.49563 13.4772 4.41223C13.539 4.32884 13.6173 4.259 13.7072 4.20702C13.797 4.15505 13.8966 4.12204 13.9997 4.11003C14.1501 4.09178 14.3025 4.11603 14.4397 4.18003C14.5536 4.23653 14.6521 4.31967 14.727 4.42238C14.8018 4.52509 14.8508 4.64435 14.8697 4.77003Z" fill="white"/>
<path fill-rule="evenodd" clip-rule="evenodd" d="M14.0799 7.50998C14.0167 7.61456 13.9465 7.71479 13.8699 7.80998C13.423 8.41439 12.8394 8.90438 12.1667 9.23984C11.4941 9.5753 10.7515 9.74669 9.99988 9.73998C8.70828 9.73998 7.46957 9.22689 6.55627 8.31359C5.64297 7.40028 5.12988 6.16158 5.12988 4.86998C5.12988 4.66576 5.21101 4.46991 5.35541 4.3255C5.49981 4.1811 5.69567 4.09998 5.89988 4.09998C6.1041 4.09998 6.29995 4.1811 6.44436 4.3255C6.58876 4.46991 6.66988 4.66576 6.66988 4.86998C6.66988 5.75407 7.0204 6.6021 7.64461 7.22818C8.26882 7.85427 9.11579 8.20733 9.99988 8.20998C10.5259 8.21176 11.0447 8.08738 11.5128 7.84727C11.9808 7.60715 12.3845 7.2583 12.6899 6.82998C12.714 6.79154 12.7408 6.75478 12.7699 6.71998C12.8946 6.57467 13.0696 6.48181 13.2599 6.45998C13.3604 6.44738 13.4623 6.45473 13.56 6.4816C13.6576 6.50848 13.749 6.55434 13.8289 6.61658C13.9088 6.67881 13.9756 6.75619 14.0255 6.84429C14.0754 6.93239 14.1075 7.02947 14.1199 7.12998C14.137 7.25802 14.1233 7.38831 14.0799 7.50998Z" fill="white"/>
<path fill-rule="evenodd" clip-rule="evenodd" d="M19.9999 16.94C19.987 17.6293 19.7174 18.2889 19.244 18.7901C18.7706 19.2912 18.1273 19.5978 17.4399 19.65C15.4999 19.79 12.3599 20 10.0399 20C7.71991 20 4.57991 19.79 2.63991 19.65C1.93828 19.6172 1.27531 19.319 0.785181 18.8159C0.29505 18.3128 0.0143585 17.6422 -8.89748e-05 16.94C-8.89748e-05 15.03 -0.080089 11.94 -8.89748e-05 9.70998C0.079911 7.47998 0.519911 4.30998 0.769911 2.40998C0.865889 1.72461 1.21228 1.09906 1.74227 0.654024C2.27225 0.208986 2.94827 -0.024014 3.63991 -2.49137e-05H14.9999C15.1558 0.00163857 15.3082 0.0466512 15.4399 0.129975C15.5716 0.225972 15.6699 0.360787 15.721 0.515495C15.7721 0.670203 15.7735 0.837036 15.7249 0.992574C15.6764 1.14811 15.5804 1.28455 15.4503 1.38272C15.3203 1.4809 15.1628 1.53589 14.9999 1.53998H3.63991C3.33584 1.53715 3.04118 1.64526 2.81108 1.84406C2.58099 2.04286 2.43125 2.31872 2.38991 2.61998C2.12991 4.51998 1.74991 7.55998 1.61991 9.78998C1.48991 12.02 1.52991 15 1.61991 16.91C1.62428 17.2167 1.74402 17.5105 1.95529 17.7329C2.16655 17.9552 2.45383 18.0899 2.75991 18.11C4.68991 18.26 7.75991 18.46 10.0399 18.46C12.3199 18.46 15.3899 18.26 17.3199 18.11C17.626 18.0899 17.9133 17.9552 18.1245 17.7329C18.3358 17.5105 18.4555 17.2167 18.4599 16.91C18.4599 15 18.5399 11.99 18.4599 9.78998C18.3599 8.02997 18.0999 5.78998 17.8699 3.94998C17.865 3.91347 17.865 3.87648 17.8699 3.83998C17.8738 3.655 17.9449 3.47777 18.0701 3.34154C18.1953 3.2053 18.3659 3.11941 18.5499 3.09998C18.7002 3.08172 18.8527 3.10597 18.9899 3.16998C19.1016 3.22688 19.1975 3.31053 19.269 3.41347C19.3406 3.51641 19.3855 3.63545 19.3999 3.75998C19.4049 3.79648 19.4049 3.83347 19.3999 3.86998C19.6299 5.67998 19.8899 7.92998 19.9899 9.70998C19.9999 12 19.9999 15 19.9999 16.94Z" fill="white"/>
<path fill-rule="evenodd" clip-rule="evenodd" d="M18.8999 1.15997C18.9396 1.46496 18.8566 1.77323 18.6691 2.01701C18.4816 2.26079 18.2049 2.42012 17.8999 2.45997C17.7038 2.48395 17.5047 2.45993 17.3199 2.38997L17.1299 2.28997C17.0933 2.27607 17.0594 2.25575 17.0299 2.22997C16.7844 2.03824 16.623 1.75853 16.5799 1.44997C16.5427 1.14431 16.6265 0.836221 16.8133 0.591468C17.0002 0.346714 17.2753 0.184687 17.5799 0.13997C17.8091 0.116151 18.0404 0.154133 18.2499 0.24997C18.4245 0.336785 18.5751 0.46518 18.6885 0.62386C18.8018 0.78254 18.8744 0.966642 18.8999 1.15997Z" fill="white"/>
</g>
<defs>
<clipPath id="clip0">
<rect width="20" height="20" fill="white"/>
</clipPath>
</defs>
</svg>
