<svg width="188" height="17" viewBox="0 0 188 17" fill="none" xmlns="http://www.w3.org/2000/svg">
<path d="M24.7363 9.55641C24.7363 10.9659 24.7363 12.3754 24.7363 13.785C24.7363 14.9844 24.2724 15.9495 23.164 16.5314C22.0819 17.0968 20.988 16.9949 19.9442 16.3812C15.0783 13.5205 10.2115 10.6595 5.34387 7.79802C4.99348 7.58784 4.6274 7.40313 4.24865 7.24542C3.73464 7.03787 3.39856 7.20594 3.32608 7.7369C3.24445 8.32809 3.19693 8.9232 3.18374 9.51949C3.16001 10.2236 3.18374 10.929 3.17583 11.6344C3.17862 11.8285 3.14161 12.0212 3.06693 12.2014C2.99226 12.3816 2.8814 12.5457 2.74074 12.6843C2.60009 12.8229 2.43243 12.9333 2.24742 13.009C2.06242 13.0847 1.86373 13.1243 1.66281 13.1254C1.46228 13.131 1.26259 13.0981 1.07531 13.0286C0.888026 12.9592 0.716866 12.8545 0.571738 12.7207C0.426611 12.5869 0.310398 12.4266 0.229827 12.2491C0.149257 12.0716 0.105929 11.8804 0.102352 11.6866C0.0799471 9.91293 0.0496341 8.14817 0.0983985 6.38086C0.16166 4.0966 2.71191 2.78258 4.75738 3.97182C7.5989 5.62708 10.4167 7.3129 13.249 8.97962C15.529 10.3217 17.8052 11.6662 20.1024 12.9853C21.1343 13.58 21.5864 13.3508 21.6154 12.1946C21.6641 9.85563 21.6549 7.51535 21.6668 5.17507C21.6668 4.09024 22.4338 3.40267 23.4684 3.55801C24.2249 3.6726 24.7455 4.2825 24.7495 5.08594C24.7495 6.57567 24.7495 8.06541 24.7495 9.55514L24.7363 9.55641Z" fill="white"/>
<path d="M71.7297 13.9582C71.652 13.7838 71.6085 13.6756 71.5571 13.5762C71.0401 12.5579 70.7697 11.4394 70.7663 10.3052C70.7663 8.57693 70.7663 6.84824 70.7663 5.11913C70.7663 4.18964 71.4068 3.53899 72.2991 3.54154C73.1914 3.54408 73.8358 4.2011 73.8372 5.12168C73.8372 6.77694 73.8147 8.41946 73.8451 10.0684C73.8473 10.6522 73.9315 11.233 74.0955 11.7949C74.4909 13.0682 75.3937 13.8767 76.8105 13.9328C78.1435 13.9903 79.4789 13.9771 80.8105 13.8933C82.1482 13.8042 83.2197 12.8212 83.5031 11.5466C83.6049 11.0788 83.6583 10.6024 83.6625 10.1244C83.681 8.46912 83.6625 6.82659 83.6704 5.1777C83.6704 4.21892 84.3004 3.55172 85.1993 3.53899C86.0981 3.52626 86.7808 4.2151 86.7808 5.1777C86.7808 6.90681 86.8322 8.63719 86.7597 10.3638C86.6556 12.8275 85.6566 14.8648 83.4411 16.2361C82.7386 16.6675 81.9223 16.8943 81.0899 16.8893C77.5938 16.902 74.0977 16.902 70.6016 16.8893C69.6513 16.8893 69.02 16.2781 69.02 15.4008C69.02 14.5554 69.654 13.9748 70.5937 13.9608C70.9442 13.9531 71.3014 13.9582 71.7297 13.9582Z" fill="white"/>
<path d="M41.2337 16.8905C39.6785 16.8905 38.1207 16.8447 36.5681 16.9007C34.0416 16.9924 32.3783 15.77 31.2304 13.7404C30.613 12.6333 30.2956 11.3933 30.3078 10.1358C30.3078 8.89941 30.2986 7.66305 30.3078 6.4267C30.302 6.0913 30.4135 5.76382 30.6242 5.4972C30.8349 5.23057 31.1325 5.04037 31.4689 4.95734C31.7975 4.8732 32.146 4.8993 32.4572 5.03138C32.7685 5.16345 33.0241 5.39368 33.1823 5.68438C33.3058 5.93468 33.3715 6.20798 33.3747 6.48527C33.3945 7.64141 33.3747 8.79882 33.3852 9.95623C33.3852 10.3547 33.4156 10.7526 33.4762 11.1467C33.7661 12.8911 34.9483 13.9276 36.7711 13.948C39.7584 13.9802 42.7458 13.9802 45.7332 13.948C47.8419 13.925 49.1296 12.5473 49.1599 10.3484C49.1783 9.07512 49.1599 7.79548 49.1599 6.51838C49.1599 5.56979 49.8044 4.91023 50.7137 4.91787C51.6231 4.92551 52.2307 5.57615 52.232 6.51201C52.232 7.86805 52.2927 9.22791 52.2123 10.5801C52.0805 12.7804 51.1856 14.6381 49.3128 15.9826C48.4754 16.584 47.4565 16.9025 46.4132 16.8892C44.7012 16.893 42.9655 16.8892 41.2337 16.8905Z" fill="white"/>
<path d="M102.693 2.92395C103.956 2.97361 105.065 3.44854 105.883 4.51173C108.431 7.81546 110.983 11.1166 113.539 14.4153C114.045 15.0685 114.067 15.7637 113.616 16.3252C113.413 16.5901 113.12 16.7775 112.788 16.8544C112.457 16.9312 112.107 16.8926 111.802 16.7454C111.516 16.5902 111.269 16.3759 111.079 16.1176C108.77 13.1696 106.467 10.219 104.171 7.26582C103.917 6.93554 103.638 6.624 103.336 6.33379C102.839 5.86777 102.356 5.84867 101.895 6.33379C101.342 6.92077 100.841 7.55868 100.344 8.19277C98.2282 10.8819 96.1173 13.5732 94.0112 16.2666C93.5156 16.8969 92.7314 17.0624 92.0646 16.7072C91.7453 16.5428 91.4977 16.2734 91.3664 15.9478C91.2351 15.6222 91.2289 15.2619 91.3489 14.9322C91.3959 14.8079 91.4621 14.6911 91.5453 14.5859C93.6013 11.8908 95.6582 9.19484 97.716 6.49804C98.2229 5.83593 98.7387 5.17977 99.2632 4.52955C100.112 3.47783 101.234 2.94687 102.693 2.92395Z" fill="white"/>
<path d="M60.974 10.6769C60.9898 10.9417 61.003 11.0767 61.0214 11.2142C61.0758 11.6345 61.2098 12.0416 61.4168 12.4149C61.7727 12.9784 62.2989 13.4228 62.9245 13.6882C63.8695 14.1211 64.2557 14.9844 63.8669 15.812C63.4781 16.6397 62.5133 16.958 61.5578 16.5212C59.7997 15.7114 58.7677 14.2994 58.2392 12.5512C58.0003 11.7211 57.8675 10.8659 57.8438 10.0046C57.7832 8.371 57.8135 6.73357 57.8293 5.09868C57.8399 4.05205 58.6544 3.3874 59.6666 3.55802C60.0225 3.6211 60.3436 3.80445 60.5725 4.07527C60.8014 4.34609 60.9232 4.68673 60.916 5.03629C60.916 5.11396 60.9239 5.25147 60.9292 5.52777C60.9292 5.62582 60.9292 5.82063 60.9292 6.07401C60.9292 6.15677 60.9292 6.3554 60.9186 6.75012C60.9186 6.89273 60.9186 7.01369 60.912 7.18431V7.47462C60.912 7.65415 60.912 7.78657 60.912 7.82731C60.912 8.12399 60.912 8.45122 60.9199 8.86503C60.9344 10.0403 60.9608 10.4923 60.974 10.6769Z" fill="white"/>
<path d="M31.9882 1.01534C32.2019 1.0132 32.4139 1.05276 32.6114 1.13164C32.8089 1.21052 32.9879 1.3271 33.1376 1.47441C33.2874 1.62171 33.4049 1.7967 33.483 1.98889C33.5611 2.18109 33.5982 2.38654 33.5922 2.59293C33.5934 2.79956 33.5519 3.00435 33.4702 3.19529C33.3884 3.38624 33.2681 3.55949 33.1161 3.70488C32.9641 3.85028 32.7836 3.9649 32.5852 4.04201C32.3868 4.11913 32.1744 4.15719 31.9605 4.15397C31.7437 4.1567 31.5286 4.11752 31.3277 4.03874C31.1268 3.95996 30.9442 3.84317 30.7907 3.69524C30.6372 3.5473 30.5159 3.37121 30.4339 3.17732C30.3518 2.98342 30.3108 2.77564 30.3131 2.56619C30.3131 1.67235 31.0314 1.00897 31.9882 1.01534Z" fill="white"/>
<path d="M50.5988 4.15517C50.385 4.15551 50.1731 4.11495 49.9755 4.03584C49.7779 3.95673 49.5985 3.84062 49.4476 3.69422C49.2966 3.54781 49.1772 3.37399 49.0961 3.18278C49.015 2.99158 48.9739 2.78676 48.9751 2.58012C48.9751 1.68883 49.6921 1.01527 50.641 1.01909C50.8543 1.01508 51.0662 1.0528 51.2639 1.12996C51.4617 1.20712 51.6413 1.32214 51.7919 1.46809C51.9425 1.61403 52.0609 1.7879 52.1402 1.97923C52.2194 2.17055 52.2577 2.37538 52.2529 2.5814C52.2569 2.7912 52.2167 2.99961 52.1347 3.19392C52.0527 3.38823 51.9306 3.56438 51.7759 3.71162C51.6211 3.85887 51.4369 3.97413 51.2346 4.05038C51.0322 4.12664 50.8159 4.16229 50.5988 4.15517Z" fill="white"/>
<path d="M176.958 16.8753C175.403 16.8753 173.846 16.8295 172.294 16.8855C169.767 16.9759 168.104 15.7548 166.956 13.7252C166.338 12.6183 166.021 11.3781 166.033 10.1206C166.033 8.88421 166.024 7.64786 166.033 6.41151C166.029 6.07595 166.142 5.74886 166.355 5.48314C166.567 5.21741 166.865 5.0286 167.202 4.94724C167.531 4.86333 167.879 4.88954 168.191 5.0216C168.502 5.15365 168.757 5.38373 168.916 5.67428C169.04 5.92435 169.105 6.19785 169.107 6.47517C169.127 7.6313 169.107 8.78871 169.119 9.94485C169.118 10.3438 169.148 10.7422 169.21 11.1366C169.498 12.881 170.682 13.9175 172.505 13.9378C175.492 13.9684 178.479 13.9684 181.467 13.9378C183.575 13.9149 184.863 12.5372 184.893 10.3383C184.912 9.06501 184.893 7.79174 184.893 6.50827C184.893 5.55968 185.538 4.90013 186.447 4.90649C187.357 4.91286 187.964 5.56478 187.966 6.50191C187.966 7.85795 188.026 9.21781 187.947 10.5688C187.815 12.7703 186.919 14.628 185.048 15.9725C184.21 16.5735 183.191 16.8916 182.148 16.8778C180.428 16.8778 178.692 16.874 176.958 16.8753Z" fill="white"/>
<path d="M167.712 1.00004C167.926 0.997004 168.139 1.03595 168.337 1.11451C168.535 1.19308 168.714 1.30963 168.864 1.45712C169.014 1.60461 169.131 1.77996 169.209 1.97256C169.287 2.16516 169.323 2.37101 169.316 2.57763C169.318 2.78426 169.276 2.98905 169.194 3.17999C169.113 3.37094 168.992 3.54419 168.84 3.68958C168.688 3.83498 168.508 3.9496 168.309 4.02672C168.111 4.10383 167.899 4.1419 167.685 4.13867C167.468 4.14174 167.252 4.10282 167.051 4.02421C166.85 3.9456 166.667 3.82888 166.513 3.68093C166.359 3.53298 166.237 3.35678 166.155 3.16271C166.072 2.96864 166.031 2.76062 166.033 2.55089C166.039 1.65705 166.757 1.00004 167.712 1.00004Z" fill="white"/>
<path d="M186.323 4.13866C186.11 4.139 185.898 4.09845 185.7 4.01933C185.503 3.94022 185.323 3.82412 185.172 3.67771C185.021 3.5313 184.902 3.35749 184.821 3.16628C184.74 2.97507 184.699 2.77025 184.7 2.56362C184.7 1.67232 185.418 1.00003 186.366 1.00385C186.579 0.999677 186.791 1.03726 186.989 1.11435C187.187 1.19143 187.367 1.30642 187.517 1.45238C187.668 1.59835 187.787 1.77228 187.866 1.96369C187.945 2.1551 187.984 2.36004 187.979 2.56616C187.983 2.77603 187.943 2.98449 187.861 3.17882C187.778 3.37315 187.656 3.54928 187.501 3.69644C187.346 3.8436 187.162 3.95872 186.96 4.03475C186.757 4.11078 186.541 4.14614 186.323 4.13866Z" fill="white"/>
<path d="M66.4906 17.0001C66.1673 16.9967 65.8524 16.9006 65.5858 16.7238C65.3192 16.5471 65.113 16.2978 64.9935 16.0075C64.8739 15.7173 64.8464 15.3993 64.9144 15.0939C64.9824 14.7886 65.1428 14.5096 65.3753 14.2926C65.6078 14.0755 65.9018 13.9301 66.2201 13.8749C66.5383 13.8197 66.8663 13.8571 67.1625 13.9825C67.4586 14.1078 67.7095 14.3154 67.8832 14.5789C68.0569 14.8423 68.1456 15.1497 68.1381 15.462C68.1376 15.6684 68.0943 15.8726 68.0107 16.0626C67.9271 16.2525 67.8048 16.4243 67.6512 16.5677C67.4975 16.7112 67.3156 16.8234 67.1163 16.8976C66.9169 16.9719 66.7042 17.0067 66.4906 17.0001Z" fill="white"/>
<path d="M102.718 15.1602C101.795 15.1602 101.102 14.4637 101.115 13.5482C101.128 12.6773 101.845 12.0203 102.773 12.0203C102.986 12.0238 103.197 12.0678 103.392 12.1499C103.588 12.232 103.765 12.3505 103.913 12.4986C104.061 12.6468 104.178 12.8217 104.256 13.0133C104.334 13.205 104.373 13.4097 104.369 13.6157C104.365 13.8217 104.32 14.025 104.235 14.2139C104.15 14.4029 104.027 14.5739 103.874 14.7171C103.721 14.8603 103.539 14.9729 103.341 15.0484C103.143 15.124 102.931 15.1611 102.718 15.1576V15.1602Z" fill="white"/>
<path d="M3.26576 15.4518C3.26725 15.658 3.22576 15.8625 3.14374 16.0529C3.06172 16.2434 2.94086 16.4159 2.78836 16.5603C2.63586 16.7046 2.45484 16.8179 2.25609 16.8932C2.05734 16.9685 1.84492 17.0045 1.63149 16.9988C1.4144 17.0032 1.19864 16.9649 0.997391 16.8861C0.796139 16.8074 0.613606 16.6898 0.460929 16.5406C0.308251 16.3915 0.188629 16.2138 0.109358 16.0185C0.030088 15.8232 -0.00716848 15.6143 -0.000138466 15.4047C0.00123666 15.1985 0.044761 14.9947 0.127934 14.8048C0.211107 14.615 0.33229 14.4429 0.484519 14.2984C0.636748 14.1539 0.817024 14.0399 1.01499 13.963C1.21296 13.886 1.42471 13.8476 1.63808 13.85C1.85523 13.8471 2.07072 13.8868 2.27153 13.9667C2.47235 14.0466 2.65432 14.1649 2.80646 14.3146C2.95859 14.4643 3.07773 14.6423 3.15668 14.8378C3.23562 15.0332 3.27273 15.2421 3.26576 15.4518Z" fill="white"/>
<path d="M160.476 9.447C160.476 10.8565 160.476 12.266 160.476 13.6756C160.476 14.875 160.012 15.8401 158.903 16.4233C157.821 16.9886 156.729 16.8868 155.684 16.2718C150.818 13.4111 145.951 10.5505 141.083 7.68988C140.733 7.47928 140.367 7.29415 139.988 7.136C139.474 6.92846 139.138 7.09653 139.059 7.62749C138.977 8.21867 138.93 8.81379 138.917 9.41007C138.894 10.1142 138.917 10.8196 138.909 11.5237C138.906 11.9107 138.747 12.2813 138.465 12.5564C138.183 12.8315 137.801 12.9892 137.401 12.9959C137 13.0025 136.613 12.8576 136.322 12.592C136.03 12.3264 135.858 11.9613 135.842 11.5746C135.819 9.80606 135.789 8.03621 135.842 6.2689C135.904 3.98337 138.454 2.67062 140.499 3.85859C143.341 5.51385 146.159 7.19966 148.991 8.86638C151.271 10.2084 153.549 11.5543 155.844 12.8721C156.879 13.4667 157.331 13.2375 157.355 12.0814C157.404 9.7424 157.396 7.40211 157.406 5.06183C157.406 3.97827 158.173 3.2907 159.208 3.44604C159.964 3.55937 160.485 4.17054 160.489 4.97398C160.489 6.46371 160.489 7.95217 160.489 9.44191L160.476 9.447Z" fill="white"/>
<path d="M139.006 15.3423C139 15.7607 138.822 16.1595 138.511 16.4511C138.201 16.7426 137.783 16.903 137.35 16.8969C136.917 16.8908 136.504 16.7188 136.202 16.4187C135.9 16.1185 135.734 15.7148 135.74 15.2964C135.744 15.0892 135.789 14.8847 135.874 14.6944C135.959 14.5042 136.082 14.332 136.235 14.1876C136.389 14.0432 136.571 13.9296 136.77 13.8531C136.97 13.7766 137.183 13.7387 137.397 13.7417C137.611 13.7448 137.823 13.7885 138.02 13.8706C138.217 13.9527 138.395 14.0714 138.545 14.22C138.694 14.3686 138.812 14.5442 138.891 14.7368C138.97 14.9293 139.009 15.1351 139.006 15.3423Z" fill="white"/>
<path d="M130.271 2.61584C130.254 3.02459 130.073 3.4109 129.766 3.69227C129.458 3.97365 129.049 4.12781 128.626 4.12182C128.203 4.11584 127.798 3.95019 127.5 3.66025C127.201 3.37031 127.032 2.97905 127.027 2.57C127.025 2.36095 127.066 2.1536 127.149 1.96016C127.231 1.76672 127.352 1.59109 127.505 1.44361C127.659 1.29614 127.841 1.1798 128.042 1.10144C128.242 1.02308 128.457 0.984292 128.673 0.98735C128.89 0.990408 129.103 1.03525 129.302 1.11925C129.5 1.20324 129.678 1.32468 129.827 1.47643C129.976 1.62817 130.092 1.80716 130.168 2.00284C130.244 2.19852 130.279 2.40694 130.271 2.61584Z" fill="white"/>
<path d="M130.281 6.37711C130.281 5.56842 129.603 4.91284 128.766 4.91284C127.929 4.91284 127.25 5.56842 127.25 6.37711V15.4263C127.25 16.235 127.929 16.8906 128.766 16.8906C129.603 16.8906 130.281 16.235 130.281 15.4263V6.37711Z" fill="white"/>
</svg>