<svg width="480" height="80" viewBox="0 0 480 80" fill="none" xmlns="http://www.w3.org/2000/svg">
<g filter="url(#filter0_b_610_1112)">
<path d="M476 25.08V76H25.09L4 54.91V12H36.59L38.59 10L44.6 4H454.92L476 25.08Z" fill="white" fill-opacity="0.25"/>
</g>
<path d="M456.58 0H0V56.57L23.43 80H480V23.42L456.58 0ZM476 76H25.09L4 54.91V4H454.92L476 25.08V76Z" fill="white" fill-opacity="0.5"/>
<path d="M11.32 79.9999H2.8L0 77.1999V68.6799L11.32 79.9999Z" fill="white" fill-opacity="0.5"/>
<path d="M480 2.8V11.32L468.68 0H477.2L480 2.8Z" fill="white" fill-opacity="0.5"/>
<path d="M38.5901 10L36.5901 12H22.0601V10H38.5901Z" fill="white" fill-opacity="0.5"/>
<path d="M45.35 3.25008L44.6 4.00008L38.59 10.0001L36.59 12.0001H33.77L41.77 4.00008L43.94 1.83008L45.35 3.25008Z" fill="white" fill-opacity="0.5"/>
<path d="M30.26 4L24.25 10L22.25 12H4V4H30.26Z" fill="white" fill-opacity="0.5"/>
<defs>
<filter id="filter0_b_610_1112" x="-6" y="-6" width="492" height="92" filterUnits="userSpaceOnUse" color-interpolation-filters="sRGB">
<feFlood flood-opacity="0" result="BackgroundImageFix"/>
<feGaussianBlur in="BackgroundImage" stdDeviation="5"/>
<feComposite in2="SourceAlpha" operator="in" result="effect1_backgroundBlur_610_1112"/>
<feBlend mode="normal" in="SourceGraphic" in2="effect1_backgroundBlur_610_1112" result="shape"/>
</filter>
</defs>
</svg>
