<svg width="24" height="24" viewBox="0 0 24 24" fill="none" xmlns="http://www.w3.org/2000/svg">
    <style>
        @keyframes reduce_radius {
    from { r: 10; }
    to { r: 3; }
}
@keyframes change_fill {
    0% { fill: #49549E; }
    75% { fill: #1bceb1; }
    100% { fill: #1bce4f; }
}
    </style>
<path fill-rule="evenodd" clip-rule="evenodd" d="M16.3452 8.88584C16.7057 9.24632 16.7057 9.83073 16.3452 10.1912L11.4221 15.1143C11.0616 15.4748 10.4771 15.4748 10.1166 15.1143L7.65513 12.6528C7.29465 12.2923 7.29465 11.7079 7.65513 11.3474C8.01561 10.9869 8.60006 10.9869 8.96056 11.3474L10.7694 13.1562L15.0397 8.88584C15.4002 8.52536 15.9846 8.52536 16.3452 8.88584Z" fill="white"/>
<path fill-rule="evenodd" clip-rule="evenodd" d="M12 1.84615C6.39218 1.84615 1.84615 6.39218 1.84615 12C1.84615 17.6078 6.39218 22.1538 12 22.1538C17.6078 22.1538 22.1538 17.6078 22.1538 12C22.1538 6.39218 17.6078 1.84615 12 1.84615ZM0 12C0 5.37258 5.37258 0 12 0C18.6274 0 24 5.37258 24 12C24 18.6274 18.6274 24 12 24C5.37258 24 0 18.6274 0 12Z" fill="white"/>
</svg>
