<svg width="50" height="54" viewBox="0 0 50 54" fill="none" xmlns="http://www.w3.org/2000/svg">
<path fill-rule="evenodd" clip-rule="evenodd" d="M34.313 19.6679C35.0858 20.4721 35.0858 21.7761 34.313 22.5803L23.761 33.5641C22.9883 34.3683 21.7358 34.3683 20.963 33.5641L15.687 28.0722C14.9144 27.268 14.9144 25.964 15.687 25.1598C16.4597 24.3556 17.7124 24.3556 18.485 25.1598L22.362 29.1953L31.515 19.6679C32.2875 18.8636 33.5403 18.8636 34.313 19.6679Z" fill="white"/>
<path fill-rule="evenodd" clip-rule="evenodd" d="M25.993 4.38874C25.3468 4.1763 24.6533 4.1763 24.007 4.38874L6.2623 10.2215C4.68532 10.7399 3.72112 12.3939 4.00765 14.0892L6.78777 30.5384C7.8078 36.5736 10.7681 41.9839 15.538 45.0929C17.2903 46.2349 19.1163 47.301 20.8175 48.0754C22.56 48.8684 23.9883 49.2691 25 49.2691C26.0118 49.2691 27.44 48.8684 29.1825 48.0754C30.8838 47.301 32.7098 46.2349 34.462 45.0929C39.232 41.9839 42.1923 36.5736 43.2123 30.5384L45.9923 14.0892C46.279 12.3939 45.3148 10.7399 43.7378 10.2215L25.993 4.38874ZM22.8155 0.461107C24.2373 -0.00624152 25.7628 -0.00624152 27.1845 0.461107L44.9293 6.29388C48.3985 7.43426 50.5198 11.0732 49.8895 14.8029L47.1093 31.252C45.9423 38.157 42.4903 44.7197 36.562 48.5839C34.719 49.7851 32.7123 50.9641 30.7678 51.849C28.8648 52.7153 26.8348 53.3879 25 53.3879C23.1653 53.3879 21.1353 52.7153 19.2322 51.849C17.2878 50.9641 15.2809 49.7851 13.438 48.5839C7.5097 44.7197 4.05767 38.157 2.89064 31.252L0.110518 14.8029C-0.519857 11.0732 1.60139 7.43426 5.07072 6.29388L22.8155 0.461107Z" fill="white"/>
</svg>
