<svg width="50" height="44" viewBox="0 0 50 44" fill="none" xmlns="http://www.w3.org/2000/svg">
<path fill-rule="evenodd" clip-rule="evenodd" d="M25 4.56268C21.8138 4.56268 19.2308 7.33272 19.2308 10.7497C19.2308 14.1667 21.8138 16.9368 25 16.9368C28.1863 16.9368 30.7693 14.1667 30.7693 10.7497C30.7693 7.33272 28.1863 4.56268 25 4.56268ZM15.3846 10.7497C15.3846 5.05472 19.6896 0.437988 25 0.437988C30.3105 0.437988 34.6155 5.05472 34.6155 10.7497C34.6155 16.4448 30.3105 21.0615 25 21.0615C19.6896 21.0615 15.3846 16.4448 15.3846 10.7497Z" fill="white"/>
<path fill-rule="evenodd" clip-rule="evenodd" d="M21.2062 29.3115C17.2829 29.3115 14.1025 32.7223 14.1025 36.9296C14.1025 37.0117 14.109 37.0778 14.1176 37.1273C14.1187 37.134 14.1199 37.1401 14.121 37.1457C15.1481 37.7554 18.0546 38.9358 24.9999 38.9358C31.9452 38.9358 34.8517 37.7554 35.8789 37.1457C35.8799 37.1401 35.8812 37.134 35.8822 37.1273C35.8909 37.0778 35.8974 37.0117 35.8974 36.9296C35.8974 32.7223 32.7169 29.3115 28.7937 29.3115H21.2062ZM10.2563 36.9296C10.2563 30.4442 15.1587 25.1868 21.2062 25.1868H28.7937C34.8412 25.1868 39.7434 30.4442 39.7434 36.9296C39.7434 38.0868 39.3779 39.7264 37.9249 40.6423C36.1597 41.755 32.5162 43.0605 24.9999 43.0605C17.4836 43.0605 13.8403 41.755 12.0749 40.6423C10.622 39.7264 10.2563 38.0868 10.2563 36.9296Z" fill="white"/>
<path fill-rule="evenodd" clip-rule="evenodd" d="M36.605 4.71202C36.8822 3.61249 37.938 2.96202 38.9632 3.2592C42.4727 4.27637 44.8717 7.9724 44.8717 12.1246C44.8717 16.513 42.0635 20.5295 38.0497 21.0466C36.9952 21.1825 36.0377 20.3758 35.9112 19.245C35.7845 18.1142 36.5367 17.0873 37.5912 16.9514C39.3467 16.7253 41.0257 14.7965 41.0257 12.1246C41.0257 9.58811 39.5785 7.71022 37.9597 7.24101C36.9345 6.94386 36.328 5.81158 36.605 4.71202Z" fill="white"/>
<path fill-rule="evenodd" clip-rule="evenodd" d="M41.0612 26.8534C41.2645 25.7356 42.2745 25.0059 43.3167 25.2241C47.1985 26.0358 49.9999 29.683 49.9999 33.9242V35.0391C49.9999 36.0977 49.7039 37.6972 48.3257 38.6418C47.4642 39.2324 46.1587 39.8408 44.1847 40.2692C43.1437 40.4951 42.1292 39.7732 41.9185 38.6567C41.708 37.5403 42.381 36.452 43.422 36.2264C44.886 35.9086 45.7132 35.5093 46.1395 35.2418L46.14 35.2381C46.148 35.1883 46.1537 35.1219 46.1537 35.0391V33.9242C46.1537 31.6564 44.656 29.7067 42.5805 29.2725C41.5382 29.0546 40.858 27.9714 41.0612 26.8534Z" fill="white"/>
<path fill-rule="evenodd" clip-rule="evenodd" d="M13.3949 19.5379C13.1178 20.6373 12.062 21.2878 11.0367 20.9905C7.52727 19.9734 5.12817 16.2773 5.12817 12.125C5.12817 7.73652 7.93647 3.71971 11.9501 3.20267C13.0046 3.06681 13.9621 3.87348 14.0888 5.00437C14.2155 6.13529 13.4633 7.16218 12.4088 7.29801C10.6532 7.52418 8.97432 9.45303 8.97432 12.125C8.97432 14.6615 10.4214 16.5396 12.0402 17.0087C13.0655 17.3058 13.672 18.4382 13.3949 19.5379Z" fill="white"/>
<path fill-rule="evenodd" clip-rule="evenodd" d="M8.93878 26.8534C8.73548 25.7356 7.72561 25.0059 6.68316 25.2241C2.80149 26.0358 0 29.683 0 33.9242V35.0391C0 36.0977 0.29595 37.6972 1.6742 38.6418C2.53569 39.2324 3.84132 39.8408 5.81521 40.2692C6.85621 40.4951 7.87083 39.7732 8.08146 38.6567C8.29206 37.5403 7.61891 36.452 6.57791 36.2264C5.11389 35.9086 4.28679 35.5093 3.86057 35.2418L3.85999 35.2381C3.85204 35.1883 3.84614 35.1219 3.84614 35.0391V33.9242C3.84614 31.6564 5.34399 29.7067 7.41938 29.2725C8.46183 29.0546 9.14208 27.9714 8.93878 26.8534Z" fill="white"/>
</svg>
