<svg width="38" height="51" viewBox="0 0 38 51" fill="none" xmlns="http://www.w3.org/2000/svg">
<path fill-rule="evenodd" clip-rule="evenodd" d="M19.0743 39.903C18.3561 40.6632 17.1922 40.6632 16.474 39.903L10.3451 33.4143C9.62701 32.6538 9.62701 31.4214 10.3451 30.6612C11.0631 29.9009 12.2273 29.9009 12.9454 30.6612L15.9356 33.8268V25.5487C15.9356 24.4736 16.7587 23.6021 17.7743 23.6021C18.7896 23.6021 19.6128 24.4736 19.6128 25.5487V33.8268L22.6031 30.6612C23.3211 29.9009 24.4853 29.9009 25.2035 30.6612C25.9214 31.4214 25.9214 32.6538 25.2035 33.414L19.0743 39.903Z" fill="white"/>
<path fill-rule="evenodd" clip-rule="evenodd" d="M19 4.13482C15.3784 4.13482 10.5154 4.55835 7.11412 4.90982C5.70278 5.05566 4.60135 6.24703 4.4921 7.75742C4.15387 12.4331 3.67743 20.0133 3.67743 25.5483C3.67743 31.0835 4.15387 38.6636 4.4921 43.3393C4.60135 44.8496 5.70278 46.0411 7.11412 46.1869C10.5154 46.5384 15.3784 46.9618 19 46.9618C22.6216 46.9618 27.4847 46.5384 30.8859 46.1869C32.2971 46.0411 33.3987 44.8496 33.5079 43.3393C33.8461 38.6636 34.3225 31.0835 34.3225 25.5483C34.3225 23.7634 34.2729 21.7614 34.1941 19.7083H26.3568L26.3549 17.7616V15.8149H34.0124C33.5592 9.64597 29.0415 4.73216 23.2904 4.28028V12.5705C23.2904 14.3623 24.6625 15.8149 26.3549 15.8149V17.7616L26.3568 19.7083C22.6333 19.7083 19.613 16.5126 19.613 12.5705V4.13864C19.4049 4.13613 19.2005 4.13482 19 4.13482ZM21.5101 0.293815C20.6414 0.260587 19.7959 0.241455 19 0.241455C15.1846 0.241455 10.1672 0.682478 6.75692 1.03485C3.55559 1.36566 1.07006 4.0781 0.825407 7.46012C0.487065 12.1375 0 19.8496 0 25.5483C0 31.2472 0.487065 38.9592 0.825407 43.6364C1.07006 47.0187 3.55559 49.7311 6.75692 50.0619C10.1672 50.4141 15.1846 50.8552 19 50.8552C22.8154 50.8552 27.8329 50.4141 31.2431 50.0619C34.4444 49.7311 36.9301 47.0187 37.1747 43.6364C37.5129 38.9592 38 31.2472 38 25.5483C38 23.149 37.9138 20.3999 37.7896 17.6784C37.7891 17.67 37.7886 17.6617 37.7884 17.6534C37.7616 17.0679 37.7331 16.4837 37.7031 15.9046C37.2752 7.60573 31.1548 0.817009 23.2339 0.375531C22.6615 0.343619 22.0915 0.316211 21.5315 0.29465" fill="white"/>
</svg>
