<svg width="14" height="16" viewBox="0 0 14 16" fill="none" xmlns="http://www.w3.org/2000/svg">
<path fill-rule="evenodd" clip-rule="evenodd" d="M7.09464 1.87663C5.67783 1.87663 4.52924 3.01784 4.52924 4.42559C4.52924 5.83332 5.67783 6.97451 7.09464 6.97451C8.51145 6.97451 9.66 5.83332 9.66 4.42559C9.66 3.01784 8.51145 1.87663 7.09464 1.87663ZM3.34521 4.42559C3.34521 2.36811 5.02389 0.700195 7.09464 0.700195C9.1654 0.700195 10.844 2.36811 10.844 4.42559C10.844 6.48305 9.1654 8.15098 7.09464 8.15098C5.02389 8.15098 3.34521 6.48305 3.34521 4.42559Z" fill="white"/>
<path fill-rule="evenodd" clip-rule="evenodd" d="M5.15695 10.896C3.50238 10.896 2.16108 12.2287 2.16108 13.8727C2.16108 13.959 2.17696 14.02 2.1936 14.0554C2.20765 14.0853 2.21971 14.0939 2.22976 14.0993C2.68985 14.3481 3.97983 14.8175 7.09453 14.8175C10.2092 14.8175 11.4992 14.3481 11.9593 14.0993C11.9693 14.0939 11.9814 14.0853 11.9955 14.0554C12.0121 14.02 12.028 13.959 12.028 13.8727C12.028 12.2287 10.6867 10.896 9.03208 10.896H5.15695ZM0.977051 13.8727C0.977051 11.579 2.84846 9.7196 5.15695 9.7196H9.03208C11.3406 9.7196 13.212 11.579 13.212 13.8727C13.212 14.2937 13.0586 14.8443 12.5252 15.1327C11.8187 15.5147 10.3031 15.9939 7.09453 15.9939C3.88602 15.9939 2.37035 15.5147 1.66383 15.1327C1.13047 14.8443 0.977051 14.2937 0.977051 13.8727Z" fill="white"/>
</svg>