<svg width="180" height="54" viewBox="0 0 180 54" fill="none" xmlns="http://www.w3.org/2000/svg">
<path fill-rule="evenodd" clip-rule="evenodd" d="M173.331 54H6.66912C2.99349 54 0 50.9566 0 47.25V6.75C0 3.02993 2.99349 0 6.66912 0H173.331C177.003 0 180 3.02993 180 6.75V47.25C180 50.9566 177.003 54 173.331 54Z" fill="black"/>
<path fill-rule="evenodd" clip-rule="evenodd" d="M173.331 1.08067C176.414 1.08067 178.937 3.62918 178.937 6.75V47.25C178.937 50.3708 176.43 52.9193 173.331 52.9193H6.66912C3.58622 52.9193 1.06295 50.3708 1.06295 47.25V6.75C1.06295 3.62918 3.56967 1.08067 6.66912 1.08067C6.66912 1.08067 173.331 1.08067 173.331 1.08067ZM173.331 0H6.66912C2.99349 0 0 3.04339 0 6.75V47.25C0 50.9701 2.99349 54 6.66912 54H173.331C177.003 54 180 50.9701 180 47.25V6.75C180 3.04339 177.003 0 173.331 0Z" fill="#A6A6A6"/>
<path d="M94.8248 17.8631C93.6228 17.8631 92.6095 17.4355 91.8081 16.5939C91.0134 15.7758 90.5697 14.648 90.5895 13.4966C90.5895 12.2678 91.0001 11.2276 91.8081 10.4027C92.6062 9.5611 93.6194 9.13354 94.8215 9.13354C96.0103 9.13354 97.0235 9.5611 97.8382 10.4027C98.6461 11.2545 99.0567 12.2948 99.0567 13.4966C99.0435 14.7288 98.6329 15.7691 97.8382 16.5905C97.0401 17.4389 96.0268 17.8631 94.8248 17.8631ZM59.0586 17.8631C57.883 17.8631 56.8631 17.4423 56.0287 16.6107C55.2008 15.7825 54.7803 14.7355 54.7803 13.5C54.7803 12.2645 55.2008 11.2175 56.0287 10.3893C56.8466 9.55774 57.8665 9.13691 59.0586 9.13691C59.6414 9.13691 60.2076 9.25474 60.7507 9.49377C61.2838 9.72606 61.7176 10.0425 62.0388 10.4297L62.1183 10.5273L61.2209 11.4228L61.1282 11.3117C60.6215 10.699 59.9427 10.3994 59.0453 10.3994C58.244 10.3994 57.5453 10.6889 56.9691 11.2612C56.3896 11.8369 56.0949 12.591 56.0949 13.5034C56.0949 14.4157 56.3896 15.1698 56.9691 15.7455C57.5453 16.3178 58.244 16.6074 59.0453 16.6074C59.8997 16.6074 60.6182 16.3178 61.1779 15.7455C61.509 15.4089 61.7143 14.9375 61.7872 14.3417H58.9096V13.0825H63.0223L63.0389 13.197C63.0687 13.4091 63.0985 13.6279 63.0985 13.8299C63.0985 14.9914 62.7541 15.9307 62.0719 16.6242C61.2971 17.4456 60.2838 17.8631 59.0586 17.8631ZM106.613 17.6847H105.345L101.461 11.3656L101.494 12.5035V17.6813H100.226V9.31534H101.673L101.712 9.37931L105.365 15.3314L105.332 14.1969V9.31534H106.613V17.6847ZM85.2946 17.6847H84.0098V10.5744H81.7813V9.31534H87.5199V10.5744H85.2913V17.6847H85.2946ZM80.7349 17.6847H79.4534V9.31534H80.7349V17.6847ZM73.5326 17.6847H72.2511V10.5744H70.0226V9.31534H75.7612V10.5744H73.5326V17.6847ZM69.2113 17.6712H64.2972V9.31534H69.2113V10.5744H65.582V12.8705H68.8569V14.1161H65.582V16.4121H69.2113V17.6712ZM92.7486 15.7287C93.3214 16.3111 94.0168 16.604 94.8248 16.604C95.6559 16.604 96.3348 16.3178 96.901 15.7287C97.464 15.1564 97.7487 14.4056 97.7487 13.5C97.7487 12.5944 97.464 11.8403 96.9043 11.2713C96.3315 10.6889 95.6328 10.396 94.8281 10.396C93.9969 10.396 93.3181 10.6822 92.7552 11.2713C92.1922 11.8436 91.9075 12.5944 91.9075 13.5C91.9075 14.4056 92.1889 15.1597 92.7486 15.7287Z" fill="white"/>
<path fill-rule="evenodd" clip-rule="evenodd" d="M90.4701 29.3701C87.3408 29.3701 84.8043 31.7839 84.8043 35.1135C84.8043 38.4127 87.3574 40.8569 90.4701 40.8569C93.5993 40.8569 96.1358 38.4262 96.1358 35.1135C96.1358 31.7839 93.5993 29.3701 90.4701 29.3701ZM90.4701 38.5811C88.7581 38.5811 87.2845 37.1402 87.2845 35.1C87.2845 33.0296 88.7614 31.619 90.4701 31.619C92.182 31.619 93.6556 33.0296 93.6556 35.1C93.6589 37.1536 92.182 38.5811 90.4701 38.5811ZM78.1087 29.3701C74.9794 29.3701 72.4429 31.7839 72.4429 35.1135C72.4429 38.4127 74.996 40.8569 78.1087 40.8569C81.2379 40.8569 83.7744 38.4262 83.7744 35.1135C83.7744 31.7839 81.2346 29.3701 78.1087 29.3701ZM78.1087 38.5811C76.3967 38.5811 74.9231 37.1402 74.9231 35.1C74.9231 33.0296 76.4 31.619 78.1087 31.619C79.8207 31.619 81.2942 33.0296 81.2942 35.1C81.2942 37.1536 79.8207 38.5811 78.1087 38.5811ZM63.3995 31.1241V33.5547H69.1381C68.9626 34.9182 68.5189 35.9248 67.8401 36.615C66.999 37.4701 65.7009 38.3993 63.4128 38.3993C59.8861 38.3993 57.1278 35.504 57.1278 31.9186C57.1278 28.3332 59.8861 25.4379 63.4128 25.4379C65.3168 25.4379 66.7043 26.2021 67.7341 27.1784L69.4295 25.4547C67.999 24.061 66.095 22.9938 63.426 22.9938C58.5881 22.9938 54.5283 27 54.5283 31.9051C54.5283 36.8237 58.5848 40.8165 63.426 40.8165C66.0387 40.8165 67.999 39.9479 69.5487 38.3117C71.1283 36.7059 71.6283 34.4402 71.6283 32.6121C71.6283 32.0432 71.5853 31.5314 71.4958 31.0971H63.3962C63.3995 31.0938 63.3995 31.1241 63.3995 31.1241ZM123.564 33.0161C123.09 31.7267 121.66 29.3566 118.726 29.3566C115.819 29.3566 113.401 31.6829 113.401 35.1C113.401 38.3252 115.792 40.8434 119.008 40.8434C121.59 40.8434 123.094 39.2375 123.713 38.2949L121.796 36.9887C121.16 37.9481 120.276 38.5777 119.021 38.5777C117.753 38.5777 116.865 37.9919 116.276 36.8372L123.829 33.6557C123.829 33.6591 123.564 33.0161 123.564 33.0161ZM115.862 34.935C115.802 32.7165 117.557 31.5887 118.812 31.5887C119.802 31.5887 120.627 32.0835 120.908 32.804L115.862 34.935ZM109.726 40.5H112.206V23.6267H109.726V40.5ZM105.653 30.646H105.563C105.004 29.9693 103.941 29.3566 102.583 29.3566C99.7651 29.3566 97.169 31.8782 97.169 35.1168C97.169 38.342 99.7519 40.8333 102.583 40.8333C103.924 40.8333 105.004 40.2172 105.563 39.5271H105.653V40.3519C105.653 42.5435 104.5 43.7252 102.643 43.7252C101.123 43.7252 100.179 42.6142 99.7949 41.685L97.6392 42.6008C98.2584 44.1157 99.9108 45.9909 102.639 45.9909C105.547 45.9909 108.01 44.2504 108.01 40.0051V29.7H105.666V30.646C105.669 30.646 105.653 30.646 105.653 30.646ZM102.805 38.5811C101.093 38.5811 99.6624 37.1267 99.6624 35.1168C99.6624 33.0902 101.093 31.6223 102.805 31.6223C104.5 31.6223 105.815 33.107 105.815 35.1168C105.832 37.1267 104.504 38.5811 102.805 38.5811ZM135.177 23.6267H129.246V40.5H131.727V34.1102H135.18C137.925 34.1102 140.624 32.0869 140.624 28.8752C140.624 25.6635 137.935 23.6267 135.177 23.6267ZM135.25 31.7536H131.723V25.9631H135.25C137.108 25.9631 138.157 27.5218 138.157 28.8584C138.157 30.1814 137.094 31.7536 135.25 31.7536ZM150.565 29.3398C148.764 29.3398 146.906 30.1511 146.138 31.9186L148.336 32.8478C148.81 31.9186 149.678 31.6021 150.595 31.6021C151.88 31.6021 153.178 32.3832 153.207 33.7769V33.9554C152.764 33.6995 151.79 33.309 150.625 33.309C148.25 33.309 145.843 34.6287 145.843 37.1031C145.843 39.3688 147.79 40.8232 149.959 40.8232C151.625 40.8232 152.542 40.059 153.115 39.1736H153.204V40.4798H155.595V34.016C155.595 31.0062 153.396 29.3398 150.565 29.3398ZM150.254 38.5811C149.442 38.5811 148.307 38.1771 148.307 37.1402C148.307 35.8339 149.724 35.339 150.933 35.339C152.025 35.339 152.542 35.5781 153.191 35.908C153.012 37.4229 151.754 38.5676 150.254 38.5811ZM164.317 29.7L161.469 37.019H161.38L158.43 29.7H155.761L160.188 39.9311L157.665 45.6172H160.247L167.059 29.7H164.317ZM141.992 40.5H144.472V23.6267H141.992V40.5Z" fill="white"/>
<path fill-rule="evenodd" clip-rule="evenodd" d="M13.8545 10.1705C13.4704 10.5913 13.2485 11.2343 13.2485 12.076V41.9275C13.2485 42.7691 13.4704 43.4121 13.8678 43.8161L13.9704 43.907L30.4214 27.1818V26.8081L13.9572 10.0796L13.8545 10.1705Z" fill="url(#paint0_linear_360:208)"/>
<path fill-rule="evenodd" clip-rule="evenodd" d="M35.8952 32.7737L30.4082 27.1953V26.8047L35.8952 21.2263L36.0144 21.3004L42.5047 25.0508C44.3624 26.1146 44.3624 27.872 42.5047 28.9493L36.0144 32.6996L35.8952 32.7737Z" fill="url(#paint1_linear_360:208)"/>
<path fill-rule="evenodd" clip-rule="evenodd" d="M36.0147 32.6996L30.4086 27L13.855 43.8296C14.461 44.4894 15.4776 44.5635 16.6134 43.9205L36.0147 32.6996Z" fill="url(#paint2_linear_360:208)"/>
<path fill-rule="evenodd" clip-rule="evenodd" d="M36.0147 21.3004L16.6134 10.0964C15.4776 9.43658 14.4577 9.52748 13.855 10.1873L30.4086 27L36.0147 21.3004Z" fill="url(#paint3_linear_360:208)"/>
<path opacity="0.2" fill-rule="evenodd" clip-rule="evenodd" d="M35.8955 32.5785L16.6265 43.7084C15.5503 44.338 14.59 44.2942 13.9708 43.7219L13.8682 43.8262L13.9708 43.9171C14.59 44.4861 15.5503 44.5332 16.6265 43.9037L36.0279 32.6997L35.8955 32.5785Z" fill="black"/>
<path opacity="0.12" fill-rule="evenodd" clip-rule="evenodd" d="M42.505 28.754L35.8789 32.5784L35.9981 32.6996L42.4884 28.9493C43.4189 28.4106 43.8759 27.7036 43.8759 27C43.8196 27.6464 43.3461 28.2591 42.505 28.754Z" fill="black"/>
<path opacity="0.25" fill-rule="evenodd" clip-rule="evenodd" d="M16.6129 10.2916L42.5046 25.246C43.3457 25.7274 43.8192 26.3569 43.8921 27C43.8921 26.2963 43.4351 25.5893 42.5046 25.0507L16.6129 10.0963C14.7552 9.01566 13.2485 9.9179 13.2485 12.0759V12.2711C13.2485 10.1098 14.7552 9.22439 16.6129 10.2916Z" fill="white"/>
<defs>
<linearGradient id="paint0_linear_360:208" x1="28.9457" y1="11.7539" x2="2.53723" y2="18.6751" gradientUnits="userSpaceOnUse">
<stop stop-color="#00A0FF"/>
<stop offset="0.00657" stop-color="#00A1FF"/>
<stop offset="0.2601" stop-color="#00BEFF"/>
<stop offset="0.5122" stop-color="#00D2FF"/>
<stop offset="0.7604" stop-color="#00DFFF"/>
<stop offset="1" stop-color="#00E3FF"/>
</linearGradient>
<linearGradient id="paint1_linear_360:208" x1="44.9273" y1="27.0001" x2="12.7971" y2="27.0001" gradientUnits="userSpaceOnUse">
<stop stop-color="#FFE000"/>
<stop offset="0.4087" stop-color="#FFBD00"/>
<stop offset="0.7754" stop-color="#FFA500"/>
<stop offset="1" stop-color="#FF9C00"/>
</linearGradient>
<linearGradient id="paint2_linear_360:208" x1="32.9663" y1="30.1014" x2="11.2903" y2="65.9857" gradientUnits="userSpaceOnUse">
<stop stop-color="#FF3A44"/>
<stop offset="1" stop-color="#C31162"/>
</linearGradient>
<linearGradient id="paint3_linear_360:208" x1="9.68661" y1="0.241417" x2="19.3573" y2="16.2681" gradientUnits="userSpaceOnUse">
<stop stop-color="#32A071"/>
<stop offset="0.0685" stop-color="#2DA771"/>
<stop offset="0.4762" stop-color="#15CF74"/>
<stop offset="0.8009" stop-color="#06E775"/>
<stop offset="1" stop-color="#00F076"/>
</linearGradient>
</defs>
</svg>
