<svg width="180" height="119" viewBox="0 0 180 119" fill="none" xmlns="http://www.w3.org/2000/svg">
<g clip-path="url(#clip0_421:16)">
<path d="M42.0463 28.6359C39.3776 29.6647 38.0432 31.8912 38.0432 35.3155C38.0432 39.3645 39.8435 41.7693 43.444 42.5298C42.692 37.4062 42.2843 32.7307 42.0463 28.6359ZM43.7352 44.4423H40.5119V51.0327H44.9454C44.4728 48.7697 44.0694 46.5729 43.7352 44.4423ZM46.2342 27.9687C45.8798 27.9687 45.5422 27.9789 45.2214 27.9992C45.3278 29.5654 45.505 31.8394 45.8013 34.577C45.938 34.5642 46.0874 34.5591 46.2469 34.5591H56.894V27.9687H46.2342ZM51.1463 36.2068H46.2342H45.981C46.1709 37.8544 46.4545 40.0801 46.8875 42.7998H51.1463C52.2401 42.7998 52.7845 43.0544 52.7845 43.5637C52.7845 44.1571 52.2401 44.4525 51.1463 44.4525H47.1458C47.48 46.4362 47.9054 48.6415 48.3966 51.0429H51.1463C56.607 51.0429 59.3373 48.5499 59.3373 43.5637C59.3373 38.6574 56.607 36.2051 51.1463 36.2068Z" fill="white"/>
<path d="M81.5303 36.2068C81.5303 31.623 79.6305 28.9534 75.8308 28.1979C77.581 31.328 78.7173 34.767 79.1781 38.328C79.3517 39.706 79.4177 41.0956 79.3756 42.484C80.8121 41.1173 81.5303 39.0249 81.5303 36.2068Z" fill="white"/>
<path d="M76.6638 38.6056C76.3303 34.8849 75.2484 31.2712 73.4837 27.984H61.877V51.0506H68.4272V44.4423H73.3419C74.4403 44.4585 75.5355 44.3196 76.5955 44.0298C76.7991 42.2286 76.822 40.4114 76.6638 38.6056ZM73.3419 37.8417H68.4272V34.5566H73.3419C74.4323 34.5566 74.9784 35.1058 74.9801 36.2042C74.9801 37.3069 74.4408 37.8518 73.3419 37.8518V37.8417Z" fill="white"/>
<path d="M87.6554 37.7296C87.5795 37.3782 86.7946 33.7137 86.7946 33.7137C86.6781 33.0083 86.5717 32.2545 86.4806 31.4218L81.0748 46.645L79.5176 51.0327H86.0704L86.6578 49.3673L87.2326 47.7375H91.2104C89.6683 44.541 88.4764 41.1853 87.6554 37.7296Z" fill="white"/>
<path d="M101.51 43.7726C100.163 45.6213 98.6873 47.6459 97.1073 49.8206L96.373 47.7375H93.6613C92.6043 45.6033 91.6875 43.4018 90.9166 41.1471H94.0309L91.8028 34.8877L90.2836 39.1684C89.2706 35.8272 88.5538 32.4023 88.1415 28.9338C88.0934 28.5162 88.0554 28.1699 88.0352 27.9662H95.9021L99.9128 39.2626L100.991 42.2981L101.51 43.7726Z" fill="white"/>
<path d="M104.088 51.0328H99.2341C100.374 49.5048 101.483 48.0431 102.526 46.6501L104.088 51.0328Z" fill="white"/>
<path d="M106.529 36.7874C105.643 38.0607 104.59 39.5275 103.392 41.1776C103.318 40.6222 103.282 40.0624 103.283 39.502C103.288 36.9016 104.162 34.3784 105.764 32.3378C107.367 30.2973 109.605 28.858 112.12 28.2514C110.081 31.5772 108.182 34.4242 106.529 36.7874Z" fill="white"/>
<path d="M111.276 36.0081C110.591 36.6997 110.124 37.5799 109.936 38.5377C109.747 39.4956 109.844 40.4882 110.215 41.3904C110.587 42.2927 111.215 43.0643 112.022 43.6078C112.828 44.1514 113.777 44.4426 114.748 44.4448H122.121V51.0327H114.748C113.24 51.0559 111.743 50.7682 110.349 50.1875C108.956 49.6068 107.695 48.7453 106.645 47.656C105.667 46.6917 104.87 45.5582 104.291 44.3099C105.995 42.018 107.486 39.9807 108.646 38.1982C110.783 34.9114 112.728 31.5017 114.469 27.9865H122.121V34.577H114.748C114.103 34.5651 113.462 34.6859 112.865 34.932C112.268 35.1781 111.727 35.5443 111.276 36.0081Z" fill="white"/>
<path d="M125.587 27.9687V48.2927C125.859 45.671 126.273 43.0662 126.828 40.49C127.769 36.2166 129.064 32.0299 130.699 27.9738L125.587 27.9687ZM141.967 34.5591V27.9687H133.864C132.063 32.121 130.666 36.4388 129.692 40.8618C128.909 44.4117 128.626 47.1111 128.233 51.0327H141.957V44.4423H132.127V42.7947H140.318V36.2068H132.127V34.5591H141.967Z" fill="white"/>
<path d="M13.1056 74.4049H8.19102C7.09719 74.4049 6.55281 74.107 6.55281 73.5137C6.55281 73.0044 7.09719 72.7497 8.19102 72.7497H18.8381V72.2149C12.9292 70.2878 6.68033 69.6471 0.506393 70.3356C0.1522 71.3565 -0.0192526 72.4325 -7.11344e-06 73.5137C-7.11344e-06 78.4913 2.73033 80.9844 8.19102 80.9929H13.1056C14.1969 80.9929 14.7438 81.2475 14.7438 81.7568C14.7438 82.351 14.1978 82.6473 13.1056 82.6456H2.45603V89.2309H13.1056C18.5646 89.2309 21.2941 86.7353 21.2941 81.7441C21.2941 76.8496 18.5646 74.4033 13.1056 74.4049ZM8.19102 66.1669C6.24813 66.1669 4.65044 66.4776 3.39794 67.0989C8.61501 66.8156 13.8413 67.4473 18.8431 68.9655V66.1643L8.19102 66.1669Z" fill="white"/>
<path d="M27.2064 66.1669H20.6536L22.0588 70.1242C25.0933 71.362 27.9406 73.0206 30.5182 75.0518L27.2064 66.1669ZM33.5794 81.5327C30.6759 78.4784 27.255 75.9683 23.4767 74.1197L28.8446 89.2309H34.5796L36.2684 84.7032C35.4336 83.5951 34.5358 82.5365 33.5794 81.5327ZM41.1476 89.1291L41.183 89.2284C41.1754 89.1978 41.1628 89.1647 41.1476 89.1291Z" fill="white"/>
<path d="M55.0051 66.1669V72.8948C58.5432 71.1038 61.8248 68.8408 64.7609 66.1669H55.0051ZM57.1143 86.7939C56.3766 85.2948 55.6736 83.8017 55.0051 82.3145V89.2309H58.3398C57.933 88.4313 57.5245 87.6189 57.1143 86.7939ZM71.3847 72.7573V66.1669H68.3918C64.6276 70.0597 60.2755 73.3299 55.4963 75.8565C56.6509 79.032 57.9448 82.3145 59.3906 85.6759C59.8767 86.8066 60.4 87.995 60.9604 89.2411H71.3847V82.6405H61.5554V80.9928H69.7464V74.4049H61.5554V72.7573H71.3847Z" fill="white"/>
<path d="M81.3911 82.6405V80.9928H89.5821V74.4049H84.0117C83.5762 75.2538 83.1542 76.1026 82.7457 76.9515C80.8791 80.9175 79.3182 85.0219 78.0767 89.2284H91.2026V82.6405H81.3911ZM88.7137 66.1669C87.3742 68.3162 86.0854 70.5189 84.8853 72.7573H91.2153V66.1669H88.7137ZM74.8408 66.1669V89.2309C75.9985 84.741 77.5903 80.3758 79.5934 76.1977C81.2761 72.7001 83.2381 69.3455 85.46 66.1669H74.8408Z" fill="white"/>
<path d="M109.43 73.0094C108.557 70.4272 106.914 68.4664 104.994 66.1669H94.6765V89.2309H101.227V82.6405H106.141C107.383 82.6647 108.621 82.4814 109.803 82.098C110.271 79.9462 110.648 76.6026 109.43 73.0094ZM106.139 76.0526H101.227V72.7573H106.141C107.235 72.7573 107.781 73.3065 107.78 74.4049C107.778 75.5033 107.232 76.0526 106.141 76.0526H106.139ZM114.33 74.4049C114.33 69.5682 112.214 66.8612 107.982 66.284C110.008 68.609 111.218 70.2617 112.033 72.6504C112.818 74.9936 113.092 77.4794 112.836 79.9386C113.834 78.5957 114.332 76.7512 114.332 74.4049H114.33Z" fill="white"/>
<path d="M122.802 71.9577C121.706 77.8589 119.709 83.554 116.882 88.8413V66.1771H123.572C123.04 70.6386 122.929 71.3033 122.802 71.9577Z" fill="white"/>
<path d="M133.267 66.1669V72.7548H125.537C125.595 72.5001 125.651 72.2251 125.706 71.9577C125.947 70.7761 126.149 69.2227 126.547 66.1669H133.267Z" fill="white"/>
<path d="M123.44 82.6405H133.267V89.2309H118.781C121.649 84.647 123.795 79.6452 125.144 74.4024H131.629V80.9929H123.44V82.6405Z" fill="white"/>
<path d="M151.138 82.312C154.336 81.5072 156.071 79.2306 156.341 75.4821C152.066 77.7415 148.248 80.7842 145.084 84.4536L149.834 89.2309H158.022L151.138 82.312ZM156.27 72.6351C155.721 68.3213 153.028 66.1652 148.19 66.1669H136.728V89.2309H139.141C140.012 87.3527 141.058 85.5621 142.266 83.8832C146.648 77.7969 152.199 74.5297 156.27 72.6351ZM143.276 72.7573H148.19C149.283 72.7573 149.829 73.3065 149.829 74.4049C149.829 75.5033 149.283 76.0526 148.19 76.0526H143.276V72.7573ZM143.276 89.2309V86.7531C142.682 87.5782 142.135 88.4041 141.635 89.2309H143.276Z" fill="white"/>
<path d="M159.486 71.2523L158.886 71.507C159.574 67.952 162.244 66.1754 166.894 66.1771H177.542V67.9469C171.362 67.8041 165.219 68.9288 159.486 71.2523Z" fill="white"/>
<path d="M180 81.7441C180 86.7302 177.27 89.2233 171.809 89.2233H161.175V82.6405H171.809C172.901 82.6405 173.447 82.3442 173.447 81.7517C173.447 81.2424 172.901 80.9878 171.809 80.9878H166.894C161.739 80.9878 159.018 78.7646 158.731 74.3184C159.256 74.0841 159.795 73.8591 160.347 73.6435C165.818 71.5166 171.695 70.6566 177.541 71.1275V72.7497H166.894C165.803 72.7497 165.256 73.0043 165.256 73.5137C165.256 74.1062 165.802 74.4024 166.894 74.4024H171.809C177.271 74.4024 180.002 76.8496 180 81.7441Z" fill="white"/>
<path d="M60.135 14.2428C59.0639 13.5858 58.3296 13.2242 58.1372 13.1223C59.0048 13.4619 59.8547 13.8337 60.6869 14.2377C60.5249 14.2377 60.3654 14.2377 60.2033 14.2377C60.1804 14.2367 60.1575 14.2384 60.135 14.2428Z" fill="white"/>
<path d="M71.4304 24.6607C71.3291 24.5156 71.2253 24.373 71.124 24.2329C71.2607 24.4163 71.438 24.6607 71.6456 24.9612C71.5722 24.8619 71.5013 24.76 71.4304 24.6607Z" fill="white"/>
<path d="M55.0052 72.8948V74.4915L54.7242 73.6919L54.709 73.0451L55.0052 72.8948Z" fill="white"/>
<path d="M90.509 7.8663C90.3495 8.37561 90.1671 9.00206 89.9696 9.72783C89.9418 9.73278 89.9151 9.74316 89.8912 9.75839L89.5696 9.95192C89.8416 9.2387 90.1552 8.54228 90.509 7.8663Z" fill="white"/>
<path d="M120.776 12.3456C120.547 13.0621 120.314 13.7666 120.078 14.4593L120.032 14.3778C120.017 14.3406 119.99 14.3094 119.956 14.2891C119.922 14.2688 119.882 14.2606 119.842 14.2657C120.153 13.6342 120.467 12.9874 120.776 12.3456Z" fill="white"/>
<path d="M43.9376 108.299C43.9467 107.009 43.8884 105.718 43.7629 104.434L43.9756 104.612C43.9956 104.633 44.0214 104.648 44.0497 104.655C44.0781 104.662 44.1078 104.66 44.1351 104.65C44.1326 105.869 44.0667 107.087 43.9376 108.299Z" fill="white"/>
<path d="M41.1878 89.2309L41.1526 89.1316C41.1626 89.1647 41.1752 89.1978 41.1878 89.2309Z" fill="white"/>
<path d="M136.011 104.622L136.389 104.306C136.194 105.767 136.083 107.238 136.057 108.712C135.914 107.359 135.844 105.998 135.847 104.637C135.872 104.654 135.902 104.661 135.932 104.658C135.962 104.656 135.99 104.643 136.011 104.622Z" fill="white"/>
<path d="M139.136 89.2309C138.67 90.4091 138.203 91.5873 137.736 92.7655V92.791C137.753 92.7298 137.776 92.6662 137.796 92.6025V92.5796V92.549V92.5236C137.796 92.5236 137.796 92.5236 137.796 92.5108C138.186 91.3951 138.633 90.3003 139.136 89.2309Z" fill="white"/>
<path d="M73.7851 113.191C73.2179 112.473 72.6474 111.736 72.0735 110.981L72.2305 110.938C72.2564 110.933 72.2808 110.922 72.3008 110.905C72.3209 110.888 72.336 110.866 72.3444 110.841C72.8137 111.618 73.2939 112.402 73.7851 113.191Z" fill="white"/>
<path d="M107.863 110.961C107.149 112.164 106.443 113.321 105.744 114.432C106.367 113.23 106.994 111.989 107.625 110.708L107.648 110.808C107.651 110.838 107.663 110.867 107.684 110.889C107.705 110.912 107.732 110.927 107.762 110.933L107.863 110.961Z" fill="white"/>
<path d="M73.476 27.9713H70.0122C70.4495 27.925 70.8583 27.7311 71.1719 27.4212C71.8403 26.7158 71.8656 25.3992 71.1238 24.2355C71.2605 24.4188 71.4377 24.6633 71.6453 24.9638L71.8606 25.2821L71.9011 25.3432C72.4716 26.1908 72.9973 27.068 73.476 27.9713Z" fill="white"/>
<path d="M92.1193 27.9687H88.0301C88.0313 27.9577 88.0313 27.9466 88.0301 27.9356C88.0174 27.7166 88.0073 27.4976 87.9997 27.2735C87.9997 27.1487 87.9997 27.0189 87.987 26.8992C87.987 26.7235 87.987 26.5426 87.9718 26.3618C87.9566 26.181 87.9718 26.0028 87.9718 25.822V25.7405C87.9718 25.1828 87.9718 24.6404 87.9718 24.1082C88.0655 24.5131 88.5542 26.4281 90.3443 27.4187C90.8923 27.7223 91.4964 27.9095 92.1193 27.9687Z" fill="white"/>
<path d="M118.434 27.9687H114.469C114.955 26.9959 115.441 25.9773 115.925 24.9128C115.879 25.2947 115.913 25.682 116.024 26.0502C116.134 26.4184 116.32 26.7595 116.568 27.0519C117.051 27.5855 117.719 27.9134 118.434 27.9687Z" fill="white"/>
<path d="M41.1878 89.2309L41.1526 89.1316C41.1626 89.1647 41.1752 89.1978 41.1878 89.2309Z" fill="white"/>
<path d="M51.0096 72.9432L46.2368 86.3814L50.9767 72.9305L51.0096 72.9432Z" fill="white"/>
<path d="M66.3384 89.2309C66.1105 89.2462 64.1684 89.4041 63.1784 91.0288C62.8393 91.5954 62.6598 92.2442 62.6594 92.9056C62.0922 91.6866 61.5242 90.466 60.9553 89.2436C60.9553 89.2436 60.9553 89.2436 60.9553 89.2309H66.3384Z" fill="white"/>
<path d="M42.3502 92.4385V92.4138C42.3491 92.4097 42.3491 92.4054 42.3502 92.4014V92.4385Z" fill="white"/>
<path d="M123.174 89.2309C121.354 89.3455 120.242 89.9312 119.576 90.4176C118.077 91.5126 116.976 93.448 116.903 93.5677C116.918 93.5346 116.93 93.4989 116.946 93.4658C117.565 92.089 118.177 90.6773 118.781 89.2309H123.174Z" fill="white"/>
<path d="M137.809 92.5338C137.964 91.9863 138.171 90.8199 137.485 89.8955C137.281 89.6233 137.022 89.3969 136.726 89.2309H139.139C138.673 90.4091 138.206 91.5873 137.738 92.7655C137.754 92.7171 137.779 92.6484 137.804 92.5592L137.809 92.5338Z" fill="white"/>
<path d="M51.0882 72.7217L51.0097 72.9458L50.9768 72.933L46.2369 86.3839L45.2241 89.2309H44.3429C44.2723 89.231 44.2018 89.2387 44.1328 89.2538C43.8041 89.3259 43.4938 89.4655 43.2212 89.6638C42.9487 89.8621 42.7198 90.1149 42.5489 90.4063C42.378 90.6978 42.2688 91.0215 42.228 91.3574C42.1873 91.6932 42.216 92.0339 42.3123 92.3581L42.2591 92.1951C42.2414 92.1391 42.2262 92.083 42.2059 92.0296C42.135 91.8106 42.0616 91.5916 41.9857 91.37L41.9401 91.235C41.8709 91.0364 41.8 90.8378 41.7274 90.6392C41.6548 90.4405 41.5788 90.2393 41.4995 90.0356C41.4792 89.9821 41.459 89.9261 41.4362 89.8727C41.4372 89.865 41.4372 89.8573 41.4362 89.8497L41.3147 89.5416C41.2742 89.4372 41.2311 89.3328 41.1881 89.2309C41.1881 89.1978 41.1627 89.1647 41.1476 89.1316V89.1163C39.7425 85.7451 37.8267 82.613 35.4683 79.8316C34.6731 78.894 33.8278 78.0006 32.9363 77.1552L37.0331 66.1669L40.3905 75.1791L41.9477 79.3478L46.8623 66.1669H48.8474C49.5361 68.3212 50.283 70.5062 51.0882 72.7217Z" fill="white"/>
<path d="M53.4252 66.1669L52.81 67.896C52.6277 67.312 52.4513 66.7356 52.2808 66.1669H53.4252Z" fill="white"/>
<path d="M51.0096 72.9432L46.2368 86.3814L50.9767 72.9305L51.0096 72.9432Z" fill="white"/>
<path d="M111.17 113.008L108.329 114.74C108.29 114.757 108.257 114.787 108.235 114.824C108.214 114.862 108.205 114.905 108.21 114.948C108.271 116.059 108.322 117.169 108.377 118.279C108.391 118.411 108.363 118.544 108.3 118.66C108.236 118.776 108.138 118.869 108.02 118.928C107.902 118.986 107.768 119.007 107.638 118.987C107.508 118.967 107.387 118.908 107.291 118.817L104.784 116.629C104.758 116.6 104.722 116.58 104.683 116.573C104.644 116.566 104.604 116.572 104.569 116.591L101.48 117.778C101.331 117.848 101.161 117.858 101.005 117.806C100.849 117.755 100.718 117.645 100.639 117.5C100.592 117.411 100.566 117.313 100.563 117.212C100.56 117.111 100.58 117.011 100.622 116.919C101.049 115.901 101.478 114.876 101.91 113.846C101.933 113.805 101.942 113.758 101.936 113.712C101.929 113.666 101.908 113.624 101.875 113.591C101.184 112.73 100.498 111.867 99.8064 111.006C99.712 110.881 99.651 110.734 99.6292 110.579C99.6443 110.502 99.657 110.426 99.6697 110.347C99.7116 110.241 99.7804 110.148 99.8693 110.077C99.9582 110.007 100.064 109.961 100.176 109.944C100.367 109.935 100.558 109.942 100.748 109.965L103.706 110.22C103.739 110.226 103.774 110.221 103.804 110.206C103.835 110.19 103.86 110.166 103.875 110.135C104.475 109.203 105.083 108.274 105.686 107.334C105.737 107.241 105.81 107.161 105.898 107.102C105.986 107.042 106.087 107.005 106.192 106.993C106.35 106.975 106.509 107.017 106.638 107.111C106.767 107.206 106.855 107.345 106.886 107.502L107.392 109.695C107.468 110.029 107.549 110.362 107.623 110.698L107.645 110.798C107.648 110.828 107.661 110.857 107.682 110.879C107.702 110.902 107.729 110.917 107.759 110.922L107.861 110.95L109.866 111.495L111.021 111.814C111.144 111.841 111.257 111.906 111.342 112.001C111.427 112.095 111.48 112.214 111.494 112.341C111.518 112.472 111.5 112.608 111.442 112.728C111.383 112.848 111.288 112.946 111.17 113.008Z" fill="white"/>
<path d="M78.1199 113.594C78.0885 113.624 78.0676 113.664 78.0603 113.707C78.053 113.75 78.0597 113.794 78.0794 113.833C78.5115 114.852 78.9411 115.876 79.3682 116.907C79.4258 117.026 79.4458 117.16 79.4254 117.29C79.405 117.421 79.3452 117.542 79.2541 117.638C79.163 117.733 79.045 117.798 78.916 117.824C78.787 117.85 78.6532 117.836 78.5326 117.783C77.4996 117.386 76.464 116.991 75.4335 116.591C75.398 116.572 75.3575 116.566 75.3182 116.573C75.2788 116.58 75.2428 116.6 75.2157 116.629L72.7166 118.806C72.6236 118.9 72.5042 118.963 72.3745 118.986C72.2448 119.01 72.1112 118.992 71.9916 118.937C71.872 118.881 71.7723 118.79 71.7059 118.676C71.6395 118.561 71.6096 118.429 71.6203 118.297C71.6734 117.187 71.7266 116.077 71.7874 114.966C71.7943 114.92 71.7859 114.872 71.7636 114.831C71.7412 114.789 71.706 114.757 71.6633 114.737C70.7214 114.167 69.7846 113.591 68.8427 113.021C68.7115 112.936 68.6042 112.818 68.5312 112.68C68.516 112.603 68.5034 112.524 68.4907 112.448C68.4927 112.335 68.5242 112.225 68.582 112.128C68.6398 112.032 68.7218 111.952 68.8199 111.898C68.9958 111.822 69.178 111.763 69.3643 111.719C70.2657 111.473 71.1687 111.228 72.0735 110.984L72.2305 110.94C72.2564 110.936 72.2808 110.925 72.3008 110.908C72.3209 110.891 72.336 110.868 72.3444 110.843C72.3521 110.831 72.3573 110.817 72.3596 110.803C72.6128 109.718 72.866 108.636 73.1192 107.553C73.1362 107.448 73.1776 107.349 73.2401 107.263C73.3026 107.177 73.3844 107.107 73.4788 107.059C73.6231 106.988 73.789 106.975 73.9428 107.022C74.0966 107.069 74.2267 107.174 74.3067 107.314C74.7169 107.943 75.122 108.572 75.5297 109.198C75.7348 109.514 75.9424 109.83 76.145 110.148C76.1582 110.176 76.1798 110.198 76.2067 110.212C76.2336 110.227 76.2643 110.232 76.2944 110.227L78.4693 110.039L79.6619 109.942C79.7874 109.925 79.915 109.948 80.0267 110.008C80.1384 110.068 80.2287 110.161 80.2848 110.276C80.3502 110.389 80.3782 110.52 80.3645 110.651C80.3508 110.781 80.2963 110.904 80.2088 111.001C79.51 111.869 78.8137 112.733 78.1199 113.594Z" fill="white"/>
<path d="M142.676 108.992C142.659 109.124 142.6 109.246 142.509 109.343C142.418 109.439 142.299 109.503 142.169 109.527C141.096 109.797 140.025 110.069 138.951 110.337C138.912 110.342 138.875 110.36 138.847 110.388C138.818 110.416 138.8 110.452 138.794 110.492C138.529 111.57 138.261 112.646 137.989 113.718C137.966 113.849 137.904 113.97 137.811 114.064C137.718 114.158 137.598 114.221 137.469 114.245C137.339 114.268 137.205 114.251 137.085 114.195C136.965 114.139 136.865 114.047 136.799 113.932C136.212 112.994 135.621 112.052 135.027 111.108C135.006 111.066 134.972 111.031 134.93 111.01C134.888 110.988 134.84 110.982 134.794 110.991L131.502 111.213C131.346 111.219 131.191 111.184 131.051 111.113L130.887 110.945C130.824 110.852 130.787 110.744 130.779 110.632C130.771 110.52 130.792 110.407 130.841 110.306C130.943 110.143 131.06 109.989 131.188 109.845L133.09 107.553C133.114 107.529 133.129 107.498 133.134 107.464C133.139 107.43 133.133 107.395 133.117 107.365C132.705 106.334 132.295 105.302 131.879 104.271C131.834 104.175 131.811 104.07 131.814 103.964C131.816 103.858 131.843 103.753 131.892 103.66C131.969 103.518 132.096 103.41 132.248 103.359C132.4 103.308 132.566 103.317 132.712 103.385L134.791 104.222C135.138 104.362 135.487 104.5 135.834 104.645C135.86 104.66 135.891 104.667 135.921 104.662C135.95 104.658 135.978 104.644 135.999 104.622L136.376 104.306L137.675 103.214L138.594 102.45C138.688 102.364 138.805 102.309 138.931 102.294C139.057 102.278 139.184 102.303 139.296 102.363C139.414 102.419 139.512 102.51 139.575 102.625C139.639 102.74 139.664 102.872 139.647 103.003C139.577 104.113 139.503 105.224 139.427 106.336C139.419 106.379 139.425 106.423 139.443 106.462C139.462 106.501 139.493 106.532 139.531 106.553C140.471 107.14 141.407 107.734 142.339 108.335C142.457 108.395 142.553 108.491 142.613 108.609C142.674 108.727 142.696 108.861 142.676 108.992Z" fill="white"/>
<path d="M49.141 110.856C49.0857 110.976 48.994 111.074 48.8794 111.138C48.7647 111.201 48.6328 111.227 48.5029 111.21L45.1885 110.991C45.1465 110.982 45.1026 110.987 45.0637 111.005C45.0247 111.024 44.993 111.055 44.9733 111.093C44.3876 112.037 43.7968 112.978 43.2009 113.917C43.138 114.034 43.0406 114.128 42.9222 114.188C42.8038 114.247 42.6701 114.267 42.5394 114.247C42.4088 114.227 42.2876 114.166 42.1926 114.074C42.0975 113.981 42.0331 113.862 42.0083 113.731C41.7382 112.651 41.469 111.573 41.2006 110.495C41.1951 110.455 41.1771 110.418 41.1493 110.39C41.1215 110.362 41.0853 110.343 41.0462 110.337C39.976 110.07 38.9066 109.8 37.8381 109.527C37.7079 109.505 37.5875 109.443 37.4936 109.35C37.3997 109.256 37.3368 109.136 37.3135 109.005C37.2902 108.874 37.3077 108.739 37.3635 108.619C37.4194 108.499 37.5108 108.399 37.6254 108.333C38.5589 107.738 39.4949 107.144 40.4334 106.55C40.4758 106.529 40.5103 106.495 40.5318 106.453C40.5533 106.411 40.5605 106.362 40.5524 106.316C40.4739 105.213 40.4056 104.11 40.3321 103.005C40.3243 102.848 40.3574 102.692 40.4284 102.552L40.5955 102.386C40.6885 102.323 40.7966 102.286 40.9087 102.278C41.0208 102.271 41.1329 102.293 41.2335 102.343C41.3951 102.445 41.5476 102.561 41.6893 102.689C42.3805 103.267 43.0667 103.843 43.7554 104.424L43.9681 104.602C43.9881 104.623 44.0138 104.638 44.0422 104.645C44.0705 104.652 44.1002 104.65 44.1276 104.64H44.1555L47.2394 103.39C47.335 103.343 47.44 103.32 47.5461 103.323C47.6521 103.325 47.7561 103.352 47.8497 103.402C47.9903 103.48 48.0965 103.608 48.1468 103.761C48.1971 103.914 48.1877 104.081 48.1206 104.228C47.8446 104.923 47.5661 105.62 47.2875 106.316C47.1483 106.667 47.0116 107.016 46.8672 107.365C46.8528 107.392 46.8473 107.423 46.8514 107.454C46.8554 107.484 46.869 107.513 46.89 107.535C47.3576 108.096 47.8243 108.657 48.2902 109.219L49.0498 110.143C49.1376 110.237 49.1937 110.357 49.2101 110.485C49.2264 110.613 49.2023 110.743 49.141 110.856Z" fill="white"/>
<path d="M127.79 12.664C127.768 12.7938 127.705 12.9131 127.611 13.0046C127.517 13.0962 127.396 13.1553 127.266 13.1733C126.18 13.3897 125.094 13.6088 124.007 13.8227C123.964 13.8254 123.923 13.842 123.891 13.8699C123.858 13.8979 123.835 13.9358 123.825 13.978C123.504 15.0425 123.174 16.1044 122.848 17.1663C122.817 17.2957 122.747 17.4123 122.648 17.5002C122.549 17.5881 122.425 17.6429 122.293 17.6571C122.162 17.6713 122.029 17.6443 121.913 17.5796C121.798 17.515 121.705 17.416 121.648 17.2961C121.123 16.3539 120.599 15.4066 120.08 14.4618L120.035 14.3804C120.02 14.3432 119.993 14.312 119.959 14.2917C119.924 14.2714 119.884 14.2632 119.845 14.2683C118.743 14.2887 117.644 14.3065 116.541 14.3218C116.41 14.3319 116.279 14.3016 116.166 14.2349C116.053 14.1682 115.963 14.0683 115.907 13.9486C115.852 13.8289 115.835 13.6951 115.858 13.5652C115.88 13.4353 115.942 13.3154 116.034 13.2217C116.785 12.4068 117.537 11.5919 118.29 10.777C118.325 10.7462 118.35 10.7048 118.36 10.6589C118.37 10.6131 118.365 10.5652 118.346 10.5223C117.986 9.47826 117.637 8.42908 117.28 7.385C117.233 7.23497 117.226 7.07513 117.26 6.92153L117.376 6.7178C117.45 6.63312 117.545 6.56933 117.651 6.53271C117.757 6.49609 117.871 6.48792 117.981 6.50899C118.163 6.56613 118.34 6.63853 118.51 6.72544L121.204 7.98089C121.234 7.99835 121.268 8.0058 121.302 8.00213C121.335 7.99845 121.367 7.98385 121.392 7.96052L124.045 5.95639C124.125 5.88706 124.22 5.83776 124.323 5.81253C124.426 5.7873 124.533 5.78686 124.635 5.81123C124.791 5.84898 124.927 5.94493 125.016 6.07966C125.104 6.2144 125.138 6.37787 125.111 6.537C125.025 7.28059 124.934 8.02673 124.845 8.77032C124.8 9.14466 124.757 9.52155 124.709 9.89334C124.701 9.923 124.702 9.95453 124.714 9.98307C124.725 10.0116 124.746 10.0356 124.772 10.0512L126.56 11.3245L127.534 12.0197C127.637 12.0886 127.716 12.187 127.762 12.302C127.807 12.417 127.817 12.5432 127.79 12.664Z" fill="white"/>
<path d="M95.7729 5.07782C94.939 5.81292 94.106 6.54633 93.2738 7.27804C93.2376 7.30239 93.2101 7.33785 93.1955 7.37913C93.1809 7.42042 93.18 7.46534 93.1928 7.50722C93.446 8.58951 93.6865 9.67433 93.9321 10.7592C93.9681 10.8864 93.9645 11.0217 93.9217 11.1467C93.8789 11.2718 93.7989 11.3807 93.6927 11.4587C93.5865 11.5367 93.459 11.58 93.3275 11.5829C93.196 11.5858 93.0668 11.548 92.9573 11.4747C92.0086 10.9043 91.06 10.333 90.1113 9.76092C90.0915 9.74532 90.0686 9.73427 90.0441 9.72855C90.0196 9.72283 89.9941 9.72258 89.9695 9.72781C89.9416 9.73277 89.915 9.74315 89.891 9.75837L89.5695 9.95191C88.7314 10.4612 87.8933 10.9705 87.0527 11.4798C86.9452 11.5568 86.8166 11.5985 86.6846 11.5992C86.5526 11.6 86.4237 11.5597 86.3153 11.4839C86.207 11.4081 86.1246 11.3005 86.0793 11.1758C86.0341 11.051 86.0283 10.9153 86.0627 10.7872C86.3057 9.70235 86.5513 8.61837 86.7995 7.53524C86.8163 7.4898 86.8174 7.44 86.8027 7.39382C86.788 7.34765 86.7584 7.30777 86.7184 7.28058L84.2371 5.0931C84.1205 4.98753 84.0332 4.85325 83.9839 4.70348V4.46665C84.0052 4.35586 84.0554 4.25274 84.1292 4.16775C84.203 4.08277 84.2979 4.01896 84.4042 3.98281C84.5906 3.93978 84.7804 3.91336 84.9714 3.90386L87.9262 3.63648C87.9607 3.63642 87.9943 3.62526 88.0221 3.60465C88.0499 3.58404 88.0704 3.55504 88.0807 3.52188C88.5111 2.50327 88.9491 1.48465 89.3796 0.466029C89.4129 0.362113 89.4709 0.267926 89.5485 0.19161C89.6262 0.115294 89.7212 0.0591474 89.8252 0.0280239C89.9791 -0.017503 90.1444 -0.00259994 90.2877 0.069722C90.4311 0.142044 90.5418 0.266393 90.5975 0.417645C90.8912 1.10521 91.1849 1.79787 91.4761 2.48799C91.6255 2.83432 91.7748 3.18065 91.9166 3.52698C91.9249 3.55702 91.9428 3.5835 91.9675 3.60236C91.9922 3.62121 92.0224 3.63141 92.0534 3.63138L94.2258 3.82747L95.4159 3.93952C95.5424 3.94402 95.6644 3.98852 95.7644 4.06669C95.8644 4.14486 95.9373 4.25273 95.9729 4.37498C96.0177 4.49835 96.0225 4.63284 95.9865 4.75912C95.9506 4.88539 95.8758 4.99697 95.7729 5.07782Z" fill="white"/>
<path d="M64.1459 13.8507C64.0975 13.9745 64.0109 14.0794 63.8987 14.15C63.7866 14.2206 63.6549 14.2531 63.523 14.2428C62.5786 14.2428 61.6316 14.2428 60.6872 14.2428C60.5251 14.2428 60.3656 14.2428 60.2036 14.2428C60.1809 14.2401 60.1579 14.2401 60.1352 14.2428C60.1082 14.2502 60.0833 14.2637 60.0622 14.2822C60.0412 14.3008 60.0246 14.3239 60.0137 14.3498C59.4946 15.3277 58.9705 16.303 58.4489 17.2783C58.3944 17.3991 58.3044 17.5001 58.1911 17.568C58.0778 17.6358 57.9466 17.6671 57.8151 17.6576C57.6835 17.6482 57.558 17.5985 57.4554 17.5152C57.3528 17.4319 57.2781 17.319 57.2411 17.1917C56.9035 16.1341 56.5659 15.0764 56.2283 14.0187C56.2186 13.9729 56.1943 13.9315 56.1592 13.9007C56.124 13.8699 56.0799 13.8515 56.0334 13.8481C54.9497 13.652 53.871 13.4483 52.7873 13.2497C52.635 13.2183 52.4935 13.1472 52.3772 13.0434L52.2556 12.8422C52.2182 12.7355 52.2093 12.6208 52.2297 12.5095C52.2501 12.3983 52.2992 12.2943 52.3721 12.2081C52.5092 12.0747 52.6584 11.9545 52.8177 11.8491L55.2206 10.097C55.2496 10.0792 55.2723 10.0526 55.2855 10.0211C55.2987 9.98958 55.3017 9.95467 55.294 9.92134C55.1421 8.81868 54.9978 7.71603 54.8484 6.61083C54.8269 6.50648 54.8304 6.3985 54.8586 6.29578C54.8868 6.19306 54.9388 6.09854 55.0104 6.02003C55.1193 5.90183 55.2687 5.82954 55.4284 5.81772C55.5882 5.80591 55.7465 5.85545 55.8713 5.95637L57.6817 7.28057C57.9855 7.50127 58.2885 7.72367 58.5907 7.94776C58.6127 7.96867 58.6408 7.98192 58.6709 7.98559C58.701 7.98926 58.7314 7.98314 58.7578 7.96814L60.7252 7.01573L61.8038 6.50642C61.9182 6.44981 62.0468 6.42881 62.1731 6.44612C62.2994 6.46342 62.4177 6.51824 62.5129 6.60357C62.6081 6.68889 62.6758 6.80083 62.7073 6.92506C62.7389 7.0493 62.7328 7.18017 62.69 7.30094C62.3524 8.3603 62.0106 9.41967 61.6645 10.479C61.646 10.5184 61.6406 10.5628 61.6493 10.6055C61.658 10.6482 61.6802 10.687 61.7127 10.7159C62.4773 11.5189 63.2369 12.3227 63.9915 13.1274C64.0902 13.2159 64.1584 13.3336 64.1861 13.4637C64.2139 13.5937 64.1998 13.7292 64.1459 13.8507Z" fill="white"/>
</g>
<defs>
<clipPath id="clip0_421:16">
<rect width="180" height="119" fill="white"/>
</clipPath>
</defs>
</svg>
