<svg width="19" height="19" viewBox="0 0 19 19" fill="none" xmlns="http://www.w3.org/2000/svg">
<path d="M15.3625 8.68118H1.8335C1.38132 8.68118 1.01475 9.04776 1.01475 9.49993C1.01475 9.9521 1.38132 10.3187 1.8335 10.3187H15.3625L9.84236 16.6274C9.54456 16.9677 9.57904 17.485 9.91931 17.7827C10.2596 18.0805 10.7769 18.046 11.0746 17.7058L17.783 10.0391C18.0531 9.73038 18.0531 9.26947 17.783 8.96075L11.0746 1.29412C11.0746 1.29411 11.0746 1.29411 11.0746 1.29411C10.7769 0.953797 10.2596 0.919334 9.91932 1.21709C9.57905 1.51486 9.54455 2.03211 9.84235 2.37241L15.3625 8.68118Z" fill="#181818" stroke="#181818" stroke-width="0.2"/>
</svg>
