<svg width="23" height="23" viewBox="0 0 23 23" fill="none" xmlns="http://www.w3.org/2000/svg">
<path d="M17.3625 10.6812H3.8335C3.38132 10.6812 3.01475 11.0478 3.01475 11.4999C3.01475 11.9521 3.38132 12.3187 3.8335 12.3187H17.3625L11.8424 18.6274C11.5446 18.9677 11.579 19.485 11.9193 19.7827C12.2596 20.0805 12.7769 20.046 13.0746 19.7058L19.783 12.0391C20.0531 11.7304 20.0531 11.2695 19.783 10.9608L13.0746 3.29412C13.0746 3.29411 13.0746 3.29411 13.0746 3.29411C12.7769 2.9538 12.2596 2.91933 11.9193 3.21709C11.579 3.51486 11.5445 4.03211 11.8424 4.37241L17.3625 10.6812Z" fill="white" stroke="white" stroke-width="0.2"/>
</svg>
