<svg width="120" height="45" viewBox="0 0 120 45" fill="none" xmlns="http://www.w3.org/2000/svg">
<g clip-path="url(#clip0_675_5674)">
<path d="M0.820312 37.2771V37.2915L8.10031 44.5858L0.820312 37.2771Z" fill="white"/>
<g opacity="0.25">
<path d="M120 19.9459V44.5859H16.4003L0.820801 29.0064V4.38074H104.421L120 19.9459Z" fill="white"/>
</g>
<path d="M103.832 5.81663L118.564 20.5489V43.15H16.9885L2.25621 28.4177V5.81663H103.832ZM104.42 4.38074H0.820312V28.992L16.3998 44.5859H120V19.9459L104.42 4.38074Z" fill="white"/>
<path d="M12.9249 44.5859H8.11467L0.820312 37.3059V32.4957L12.9249 44.5859Z" fill="white"/>
<path opacity="0.5" d="M3.00293 0.274109H26.1496L26.3793 0.503852L30.4429 4.56744L29.2368 5.7736L25.4316 1.98283H3.00293V0.274109Z" fill="white"/>
<path d="M20.0901 5.81667H0.820312V0.274109H14.5619L20.0901 5.81667Z" fill="white"/>
<g filter="url(#filter0_bd_675_5674)">
<path d="M27.0799 20.8216C27.8639 20.8216 28.5359 20.9594 29.0959 21.2351V23.1736L29.083 23.1865C28.8504 22.8246 28.355 22.5834 27.5969 22.4628C27.3729 22.4283 27.0886 22.4111 26.7439 22.4111C26.4079 22.4025 26.0719 22.4628 25.7359 22.592C25.4086 22.7213 25.1415 22.9065 24.9347 23.1477C24.5298 23.6043 24.3273 24.2548 24.3273 25.0991C24.3273 26.0899 24.5858 26.8265 25.1027 27.309C25.5335 27.7139 26.1021 27.9163 26.8086 27.9163C27.6098 27.9163 28.2559 27.7483 28.747 27.4123C28.9279 27.2917 29.083 27.1366 29.2123 26.9471L29.2252 26.96V28.7305C28.579 29.2646 27.7132 29.5317 26.6276 29.5317C25.3439 29.5317 24.3359 29.1225 23.6036 28.304C22.9058 27.5286 22.5569 26.4991 22.5569 25.2154C22.5569 23.8542 22.9403 22.7859 23.707 22.0105C24.4824 21.2179 25.6067 20.8216 27.0799 20.8216ZM32.1645 29.4154C31.7595 29.3896 31.2771 29.3766 30.7171 29.3766H30.5232V20.9508C30.7817 20.968 30.9669 20.981 31.0789 20.9896H31.3374C31.6734 20.9896 31.9491 20.9723 32.1645 20.9379V24.2979H35.1239V20.9508C35.4771 20.968 35.8174 20.981 36.1448 20.9896C36.4722 20.9896 36.6789 20.9723 36.7651 20.9379V29.4154C36.5669 29.3896 36.1663 29.3766 35.5632 29.3766H35.1239V25.8099H32.1645V29.4154ZM39.7086 29.4283C39.3468 29.3939 38.9246 29.3766 38.4422 29.3766H37.9511L40.6908 21.6874C40.8114 21.3428 40.8717 21.1403 40.8717 21.08V20.9766V20.9637C41.1474 20.9723 41.4403 20.981 41.7505 20.9896C42.0003 20.9896 42.3019 20.9853 42.6551 20.9766V20.9896C42.6465 21.0068 42.6422 21.0283 42.6422 21.0542C42.6422 21.1317 42.7068 21.3428 42.836 21.6874L45.6403 29.3896C45.6403 29.3896 45.5412 29.3896 45.3431 29.3896L45.02 29.3766C45.02 29.3766 44.9252 29.3766 44.7357 29.3766H43.7535L43.1591 27.5545H40.3031L39.7086 29.4283ZM42.668 26.0425L41.7117 23.109L40.7812 26.0425H42.668ZM46.7516 29.3766C46.7774 29.2302 46.7904 29.0751 46.7904 28.9114V20.9896H48.0568L51.4039 26.2493V21.416C51.4039 21.1834 51.3824 21.0413 51.3393 20.9896H53.0451C53.0279 21.1619 53.015 21.3471 53.0064 21.5453V29.3766H51.7011L48.4057 24.3237V29.3766H46.7516ZM61.8434 24.3108C61.7659 24.4573 61.7271 24.8019 61.7271 25.3446V27.296C61.7271 27.8905 61.4213 28.4074 60.8096 28.8468C60.172 29.3034 59.3923 29.5317 58.4705 29.5317C57.1954 29.5317 56.1745 29.1311 55.4077 28.3299C54.6754 27.5631 54.3093 26.5853 54.3093 25.3963C54.3093 24.1385 54.684 23.0874 55.4336 22.2431C56.2693 21.2954 57.4194 20.8216 58.884 20.8216C59.8662 20.8216 60.6416 21.0111 61.2102 21.3902L61.1068 23.2511L61.068 23.264C60.9216 23.0056 60.6287 22.7988 60.1893 22.6437C59.7757 22.4886 59.3407 22.4111 58.884 22.4111C58.436 22.4025 58.044 22.4714 57.708 22.6179C57.372 22.7643 57.0834 22.9668 56.8422 23.2253C56.3425 23.768 56.097 24.4874 56.1056 25.3834C56.1056 26.1588 56.3253 26.7834 56.7647 27.2573C57.204 27.7225 57.764 27.9551 58.4447 27.9551C59.2028 27.9551 59.7197 27.757 59.9954 27.3606C60.0816 27.2314 60.1203 27.0893 60.1117 26.9342V25.8874H59.2976C58.8582 25.8874 58.6213 25.9262 58.5868 26.0037L58.5739 25.9908L58.5093 24.3496C58.6299 24.384 59.108 24.4013 59.9437 24.4013H60.6933C61.1585 24.4013 61.5376 24.3668 61.8305 24.2979L61.8434 24.3108ZM67.3723 27.8646C67.6307 27.8646 67.8117 27.8388 67.9151 27.7871H67.9409L67.8763 29.3766H63.1464V20.9379C63.2584 20.9465 63.3834 20.9551 63.5212 20.9637L63.9606 20.9766C64.2535 20.9853 64.5766 20.9896 64.9298 20.9896C65.8947 20.9896 66.8467 20.9723 67.7858 20.9379C67.7427 21.3083 67.7212 21.7994 67.7212 22.4111C67.7212 22.4111 67.7212 22.4628 67.7212 22.5662V22.592C67.5058 22.5317 67.1914 22.4973 66.7778 22.4886H64.7877V24.104H66.2867C66.752 24.104 67.032 24.0911 67.1267 24.0653L67.1397 25.616C66.9415 25.5988 66.6831 25.5902 66.3643 25.5902H64.7877V27.8646H67.3723ZM73.2792 29.3766C73.3051 29.2302 73.318 29.0751 73.318 28.9114V20.9896H74.5845L77.9315 26.2493V21.416C77.9315 21.1834 77.91 21.0413 77.8669 20.9896H79.5728C79.5555 21.1619 79.5426 21.3471 79.534 21.5453V29.3766H78.2288L74.9334 24.3237V29.3766H73.2792ZM80.9661 20.9637C81.3883 20.981 81.6425 20.9896 81.7286 20.9896H82.1809C82.4049 20.9896 82.5858 20.9723 82.7237 20.9379L82.7108 29.3766H80.9661V20.9637ZM88.5277 20.8216C89.3117 20.8216 89.9837 20.9594 90.5437 21.2351V23.1736L90.5307 23.1865C90.2981 22.8246 89.8027 22.5834 89.0446 22.4628C88.8206 22.4283 88.5363 22.4111 88.1917 22.4111C87.8557 22.4025 87.5197 22.4628 87.1837 22.592C86.8563 22.7213 86.5892 22.9065 86.3824 23.1477C85.9775 23.6043 85.775 24.2548 85.775 25.0991C85.775 26.0899 86.0335 26.8265 86.5504 27.309C86.9812 27.7139 87.5498 27.9163 88.2563 27.9163C89.0575 27.9163 89.7037 27.7483 90.1947 27.4123C90.3757 27.2917 90.5307 27.1366 90.66 26.9471L90.6729 26.96V28.7305C90.0267 29.2646 89.1609 29.5317 88.0754 29.5317C86.7917 29.5317 85.7837 29.1225 85.0514 28.304C84.3535 27.5286 84.0046 26.4991 84.0046 25.2154C84.0046 23.8542 84.388 22.7859 85.1547 22.0105C85.9301 21.2179 87.0544 20.8216 88.5277 20.8216ZM93.5734 29.4154C93.2805 29.3896 92.9143 29.3766 92.4749 29.3766H91.9709V20.9637L92.2294 20.9766C92.4103 20.9853 92.5396 20.9896 92.6171 20.9896H92.798C93.1685 20.9896 93.4269 20.9723 93.5734 20.9379V24.5046L96.1322 20.9637C96.3993 20.981 96.6276 20.9896 96.8171 20.9896H97.166C97.5968 20.9896 97.9069 20.9723 98.0965 20.9379L95.654 24.117L98.0577 28.8726C98.1611 29.1053 98.2559 29.2733 98.342 29.3766H97.9543C97.0669 29.3766 96.5113 29.3939 96.2873 29.4283C96.2442 29.144 96.1839 28.8985 96.1063 28.6917L94.4909 25.616L93.5734 26.8179V29.4154Z" fill="white"/>
</g>
</g>
<defs>
<filter id="filter0_bd_675_5674" x="8.19767" y="6.46262" width="104.503" height="37.4281" filterUnits="userSpaceOnUse" color-interpolation-filters="sRGB">
<feFlood flood-opacity="0" result="BackgroundImageFix"/>
<feGaussianBlur in="BackgroundImage" stdDeviation="5.74359"/>
<feComposite in2="SourceAlpha" operator="in" result="effect1_backgroundBlur_675_5674"/>
<feColorMatrix in="SourceAlpha" type="matrix" values="0 0 0 0 0 0 0 0 0 0 0 0 0 0 0 0 0 0 127 0" result="hardAlpha"/>
<feOffset/>
<feGaussianBlur stdDeviation="7.17949"/>
<feComposite in2="hardAlpha" operator="out"/>
<feColorMatrix type="matrix" values="0 0 0 0 1 0 0 0 0 1 0 0 0 0 1 0 0 0 0.75 0"/>
<feBlend mode="normal" in2="effect1_backgroundBlur_675_5674" result="effect2_dropShadow_675_5674"/>
<feBlend mode="normal" in="SourceGraphic" in2="effect2_dropShadow_675_5674" result="shape"/>
</filter>
<clipPath id="clip0_675_5674">
<rect width="119.179" height="44.3118" fill="white" transform="translate(0.820312 0.274109)"/>
</clipPath>
</defs>
</svg>
