<svg width="140" height="45" viewBox="0 0 140 45" fill="none" xmlns="http://www.w3.org/2000/svg">
<g clip-path="url(#clip0_675_5662)">
<path d="M0 37.2771V37.2915L7.28 44.5858L0 37.2771Z" fill="white"/>
<g opacity="0.25">
<path d="M139.282 19.9459V44.5859H15.5795L0 29.0064V4.38074H123.703L139.282 19.9459Z" fill="white"/>
</g>
<path d="M123.114 5.81663L137.846 20.5489V43.15H16.1682L1.4359 28.4177V5.81663H123.114ZM123.703 4.38074H0V28.992L15.5795 44.5859H139.282V19.9459L123.703 4.38074Z" fill="white"/>
<path d="M12.1046 44.5859H7.29436L0 37.3059V32.4957L12.1046 44.5859Z" fill="white"/>
<path opacity="0.5" d="M2.18262 0.274109H25.3293L25.559 0.503852L29.6226 4.56744L28.4165 5.7736L24.6113 1.98283H2.18262V0.274109Z" fill="white"/>
<path d="M19.2697 5.81667H0V0.274109H13.7415L19.2697 5.81667Z" fill="white"/>
<g filter="url(#filter0_bd_675_5662)">
<path d="M25.3059 20.8216C26.0899 20.8216 26.7619 20.9594 27.3219 21.2351V23.1736L27.309 23.1865C27.0764 22.8246 26.581 22.5834 25.8228 22.4628C25.5988 22.4283 25.3145 22.4111 24.9699 22.4111C24.6339 22.4025 24.2979 22.4628 23.9619 22.592C23.6345 22.7213 23.3674 22.9065 23.1607 23.1477C22.7558 23.6043 22.5533 24.2548 22.5533 25.0991C22.5533 26.0899 22.8118 26.8265 23.3287 27.309C23.7594 27.7139 24.3281 27.9163 25.0345 27.9163C25.8358 27.9163 26.4819 27.7483 26.973 27.4123C27.1539 27.2917 27.309 27.1366 27.4382 26.9471L27.4511 26.96V28.7305C26.805 29.2646 25.9391 29.5317 24.8536 29.5317C23.5699 29.5317 22.5619 29.1225 21.8296 28.304C21.1318 27.5286 20.7828 26.4991 20.7828 25.2154C20.7828 23.8542 21.1662 22.7859 21.933 22.0105C22.7084 21.2179 23.8327 20.8216 25.3059 20.8216ZM30.3904 29.4154C29.9855 29.3896 29.5031 29.3766 28.9431 29.3766H28.7492V20.9508C29.0077 20.968 29.1929 20.981 29.3049 20.9896H29.5634C29.8994 20.9896 30.1751 20.9723 30.3904 20.9379V24.2979H33.3498V20.9508C33.7031 20.968 34.0434 20.981 34.3707 20.9896C34.6981 20.9896 34.9049 20.9723 34.9911 20.9379V29.4154C34.7929 29.3896 34.3923 29.3766 33.7892 29.3766H33.3498V25.8099H30.3904V29.4154ZM37.9346 29.4283C37.5727 29.3939 37.1506 29.3766 36.6681 29.3766H36.177L38.9167 21.6874C39.0374 21.3428 39.0977 21.1403 39.0977 21.08V20.9766V20.9637C39.3734 20.9723 39.6663 20.981 39.9764 20.9896C40.2263 20.9896 40.5278 20.9853 40.881 20.9766V20.9896C40.8724 21.0068 40.8681 21.0283 40.8681 21.0542C40.8681 21.1317 40.9327 21.3428 41.062 21.6874L43.8663 29.3896C43.8663 29.3896 43.7672 29.3896 43.569 29.3896L43.246 29.3766C43.246 29.3766 43.1512 29.3766 42.9617 29.3766H41.9795L41.385 27.5545H38.529L37.9346 29.4283ZM40.894 26.0425L39.9377 23.109L39.0072 26.0425H40.894ZM44.9776 29.3766C45.0034 29.2302 45.0163 29.0751 45.0163 28.9114V20.9896H46.2828L49.6299 26.2493V21.416C49.6299 21.1834 49.6083 21.0413 49.5653 20.9896H51.2711C51.2539 21.1619 51.2409 21.3471 51.2323 21.5453V29.3766H49.9271L46.6317 24.3237V29.3766H44.9776ZM60.0694 24.3108C59.9919 24.4573 59.9531 24.8019 59.9531 25.3446V27.296C59.9531 27.8905 59.6472 28.4074 59.0355 28.8468C58.398 29.3034 57.6183 29.5317 56.6965 29.5317C55.4214 29.5317 54.4005 29.1311 53.6337 28.3299C52.9014 27.5631 52.5352 26.5853 52.5352 25.3963C52.5352 24.1385 52.91 23.0874 53.6595 22.2431C54.4952 21.2954 55.6454 20.8216 57.11 20.8216C58.0922 20.8216 58.8675 21.0111 59.4362 21.3902L59.3328 23.2511L59.294 23.264C59.1475 23.0056 58.8546 22.7988 58.4152 22.6437C58.0017 22.4886 57.5666 22.4111 57.11 22.4111C56.662 22.4025 56.27 22.4714 55.934 22.6179C55.598 22.7643 55.3094 22.9668 55.0682 23.2253C54.5685 23.768 54.3229 24.4874 54.3315 25.3834C54.3315 26.1588 54.5512 26.7834 54.9906 27.2573C55.43 27.7225 55.99 27.9551 56.6706 27.9551C57.4288 27.9551 57.9457 27.757 58.2214 27.3606C58.3075 27.2314 58.3463 27.0893 58.3377 26.9342V25.8874H57.5235C57.0842 25.8874 56.8472 25.9262 56.8128 26.0037L56.7999 25.9908L56.7352 24.3496C56.8559 24.384 57.334 24.4013 58.1697 24.4013H58.9192C59.3845 24.4013 59.7635 24.3668 60.0565 24.2979L60.0694 24.3108ZM65.5982 27.8646C65.8567 27.8646 66.0376 27.8388 66.141 27.7871H66.1669L66.1022 29.3766H61.3724V20.9379C61.4844 20.9465 61.6093 20.9551 61.7472 20.9637L62.1866 20.9766C62.4795 20.9853 62.8026 20.9896 63.1558 20.9896C64.1207 20.9896 65.0727 20.9723 66.0118 20.9379C65.9687 21.3083 65.9472 21.7994 65.9472 22.4111C65.9472 22.4111 65.9472 22.4628 65.9472 22.5662V22.592C65.7318 22.5317 65.4173 22.4973 65.0038 22.4886H63.0136V24.104H64.5127C64.9779 24.104 65.2579 24.0911 65.3527 24.0653L65.3656 25.616C65.1675 25.5988 64.909 25.5902 64.5902 25.5902H63.0136V27.8646H65.5982ZM73.0818 29.4283C72.72 29.3939 72.2978 29.3766 71.8154 29.3766H71.3243L74.064 21.6874C74.1846 21.3428 74.2449 21.1403 74.2449 21.08V20.9766V20.9637C74.5206 20.9723 74.8135 20.981 75.1237 20.9896C75.3735 20.9896 75.675 20.9853 76.0283 20.9766V20.9896C76.0197 21.0068 76.0154 21.0283 76.0154 21.0542C76.0154 21.1317 76.08 21.3428 76.2092 21.6874L79.0135 29.3896C79.0135 29.3896 78.9144 29.3896 78.7163 29.3896L78.3932 29.3766C78.3932 29.3766 78.2984 29.3766 78.1089 29.3766H77.1267L76.5323 27.5545H73.6763L73.0818 29.4283ZM76.0412 26.0425L75.0849 23.109L74.1544 26.0425H76.0412ZM84.4023 29.4025C84.2645 29.3853 84.0448 29.3766 83.7433 29.3766H83.0454C82.9334 29.3766 82.83 29.381 82.7353 29.3896L82.7223 29.3766C82.7396 29.3508 82.7482 29.3206 82.7482 29.2862C82.7482 29.2431 82.7439 29.2 82.7353 29.157C82.7353 29.1139 82.718 29.0406 82.6836 28.9373C82.6577 28.8253 82.6146 28.6659 82.5543 28.4591L82.2829 27.6062L79.9439 20.9637C80.2023 20.981 80.534 20.9896 80.9389 20.9896C81.3439 20.9896 81.6023 20.9723 81.7143 20.9379L83.614 26.6757L85.2811 20.9637C85.5309 20.981 85.8411 20.9896 86.2116 20.9896C86.7199 20.9896 87.0128 20.9723 87.0903 20.9379L84.79 27.5933L84.5703 28.3299C84.4497 28.752 84.3894 29.0277 84.3894 29.157C84.3894 29.2776 84.398 29.3508 84.4153 29.3766L84.4023 29.4025ZM89.7783 29.4283C89.4165 29.3939 88.9943 29.3766 88.5119 29.3766H88.0208L90.7605 21.6874C90.8811 21.3428 90.9414 21.1403 90.9414 21.08V20.9766V20.9637C91.2171 20.9723 91.51 20.981 91.8202 20.9896C92.07 20.9896 92.3716 20.9853 92.7248 20.9766V20.9896C92.7162 21.0068 92.7119 21.0283 92.7119 21.0542C92.7119 21.1317 92.7765 21.3428 92.9057 21.6874L95.71 29.3896C95.71 29.3896 95.6109 29.3896 95.4128 29.3896L95.0897 29.3766C95.0897 29.3766 94.9949 29.3766 94.8054 29.3766H93.8233L93.2288 27.5545H90.3728L89.7783 29.4283ZM92.7377 26.0425L91.7814 23.109L90.8509 26.0425H92.7377ZM100.504 29.4154C100.306 29.3896 99.7893 29.3766 98.9536 29.3766H98.7468V22.3982H97.4933C97.1228 22.3982 96.9031 22.4154 96.8342 22.4499L96.6791 22.5533H96.6662V20.9379L96.6791 20.912C96.817 20.9551 97.1918 20.981 97.8035 20.9896H101.771C102.141 20.9896 102.357 20.9723 102.417 20.9379C102.486 20.8948 102.542 20.856 102.585 20.8216L102.598 20.8345V22.4499L102.585 22.4628C102.447 22.4197 102.072 22.3982 101.461 22.3982H100.504V29.4154ZM105.352 29.4283C104.99 29.3939 104.568 29.3766 104.085 29.3766H103.594L106.334 21.6874C106.454 21.3428 106.515 21.1403 106.515 21.08V20.9766V20.9637C106.79 20.9723 107.083 20.981 107.393 20.9896C107.643 20.9896 107.945 20.9853 108.298 20.9766V20.9896C108.289 21.0068 108.285 21.0283 108.285 21.0542C108.285 21.1317 108.35 21.3428 108.479 21.6874L111.283 29.3896C111.283 29.3896 111.184 29.3896 110.986 29.3896L110.663 29.3766C110.663 29.3766 110.568 29.3766 110.379 29.3766H109.397L108.802 27.5545H105.946L105.352 29.4283ZM108.311 26.0425L107.355 23.109L106.424 26.0425H108.311ZM115.16 26.12C115.031 26.1286 114.893 26.133 114.747 26.133C114.609 26.133 114.398 26.12 114.113 26.0942V29.3766H112.446V20.9379C113.032 20.8603 113.756 20.8216 114.617 20.8216C115.789 20.8216 116.659 21.037 117.228 21.4677C117.805 21.8985 118.094 22.5662 118.094 23.4708C118.094 24.1686 117.831 24.7674 117.305 25.2671C117.133 25.4308 116.935 25.5686 116.711 25.6806L118.003 28.3945C118.253 28.9545 118.447 29.2862 118.585 29.3896L118.546 29.4154C118.141 29.3465 117.499 29.3508 116.62 29.4283L115.16 26.12ZM114.734 22.3206C114.518 22.3206 114.312 22.3293 114.113 22.3465V24.7631C114.32 24.789 114.561 24.8019 114.837 24.8019C115.121 24.8019 115.358 24.7803 115.548 24.7373C115.737 24.6856 115.901 24.608 116.039 24.5046C116.34 24.2806 116.487 23.949 116.478 23.5096C116.478 23.0616 116.323 22.7471 116.013 22.5662C115.72 22.4025 115.294 22.3206 114.734 22.3206Z" fill="white"/>
</g>
</g>
<defs>
<filter id="filter0_bd_675_5662" x="6.42374" y="6.46262" width="126.52" height="37.4281" filterUnits="userSpaceOnUse" color-interpolation-filters="sRGB">
<feFlood flood-opacity="0" result="BackgroundImageFix"/>
<feGaussianBlur in="BackgroundImage" stdDeviation="5.74359"/>
<feComposite in2="SourceAlpha" operator="in" result="effect1_backgroundBlur_675_5662"/>
<feColorMatrix in="SourceAlpha" type="matrix" values="0 0 0 0 0 0 0 0 0 0 0 0 0 0 0 0 0 0 127 0" result="hardAlpha"/>
<feOffset/>
<feGaussianBlur stdDeviation="7.17949"/>
<feComposite in2="hardAlpha" operator="out"/>
<feColorMatrix type="matrix" values="0 0 0 0 1 0 0 0 0 1 0 0 0 0 1 0 0 0 0.75 0"/>
<feBlend mode="normal" in2="effect1_backgroundBlur_675_5662" result="effect2_dropShadow_675_5662"/>
<feBlend mode="normal" in="SourceGraphic" in2="effect2_dropShadow_675_5662" result="shape"/>
</filter>
<clipPath id="clip0_675_5662">
<rect width="139.282" height="44.3118" fill="white" transform="translate(0 0.274109)"/>
</clipPath>
</defs>
</svg>
