<svg width="109" height="68" viewBox="0 0 109 68" fill="none" xmlns="http://www.w3.org/2000/svg">
<path opacity="0.2" d="M107.5 18.38V49.62L99.11 58H9.89L1.5 49.61V18.39L9.88 10H99.12L107.5 18.38Z" fill="white"/>
<path d="M107.5 18.38V49.62L99.11 58H9.89L1.5 49.61V18.39L9.88 10H99.12L107.5 18.38Z" stroke="white" stroke-width="3" stroke-miterlimit="10"/>
<path d="M75.97 0H33V3H75.97V0Z" fill="white"/>
<path d="M75.99 65H33.02V68H75.99V65Z" fill="white"/>
<path d="M40.0322 30.8176V39H36.6105V33.6443L33.2074 39L29.8043 33.6443V39H26.3825V30.8176C26.3825 30.2473 26.5809 29.7638 26.9776 29.3671C27.3867 28.9704 27.8702 28.772 28.4281 28.772H29.9344L33.2074 33.9232L36.4803 28.772H37.9866C38.5445 28.772 39.0218 28.9704 39.4186 29.3671C39.8277 29.7638 40.0322 30.2473 40.0322 30.8176ZM45.9852 31.5057V32.5285H53.3308V35.2435H45.9852V36.2663H54.8557V39H44.6277C44.0574 39 43.5739 38.8016 43.1772 38.4049C42.7805 38.0082 42.5821 37.5247 42.5821 36.9544V30.8176C42.5821 30.2473 42.7805 29.7638 43.1772 29.3671C43.5739 28.9704 44.0574 28.772 44.6277 28.772H54.8557V31.5057H45.9852ZM69.7291 28.772V36.9544C69.7291 37.5247 69.5307 38.0082 69.134 38.4049C68.7373 38.8016 68.2538 39 67.6835 39H65.9354L60.8586 32.6587V39H57.4555V30.8176C57.4555 30.2473 57.6539 29.7638 58.0506 29.3671C58.4473 28.9704 58.9308 28.772 59.5011 28.772H61.2492L66.326 35.1134V28.772H69.7291ZM84.5281 28.772V36.9544C84.5281 37.5247 84.3298 38.0082 83.933 38.4049C83.5363 38.8016 83.0528 39 82.4825 39H74.3001C73.7299 39 73.2464 38.8016 72.8496 38.4049C72.4529 38.0082 72.2545 37.5247 72.2545 36.9544V28.772H75.6577V36.2663H81.125V28.772H84.5281Z" fill="white"/>
</svg>
