<svg width="100" height="48" viewBox="0 0 100 48" fill="none" xmlns="http://www.w3.org/2000/svg">
<path d="M14.3282 13.7283L13.2135 14.8429L5.0791 6.70856H7.30843L14.3282 13.7283Z" fill="white"/>
<path d="M14.3536 33.7244L14.3281 33.7499V33.699L14.3536 33.7244Z" fill="white"/>
<path d="M85.6807 41.7676L84.1016 43.3467H2.479L4.05811 41.7676H85.6807Z" fill="white"/>
<path d="M86.7012 6.70856H5.07862L3.49951 5.12946H85.1221L86.7012 6.70856Z" fill="white"/>
<path d="M14.3293 33.6992V33.7523L12.7502 35.3314L6.30111 41.7672H4.07178L12.7502 33.0888L13.2412 32.5978L14.3293 33.6992Z" fill="white"/>
<path d="M14.3281 13.7285V33.6995L13.24 32.5981L12.749 33.0891V13.7285H14.3281Z" fill="white"/>
<path d="M99.5339 13.7279L99.5604 33.7255L91.5057 41.767L89.9266 43.3461H79.7354L90.0195 33.062L89.9929 14.3781L82.3362 6.7082L80.7571 5.12909H90.9483L92.5274 6.7082L99.5339 13.7279Z" fill="white"/>
<path d="M0.0011567 8.26724L8.99023 17.2563L10.1068 16.1397L1.11775 7.15064L0.0011567 8.26724Z" fill="white"/>
<path d="M10.1217 31.3107V31.3638L8.54257 32.9429L1.15128 40.3209L0.0366211 39.2063L8.54257 30.7003L9.02028 30.2226L10.1217 31.3107Z" fill="white"/>
<path d="M10.1465 31.3362L10.1211 31.3616V31.3108L10.1465 31.3362Z" fill="white"/>
<path d="M10.1221 16.1302V31.3108L9.02068 30.2227L8.54297 30.7004V16.1302H10.1221Z" fill="white"/>
<g opacity="0.5">
<path d="M68.4666 1.5864H21.3057V0.0072937H66.8875L68.4666 1.5864Z" fill="white"/>
<path d="M29.2695 5.12938H3.49951L7.02928 1.58634L8.60839 0.00723267H24.1606L29.2695 5.12938Z" fill="white"/>
<path d="M71.9979 5.12944H57.7461L54.2163 1.5864L52.6372 0.0072937H66.889L68.4681 1.5864L71.9979 5.12944Z" fill="white"/>
</g>
<path opacity="0.5" d="M20.5519 47.7787H14.8857L20.1008 42.5637H25.767L20.5519 47.7787Z" fill="white"/>
<path d="M34.1667 47.7788H28.5005L33.7288 42.5638H39.395L34.1667 47.7788Z" fill="white"/>
<path opacity="0.5" d="M47.7819 47.7788H42.1157L47.344 42.5638H53.0102L47.7819 47.7788Z" fill="white"/>
<path d="M61.4123 47.7788H55.7461L60.9744 42.5638H66.6273L61.4123 47.7788Z" fill="white"/>
<path opacity="0.5" d="M75.0256 47.7788H69.3594L74.5877 42.5638H80.2539L75.0256 47.7788Z" fill="white"/>
<path d="M38.7766 18.7132V26.8874C38.7766 27.4571 38.5784 27.9401 38.1821 28.3365C37.7858 28.7328 37.3028 28.9309 36.733 28.9309H34.9867L29.915 22.5959V28.9309H26.5153V20.7567C26.5153 20.187 26.7134 19.704 27.1098 19.3077C27.5061 18.9113 27.9891 18.7132 28.5588 18.7132H30.3051L35.3769 25.0482V18.7132H38.7766ZM44.7736 21.4441V22.8003H52.279V25.5312H44.7736V28.9309H41.3738V20.7567C41.3738 20.187 41.572 19.704 41.9683 19.3077C42.3647 18.9113 42.8477 18.7132 43.4174 18.7132H53.6351V21.4441H44.7736ZM68.6237 18.7132V21.4441H64.1837V28.9309H60.7839V21.4441H56.3624V18.7132H68.6237ZM70.738 23.339V20.6267H73.4503V23.339H70.738ZM70.738 27.0917V24.3608H73.4503V27.0917H70.738Z" fill="white"/>
</svg>
