<svg width="135" height="48" viewBox="0 0 135 48" fill="none" xmlns="http://www.w3.org/2000/svg">
<path d="M14.3286 13.7211L13.214 14.8357L5.07959 6.70132H7.30892L14.3286 13.7211Z" fill="white"/>
<path d="M14.354 33.7172L14.3286 33.7427V33.6918L14.354 33.7172Z" fill="white"/>
<path d="M117.529 41.7603L115.95 43.3395H2.47949L4.0586 41.7603H117.529Z" fill="white"/>
<path d="M117.222 6.70133H5.07911L3.5 5.12222H115.643L117.222 6.70133Z" fill="white"/>
<path d="M14.3298 33.692V33.7451L12.7507 35.3242L6.30159 41.76H4.07227L12.7507 33.0816L13.2417 32.5906L14.3298 33.692Z" fill="white"/>
<path d="M14.3286 13.7213V33.6923L13.2405 32.5909L12.7495 33.0819V13.7213H14.3286Z" fill="white"/>
<path d="M134.035 13.7207L134.062 33.7183L126.007 41.7598L124.428 43.3389H114.237L124.521 33.0548L124.494 14.3709L116.838 6.70099L115.259 5.12189H125.45L127.029 6.70099L134.035 13.7207Z" fill="white"/>
<path d="M0.00164498 8.26007L8.99072 17.2491L10.1073 16.1325L1.11824 7.14347L0.00164498 8.26007Z" fill="white"/>
<path d="M10.1222 31.3035V31.3566L8.54306 32.9357L1.15177 40.3137L0.0371094 39.1991L8.54306 30.6931L9.02077 30.2154L10.1222 31.3035Z" fill="white"/>
<path d="M10.147 31.329L10.1216 31.3544V31.3036L10.147 31.329Z" fill="white"/>
<path d="M10.1226 16.1229V31.3036L9.02117 30.2155L8.54346 30.6932V16.1229H10.1226Z" fill="white"/>
<g opacity="0.5">
<path d="M81.7369 1.57923H21.3062V0.00012207H80.1578L81.7369 1.57923Z" fill="white"/>
<path d="M29.27 5.12215H3.5L7.02977 1.57911L8.60888 0H24.1611L29.27 5.12215Z" fill="white"/>
<path d="M85.2669 5.12227H71.0151L67.4854 1.57923L65.9062 0.00012207H80.158L81.7371 1.57923L85.2669 5.12227Z" fill="white"/>
</g>
<path d="M20.5524 47.7716H14.8862L20.1013 42.5565H25.7675L20.5524 47.7716Z" fill="white"/>
<path opacity="0.5" d="M34.1672 47.7713H28.501L33.7293 42.5563H39.3955L34.1672 47.7713Z" fill="white"/>
<path d="M47.7824 47.7713H42.1162L47.3445 42.5563H53.0107L47.7824 47.7713Z" fill="white"/>
<path opacity="0.5" d="M61.4128 47.7713H55.7466L60.9749 42.5563H66.6278L61.4128 47.7713Z" fill="white"/>
<path d="M75.0261 47.7713H69.3599L74.5882 42.5563H80.2544L75.0261 47.7713Z" fill="white"/>
<path d="M36.7301 18.7056C37.2998 18.7056 37.7828 18.9038 38.1792 19.3001C38.5755 19.6964 38.7737 20.1795 38.7737 20.7492V23.4801C38.7737 24.0374 38.5755 24.5204 38.1792 24.9292C37.7828 25.3255 37.2998 25.5236 36.7301 25.5236H29.9121V28.9234H26.5124V18.7056H36.7301ZM35.3739 22.7927V21.4365H29.9121V22.7927H35.3739ZM50.2325 26.1924V21.4365H44.7706V26.1924H50.2325ZM51.5887 18.7056C52.1584 18.7056 52.6414 18.9038 53.0377 19.3001C53.4341 19.6964 53.6322 20.1795 53.6322 20.7492V26.8798C53.6322 27.4495 53.4341 27.9326 53.0377 28.3289C52.6414 28.7252 52.1584 28.9234 51.5887 28.9234H43.4145C42.8447 28.9234 42.3617 28.7252 41.9654 28.3289C41.5691 27.9326 41.3709 27.4495 41.3709 26.8798V20.7492C41.3709 20.1795 41.5691 19.6964 41.9654 19.3001C42.3617 18.9038 42.8447 18.7056 43.4145 18.7056H51.5887ZM55.8208 28.9234V18.7056H59.2391V28.9234H55.8208ZM73.6976 18.7056V26.8798C73.6976 27.4495 73.4995 27.9326 73.1031 28.3289C72.7068 28.7252 72.2238 28.9234 71.6541 28.9234H69.9078L64.836 22.5884V28.9234H61.4363V20.7492C61.4363 20.1795 61.6345 19.6964 62.0308 19.3001C62.4271 18.9038 62.9101 18.7056 63.4799 18.7056H65.2262L70.2979 25.0406V18.7056H73.6976ZM88.6862 18.7056V21.4365H84.2461V28.9234H80.8464V21.4365H76.4249V18.7056H88.6862ZM103.415 22.4583V25.1707V22.4583ZM94.5531 21.4365V22.4583H103.415V26.8798C103.415 26.9294 103.415 26.9603 103.415 26.9727C103.39 27.5053 103.179 27.9635 102.783 28.3475C102.387 28.7314 101.916 28.9234 101.371 28.9234C101.371 28.9234 97.9653 28.9234 91.1534 28.9234V26.1924H100.015V25.1707H91.1534V20.7492C91.1534 20.712 91.1534 20.6811 91.1534 20.6563C91.1782 20.1113 91.3887 19.6531 91.7851 19.2815C92.1938 18.8976 92.6644 18.7056 93.197 18.7056H103.415V21.4365H94.5531ZM105.659 23.3315V20.6191H108.371V23.3315H105.659ZM105.659 27.0842V24.3532H108.371V27.0842H105.659Z" fill="white"/>
</svg>
