<svg width="135" height="48" viewBox="0 0 135 48" fill="none" xmlns="http://www.w3.org/2000/svg">
<path d="M14.3286 13.7211L13.214 14.8357L5.07959 6.70132H7.30892L14.3286 13.7211Z" fill="white"/>
<path d="M14.354 33.7172L14.3286 33.7427V33.6918L14.354 33.7172Z" fill="white"/>
<path d="M117.529 41.7603L115.95 43.3395H2.47949L4.0586 41.7603H117.529Z" fill="white"/>
<path d="M117.222 6.70133H5.07911L3.5 5.12222H115.643L117.222 6.70133Z" fill="white"/>
<path d="M14.3298 33.692V33.7451L12.7507 35.3242L6.30159 41.76H4.07227L12.7507 33.0816L13.2417 32.5906L14.3298 33.692Z" fill="white"/>
<path d="M14.3286 13.7213V33.6923L13.2405 32.5909L12.7495 33.0819V13.7213H14.3286Z" fill="white"/>
<path d="M134.035 13.7207L134.062 33.7183L126.007 41.7598L124.428 43.3389H114.237L124.521 33.0548L124.494 14.3709L116.838 6.70099L115.259 5.12189H125.45L127.029 6.70099L134.035 13.7207Z" fill="white"/>
<path d="M0.00164498 8.26007L8.99072 17.2491L10.1073 16.1325L1.11824 7.14347L0.00164498 8.26007Z" fill="white"/>
<path d="M10.1222 31.3035V31.3566L8.54306 32.9357L1.15177 40.3137L0.0371094 39.1991L8.54306 30.6931L9.02077 30.2154L10.1222 31.3035Z" fill="white"/>
<path d="M10.147 31.329L10.1216 31.3544V31.3036L10.147 31.329Z" fill="white"/>
<path d="M10.1226 16.1229V31.3036L9.02117 30.2155L8.54346 30.6932V16.1229H10.1226Z" fill="white"/>
<g opacity="0.5">
<path d="M81.7369 1.57923H21.3062V0.00012207H80.1578L81.7369 1.57923Z" fill="white"/>
<path d="M29.27 5.12215H3.5L7.02977 1.57911L8.60888 0H24.1611L29.27 5.12215Z" fill="white"/>
<path d="M85.2669 5.12227H71.0151L67.4854 1.57923L65.9062 0.00012207H80.158L81.7371 1.57923L85.2669 5.12227Z" fill="white"/>
</g>
<path d="M20.5524 47.7716H14.8862L20.1013 42.5565H25.7675L20.5524 47.7716Z" fill="white"/>
<path opacity="0.5" d="M34.1672 47.7713H28.501L33.7293 42.5563H39.3955L34.1672 47.7713Z" fill="white"/>
<path d="M47.7824 47.7713H42.1162L47.3445 42.5563H53.0107L47.7824 47.7713Z" fill="white"/>
<path opacity="0.5" d="M61.4128 47.7713H55.7466L60.9749 42.5563H66.6278L61.4128 47.7713Z" fill="white"/>
<path d="M75.0261 47.7713H69.3599L74.5882 42.5563H80.2544L75.0261 47.7713Z" fill="white"/>
</svg>
