<svg width="155" height="45" viewBox="0 0 155 45" fill="none" xmlns="http://www.w3.org/2000/svg">
<g clip-path="url(#clip0_718_246)">
<path d="M0.903809 37.408V37.4225L8.26349 44.7967L0.903809 37.408Z" fill="white"/>
<g opacity="0.25">
<path d="M154.775 19.8871V44.7967H16.6538L0.903809 29.0467V4.15158H139.025L154.775 19.8871Z" fill="white"/>
</g>
<path d="M138.43 5.60319L153.323 20.4967V43.3451H17.249L2.35542 28.4516V5.60319H138.43ZM139.025 4.15158H0.903809V29.0322L16.6538 44.7967H154.775V19.8871L139.025 4.15158Z" fill="white"/>
<path d="M13.1409 44.7967H8.278L0.903809 37.4371V32.5742L13.1409 44.7967Z" fill="white"/>
<path opacity="0.5" d="M3.10986 0H26.5099L26.7421 0.232258L30.8502 4.34032L29.6308 5.55968L25.7841 1.72742H3.10986V0Z" fill="white"/>
<path d="M20.384 5.60323H0.90332V0H14.7953L20.384 5.60323Z" fill="white"/>
<path d="M29.3662 26.0303C29.2356 26.039 29.0962 26.0434 28.9482 26.0434C28.8088 26.0434 28.5954 26.0303 28.308 26.0042V29.3226H26.6227V20.7914C27.2149 20.7131 27.9465 20.6739 28.8175 20.6739C30.002 20.6739 30.8817 20.8916 31.4565 21.3271C32.0401 21.7626 32.3319 22.4376 32.3319 23.3521C32.3319 24.0576 32.0662 24.6629 31.5349 25.1681C31.3607 25.3335 31.1604 25.4729 30.934 25.5861L32.2404 28.3297C32.493 28.8958 32.689 29.2311 32.8283 29.3356L32.7891 29.3618C32.3798 29.2921 31.7309 29.2964 30.8425 29.3748L29.3662 26.0303ZM28.9351 22.1893C28.7174 22.1893 28.5083 22.1981 28.308 22.2155V24.6585C28.517 24.6847 28.7609 24.6977 29.0396 24.6977C29.327 24.6977 29.5665 24.676 29.7582 24.6324C29.9498 24.5802 30.1153 24.5018 30.2546 24.3972C30.5594 24.1708 30.7075 23.8355 30.6988 23.3913C30.6988 22.9384 30.542 22.6205 30.2285 22.4376C29.9324 22.2721 29.5012 22.1893 28.9351 22.1893ZM38.2691 27.794C38.5304 27.794 38.7133 27.7679 38.8178 27.7156H38.8439L38.7786 29.3226H33.997V20.7914C34.1102 20.8002 34.2365 20.8089 34.3759 20.8176L34.82 20.8306C35.1162 20.8393 35.4428 20.8437 35.7999 20.8437C36.7754 20.8437 37.7378 20.8263 38.6871 20.7914C38.6436 21.166 38.6218 21.6624 38.6218 22.2808C38.6218 22.2808 38.6218 22.3331 38.6218 22.4376V22.4637C38.4041 22.4027 38.0862 22.3679 37.6681 22.3592H35.6562V23.9922H37.1717C37.642 23.9922 37.925 23.9792 38.0209 23.9531L38.0339 25.5208C37.8336 25.5034 37.5723 25.4947 37.25 25.4947H35.6562V27.794H38.2691ZM45.3735 21.314L45.2559 23.1822L45.2037 23.1953C44.8901 22.725 44.3545 22.4202 43.5967 22.2808C43.3616 22.2372 43.1351 22.2155 42.9174 22.2155C42.6997 22.2155 42.5124 22.2329 42.3556 22.2677C42.1988 22.3026 42.0638 22.3592 41.9506 22.4376C41.7242 22.5943 41.6109 22.7947 41.6109 23.0385C41.6109 23.3608 41.7111 23.6003 41.9114 23.7571C42.164 23.9487 42.5864 24.0881 43.1787 24.1752C43.7709 24.2535 44.2456 24.3624 44.6027 24.5018C44.9598 24.6324 45.2516 24.8022 45.478 25.0113C45.9135 25.4032 46.1313 25.9563 46.1313 26.6705C46.1313 27.6024 45.7785 28.321 45.073 28.8261C44.4721 29.2616 43.71 29.4793 42.7867 29.4793C42.0464 29.4793 41.3148 29.34 40.5919 29.0613C40.348 28.9655 40.139 28.8566 39.9648 28.7347L40.0432 26.6052L40.0693 26.5921C40.6006 27.4979 41.4672 27.9508 42.6692 27.9508C43.5227 27.9508 44.0845 27.7461 44.3545 27.3368C44.4503 27.1974 44.4982 27.0406 44.4982 26.8664C44.4982 26.6922 44.4677 26.5485 44.4067 26.4353C44.3545 26.3221 44.2674 26.2263 44.1455 26.1479C43.9016 25.9824 43.4879 25.8735 42.9043 25.8213C42.3208 25.769 41.8417 25.6645 41.4672 25.5077C41.1014 25.351 40.8053 25.1637 40.5788 24.946C40.1782 24.5366 39.9779 23.9661 39.9779 23.2345C39.9779 22.4768 40.2479 21.8627 40.7879 21.3924C41.3279 20.9134 42.0551 20.6782 42.9697 20.6869C43.8842 20.6869 44.6855 20.896 45.3735 21.314ZM51.7419 27.794C52.0032 27.794 52.1861 27.7679 52.2906 27.7156H52.3167L52.2514 29.3226H47.4698V20.7914C47.583 20.8002 47.7093 20.8089 47.8486 20.8176L48.2928 20.8306C48.589 20.8393 48.9156 20.8437 49.2727 20.8437C50.2482 20.8437 51.2106 20.8263 52.1599 20.7914C52.1164 21.166 52.0946 21.6624 52.0946 22.2808C52.0946 22.2808 52.0946 22.3331 52.0946 22.4376V22.4637C51.8769 22.4027 51.559 22.3679 51.1409 22.3592H49.129V23.9922H50.6444C51.1148 23.9922 51.3978 23.9792 51.4936 23.9531L51.5067 25.5208C51.3064 25.5034 51.0451 25.4947 50.7228 25.4947H49.129V27.794H51.7419ZM57.2394 29.3618C57.039 29.3356 56.5165 29.3226 55.6716 29.3226H55.4626V22.2677H54.1953C53.8208 22.2677 53.5987 22.2852 53.529 22.32L53.3723 22.4245H53.3592V20.7914L53.3723 20.7653C53.5116 20.8089 53.8905 20.835 54.5089 20.8437H58.5197C58.8942 20.8437 59.1119 20.8263 59.1729 20.7914C59.2426 20.7479 59.2992 20.7087 59.3428 20.6739L59.3558 20.6869V22.32L59.3428 22.3331C59.2034 22.2895 58.8245 22.2677 58.2061 22.2677H57.2394V29.3618ZM64.7956 20.7914C65.3878 20.7131 65.9931 20.6739 66.6115 20.6739C67.7699 20.6739 68.6496 20.9482 69.2506 21.4969C69.8515 22.0369 70.152 22.8469 70.152 23.9269C70.152 24.8937 69.821 25.6558 69.1591 26.2132C68.5407 26.7445 67.7481 27.0102 66.7814 27.0102C66.6681 27.0102 66.5462 27.0014 66.4156 26.984V29.3226H64.7956V20.7914ZM66.8075 22.2155C66.6768 22.2155 66.5462 22.2198 66.4156 22.2285V25.5861C66.5549 25.6035 66.7204 25.6122 66.912 25.6122C67.1123 25.6122 67.317 25.5731 67.526 25.4947C67.7438 25.4076 67.9223 25.29 68.0617 25.1419C68.3665 24.8284 68.5189 24.419 68.5189 23.9139C68.5189 22.7816 67.9485 22.2155 66.8075 22.2155ZM72.9715 29.3748C72.6057 29.34 72.1789 29.3226 71.6912 29.3226H71.1947L73.9644 21.5492C74.0863 21.2008 74.1473 20.9961 74.1473 20.9352V20.8306V20.8176C74.426 20.8263 74.7221 20.835 75.0357 20.8437C75.2883 20.8437 75.5931 20.8393 75.9502 20.8306V20.8437C75.9415 20.8611 75.9371 20.8829 75.9371 20.909C75.9371 20.9874 76.0025 21.2008 76.1331 21.5492L78.9681 29.3356C78.9681 29.3356 78.8679 29.3356 78.6676 29.3356L78.341 29.3226C78.341 29.3226 78.2452 29.3226 78.0536 29.3226H77.0607L76.4597 27.4805H73.5725L72.9715 29.3748ZM75.9633 25.9519L74.9965 22.9863L74.0559 25.9519H75.9633ZM85.4219 21.314L85.3043 23.1822L85.252 23.1953C84.9385 22.725 84.4028 22.4202 83.6451 22.2808C83.4099 22.2372 83.1835 22.2155 82.9657 22.2155C82.748 22.2155 82.5607 22.2329 82.404 22.2677C82.2472 22.3026 82.1122 22.3592 81.999 22.4376C81.7725 22.5943 81.6593 22.7947 81.6593 23.0385C81.6593 23.3608 81.7595 23.6003 81.9598 23.7571C82.2124 23.9487 82.6348 24.0881 83.227 24.1752C83.8193 24.2535 84.294 24.3624 84.6511 24.5018C85.0082 24.6324 85.2999 24.8022 85.5264 25.0113C85.9619 25.4032 86.1796 25.9563 86.1796 26.6705C86.1796 27.6024 85.8269 28.321 85.1214 28.8261C84.5204 29.2616 83.7583 29.4793 82.8351 29.4793C82.0948 29.4793 81.3632 29.34 80.6403 29.0613C80.3964 28.9655 80.1874 28.8566 80.0132 28.7347L80.0916 26.6052L80.1177 26.5921C80.649 27.4979 81.5156 27.9508 82.7175 27.9508C83.5711 27.9508 84.1328 27.7461 84.4028 27.3368C84.4987 27.1974 84.5466 27.0406 84.5466 26.8664C84.5466 26.6922 84.5161 26.5485 84.4551 26.4353C84.4028 26.3221 84.3157 26.2263 84.1938 26.1479C83.9499 25.9824 83.5362 25.8735 82.9527 25.8213C82.3691 25.769 81.8901 25.6645 81.5156 25.5077C81.1498 25.351 80.8537 25.1637 80.6272 24.946C80.2266 24.5366 80.0262 23.9661 80.0262 23.2345C80.0262 22.4768 80.2962 21.8627 80.8362 21.3924C81.3762 20.9134 82.1035 20.6782 83.018 20.6869C83.9325 20.6869 84.7338 20.896 85.4219 21.314ZM92.7962 21.314L92.6786 23.1822L92.6263 23.1953C92.3128 22.725 91.7772 22.4202 91.0194 22.2808C90.7842 22.2372 90.5578 22.2155 90.3401 22.2155C90.1223 22.2155 89.9351 22.2329 89.7783 22.2677C89.6215 22.3026 89.4865 22.3592 89.3733 22.4376C89.1468 22.5943 89.0336 22.7947 89.0336 23.0385C89.0336 23.3608 89.1338 23.6003 89.3341 23.7571C89.5867 23.9487 90.0091 24.0881 90.6013 24.1752C91.1936 24.2535 91.6683 24.3624 92.0254 24.5018C92.3825 24.6324 92.6742 24.8022 92.9007 25.0113C93.3362 25.4032 93.5539 25.9563 93.5539 26.6705C93.5539 27.6024 93.2012 28.321 92.4957 28.8261C91.8947 29.2616 91.1326 29.4793 90.2094 29.4793C89.4691 29.4793 88.7375 29.34 88.0146 29.0613C87.7707 28.9655 87.5617 28.8566 87.3875 28.7347L87.4659 26.6052L87.492 26.5921C88.0233 27.4979 88.8899 27.9508 90.0918 27.9508C90.9454 27.9508 91.5072 27.7461 91.7772 27.3368C91.873 27.1974 91.9209 27.0406 91.9209 26.8664C91.9209 26.6922 91.8904 26.5485 91.8294 26.4353C91.7772 26.3221 91.6901 26.2263 91.5681 26.1479C91.3242 25.9824 90.9105 25.8735 90.327 25.8213C89.7434 25.769 89.2644 25.6645 88.8899 25.5077C88.5241 25.351 88.228 25.1637 88.0015 24.946C87.6009 24.5366 87.4005 23.9661 87.4005 23.2345C87.4005 22.4768 87.6705 21.8627 88.2105 21.3924C88.7505 20.9134 89.4778 20.6782 90.3923 20.6869C91.3068 20.6869 92.1081 20.896 92.7962 21.314ZM98.7334 29.3487C98.6028 29.3313 98.3894 29.3226 98.0932 29.3226H97.3486C97.2005 29.3226 97.0829 29.3269 96.9958 29.3356L96.9828 29.3226C97.0002 29.2964 97.0089 29.266 97.0089 29.2311C97.0089 29.1876 97.0045 29.144 96.9958 29.1005C96.9958 29.0569 96.9784 28.9829 96.9436 28.8784C96.9174 28.7652 96.8782 28.604 96.826 28.395L94.6573 20.8176C94.9273 20.835 95.2539 20.8437 95.6371 20.8437C96.029 20.8437 96.2816 20.8263 96.3949 20.7914L97.8973 26.566L99.3736 20.8176C99.4345 20.8176 99.4911 20.8219 99.5434 20.8306H99.6871C99.8265 20.8393 100.001 20.8437 100.21 20.8437C100.427 20.8437 100.645 20.8263 100.863 20.7914L102.365 26.566L103.646 20.8176C103.898 20.835 104.229 20.8437 104.639 20.8437C105.057 20.8437 105.309 20.8263 105.396 20.7914L103.567 27.5197C103.332 28.2948 103.206 28.7564 103.188 28.9045C103.18 29.0439 103.175 29.144 103.175 29.205C103.175 29.2572 103.184 29.2964 103.201 29.3226L103.188 29.3487C103.049 29.3313 102.831 29.3226 102.535 29.3226C102.535 29.3226 102.304 29.3226 101.843 29.3226C101.634 29.3226 101.486 29.3269 101.399 29.3356L101.385 29.3226C101.403 29.2964 101.412 29.266 101.412 29.2311C101.412 29.1876 101.407 29.1484 101.399 29.1135C101.399 29.07 101.39 28.996 101.372 28.8914C101.355 28.7782 101.325 28.6171 101.281 28.4081L101.111 27.5327L100.053 23.5611L99.06 27.5197C98.8597 28.3297 98.7552 28.7956 98.7465 28.9176C98.729 29.1527 98.729 29.2877 98.7465 29.3226L98.7334 29.3487ZM107.69 28.3166C107.306 27.9421 107.001 27.4979 106.775 26.984C106.557 26.4614 106.448 25.891 106.448 25.2726C106.448 24.6542 106.549 24.0706 106.749 23.5219C106.958 22.9645 107.254 22.4768 107.637 22.0587C108.029 21.6406 108.5 21.3053 109.048 21.0527C109.597 20.8002 110.211 20.6739 110.89 20.6739C112.066 20.6739 113.055 21.044 113.856 21.7843C114.718 22.5769 115.149 23.6439 115.149 24.9852C115.149 26.2829 114.705 27.3672 113.817 28.2382C113.277 28.7695 112.632 29.1353 111.883 29.3356C111.517 29.4314 111.082 29.4793 110.577 29.4793C110.08 29.4793 109.571 29.3792 109.048 29.1789C108.534 28.9698 108.081 28.6824 107.69 28.3166ZM108.212 25.1942C108.212 25.5861 108.277 25.9476 108.408 26.2785C108.547 26.6095 108.73 26.8969 108.957 27.1408C109.453 27.646 110.093 27.8942 110.877 27.8855C111.618 27.8855 112.219 27.646 112.68 27.1669C113.142 26.6705 113.368 25.9911 113.36 25.1289C113.36 24.3189 113.142 23.6439 112.706 23.1039C112.236 22.529 111.591 22.2416 110.773 22.2416C109.98 22.2416 109.349 22.5334 108.878 23.1169C108.434 23.6743 108.212 24.3668 108.212 25.1942ZM119.223 26.0303C119.092 26.039 118.953 26.0434 118.805 26.0434C118.666 26.0434 118.452 26.0303 118.165 26.0042V29.3226H116.479V20.7914C117.072 20.7131 117.803 20.6739 118.674 20.6739C119.859 20.6739 120.739 20.8916 121.313 21.3271C121.897 21.7626 122.189 22.4376 122.189 23.3521C122.189 24.0576 121.923 24.6629 121.392 25.1681C121.218 25.3335 121.017 25.4729 120.791 25.5861L122.097 28.3297C122.35 28.8958 122.546 29.2311 122.685 29.3356L122.646 29.3618C122.237 29.2921 121.588 29.2964 120.699 29.3748L119.223 26.0303ZM118.792 22.1893C118.574 22.1893 118.365 22.1981 118.165 22.2155V24.6585C118.374 24.6847 118.618 24.6977 118.896 24.6977C119.184 24.6977 119.423 24.676 119.615 24.6324C119.807 24.5802 119.972 24.5018 120.111 24.3972C120.416 24.1708 120.564 23.8355 120.556 23.3913C120.556 22.9384 120.399 22.6205 120.085 22.4376C119.789 22.2721 119.358 22.1893 118.792 22.1893ZM125.8 29.4793C125.112 29.4793 124.463 29.4271 123.854 29.3226V20.7784C124.411 20.7087 125.06 20.6739 125.8 20.6739C126.549 20.6739 127.224 20.7784 127.825 20.9874C128.426 21.1877 128.932 21.4752 129.341 21.8497C130.16 22.5987 130.565 23.6439 130.556 24.9852C130.556 26.4919 130.103 27.6416 129.197 28.4342C128.378 29.131 127.246 29.4793 125.8 29.4793ZM125.513 27.9247C125.792 27.9769 126.066 28.0031 126.336 28.0031C126.615 28.0031 126.915 27.9508 127.238 27.8463C127.56 27.7331 127.838 27.5632 128.074 27.3368C128.579 26.849 128.827 26.1435 128.818 25.2203C128.818 23.6961 128.265 22.7598 127.159 22.4114C126.793 22.2982 126.371 22.2416 125.892 22.2416H125.709C125.709 22.2416 125.644 22.2416 125.513 22.2416V27.9247Z" fill="white"/>
</g>
<defs>
<clipPath id="clip0_718_246">
<rect width="153.871" height="45" fill="white" transform="translate(0.90332)"/>
</clipPath>
</defs>
</svg>
