<svg width="155" height="45" viewBox="0 0 155 45" fill="none" xmlns="http://www.w3.org/2000/svg">
<path d="M0.903809 37.408V37.4225L8.26349 44.7967L0.903809 37.408Z" fill="white"/>
<g opacity="0.25">
<path d="M154.775 19.8871V44.7967H16.6538L0.903809 29.0467V4.15158H139.025L154.775 19.8871Z" fill="white"/>
</g>
<path d="M138.43 5.60319L153.323 20.4967V43.3451H17.249L2.35542 28.4516V5.60319H138.43ZM139.025 4.15158H0.903809V29.0322L16.6538 44.7967H154.775V19.8871L139.025 4.15158Z" fill="white"/>
<path d="M13.1409 44.7967H8.278L0.903809 37.4371V32.5742L13.1409 44.7967Z" fill="white"/>
<path opacity="0.5" d="M3.10986 0H26.5099L26.7421 0.232258L30.8502 4.34032L29.6308 5.55968L25.7841 1.72742H3.10986V0Z" fill="white"/>
<path d="M20.384 5.60323H0.90332V0H14.7953L20.384 5.60323Z" fill="white"/>
</svg>
