<svg width="144" height="48" viewBox="0 0 144 48" fill="none" xmlns="http://www.w3.org/2000/svg">
<path d="M14.3418 13.7493L13.226 14.865L5.0835 6.7225H7.31505L14.3418 13.7493Z" fill="white"/>
<path d="M14.3677 33.7668L14.3413 33.7933V33.7404L14.3677 33.7668Z" fill="white"/>
<path d="M125.615 41.8167L124.034 43.3974H2.48096L4.06164 41.8167H125.615Z" fill="white"/>
<path d="M126.637 6.72298H5.08362L3.50293 5.14229H125.056L126.637 6.72298Z" fill="white"/>
<path d="M14.3425 33.7407V33.7939L12.7618 35.3746L6.30626 41.8169H4.07471L12.7618 33.1297L13.2533 32.6382L14.3425 33.7407Z" fill="white"/>
<path d="M14.3429 13.7494V33.7405L13.2537 32.638L12.7622 33.1294V13.7494H14.3429Z" fill="white"/>
<path d="M143.467 13.7494L143.494 33.767L135.431 41.8165L133.85 43.3972H123.649L133.943 33.1028L133.917 14.4002L126.252 6.72261L124.672 5.14192H134.873L136.454 6.72261L143.467 13.7494Z" fill="white"/>
<path d="M-0.000509508 8.28365L8.99756 17.2817L10.1153 16.164L1.1172 7.16594L-0.000509508 8.28365Z" fill="white"/>
<path d="M10.1308 31.3498V31.4029L8.5501 32.9836L1.15142 40.369L0.0356445 39.2532L8.5501 30.7387L9.02829 30.2605L10.1308 31.3498Z" fill="white"/>
<path d="M10.1587 31.3761L10.1323 31.4025V31.3496L10.1587 31.3761Z" fill="white"/>
<path d="M10.132 16.1536V31.3494L9.02946 30.2602L8.55127 30.7384V16.1536H10.132Z" fill="white"/>
<g opacity="0.5">
<path d="M81.8198 1.59517H21.3286V0.0144806H80.2391L81.8198 1.59517Z" fill="white"/>
<path d="M29.2987 5.14207H3.50293L7.03623 1.59549L8.61691 0.014801H24.1847L29.2987 5.14207Z" fill="white"/>
<path d="M85.3527 5.14175H71.0866L67.5533 1.59517L65.9727 0.0144806H80.2387L81.8194 1.59517L85.3527 5.14175Z" fill="white"/>
</g>
<path d="M20.5713 47.835H14.8994L20.1197 42.6148H25.7915L20.5713 47.835Z" fill="white"/>
<path opacity="0.5" d="M34.1992 47.8339H28.5273L33.7609 42.6137H39.4328L34.1992 47.8339Z" fill="white"/>
<path d="M47.8271 47.8339H42.1553L47.3888 42.6137H53.0607L47.8271 47.8339Z" fill="white"/>
<path opacity="0.5" d="M61.4702 47.8339H55.7983L61.0319 42.6137H66.6905L61.4702 47.8339Z" fill="white"/>
<path d="M75.0967 47.8339H69.4248L74.6583 42.6137H80.3302L75.0967 47.8339Z" fill="white"/>
<path d="M38.8141 22.4829V25.198V22.4829ZM29.9436 21.4601V22.4829H38.8141V26.9088C38.8141 26.9584 38.8141 26.9894 38.8141 27.0018C38.7893 27.5349 38.5785 27.9936 38.1818 28.378C37.7851 28.7623 37.314 28.9544 36.7685 28.9544C36.7685 28.9544 33.3592 28.9544 26.5405 28.9544V26.2208H35.411V25.198H26.5405V20.7721C26.5405 20.7349 26.5405 20.7039 26.5405 20.6791C26.5653 20.1336 26.7761 19.6749 27.1728 19.303C27.5819 18.9186 28.053 18.7265 28.5861 18.7265H38.8141V21.4601H29.9436ZM53.8177 18.7265V21.4601H49.3731V28.9544H45.97V21.4601H41.5441V18.7265H53.8177ZM66.4595 18.7265C67.0174 18.7265 67.4947 18.9248 67.8914 19.3215C68.3006 19.7183 68.5051 20.2018 68.5051 20.7721V28.9544H65.0834V25.5513H59.6347V28.9544H56.2316V20.7721C56.2316 20.2018 56.4299 19.7183 56.8266 19.3215C57.2234 18.9248 57.7069 18.7265 58.2771 18.7265H66.4595ZM65.0834 22.8177V21.4601H59.6347V22.8177H65.0834ZM83.5645 18.7265V21.4601H79.12V28.9544H75.7169V21.4601H71.2909V18.7265H83.5645ZM98.2333 18.7265V26.9088C98.2333 27.4791 98.035 27.9626 97.6383 28.3594C97.2415 28.7561 96.758 28.9544 96.1878 28.9544H88.0054C87.4351 28.9544 86.9516 28.7561 86.5549 28.3594C86.1581 27.9626 85.9598 27.4791 85.9598 26.9088V18.7265H89.3629V26.2208H94.8302V18.7265H98.2333ZM113.181 22.4829V25.198V22.4829ZM104.311 21.4601V22.4829H113.181V26.9088C113.181 26.9584 113.181 26.9894 113.181 27.0018C113.156 27.5349 112.946 27.9936 112.549 28.378C112.152 28.7623 111.681 28.9544 111.136 28.9544C111.136 28.9544 107.726 28.9544 100.908 28.9544V26.2208H109.778V25.198H100.908V20.7721C100.908 20.7349 100.908 20.7039 100.908 20.6791C100.932 20.1336 101.143 19.6749 101.54 19.303C101.949 18.9186 102.42 18.7265 102.953 18.7265H113.181V21.4601H104.311ZM115.428 23.3569V20.6419H118.143V23.3569H115.428ZM115.428 27.1134V24.3797H118.143V27.1134H115.428Z" fill="white"/>
</svg>
