<svg xmlns="http://www.w3.org/2000/svg" viewBox="0 0 28.59 17.99">
  <g>
    <g>
      <g>
        <path d="M14.29,2A14.13,14.13,0,0,1,26.53,9,14.2,14.2,0,0,1,2.06,9,14.13,14.13,0,0,1,14.29,2m0-2A16.15,16.15,0,0,0,.2,8.21a1.62,1.62,0,0,0,0,1.57,16.2,16.2,0,0,0,28.18,0,1.62,1.62,0,0,0,0-1.57A16.15,16.15,0,0,0,14.29,0Z" style="fill: #fff"/>
        <path d="M14.29,6.39A2.54,2.54,0,0,1,16.75,9a2.54,2.54,0,0,1-2.46,2.6A2.53,2.53,0,0,1,11.84,9a2.54,2.54,0,0,1,2.45-2.61m0-2A4.53,4.53,0,0,0,9.84,9a4.53,4.53,0,0,0,4.45,4.6A4.53,4.53,0,0,0,18.75,9a4.54,4.54,0,0,0-4.46-4.61Z" style="fill: #fff"/>
      </g>
    </g>
  </g>
</svg>
