<svg xmlns="http://www.w3.org/2000/svg" viewBox="0 0 28.58 22.57">
  <g>
    <g>
      <g>
        <path d="M22.49,4.5h0a17.27,17.27,0,0,0-1.88-.93A16.18,16.18,0,0,0,.2,10.5a1.6,1.6,0,0,0,0,1.56,15.93,15.93,0,0,0,5.9,6A16.34,16.34,0,0,0,8,19H8l1.54-1.54h0a15.39,15.39,0,0,1-1.95-.86,14,14,0,0,1-5.51-5.31,14.15,14.15,0,0,1,12.24-7A13.8,13.8,0,0,1,19,5.11,12.15,12.15,0,0,1,21,6h0a12.38,12.38,0,0,1,1.72,1.08l1.43-1.43A17.45,17.45,0,0,0,22.49,4.5Z" style="fill: #fff"/>
        <path d="M28.38,12.07a16.17,16.17,0,0,1-14.09,8.21,16.81,16.81,0,0,1-2.36-.17,1,1,0,0,1-.54-1.71h0a1,1,0,0,1,.87-.27,13.77,13.77,0,0,0,2,.15,14.15,14.15,0,0,0,12.23-7,14,14,0,0,0-3.79-4.22l1.43-1.43a15.86,15.86,0,0,1,4.22,4.87A1.62,1.62,0,0,1,28.38,12.07Z" style="fill: #fff"/>
        <path d="M24.57,0a1,1,0,0,0-.71.29L20.59,3.56,10.48,13.67,7.56,16.59,6.1,18.05l-2.8,2.8a1,1,0,0,0,0,1.42,1,1,0,0,0,.71.3,1,1,0,0,0,.7-.3l.4-.39,0-.05L8,19l1.54-1.54L21,6,22.49,4.5l2.79-2.79a1,1,0,0,0,.13-.16A1.1,1.1,0,0,0,25.57,1a1,1,0,0,0-1-1Z" style="fill: #fff"/>
        <path d="M14.29,8.67a2.39,2.39,0,0,1,1,.22L12,12.18a2.7,2.7,0,0,1-.15-.9,2.54,2.54,0,0,1,2.46-2.61m0-2a4.54,4.54,0,0,0-4.46,4.61,4.67,4.67,0,0,0,.65,2.39,4.48,4.48,0,0,0,1.37,1.47L18.09,8.9a4.38,4.38,0,0,0-1.36-1.48,4.29,4.29,0,0,0-2.44-.75Z" style="fill: #fff"/>
      </g>
    </g>
  </g>
</svg>
