<svg width="23" height="23" viewBox="0 0 23 23" fill="none" xmlns="http://www.w3.org/2000/svg">
<path d="M12.3191 17.3624L12.3191 3.83334C12.3191 3.38116 11.9525 3.01459 11.5003 3.01459C11.0481 3.01459 10.6816 3.38116 10.6816 3.83334L10.6816 17.3624L4.37283 11.8422C4.03256 11.5444 3.51523 11.5789 3.21752 11.9192C2.91971 12.2594 2.9542 12.7768 3.29448 13.0745L10.9611 19.7828C11.2699 20.053 11.7308 20.053 12.0395 19.7828L19.7061 13.0745C19.7061 13.0745 19.7061 13.0745 19.7061 13.0745C20.0464 12.7768 20.0809 12.2594 19.7831 11.9192C19.4854 11.5789 18.9681 11.5444 18.6278 11.8422L12.3191 17.3624Z" fill="white" stroke="white" stroke-width="0.2"/>
</svg>
