<svg width="31" height="31" viewBox="0 0 31 31" fill="none" xmlns="http://www.w3.org/2000/svg">
<path fill-rule="evenodd" clip-rule="evenodd" d="M15.4997 4.57051C9.46348 4.57051 4.57019 9.46381 4.57019 15.5C4.57019 21.5362 9.46348 26.4294 15.4997 26.4294C21.5359 26.4294 26.4291 21.5362 26.4291 15.5C26.4291 9.46381 21.5359 4.57051 15.4997 4.57051ZM2.58301 15.5C2.58301 8.36632 8.36599 2.58333 15.4997 2.58333C22.6333 2.58333 28.4163 8.36632 28.4163 15.5C28.4163 22.6336 22.6333 28.4167 15.4997 28.4167C8.36599 28.4167 2.58301 22.6336 2.58301 15.5Z" fill="white"/>
<path fill-rule="evenodd" clip-rule="evenodd" d="M15.5001 7.88247C16.049 7.88247 16.4938 8.32732 16.4938 8.87607V15.5C16.4938 15.7635 16.3891 16.0163 16.2028 16.2025L12.2284 20.177C11.8404 20.565 11.2113 20.565 10.8232 20.177C10.4352 19.7888 10.4352 19.1598 10.8232 18.7718L14.5066 15.0885V8.87607C14.5066 8.32732 14.9514 7.88247 15.5001 7.88247Z" fill="white"/>
</svg>
