<svg width="19" height="19" viewBox="0 0 19 19" fill="none" xmlns="http://www.w3.org/2000/svg">
<path d="M13.675 0.449999L2.775 17.95H5.9L16.8 0.449999H13.675ZM8.55 4.15C8.55 2.025 6.8 0.3 4.65 0.3C2.5 0.3 0.75 2.025 0.75 4.15C0.75 6.275 2.5 8.025 4.65 8.025C6.8 8.025 8.55 6.275 8.55 4.15ZM2.925 4.15C2.925 3.225 3.7 2.45 4.65 2.45C5.6 2.45 6.375 3.225 6.375 4.15C6.375 5.1 5.6 5.85 4.65 5.85C3.7 5.85 2.925 5.1 2.925 4.15ZM14.925 10.375C12.775 10.375 11.025 12.125 11.025 14.25C11.025 16.375 12.775 18.1 14.925 18.1C17.1 18.1 18.85 16.375 18.85 14.25C18.85 12.125 17.1 10.375 14.925 10.375ZM14.925 15.95C13.975 15.95 13.225 15.175 13.225 14.25C13.225 13.3 13.975 12.55 14.925 12.55C15.875 12.55 16.65 13.3 16.65 14.25C16.65 15.175 15.875 15.95 14.925 15.95Z" fill="white"/>
</svg>
