<svg width="19" height="18" viewBox="0 0 19 18" fill="none" xmlns="http://www.w3.org/2000/svg">
<path fill-rule="evenodd" clip-rule="evenodd" d="M9.51276 0.314371C9.34656 0.540321 9.31606 0.838681 9.43316 1.09354C9.94666 2.21097 10.1996 3.31549 10.1996 4.54849C10.1996 8.4234 6.9346 11.7358 2.74241 11.7358C2.29249 11.7358 1.82536 11.6268 1.25011 11.4877C0.96692 11.4192 0.66932 11.5161 0.48075 11.7382C0.29218 11.9603 0.244821 12.2697 0.358311 12.538C1.74297 15.8117 5.10537 18 9.01846 18C14.1703 18 18.2974 13.8935 18.2974 9C18.2974 4.4123 14.7834 0.593201 10.2329 0.00635127C9.95466 -0.0295287 9.67896 0.0884211 9.51276 0.314371ZM11.3542 1.82295C14.5016 2.79639 16.7545 5.67288 16.7545 9C16.7545 13.0095 13.3504 16.4571 9.01846 16.4571C6.27235 16.4571 3.90843 15.2002 2.52916 13.2734C2.59997 13.2768 2.67109 13.2787 2.74241 13.2787C7.75506 13.2787 11.7424 9.3068 11.7424 4.54849C11.7424 3.59161 11.6123 2.69502 11.3542 1.82295Z" fill="#C4C4C4"/>
</svg>