<svg width="21" height="21" viewBox="0 0 21 21" fill="none" xmlns="http://www.w3.org/2000/svg">
<g clip-path="url(#clip0)">
<path fill-rule="evenodd" clip-rule="evenodd" d="M10.0001 0.389955C9.84305 0.387979 9.68895 0.43288 9.55751 0.51892C9.42608 0.60496 9.32328 0.728233 9.26225 0.872988C9.20122 1.01774 9.18473 1.17741 9.21489 1.33158C9.24506 1.48575 9.3205 1.62742 9.43158 1.73851C9.54266 1.84959 9.68434 1.92503 9.83851 1.95519C9.99268 1.98536 10.1523 1.96887 10.2971 1.90784C10.4419 1.84681 10.5651 1.74401 10.6512 1.61258C10.7372 1.48114 10.7821 1.32704 10.7801 1.16996C10.7801 1.06752 10.76 0.966096 10.7208 0.871462C10.6816 0.776828 10.6241 0.690842 10.5517 0.618412C10.4792 0.545982 10.3933 0.488528 10.2986 0.449329C10.204 0.41013 10.1026 0.389955 10.0001 0.389955Z" fill="white"/>
<path fill-rule="evenodd" clip-rule="evenodd" d="M19.9001 13.72C19.7701 15.1 19.4601 16.87 19.2101 18.13C19.0874 18.7646 18.748 19.3369 18.2501 19.7491C17.7522 20.1613 17.1265 20.3878 16.4801 20.39H13.4801C13.2424 20.3873 13.0076 20.3379 12.789 20.2446C12.5704 20.1512 12.3723 20.0156 12.2061 19.8457C12.0399 19.6758 11.9088 19.4748 11.8202 19.2542C11.7317 19.0335 11.6875 18.7977 11.6901 18.56V14.39C11.6902 14.32 11.6631 14.2528 11.6146 14.2025C11.5661 14.1521 11.5 14.1225 11.4301 14.12H8.90014C8.86514 14.1199 8.83049 14.127 8.79828 14.1407C8.76606 14.1543 8.73695 14.1744 8.71267 14.1996C8.68839 14.2248 8.66945 14.2547 8.65699 14.2874C8.64453 14.3201 8.6388 14.355 8.64014 14.39V18.58C8.64015 19.0583 8.45083 19.5171 8.11355 19.8563C7.77626 20.1955 7.31845 20.3873 6.84014 20.39H3.52014C2.87374 20.3878 2.24813 20.1613 1.75021 19.7491C1.25228 19.3369 0.912933 18.7646 0.790142 18.13C0.540142 16.87 0.230142 15.13 0.100142 13.72C-0.00864111 11.8282 -0.00864111 9.93173 0.100142 8.03996C0.109408 7.6006 0.220864 7.16944 0.42568 6.78064C0.630495 6.39184 0.923043 6.05608 1.28014 5.79996L6.74014 2.03996C6.87304 1.94118 7.03456 1.88851 7.20014 1.88996C7.30341 1.88863 7.40592 1.90783 7.50171 1.94644C7.5975 1.98504 7.68467 2.04229 7.75816 2.11485C7.83165 2.18741 7.89 2.27384 7.92983 2.36914C7.96965 2.46443 7.99015 2.56668 7.99014 2.66996C7.98898 2.795 7.95853 2.91804 7.90122 3.02918C7.84391 3.14033 7.76134 3.23649 7.66014 3.30996L2.14014 7.09996C1.9779 7.21328 1.84391 7.36242 1.74854 7.53582C1.65317 7.70923 1.59897 7.90225 1.59014 8.09996C1.50814 9.92619 1.52483 11.7555 1.64014 13.58C1.75014 14.86 2.05014 16.58 2.30014 17.82C2.35404 18.1032 2.50574 18.3585 2.72873 18.5413C2.95172 18.7241 3.23183 18.8227 3.52014 18.82H6.84014C6.9091 18.82 6.97523 18.7926 7.02399 18.7438C7.07275 18.695 7.10014 18.6289 7.10014 18.56V14.39C7.09617 14.1506 7.13972 13.9128 7.22828 13.6904C7.31683 13.468 7.44863 13.2653 7.61604 13.0942C7.78345 12.9231 7.98315 12.7869 8.20357 12.6934C8.42399 12.6 8.66075 12.5512 8.90014 12.55H11.4101C11.6487 12.5526 11.8844 12.6023 12.1036 12.6963C12.3229 12.7903 12.5214 12.9267 12.6878 13.0977C12.8541 13.2687 12.985 13.4709 13.073 13.6927C13.1609 13.9145 13.2041 14.1514 13.2001 14.39V18.58C13.2001 18.6141 13.2069 18.6479 13.2199 18.6795C13.233 18.711 13.2522 18.7397 13.2763 18.7638C13.3004 18.7879 13.3291 18.8071 13.3606 18.8202C13.3922 18.8332 13.426 18.84 13.4601 18.84H16.4601C16.7485 18.8427 17.0286 18.7441 17.2516 18.5613C17.4746 18.3785 17.6262 18.1232 17.6801 17.84C17.9301 16.58 18.2301 14.84 18.3401 13.6C18.4555 11.7755 18.4721 9.94619 18.3901 8.11996C18.3813 7.92225 18.3271 7.72923 18.2317 7.55583C18.1364 7.38242 18.0024 7.23328 17.8401 7.11996L12.4101 3.38996L12.2901 3.30996H12.2301C12.1454 3.22801 12.0805 3.12769 12.0407 3.01672C12.0008 2.90576 11.9869 2.78712 12.0001 2.66996C12.0001 2.56668 12.0206 2.46443 12.0605 2.36914C12.1003 2.27384 12.1586 2.18741 12.2321 2.11485C12.3056 2.04229 12.3928 1.98504 12.4886 1.94644C12.5844 1.90783 12.6869 1.88863 12.7901 1.88996C12.946 1.89162 13.0984 1.93663 13.2301 2.01996L18.7201 5.79996C19.0846 6.05178 19.3849 6.38566 19.5968 6.77472C19.8087 7.16378 19.9263 7.59715 19.9401 8.03996C20.0356 9.93249 20.0223 11.829 19.9001 13.72Z" fill="white"/>
<path fill-rule="evenodd" clip-rule="evenodd" d="M11.1701 1.17C11.1701 1.4014 11.1015 1.62761 10.9729 1.82002C10.8443 2.01242 10.6616 2.16238 10.4478 2.25094C10.234 2.33949 9.99878 2.36266 9.77182 2.31752C9.54487 2.27237 9.33639 2.16094 9.17276 1.99731C9.00914 1.83369 8.8977 1.62521 8.85256 1.39826C8.80742 1.1713 8.83059 0.93605 8.91914 0.72226C9.00769 0.508471 9.15766 0.325742 9.35006 0.197181C9.54247 0.0686193 9.76867 0 10.0001 0C10.3104 0 10.608 0.123268 10.8274 0.342685C11.0468 0.562103 11.1701 0.859697 11.1701 1.17Z" fill="white"/>
</g>
<defs>
<clipPath id="clip0">
<rect width="20.01" height="20.39" fill="white"/>
</clipPath>
</defs>
</svg>
