<svg width="21" height="21" viewBox="0 0 21 21" fill="none" xmlns="http://www.w3.org/2000/svg">
<g clip-path="url(#clip0)">
<path d="M15.1699 5.87C15.1699 6.06778 15.1113 6.26112 15.0014 6.42557C14.8915 6.59001 14.7353 6.71819 14.5526 6.79388C14.3699 6.86956 14.1688 6.88937 13.9748 6.85078C13.7809 6.8122 13.6027 6.71695 13.4628 6.5771C13.323 6.43725 13.2277 6.25907 13.1891 6.06509C13.1506 5.8711 13.1704 5.67004 13.246 5.48731C13.3217 5.30459 13.4499 5.14841 13.6144 5.03853C13.7788 4.92864 13.9721 4.87 14.1699 4.87C14.4351 4.87 14.6895 4.97535 14.877 5.16289C15.0646 5.35042 15.1699 5.60478 15.1699 5.87Z" fill="white"/>
<path fill-rule="evenodd" clip-rule="evenodd" d="M15.05 0.0200021H14.77H14.93C14.9694 0.0102597 15.0106 0.0102597 15.05 0.0200021Z" fill="#FFB600"/>
<path fill-rule="evenodd" clip-rule="evenodd" d="M18.9001 2.65006C18.6826 2.86745 18.3876 2.98957 18.0801 2.98957C17.7725 2.98957 17.4776 2.86745 17.2601 2.65006C17.1213 2.50605 17.0185 2.33131 16.9601 2.14006V1.93006C16.9547 1.89024 16.9547 1.84988 16.9601 1.81006C16.9581 1.57737 17.0261 1.34946 17.1553 1.15593C17.2845 0.962395 17.4689 0.812196 17.6846 0.724846C17.9003 0.637495 18.1372 0.617031 18.3647 0.666111C18.5922 0.715191 18.7996 0.831547 18.9601 1.00006C19.1246 1.16479 19.2391 1.37286 19.2901 1.60006C19.3171 1.79369 19.2957 1.99101 19.2276 2.17428C19.1595 2.35756 19.047 2.52105 18.9001 2.65006Z" fill="white"/>
<path fill-rule="evenodd" clip-rule="evenodd" d="M19.9998 4.91004V7.45004C20.0036 7.82127 19.933 8.1895 19.7922 8.533C19.6513 8.8765 19.4431 9.18832 19.1798 9.45004L9.40983 19.22C9.15068 19.4798 8.84284 19.6858 8.50394 19.8264C8.16504 19.967 7.80174 20.0394 7.43484 20.0394C7.06793 20.0394 6.70463 19.967 6.36573 19.8264C6.02683 19.6858 5.71899 19.4798 5.45984 19.22L0.819835 14.56C0.560108 14.3009 0.354048 13.993 0.213453 13.6541C0.0728576 13.3153 0.000488281 12.9519 0.000488281 12.585C0.000488281 12.2181 0.0728576 11.8548 0.213453 11.5159C0.354048 11.177 0.560108 10.8692 0.819835 10.61L10.5898 0.840042C10.8516 0.576742 11.1634 0.368532 11.5069 0.227697C11.8504 0.0868619 12.2186 0.0162549 12.5898 0.0200421H15.0698C15.1837 0.0307672 15.2934 0.068475 15.3898 0.130042C15.4905 0.204051 15.5726 0.300331 15.6299 0.411356C15.6871 0.522381 15.7179 0.645142 15.7198 0.770042C15.7212 0.871998 15.7022 0.973202 15.6641 1.06778C15.626 1.16236 15.5695 1.24843 15.4979 1.32099C15.4262 1.39355 15.3409 1.45117 15.2468 1.49049C15.1528 1.52981 15.0518 1.55005 14.9498 1.55004H12.5698C12.4028 1.54897 12.2372 1.58113 12.0827 1.64465C11.9282 1.70817 11.7878 1.80179 11.6698 1.92004L1.89983 11.69C1.78131 11.808 1.68726 11.9483 1.62309 12.1027C1.55892 12.2572 1.52588 12.4228 1.52588 12.59C1.52588 12.7573 1.55892 12.9229 1.62309 13.0773C1.68726 13.2318 1.78131 13.372 1.89983 13.49L6.52983 18.12C6.64784 18.2386 6.78809 18.3326 6.94254 18.3968C7.09698 18.461 7.26259 18.494 7.42984 18.494C7.59708 18.494 7.76269 18.461 7.91713 18.3968C8.07158 18.3326 8.21183 18.2386 8.32983 18.12L18.0998 8.35004C18.2194 8.23254 18.3146 8.09251 18.3798 7.93804C18.4451 7.78357 18.479 7.61772 18.4798 7.45004V4.90004C18.495 4.70905 18.5817 4.53082 18.7226 4.40102C18.8635 4.27123 19.0482 4.19944 19.2398 4.20004C19.3928 4.20027 19.5424 4.24548 19.6698 4.33004C19.7653 4.39524 19.8447 4.48138 19.9019 4.58189C19.9591 4.6824 19.9926 4.79463 19.9998 4.91004Z" fill="white"/>
<path fill-rule="evenodd" clip-rule="evenodd" d="M18.47 5.01995C18.4651 4.99687 18.4651 4.97303 18.47 4.94995V5.17995C18.48 5.07995 18.47 5.01995 18.47 5.01995Z" fill="#FFB600"/>
<path fill-rule="evenodd" clip-rule="evenodd" d="M20 5.02003V4.91003C20.008 4.92725 20.0122 4.94603 20.0122 4.96503C20.0122 4.98404 20.008 5.00281 20 5.02003Z" fill="#FFB600"/>
</g>
<defs>
<clipPath id="clip0">
<rect width="20.01" height="20.02" fill="white"/>
</clipPath>
</defs>
</svg>
