<svg width="20" height="20" viewBox="0 0 20 20" fill="none" xmlns="http://www.w3.org/2000/svg">
<g clip-path="url(#clip0)">
<path fill-rule="evenodd" clip-rule="evenodd" d="M0 2.82C0 2.07209 0.297106 1.35481 0.825959 0.825959C1.35481 0.297106 2.07209 0 2.82 0C3.56791 0 4.28519 0.297106 4.81404 0.825959C5.34289 1.35481 5.64 2.07209 5.64 2.82V17.18C5.64 17.9279 5.34289 18.6452 4.81404 19.174C4.28519 19.7029 3.56791 20 2.82 20C2.07209 20 1.35481 19.7029 0.825959 19.174C0.297106 18.6452 0 17.9279 0 17.18V2.82ZM2.82 1.54C2.48052 1.54 2.15495 1.67486 1.9149 1.9149C1.67486 2.15495 1.54 2.48052 1.54 2.82V17.18C1.54 17.5195 1.67486 17.845 1.9149 18.0851C2.15495 18.3251 2.48052 18.46 2.82 18.46C3.15948 18.46 3.48505 18.3251 3.7251 18.0851C3.96514 17.845 4.1 17.5195 4.1 17.18V2.82C4.1 2.48052 3.96514 2.15495 3.7251 1.9149C3.48505 1.67486 3.15948 1.54 2.82 1.54Z" fill="white"/>
<path fill-rule="evenodd" clip-rule="evenodd" d="M14.3599 2.82C14.3599 2.07209 14.657 1.35481 15.1858 0.825959C15.7147 0.297106 16.432 0 17.1799 0C17.9278 0 18.6451 0.297106 19.1739 0.825959C19.7028 1.35481 19.9999 2.07209 19.9999 2.82V17.18C19.9999 17.9279 19.7028 18.6452 19.1739 19.174C18.6451 19.7029 17.9278 20 17.1799 20C16.432 20 15.7147 19.7029 15.1858 19.174C14.657 18.6452 14.3599 17.9279 14.3599 17.18V2.82ZM17.1799 1.54C16.8404 1.54 16.5148 1.67486 16.2748 1.9149C16.0347 2.15495 15.8999 2.48052 15.8999 2.82V17.18C15.8999 17.5195 16.0347 17.845 16.2748 18.0851C16.5148 18.3251 16.8404 18.46 17.1799 18.46C17.5193 18.46 17.8449 18.3251 18.085 18.0851C18.325 17.845 18.4599 17.5195 18.4599 17.18V2.82C18.4599 2.48052 18.325 2.15495 18.085 1.9149C17.8449 1.67486 17.5193 1.54 17.1799 1.54Z" fill="white"/>
<path fill-rule="evenodd" clip-rule="evenodd" d="M7.17994 8.21997V8.44997C7.17994 8.44997 7.17994 8.34997 7.17994 8.29997C7.17505 8.27353 7.17505 8.24641 7.17994 8.21997Z" fill="#FFB600"/>
<path fill-rule="evenodd" clip-rule="evenodd" d="M11.1798 5.89998C11.1761 6.10205 11.1201 6.2997 11.0172 6.47368C10.9144 6.64766 10.7682 6.79203 10.593 6.89274C10.4178 6.99344 10.2195 7.04704 10.0174 7.04831C9.81528 7.04958 9.6163 6.99847 9.43982 6.89998L9.25982 6.77998L9.16982 6.69998C9.05984 6.59348 8.97223 6.46609 8.91213 6.32528C8.85202 6.18447 8.82064 6.03308 8.81982 5.87998C8.82765 5.57225 8.95542 5.27977 9.17587 5.06492C9.39632 4.85008 9.692 4.72988 9.99982 4.72998C10.2331 4.7315 10.4614 4.79723 10.6598 4.91998C10.819 5.02942 10.9493 5.17567 11.0399 5.34628C11.1304 5.51689 11.1784 5.70684 11.1798 5.89998Z" fill="white"/>
<path fill-rule="evenodd" clip-rule="evenodd" d="M12.8202 8.20001V17.2C12.8202 17.9479 12.5231 18.6652 11.9942 19.1941C11.4654 19.7229 10.7481 20.02 10.0002 20.02C9.25226 20.02 8.53499 19.7229 8.00613 19.1941C7.47728 18.6652 7.18018 17.9479 7.18018 17.2V8.20001C7.20286 8.00361 7.30119 7.82379 7.45428 7.6987C7.60738 7.57361 7.8032 7.5131 8.00018 7.53001C8.15113 7.5345 8.29871 7.57569 8.43018 7.65001C8.53458 7.72338 8.61992 7.82067 8.67907 7.93374C8.73821 8.04682 8.76945 8.1724 8.77018 8.30001V17.18C8.77018 17.5195 8.90503 17.8451 9.14508 18.0851C9.38513 18.3252 9.7107 18.46 10.0502 18.46C10.3897 18.46 10.7152 18.3252 10.9553 18.0851C11.1953 17.8451 11.3302 17.5195 11.3302 17.18V8.30001C11.3302 8.19805 11.3504 8.09709 11.3897 8.00302C11.429 7.90894 11.4867 7.82361 11.5592 7.75197C11.6318 7.68034 11.7179 7.62383 11.8124 7.58573C11.907 7.54762 12.0082 7.52869 12.1102 7.53001C12.2645 7.53287 12.4157 7.57411 12.5502 7.65001C12.6323 7.71665 12.699 7.80035 12.7457 7.89531C12.7923 7.99028 12.8177 8.09425 12.8202 8.20001Z" fill="white"/>
<path fill-rule="evenodd" clip-rule="evenodd" d="M12.8301 8.29995C12.8358 8.32632 12.8358 8.35359 12.8301 8.37995V8.19995C12.835 8.2331 12.835 8.2668 12.8301 8.29995Z" fill="#FFB600"/>
</g>
<defs>
<clipPath id="clip0">
<rect width="20" height="20" fill="white"/>
</clipPath>
</defs>
</svg>
