<svg width="24" height="24" viewBox="0 0 24 24" fill="none" xmlns="http://www.w3.org/2000/svg">
<path fill-rule="evenodd" clip-rule="evenodd" d="M10.5001 14.8C8.9001 14.8 7.7001 16.1 7.7001 17.7V17.8C8.1001 18 9.3001 18.5 12.1001 18.5C14.9001 18.5 16.0001 18.1 16.5001 17.8C16.5001 17.8 16.5001 17.8 16.5001 17.7C16.5001 16.1 15.2001 14.8 13.7001 14.8H10.5001ZM6.1001 17.7C6.1001 15.3 8.1001 13.3 10.5001 13.3H13.5001C15.9001 13.3 17.9001 15.3 17.9001 17.7C17.9001 18.1 17.8001 18.7 17.2001 19.1C16.5001 19.5 15.0001 20 12.0001 20C9.0001 20 7.5001 19.5 6.8001 19.1C6.2001 18.7 6.1001 18.1 6.1001 17.7Z" fill="white"/>
<path fill-rule="evenodd" clip-rule="evenodd" d="M16.6002 5.60004C16.7002 5.20004 17.1002 4.90004 17.5002 5.10004C18.9002 5.50004 19.9002 6.90004 19.9002 8.40004C19.9002 10 18.8002 11.6 17.2002 11.7C16.8002 11.8 16.4002 11.4 16.3002 11C16.2002 10.6 16.6002 10.2 17.0002 10.1C17.7002 10 18.4002 9.30004 18.4002 8.30004C18.4002 7.30004 17.8002 6.60004 17.2002 6.50004C16.8002 6.40004 16.5002 6.00004 16.6002 5.60004Z" fill="white"/>
<path fill-rule="evenodd" clip-rule="evenodd" d="M18.4002 13.9C18.5002 13.5 18.9002 13.2 19.3002 13.3C20.9002 13.6 22.0002 15 22.0002 16.6V17C22.0002 17.4 21.9002 18 21.3002 18.4C21.0002 18.6 20.4002 18.9 19.6002 19C19.2002 19.1 18.8002 18.8 18.7002 18.4C18.6002 18 18.9002 17.6 19.3002 17.5C19.9002 17.4 20.2002 17.2 20.4002 17.1C20.4002 17.1 20.4002 17.1 20.4002 17V16.6C20.4002 15.7 19.8002 15 19.0002 14.9C18.6002 14.7 18.3002 14.3 18.4002 13.9Z" fill="white"/>
<path fill-rule="evenodd" clip-rule="evenodd" d="M7.4001 11.1999C7.3001 11.5999 6.9001 11.8999 6.5001 11.6999C5.0001 11.2999 4.1001 9.89995 4.1001 8.39995C4.1001 6.79995 5.2001 5.19995 6.8001 5.09995C7.2001 4.99995 7.6001 5.29995 7.6001 5.69995C7.7001 6.09995 7.4001 6.49995 7.0001 6.59995C6.3001 6.69995 5.6001 7.39995 5.6001 8.39995C5.6001 9.39995 6.2001 10.0999 6.8001 10.1999C7.2001 10.2999 7.5001 10.7999 7.4001 11.1999Z" fill="white"/>
<path fill-rule="evenodd" clip-rule="evenodd" d="M5.6 13.9C5.5 13.5 5.1 13.2 4.7 13.3C3.1 13.6 2 15 2 16.6V17C2 17.4 2.1 18 2.7 18.4C3 18.6 3.5 18.8 4.3 19C4.7 19.1 5.1 18.8 5.2 18.4C5.3 18 5 17.6 4.6 17.5C4 17.4 3.7 17.2 3.5 17.1C3.5 17.1 3.5 17.1 3.5 17V16.6C3.5 15.7 4.1 15 4.9 14.9C5.4 14.7 5.7 14.3 5.6 13.9Z" fill="white"/>
<path d="M13.5999 4.99995C13.5999 4.99995 13.5999 5.09995 13.5999 4.99995C13.5999 5.09995 13.5999 5.09995 13.5999 4.99995C13.4999 5.49995 13.0999 5.69995 12.5999 5.59995C12.1999 5.49995 11.8999 5.09995 11.9999 4.69995C12.1999 4.29995 12.5999 3.99995 12.9999 4.09995C13.3999 4.19995 13.6999 4.59995 13.5999 4.99995Z" fill="white"/>
<path d="M15.8002 7.89995C15.8002 9.99995 14.1002 11.8 12.0002 11.8C9.9002 11.8 8.2002 9.99995 8.2002 7.89995C8.2002 6.69995 8.7002 5.69995 9.5002 4.99995C9.6002 4.89995 9.6002 4.89995 9.7002 4.79995C9.9002 4.69995 10.0002 4.69995 10.2002 4.69995C10.6002 4.79995 10.9002 5.19995 10.8002 5.59995C10.8002 5.59995 10.8002 5.59995 10.8002 5.69995C10.8002 5.79995 10.7002 5.89995 10.6002 5.99995C10.6002 5.99995 10.5002 5.99995 10.5002 6.09995C10.0002 6.49995 9.7002 7.09995 9.7002 7.89995C9.7002 9.19995 10.7002 10.2 12.0002 10.2C13.3002 10.2 14.3002 9.19995 14.3002 7.89995C14.3002 7.69995 14.3002 7.49995 14.2002 7.29995C14.2002 7.19995 14.1002 7.09995 14.1002 6.99995C14.1002 6.89995 14.1002 6.79995 14.1002 6.79995C14.2002 6.39995 14.6002 6.09995 15.0002 6.19995C15.3002 6.29995 15.5002 6.49995 15.6002 6.69995C15.8002 6.99995 15.8002 7.39995 15.8002 7.89995Z" fill="white"/>
</svg>
