<svg width="454" height="47" viewBox="0 0 454 47" fill="none" xmlns="http://www.w3.org/2000/svg">
<g clip-path="url(#clip0)">
<path d="M54.5825 29.733C54.5825 32.9253 54.5825 36.1176 54.5825 39.3099C54.5825 42.0264 53.5588 44.2123 51.113 45.5302C48.7254 46.8105 46.3115 46.5798 44.0082 45.1899C33.2711 38.7111 22.532 32.2313 11.791 25.7505C11.0178 25.2745 10.21 24.8562 9.37422 24.499C8.24002 24.0289 7.49842 24.4096 7.33847 25.6121C7.15834 26.9511 7.05349 28.2989 7.02438 29.6494C6.97203 31.2441 7.02438 32.8417 7.00693 34.4393C7.01308 34.8788 6.93141 35.3153 6.76663 35.7234C6.60186 36.1315 6.35723 36.5033 6.04686 36.8172C5.7365 37.1311 5.36653 37.381 4.95829 37.5524C4.55006 37.7239 4.11163 37.8135 3.66829 37.8161C3.2258 37.8288 2.78516 37.7543 2.3719 37.5969C1.95864 37.4396 1.58095 37.2025 1.26071 36.8995C0.940471 36.5964 0.684035 36.2334 0.506247 35.8314C0.328459 35.4294 0.232852 34.9964 0.224959 34.5575C0.175519 30.5404 0.10863 26.5436 0.216234 22.5409C0.355829 17.3675 5.98324 14.3915 10.4968 17.0849C16.7669 20.8338 22.9847 24.6518 29.2345 28.4267C34.2657 31.4661 39.2882 34.5114 44.3572 37.4989C46.6343 38.8456 47.6319 38.3266 47.6958 35.7081C47.8034 30.4107 47.7831 25.1103 47.8093 19.81C47.8093 17.3531 49.5018 15.7958 51.7848 16.1477C53.4541 16.4072 54.6029 17.7885 54.6116 19.6082C54.6116 22.9821 54.6116 26.3561 54.6116 29.7301L54.5825 29.733Z" fill="black"/>
<path d="M158.28 39.7014C158.108 39.3063 158.012 39.0612 157.899 38.8362C156.758 36.53 156.162 33.9966 156.154 31.4279C156.154 27.5137 156.154 23.5985 156.154 19.6824C156.154 17.5773 157.568 16.1037 159.536 16.1094C161.505 16.1152 162.927 17.6032 162.93 19.6882C162.93 23.437 162.881 27.1571 162.948 30.8915C162.953 32.2138 163.139 33.5292 163.5 34.8019C164.373 37.6856 166.365 39.5168 169.491 39.6437C172.433 39.774 175.379 39.7441 178.318 39.5543C181.27 39.3524 183.634 37.1262 184.259 34.2395C184.484 33.1801 184.602 32.101 184.611 31.0184C184.652 27.2695 184.611 23.5495 184.628 19.815C184.628 17.6436 186.019 16.1325 188.002 16.1037C189.985 16.0748 191.492 17.6349 191.492 19.815C191.492 23.7312 191.605 27.6502 191.445 31.5605C191.216 37.1406 189.011 41.7546 184.122 44.8604C182.572 45.8374 180.771 46.351 178.934 46.3397C171.22 46.3686 163.505 46.3686 155.791 46.3397C153.694 46.3397 152.301 44.9555 152.301 42.9686C152.301 41.0538 153.7 39.7389 155.773 39.7071C156.547 39.6898 157.335 39.7014 158.28 39.7014Z" fill="black"/>
<path d="M90.9868 46.3426C87.5551 46.3426 84.1176 46.2388 80.6917 46.3657C75.1167 46.5733 71.4465 43.8049 68.9135 39.2083C67.5511 36.7009 66.8508 33.8924 66.8777 31.0444C66.8777 28.2443 66.8573 25.4441 66.8777 22.644C66.865 21.8844 67.111 21.1427 67.5759 20.5388C68.0408 19.935 68.6975 19.5042 69.4398 19.3162C70.1649 19.1256 70.9338 19.1847 71.6206 19.4838C72.3074 19.783 72.8715 20.3044 73.2205 20.9628C73.4932 21.5297 73.6381 22.1486 73.6451 22.7767C73.6887 25.3951 73.6451 28.0164 73.6684 30.6378C73.6682 31.5402 73.7353 32.4414 73.8691 33.3341C74.5089 37.2848 77.1175 39.6322 81.1396 39.6783C87.7316 39.7514 94.3235 39.7514 100.916 39.6783C105.569 39.6264 108.41 36.5062 108.477 31.526C108.518 28.6422 108.477 25.744 108.477 22.8516C108.477 20.7033 109.899 19.2095 111.906 19.2268C113.912 19.2441 115.253 20.7177 115.256 22.8372C115.256 25.9084 115.39 28.9883 115.212 32.0508C114.921 37.0339 112.947 41.2413 108.814 44.2865C106.966 45.6484 104.718 46.3699 102.416 46.3398C98.6384 46.3484 94.8082 46.3398 90.9868 46.3426Z" fill="black"/>
<path d="M226.603 14.7109C229.392 14.8233 231.838 15.899 233.644 18.3069C239.266 25.7893 244.898 33.2659 250.538 40.7367C251.654 42.2161 251.701 43.7906 250.706 45.0623C250.259 45.6624 249.612 46.0868 248.88 46.2608C248.148 46.4349 247.378 46.3475 246.705 46.0139C246.073 45.6626 245.528 45.1771 245.108 44.5923C240.013 37.9154 234.932 31.2328 229.866 24.5445C229.305 23.7964 228.689 23.0908 228.022 22.4335C226.926 21.3781 225.861 21.3348 224.843 22.4335C223.622 23.763 222.517 25.2077 221.42 26.6438C216.752 32.7343 212.094 38.8296 207.446 44.9297C206.353 46.3571 204.623 46.732 203.151 45.9274C202.447 45.5552 201.9 44.945 201.61 44.2076C201.321 43.4701 201.307 42.6541 201.572 41.9075C201.676 41.6259 201.822 41.3614 202.005 41.1231C206.542 35.0192 211.081 28.9133 215.621 22.8056C216.74 21.306 217.878 19.8199 219.036 18.3473C220.909 15.9653 223.383 14.7628 226.603 14.7109Z" fill="black"/>
<path d="M134.546 32.27C134.581 32.8698 134.61 33.1755 134.651 33.4869C134.771 34.4388 135.066 35.3607 135.523 36.2063C136.308 37.4825 137.47 38.489 138.85 39.09C140.935 40.0705 141.788 42.0257 140.93 43.9001C140.072 45.7746 137.943 46.4955 135.834 45.5064C131.955 43.6723 129.678 40.4742 128.512 36.5149C127.984 34.6349 127.691 32.698 127.639 30.7474C127.505 27.0475 127.572 23.339 127.607 19.6363C127.63 17.2658 129.428 15.7605 131.661 16.147C132.447 16.2898 133.155 16.7051 133.66 17.3184C134.165 17.9318 134.434 18.7033 134.418 19.495C134.418 19.6709 134.436 19.9823 134.447 20.6081C134.447 20.8302 134.447 21.2714 134.447 21.8452C134.447 22.0327 134.447 22.4825 134.424 23.3765C134.424 23.6995 134.424 23.9734 134.409 24.3599V25.0174C134.409 25.424 134.409 25.7239 134.409 25.8162C134.409 26.4881 134.409 27.2292 134.427 28.1664C134.459 30.8281 134.517 31.8518 134.546 32.27Z" fill="black"/>
<path d="M70.5856 10.3881C71.0572 10.3833 71.5249 10.4729 71.9607 10.6515C72.3965 10.8302 72.7915 11.0942 73.122 11.4278C73.4524 11.7614 73.7116 12.1578 73.8839 12.5931C74.0563 13.0283 74.1382 13.4936 74.1249 13.9611C74.1276 14.4291 74.0362 14.8929 73.8558 15.3253C73.6754 15.7578 73.4097 16.1502 73.0744 16.4795C72.739 16.8088 72.3407 17.0684 71.9029 17.243C71.465 17.4177 70.9964 17.5039 70.5245 17.4966C70.0461 17.5027 69.5713 17.414 69.128 17.2356C68.6847 17.0572 68.2819 16.7927 67.9432 16.4576C67.6045 16.1226 67.3368 15.7238 67.1558 15.2846C66.9748 14.8455 66.8842 14.3749 66.8892 13.9005C66.8892 11.8761 68.4742 10.3737 70.5856 10.3881Z" fill="black"/>
<path d="M111.653 17.4994C111.181 17.5002 110.713 17.4084 110.277 17.2292C109.841 17.05 109.445 16.7871 109.112 16.4555C108.779 16.1239 108.516 15.7302 108.337 15.2972C108.158 14.8641 108.067 14.4002 108.07 13.9322C108.07 11.9136 109.652 10.3881 111.746 10.3968C112.216 10.3877 112.684 10.4731 113.12 10.6479C113.557 10.8226 113.953 11.0831 114.285 11.4137C114.618 11.7442 114.879 12.138 115.054 12.5713C115.229 13.0046 115.313 13.4685 115.303 13.9351C115.311 14.4103 115.223 14.8823 115.042 15.3224C114.861 15.7625 114.591 16.1614 114.25 16.4949C113.908 16.8284 113.502 17.0894 113.056 17.2621C112.609 17.4348 112.132 17.5156 111.653 17.4994Z" fill="black"/>
<path d="M390.478 46.308C387.046 46.308 383.612 46.2042 380.186 46.3311C374.611 46.5359 370.94 43.7703 368.407 39.1736C367.044 36.6666 366.344 33.8579 366.372 31.0098C366.372 28.2096 366.351 25.4095 366.372 22.6094C366.362 21.8494 366.612 21.1086 367.08 20.5068C367.548 19.905 368.208 19.4774 368.951 19.2931C369.676 19.1031 370.445 19.1624 371.132 19.4615C371.818 19.7606 372.382 20.2817 372.732 20.9397C373.006 21.5061 373.15 22.1255 373.154 22.7536C373.197 25.372 373.154 27.9934 373.18 30.6118C373.178 31.5153 373.245 32.4176 373.38 33.311C374.017 37.2617 376.629 39.6091 380.651 39.6552C387.243 39.7244 393.835 39.7244 400.427 39.6552C405.08 39.6033 407.922 36.4831 407.988 31.5029C408.029 28.6191 407.988 25.7354 407.988 22.8286C407.988 20.6802 409.411 19.1864 411.417 19.2008C413.424 19.2152 414.765 20.6917 414.767 22.8142C414.767 25.8853 414.901 28.9652 414.727 32.0248C414.436 37.0108 412.458 41.2182 408.329 44.2635C406.481 45.6245 404.232 46.345 401.931 46.3138C398.135 46.3138 394.305 46.3052 390.478 46.308Z" fill="black"/>
<path d="M370.077 10.3536C370.549 10.3467 371.018 10.4349 371.455 10.6128C371.891 10.7908 372.287 11.0547 372.618 11.3888C372.949 11.7228 373.208 12.12 373.38 12.5562C373.551 12.9924 373.632 13.4586 373.616 13.9265C373.619 14.3945 373.528 14.8583 373.347 15.2908C373.167 15.7232 372.901 16.1156 372.566 16.4449C372.231 16.7742 371.832 17.0338 371.394 17.2085C370.957 17.3831 370.488 17.4693 370.016 17.462C369.537 17.469 369.061 17.3808 368.617 17.2028C368.173 17.0247 367.769 16.7604 367.43 16.4253C367.09 16.0902 366.822 15.6912 366.64 15.2517C366.458 14.8121 366.367 14.341 366.372 13.866C366.384 11.8416 367.969 10.3536 370.077 10.3536Z" fill="black"/>
<path d="M411.144 17.4619C410.672 17.4627 410.204 17.3708 409.768 17.1916C409.332 17.0125 408.936 16.7495 408.603 16.4179C408.27 16.0863 408.007 15.6927 407.828 15.2596C407.649 14.8266 407.558 14.3627 407.561 13.8947C407.561 11.8761 409.146 10.3534 411.237 10.3621C411.707 10.3526 412.175 10.4378 412.612 10.6123C413.049 10.7869 413.445 11.0474 413.778 11.3779C414.111 11.7085 414.372 12.1024 414.547 12.536C414.722 12.9695 414.807 13.4336 414.796 13.9005C414.805 14.3758 414.716 14.8479 414.535 15.288C414.354 15.7281 414.084 16.127 413.743 16.4603C413.401 16.7936 412.994 17.0543 412.547 17.2265C412.1 17.3987 411.623 17.4788 411.144 17.4619Z" fill="black"/>
<path d="M146.72 46.5907C146.007 46.5831 145.312 46.3653 144.723 45.965C144.135 45.5647 143.68 45.0001 143.416 44.3428C143.153 43.6855 143.092 42.9652 143.242 42.2736C143.392 41.582 143.746 40.9502 144.259 40.4586C144.772 39.967 145.421 39.6378 146.123 39.5127C146.825 39.3877 147.549 39.4725 148.202 39.7564C148.856 40.0403 149.41 40.5104 149.793 41.1071C150.176 41.7037 150.372 42.3999 150.355 43.1071C150.354 43.5746 150.259 44.0372 150.074 44.4674C149.89 44.8976 149.62 45.2866 149.281 45.6115C148.942 45.9364 148.54 46.1904 148.101 46.3586C147.661 46.5268 147.191 46.6058 146.72 46.5907Z" fill="black"/>
<path d="M226.658 42.4236C224.622 42.4236 223.092 40.8462 223.122 38.7728C223.151 36.8003 224.733 35.3123 226.78 35.3123C227.251 35.3203 227.715 35.42 228.147 35.6059C228.578 35.7918 228.969 36.0602 229.296 36.3957C229.623 36.7312 229.88 37.1274 230.053 37.5615C230.225 37.9955 230.31 38.4591 230.302 38.9256C230.294 39.3922 230.193 39.8526 230.006 40.2806C229.819 40.7086 229.548 41.0958 229.209 41.4201C228.871 41.7444 228.472 41.9994 228.034 42.1706C227.596 42.3418 227.129 42.4258 226.658 42.4179V42.4236Z" fill="black"/>
<path d="M7.20671 43.084C7.21001 43.5512 7.11844 44.0142 6.93745 44.4455C6.75647 44.8768 6.48978 45.2676 6.15327 45.5945C5.81676 45.9215 5.41732 46.1779 4.97875 46.3486C4.54018 46.5192 4.07146 46.6006 3.60052 46.5878C3.12147 46.5978 2.64539 46.511 2.2013 46.3326C1.75721 46.1542 1.35444 45.8879 1.01754 45.5501C0.680636 45.2122 0.416676 44.8099 0.241757 44.3675C0.0668383 43.9252 -0.0153721 43.4522 0.000140369 42.9773C0.00317473 42.5104 0.0992161 42.0487 0.282747 41.6188C0.466277 41.1888 0.73368 40.799 1.06959 40.4718C1.4055 40.1446 1.8033 39.8865 2.24013 39.7122C2.67697 39.5379 3.14422 39.4509 3.61506 39.4563C4.09421 39.4498 4.56971 39.5397 5.01284 39.7206C5.45596 39.9014 5.85751 40.1695 6.19321 40.5086C6.52891 40.8477 6.79181 41.2507 6.966 41.6934C7.1402 42.136 7.22208 42.6091 7.20671 43.084Z" fill="black"/>
<path d="M354.108 29.4843C354.108 32.6766 354.108 35.8689 354.108 39.0612C354.108 41.7777 353.084 43.9636 350.638 45.2844C348.251 46.5648 345.84 46.3341 343.534 44.9412C332.796 38.4624 322.057 31.9836 311.316 25.5048C310.543 25.0278 309.735 24.6085 308.9 24.2503C307.765 23.7803 307.024 24.1609 306.849 25.3635C306.669 26.7024 306.564 28.0502 306.535 29.4007C306.486 30.9954 306.535 32.593 306.518 34.1877C306.512 35.0641 306.161 35.9036 305.539 36.5266C304.917 37.1496 304.075 37.5068 303.191 37.5219C302.307 37.537 301.452 37.2087 300.81 36.6072C300.167 36.0057 299.786 35.1788 299.75 34.3031C299.701 30.2975 299.634 26.2891 299.75 22.2865C299.887 17.1102 305.514 14.137 310.028 16.8276C316.298 20.5764 322.516 24.3945 328.766 28.1693C333.797 31.2088 338.822 34.2569 343.888 37.2416C346.171 38.5883 347.169 38.0692 347.221 35.4508C347.329 30.1534 347.311 24.853 347.335 19.5527C347.335 17.0986 349.027 15.5414 351.31 15.8932C352.979 16.1499 354.128 17.5341 354.137 19.3537C354.137 22.7277 354.137 26.0988 354.137 29.4728L354.108 29.4843Z" fill="black"/>
<path d="M306.733 42.836C306.719 43.7836 306.326 44.6869 305.64 45.3473C304.955 46.0076 304.033 46.3708 303.077 46.3571C302.122 46.3433 301.211 45.9536 300.545 45.2739C299.879 44.5941 299.512 43.6798 299.526 42.7322C299.533 42.263 299.633 41.7997 299.821 41.3688C300.008 40.9379 300.279 40.5479 300.619 40.2209C300.958 39.894 301.359 39.6365 301.799 39.4632C302.239 39.29 302.709 39.2043 303.182 39.2111C303.655 39.2179 304.122 39.3171 304.557 39.503C304.991 39.6888 305.385 39.9577 305.714 40.2943C306.044 40.6309 306.304 41.0286 306.478 41.4647C306.653 41.9008 306.74 42.3668 306.733 42.836Z" fill="black"/>
<path d="M287.457 14.0129C287.421 14.9387 287.021 15.8136 286.343 16.4508C285.664 17.0881 284.762 17.4372 283.828 17.4237C282.894 17.4101 282.002 17.035 281.343 16.3783C280.684 15.7216 280.309 14.8355 280.3 13.9091C280.296 13.4356 280.386 12.966 280.568 12.5279C280.749 12.0898 281.016 11.692 281.355 11.358C281.693 11.024 282.096 10.7605 282.538 10.5831C282.981 10.4056 283.455 10.3177 283.932 10.3247C284.41 10.3316 284.881 10.4332 285.318 10.6234C285.756 10.8136 286.15 11.0887 286.479 11.4323C286.807 11.776 287.063 12.1814 287.231 12.6246C287.399 13.0677 287.476 13.5398 287.457 14.0129Z" fill="black"/>
<path d="M287.48 22.5316C287.48 20.7 285.983 19.2153 284.136 19.2153C282.289 19.2153 280.791 20.7 280.791 22.5316V43.0264C280.791 44.8579 282.289 46.3427 284.136 46.3427C285.983 46.3427 287.48 44.8579 287.48 43.0264V22.5316Z" fill="black"/>
</g>
<g clip-path="url(#clip1)">
<path d="M453.646 8.19134V8.17779C453.644 8.15687 453.639 8.13638 453.631 8.11683C453.593 7.99982 453.533 7.89134 453.454 7.79759C453.374 7.70383 453.277 7.62665 453.168 7.57046C453.059 7.51426 452.939 7.48015 452.817 7.47008C452.694 7.46001 452.571 7.47418 452.454 7.51177L452.419 7.52306H452.412L452.3 7.57499C452.152 7.65509 452.028 7.77362 451.942 7.91807C451.856 8.06252 451.811 8.22753 451.811 8.39566C451.81 8.47181 451.82 8.54767 451.839 8.62143C451.84 8.62955 451.842 8.63752 451.845 8.64513C452.358 10.5827 452.219 12.6354 451.449 14.4861C450.679 16.3367 449.32 17.8821 447.584 18.8834C445.847 19.8847 443.829 20.2861 441.841 20.0256C439.853 19.7651 438.007 18.8572 436.587 17.4421C435.167 16.0271 434.253 14.1838 433.985 12.1973C433.718 10.2107 434.113 8.19145 435.109 6.45172C436.105 4.71199 437.646 3.34866 439.494 2.57248C441.342 1.79631 443.395 1.65053 445.335 2.15768L445.418 2.18025C445.613 2.21917 445.815 2.19508 445.995 2.11147C446.176 2.02786 446.325 1.88906 446.421 1.71517C446.437 1.67679 446.452 1.63954 446.47 1.60229V1.59438L446.484 1.55713C446.512 1.46574 446.527 1.37061 446.527 1.27492C446.527 1.08161 446.467 0.893059 446.355 0.735194C446.244 0.577328 446.086 0.457891 445.904 0.393297L445.864 0.382008L445.807 0.366204L445.763 0.356045C443.425 -0.251062 440.952 -0.0718802 438.726 0.865928C436.5 1.80374 434.645 3.44802 433.447 5.54493C432.249 7.64185 431.775 10.0748 432.097 12.4681C432.42 14.8615 433.521 17.0822 435.231 18.7874C436.942 20.4926 439.166 21.5874 441.56 21.903C443.955 22.2185 446.387 21.7371 448.481 20.5331C450.575 19.3292 452.214 17.4696 453.145 15.2415C454.077 13.0133 454.249 10.5405 453.635 8.20488L453.646 8.19134Z" fill="black"/>
<path d="M450.525 6.06981C451.96 6.06981 453.124 4.90638 453.124 3.47121C453.124 2.03605 451.96 0.87262 450.525 0.87262C449.09 0.87262 447.926 2.03605 447.926 3.47121C447.926 4.90638 449.09 6.06981 450.525 6.06981Z" fill="black"/>
</g>
<defs>
<clipPath id="clip0">
<rect width="414.843" height="36.2372" fill="black" transform="translate(0 10.3535)"/>
</clipPath>
<clipPath id="clip1">
<rect width="22" height="22" fill="black" transform="translate(432)"/>
</clipPath>
</defs>
</svg>
