<svg width="33" height="33" viewBox="0 0 33 33" fill="none" xmlns="http://www.w3.org/2000/svg">
<path fill-rule="evenodd" clip-rule="evenodd" d="M8.77301 4.84328C7.78402 4.84328 6.39256 5.07901 5.46887 5.26321C5.36266 5.28439 5.28402 5.36302 5.26285 5.46924C5.07865 6.39292 4.84292 7.78439 4.84292 8.77338C4.84292 9.76237 5.07865 11.1538 5.26285 12.0775C5.28402 12.1837 5.36266 12.2624 5.46887 12.2835C6.39256 12.4677 7.78402 12.7035 8.77301 12.7035C9.762 12.7035 11.1535 12.4677 12.0772 12.2835C12.1834 12.2624 12.262 12.1837 12.2832 12.0775C12.4674 11.1538 12.7031 9.76237 12.7031 8.77338C12.7031 7.78439 12.4674 6.39292 12.2832 5.46924C12.262 5.36302 12.1834 5.28439 12.0772 5.26321C11.1535 5.07901 9.762 4.84328 8.77301 4.84328ZM5.04964 3.16091C5.9754 2.97631 7.55145 2.69958 8.77301 2.69958C9.99458 2.69958 11.5706 2.97631 12.4964 3.16091C13.4522 3.35151 14.1949 4.09424 14.3855 5.05001C14.5701 5.97576 14.8468 7.55182 14.8468 8.77338C14.8468 9.99494 14.5701 11.571 14.3855 12.4968C14.1949 13.4525 13.4522 14.1953 12.4964 14.3858C11.5706 14.5705 9.99458 14.8472 8.77301 14.8472C7.55145 14.8472 5.9754 14.5705 5.04964 14.3858C4.09386 14.1953 3.35114 13.4525 3.16054 12.4968C2.97594 11.571 2.69922 9.99494 2.69922 8.77338C2.69922 7.55182 2.97594 5.97576 3.16054 5.05001C3.35114 4.09422 4.09387 3.35151 5.04964 3.16091Z" fill="white"/>
<path fill-rule="evenodd" clip-rule="evenodd" d="M8.77301 19.6903C7.78402 19.6903 6.39256 19.9261 5.46887 20.1103C5.36266 20.1315 5.28402 20.2101 5.26285 20.3163C5.07865 21.2399 4.84292 22.6315 4.84292 23.6204C4.84292 24.6094 5.07865 26.0009 5.26285 26.9246C5.28402 27.0308 5.36266 27.1093 5.46887 27.1305C6.39256 27.3148 7.78402 27.5506 8.77301 27.5506C9.762 27.5506 11.1535 27.3148 12.0772 27.1305C12.1834 27.1093 12.262 27.0308 12.2832 26.9246C12.4674 26.0009 12.7031 24.6094 12.7031 23.6204C12.7031 22.6315 12.4674 21.2399 12.2832 20.3163C12.262 20.2101 12.1834 20.1315 12.0772 20.1103C11.1535 19.9261 9.762 19.6903 8.77301 19.6903ZM5.04964 18.008C5.9754 17.8233 7.55145 17.5466 8.77301 17.5466C9.99458 17.5466 11.5706 17.8233 12.4964 18.008C13.4522 18.1986 14.1949 18.9413 14.3855 19.8971C14.5701 20.8228 14.8468 22.3989 14.8468 23.6204C14.8468 24.8419 14.5701 26.418 14.3855 27.3438C14.1949 28.2995 13.4522 29.0423 12.4964 29.2329C11.5706 29.4175 9.99458 29.6942 8.77301 29.6942C7.55145 29.6942 5.9754 29.4175 5.04964 29.2329C4.09386 29.0423 3.35114 28.2995 3.16054 27.3438C2.97594 26.418 2.69922 24.8419 2.69922 23.6204C2.69922 22.3989 2.97594 20.8228 3.16054 19.8971C3.35114 18.9413 4.09387 18.1986 5.04964 18.008Z" fill="white"/>
<path fill-rule="evenodd" clip-rule="evenodd" d="M23.6197 4.84328C22.6307 4.84328 21.2392 5.07901 20.3155 5.26321C20.2093 5.28439 20.1308 5.36302 20.1096 5.46924C19.9253 6.39292 19.6895 7.78439 19.6895 8.77338C19.6895 9.76237 19.9253 11.1538 20.1096 12.0775C20.1308 12.1837 20.2093 12.2624 20.3155 12.2835C21.2392 12.4677 22.6307 12.7035 23.6197 12.7035C24.6086 12.7035 26.0002 12.4677 26.9238 12.2835C27.0301 12.2624 27.1086 12.1837 27.1298 12.0775C27.314 11.1538 27.5498 9.76237 27.5498 8.77338C27.5498 7.78439 27.314 6.39292 27.1298 5.46924C27.1086 5.36302 27.0301 5.28439 26.9238 5.26321C26.0002 5.07901 24.6086 4.84328 23.6197 4.84328ZM19.8963 3.16091C20.8221 2.97631 22.3982 2.69958 23.6197 2.69958C24.8412 2.69958 26.4173 2.97631 27.3431 3.16091C28.2988 3.35151 29.0416 4.09424 29.2321 5.05001C29.4168 5.97576 29.6935 7.55182 29.6935 8.77338C29.6935 9.99494 29.4168 11.571 29.2321 12.4968C29.0416 13.4525 28.2988 14.1953 27.3431 14.3858C26.4173 14.5705 24.8412 14.8472 23.6197 14.8472C22.3982 14.8472 20.8221 14.5705 19.8963 14.3858C18.9406 14.1953 18.1978 13.4525 18.0072 12.4968C17.8226 11.571 17.5459 9.99494 17.5459 8.77338C17.5459 7.55182 17.8226 5.97576 18.0072 5.05001C18.1978 4.09422 18.9406 3.35151 19.8963 3.16091Z" fill="white"/>
<path fill-rule="evenodd" clip-rule="evenodd" d="M23.6197 19.6903C22.6307 19.6903 21.2392 19.9261 20.3155 20.1103C20.2093 20.1315 20.1308 20.2101 20.1096 20.3163C19.9253 21.2399 19.6895 22.6315 19.6895 23.6204C19.6895 24.6094 19.9253 26.0009 20.1096 26.9246C20.1308 27.0308 20.2093 27.1093 20.3155 27.1305C21.2392 27.3148 22.6307 27.5506 23.6197 27.5506C24.6086 27.5506 26.0002 27.3148 26.9238 27.1305C27.0301 27.1093 27.1086 27.0308 27.1298 26.9246C27.314 26.0009 27.5498 24.6094 27.5498 23.6204C27.5498 22.6315 27.314 21.2399 27.1298 20.3163C27.1086 20.2101 27.0301 20.1315 26.9238 20.1103C26.0002 19.9261 24.6086 19.6903 23.6197 19.6903ZM19.8963 18.008C20.8221 17.8233 22.3982 17.5466 23.6197 17.5466C24.8412 17.5466 26.4173 17.8233 27.3431 18.008C28.2988 18.1986 29.0416 18.9413 29.2321 19.8971C29.4168 20.8228 29.6935 22.3989 29.6935 23.6204C29.6935 24.8419 29.4168 26.418 29.2321 27.3438C29.0416 28.2995 28.2988 29.0423 27.3431 29.2329C26.4173 29.4175 24.8412 29.6942 23.6197 29.6942C22.3982 29.6942 20.8221 29.4175 19.8963 29.2329C18.9406 29.0423 18.1978 28.2995 18.0072 27.3438C17.8226 26.418 17.5459 24.8419 17.5459 23.6204C17.5459 22.3989 17.8226 20.8228 18.0072 19.8971C18.1978 18.9413 18.9406 18.1986 19.8963 18.008Z" fill="white"/>
</svg>
