<svg width="180" height="47" viewBox="0 0 180 47" fill="none" xmlns="http://www.w3.org/2000/svg">
<rect x="0.90625" y="0.90625" width="178.188" height="44.25" rx="14.0938" fill="black" fill-opacity="0.4" stroke="#1E1E1E" stroke-width="1.8125"/>
<path fill-rule="evenodd" clip-rule="evenodd" d="M158.53 20.4697C158.823 20.7626 158.823 21.2374 158.53 21.5303L152.53 27.5303C152.237 27.8232 151.763 27.8232 151.47 27.5303L145.47 21.5303C145.177 21.2374 145.177 20.7626 145.47 20.4697C145.763 20.1768 146.237 20.1768 146.53 20.4697L152 25.9393L157.47 20.4697C157.763 20.1768 158.237 20.1768 158.53 20.4697Z" fill="white"/>
<path d="M31.9102 30H29.7227V23.7598H22.4863V30H20.2988V15.9082H22.4863V21.8652H29.7227V15.9082H31.9102V30ZM42.2031 28.7695C41.3177 29.7201 40.1361 30.1953 38.6582 30.1953C37.1803 30.1953 35.9987 29.7201 35.1133 28.7695C34.2279 27.8125 33.7852 26.5104 33.7852 24.8633C33.7852 23.2227 34.2279 21.9271 35.1133 20.9766C35.9987 20.0195 37.1803 19.541 38.6582 19.541C40.1361 19.541 41.3177 20.0195 42.2031 20.9766C43.0885 21.9271 43.5312 23.2227 43.5312 24.8633C43.5312 26.5104 43.0885 27.8125 42.2031 28.7695ZM38.6582 28.457C39.498 28.457 40.1621 28.1413 40.6504 27.5098C41.1387 26.8783 41.3828 25.9961 41.3828 24.8633C41.3828 23.737 41.1354 22.8581 40.6406 22.2266C40.1523 21.5951 39.4915 21.2793 38.6582 21.2793C37.8249 21.2793 37.1608 21.5951 36.666 22.2266C36.1777 22.8581 35.9336 23.737 35.9336 24.8633C35.9336 25.9961 36.1777 26.8783 36.666 27.5098C37.1608 28.1413 37.8249 28.457 38.6582 28.457ZM45.7773 17.2949H47.8965V19.7266H49.8496V21.3965H47.8965V27.0605C47.8965 27.5033 47.9974 27.8288 48.1992 28.0371C48.401 28.2454 48.7168 28.3496 49.1465 28.3496C49.459 28.3496 49.6901 28.3333 49.8398 28.3008V29.9707C49.5794 30.0358 49.1888 30.0684 48.668 30.0684C47.6328 30.0684 46.8906 29.8568 46.4414 29.4336C45.9987 29.0039 45.7773 28.291 45.7773 27.2949V21.3965H44.2832V19.7266H45.7773V17.2949Z" fill="white"/>
</svg>
