<svg width="27" height="28" viewBox="0 0 27 28" fill="none" xmlns="http://www.w3.org/2000/svg">
<path fill-rule="evenodd" clip-rule="evenodd" d="M26.5363 2.87137C26.7275 3.80376 26.9946 5.30169 26.9946 6.48004C26.9946 7.6584 26.7275 9.15633 26.5363 10.0887C26.3155 11.1658 25.4319 11.9241 24.4011 12.0061C22.281 12.1748 17.1209 12.5538 13.4973 12.5538C9.87366 12.5538 4.71368 12.1748 2.59358 12.0061C1.56265 11.9241 0.679158 11.1658 0.458315 10.0887C0.267153 9.15633 0 7.6584 0 6.48004C0 5.30169 0.267153 3.80376 0.458315 2.87137C0.679158 1.79425 1.56265 1.03608 2.59358 0.954025C4.7137 0.785295 9.87366 0.40625 13.4973 0.40625C17.1209 0.40625 22.281 0.785295 24.4011 0.954025C25.4319 1.03608 26.3155 1.79425 26.5363 2.87137Z" fill="#1E1E1E"/>
<path fill-rule="evenodd" clip-rule="evenodd" d="M26.5363 17.7186C26.7275 18.651 26.9946 20.1489 26.9946 21.3272C26.9946 22.5055 26.7275 24.0035 26.5363 24.9359C26.3155 26.0129 25.4319 26.7712 24.4011 26.8533C22.281 27.022 17.1209 27.401 13.4973 27.401C9.87366 27.401 4.71368 27.022 2.59358 26.8533C1.56265 26.7712 0.679145 26.0129 0.458315 24.9359C0.267153 24.0035 0 22.5055 0 21.3272C0 20.1489 0.267153 18.651 0.458315 17.7186C0.679158 16.6415 1.56265 15.8832 2.59358 15.8011C4.71368 15.6324 9.87366 15.2534 13.4973 15.2534C17.1209 15.2534 22.281 15.6324 24.4011 15.8011C25.4319 15.8832 26.3155 16.6415 26.5363 17.7186Z" fill="#1E1E1E"/>
</svg>
