<svg width="20" height="20" viewBox="0 0 20 20" fill="none" xmlns="http://www.w3.org/2000/svg">
<path fill-rule="evenodd" clip-rule="evenodd" d="M10.0003 2.94868C6.10601 2.94868 2.94904 6.10564 2.94904 9.99996C2.94904 13.8943 6.10601 17.0512 10.0003 17.0512C13.8947 17.0512 17.0516 13.8943 17.0516 9.99996C17.0516 6.10564 13.8947 2.94868 10.0003 2.94868ZM1.66699 9.99996C1.66699 5.39758 5.39795 1.66663 10.0003 1.66663C14.6027 1.66663 18.3337 5.39758 18.3337 9.99996C18.3337 14.6023 14.6027 18.3333 10.0003 18.3333C5.39795 18.3333 1.66699 14.6023 1.66699 9.99996Z" fill="white"/>
<path fill-rule="evenodd" clip-rule="evenodd" d="M9.99984 6.79487C9.40976 6.79487 8.93142 7.27319 8.93142 7.86324C8.93142 8.21727 8.64451 8.50424 8.29044 8.50424C7.93641 8.50424 7.64941 8.21727 7.64941 7.86324C7.64941 6.56513 8.70176 5.51282 9.99984 5.51282C11.2979 5.51282 12.3503 6.56513 12.3503 7.86324C12.3503 8.33019 12.2134 8.76716 11.9774 9.13383C11.8297 9.36358 11.6568 9.58283 11.4975 9.78091C11.4683 9.81708 11.4398 9.85258 11.4116 9.88741C11.2794 10.051 11.158 10.2012 11.0459 10.3553C10.7693 10.7355 10.6408 11.0211 10.6408 11.2821C10.6408 11.6361 10.3538 11.9231 9.99984 11.9231C9.64584 11.9231 9.35884 11.6361 9.35884 11.2821C9.35884 10.5989 9.69417 10.034 10.0092 9.60108C10.1423 9.41816 10.2882 9.23774 10.4208 9.07366C10.4473 9.04083 10.4734 9.00858 10.4987 8.97716C10.6569 8.78041 10.7917 8.60741 10.8993 8.44016C11.0062 8.27408 11.0683 8.07688 11.0683 7.86324C11.0683 7.27319 10.5899 6.79487 9.99984 6.79487Z" fill="white"/>
<path d="M10.8548 13.8461C10.8548 14.3181 10.4722 14.7008 10.0002 14.7008C9.52817 14.7008 9.14551 14.3181 9.14551 13.8461C9.14551 13.374 9.52817 12.9913 10.0002 12.9913C10.4722 12.9913 10.8548 13.374 10.8548 13.8461Z" fill="white"/>
</svg>
