<svg width="454" height="47" fill="none" xmlns="http://www.w3.org/2000/svg"><g clip-path="url(#a)" fill="#fff"><path d="M54.583 29.733v9.577c0 2.716-1.024 4.902-3.47 6.22-2.388 1.28-4.801 1.05-7.105-.34L11.791 25.75A18.413 18.413 0 0 0 9.374 24.5c-1.134-.47-1.876-.09-2.036 1.113a36.119 36.119 0 0 0-.314 4.037c-.052 1.595 0 3.193-.017 4.79a3.306 3.306 0 0 1-.96 2.378 3.36 3.36 0 0 1-2.379 1 3.371 3.371 0 0 1-2.407-.917 3.32 3.32 0 0 1-1.036-2.343C.175 30.54.109 26.544.216 22.541c.14-5.174 5.767-8.15 10.28-5.456 6.27 3.749 12.489 7.567 18.739 11.342 5.03 3.04 10.053 6.084 15.122 9.072 2.277 1.347 3.275.828 3.339-1.79.107-5.298.087-10.599.113-15.899 0-2.457 1.693-4.014 3.976-3.662 1.67.26 2.818 1.64 2.827 3.46V29.73l-.03.003zM158.28 39.701c-.172-.395-.268-.64-.381-.865a16.821 16.821 0 0 1-1.745-7.408V19.682c0-2.105 1.414-3.578 3.382-3.573 1.969.006 3.391 1.494 3.394 3.58 0 3.748-.049 7.468.018 11.203a14.53 14.53 0 0 0 .552 3.91c.873 2.884 2.865 4.715 5.991 4.842 2.942.13 5.888.1 8.827-.09 2.952-.202 5.316-2.428 5.941-5.315a16.15 16.15 0 0 0 .352-3.22c.041-3.75 0-7.47.017-11.204 0-2.171 1.391-3.683 3.374-3.711 1.983-.03 3.49 1.53 3.49 3.711 0 3.916.113 7.835-.047 11.745-.229 5.58-2.434 10.195-7.323 13.3a9.62 9.62 0 0 1-5.188 1.48c-7.714.029-15.429.029-23.143 0-2.097 0-3.49-1.385-3.49-3.371 0-1.915 1.399-3.23 3.472-3.262.774-.017 1.562-.006 2.507-.006zM90.987 46.343c-3.432 0-6.87-.104-10.295.023-5.575.207-9.245-2.561-11.778-7.158a16.765 16.765 0 0 1-2.036-8.164c0-2.8-.02-5.6 0-8.4a3.359 3.359 0 0 1 .698-2.105 3.407 3.407 0 0 1 1.864-1.223 3.339 3.339 0 0 1 2.18.168c.687.299 1.251.82 1.6 1.479.273.567.418 1.186.425 1.814.044 2.618 0 5.24.023 7.86 0 .903.067 1.804.201 2.697.64 3.95 3.249 6.298 7.27 6.344 6.593.073 13.184.073 19.777 0 4.653-.052 7.494-3.172 7.561-8.152.041-2.884 0-5.782 0-8.674 0-2.149 1.422-3.643 3.429-3.625 2.006.017 3.347 1.49 3.35 3.61 0 3.071.134 6.151-.044 9.214-.291 4.983-2.265 9.19-6.398 12.235a10.554 10.554 0 0 1-6.398 2.054c-3.778.008-7.608 0-11.43.003zM226.603 14.71c2.789.113 5.235 1.189 7.041 3.597 5.622 7.482 11.254 14.959 16.894 22.43 1.116 1.48 1.163 3.054.168 4.325a3.22 3.22 0 0 1-4.001.952 4.89 4.89 0 0 1-1.597-1.422 7050.53 7050.53 0 0 1-15.242-20.047 18.79 18.79 0 0 0-1.844-2.112c-1.096-1.055-2.161-1.098-3.179 0-1.221 1.33-2.326 2.775-3.423 4.21a8128.358 8128.358 0 0 0-13.974 18.287c-1.093 1.427-2.823 1.802-4.295.997a3.323 3.323 0 0 1-1.541-1.72 3.288 3.288 0 0 1-.038-2.3c.104-.281.25-.546.433-.784l13.616-18.317c1.119-1.5 2.257-2.986 3.415-4.459 1.873-2.382 4.347-3.584 7.567-3.636zM134.546 32.27c.035.6.064.905.105 1.217a7.76 7.76 0 0 0 .872 2.72 7.349 7.349 0 0 0 3.327 2.883c2.085.98 2.938 2.936 2.08 4.81-.858 1.875-2.987 2.596-5.096 1.606-3.879-1.834-6.156-5.032-7.322-8.991a23.66 23.66 0 0 1-.873-5.768c-.134-3.7-.067-7.408-.032-11.11.023-2.371 1.821-3.877 4.054-3.49a3.368 3.368 0 0 1 1.999 1.171c.505.614.774 1.385.758 2.177 0 .176.018.487.029 1.113v1.237c0 .188 0 .638-.023 1.532 0 .323 0 .596-.015.983v1.457c0 .671 0 1.412.018 2.35.032 2.661.09 3.685.119 4.103zM70.586 10.388a3.532 3.532 0 0 1 2.536 1.04 3.473 3.473 0 0 1 1.003 2.533 3.49 3.49 0 0 1-1.05 2.519 3.548 3.548 0 0 1-2.55 1.017 3.617 3.617 0 0 1-2.582-1.04A3.555 3.555 0 0 1 66.89 13.9c0-2.024 1.585-3.526 3.697-3.512zM111.653 17.5a3.605 3.605 0 0 1-2.541-1.044 3.546 3.546 0 0 1-1.042-2.524c0-2.018 1.582-3.544 3.676-3.535a3.512 3.512 0 0 1 2.539 1.017 3.45 3.45 0 0 1 1.018 2.521 3.491 3.491 0 0 1-1.053 2.56 3.542 3.542 0 0 1-2.597 1.004zM390.478 46.308c-3.432 0-6.866-.104-10.292.023-5.575.205-9.246-2.56-11.779-7.157a16.744 16.744 0 0 1-2.035-8.164c0-2.8-.021-5.6 0-8.4-.01-.76.24-1.501.708-2.103a3.41 3.41 0 0 1 1.871-1.214 3.343 3.343 0 0 1 2.181.169c.686.299 1.25.82 1.6 1.478.274.566.418 1.185.422 1.814.043 2.618 0 5.24.026 7.858-.002.903.065 1.806.2 2.699.637 3.95 3.249 6.298 7.271 6.344 6.592.07 13.184.07 19.776 0 4.653-.052 7.495-3.172 7.561-8.152.041-2.884 0-5.768 0-8.674 0-2.149 1.423-3.643 3.429-3.628 2.007.014 3.348 1.49 3.35 3.613 0 3.071.134 6.151-.04 9.21-.291 4.987-2.269 9.194-6.398 12.24a10.552 10.552 0 0 1-6.398 2.05c-3.796 0-7.626-.009-11.453-.006zM370.077 10.354a3.499 3.499 0 0 1 2.541 1.035 3.433 3.433 0 0 1 .998 2.538 3.512 3.512 0 0 1-2.222 3.282c-.437.174-.906.26-1.378.253a3.62 3.62 0 0 1-2.586-1.037 3.558 3.558 0 0 1-1.058-2.559c.012-2.024 1.597-3.512 3.705-3.512zM411.144 17.462a3.605 3.605 0 0 1-2.541-1.044 3.545 3.545 0 0 1-1.042-2.523c0-2.019 1.585-3.542 3.676-3.533a3.518 3.518 0 0 1 2.541 1.016 3.451 3.451 0 0 1 1.018 2.522 3.475 3.475 0 0 1-1.053 2.56 3.533 3.533 0 0 1-2.599 1.002zM146.72 46.59a3.622 3.622 0 0 1-1.997-.625 3.546 3.546 0 0 1-.464-5.506 3.624 3.624 0 0 1 3.943-.702 3.586 3.586 0 0 1 1.591 1.35c.383.597.579 1.293.562 2a3.482 3.482 0 0 1-1.074 2.504 3.533 3.533 0 0 1-2.561.98z"/><path d="M226.658 42.424c-2.036 0-3.566-1.578-3.536-3.651.029-1.973 1.611-3.46 3.658-3.46a3.612 3.612 0 0 1 2.516 1.083 3.538 3.538 0 0 1 .71 3.885 3.578 3.578 0 0 1-1.972 1.89 3.612 3.612 0 0 1-1.376.247v.006zM7.207 43.084a3.455 3.455 0 0 1-1.054 2.51 3.514 3.514 0 0 1-2.552.994 3.555 3.555 0 0 1-2.583-1.038A3.495 3.495 0 0 1 0 42.977a3.518 3.518 0 0 1 1.07-2.505 3.577 3.577 0 0 1 2.545-1.016 3.57 3.57 0 0 1 2.578 1.053 3.512 3.512 0 0 1 1.014 2.575zM354.108 29.484v9.577c0 2.717-1.024 4.903-3.47 6.223-2.387 1.28-4.798 1.05-7.104-.343a304531.47 304531.47 0 0 0-32.218-19.436 18.46 18.46 0 0 0-2.416-1.255c-1.135-.47-1.876-.09-2.051 1.113a36.12 36.12 0 0 0-.314 4.038c-.049 1.594 0 3.192-.017 4.787a3.342 3.342 0 0 1-.979 2.339 3.4 3.4 0 0 1-2.348.995 3.398 3.398 0 0 1-2.381-.915 3.344 3.344 0 0 1-1.06-2.304c-.049-4.005-.116-8.014 0-12.016.137-5.177 5.764-8.15 10.278-5.46 6.27 3.75 12.488 7.567 18.738 11.342 5.031 3.04 10.056 6.088 15.122 9.073 2.283 1.346 3.281.827 3.333-1.791.108-5.298.09-10.598.114-15.898 0-2.454 1.692-4.012 3.975-3.66 1.669.257 2.818 1.641 2.827 3.46v10.12l-.029.011zM306.733 42.836a3.559 3.559 0 0 1-1.093 2.511 3.618 3.618 0 0 1-2.563 1.01 3.619 3.619 0 0 1-2.532-1.083 3.54 3.54 0 0 1-.724-3.905 3.6 3.6 0 0 1 1.978-1.906 3.634 3.634 0 0 1 2.758.04 3.599 3.599 0 0 1 1.921 1.962c.175.436.262.902.255 1.371zM287.457 14.013a3.534 3.534 0 0 1-1.114 2.438 3.599 3.599 0 0 1-5-.073 3.52 3.52 0 0 1-.775-3.85c.181-.438.448-.836.787-1.17a3.582 3.582 0 0 1 2.577-1.033 3.603 3.603 0 0 1 2.547 1.107c.328.344.584.75.752 1.193.168.443.245.915.226 1.388zM287.48 22.532c0-1.832-1.497-3.317-3.344-3.317-1.847 0-3.345 1.485-3.345 3.317v20.494c0 1.832 1.498 3.317 3.345 3.317 1.847 0 3.344-1.485 3.344-3.317V22.532z"/></g><g clip-path="url(#b)" fill="#fff"><path d="M453.646 8.191v-.013a.951.951 0 0 0-.192-.38.946.946 0 0 0-.637-.328.935.935 0 0 0-.363.042l-.035.011h-.007l-.112.052a.934.934 0 0 0-.455 1.07 9.125 9.125 0 0 1-4.261 10.238 9.125 9.125 0 0 1-13.599-6.686 9.12 9.12 0 0 1 5.509-9.625 9.125 9.125 0 0 1 5.841-.414l.083.022a.935.935 0 0 0 1.003-.465c.016-.038.031-.075.049-.113v-.008l.014-.037a.933.933 0 0 0-.58-1.164l-.04-.011-.057-.016-.044-.01a11.003 11.003 0 0 0-12.316 5.189 11 11 0 0 0 1.784 13.242 11.003 11.003 0 0 0 13.25 1.746 10.992 10.992 0 0 0 5.154-12.328l.011-.014z"/><path d="M450.525 6.07a2.599 2.599 0 1 0 0-5.198 2.599 2.599 0 0 0 0 5.198z"/></g><defs><clipPath id="a"><path fill="#fff" transform="translate(0 10.354)" d="M0 0h414.843v36.237H0z"/></clipPath><clipPath id="b"><path fill="#fff" transform="translate(432)" d="M0 0h22v22H0z"/></clipPath></defs></svg>