<svg width="140" height="45" viewBox="0 0 140 45" fill="none" xmlns="http://www.w3.org/2000/svg">
<path d="M0 37.2771V37.2915L7.28 44.5858L0 37.2771Z" fill="white"/>
<g opacity="0.25">
<path d="M139.282 19.9459V44.5859H15.5795L0 29.0064V4.38074H123.703L139.282 19.9459Z" fill="white"/>
</g>
<path d="M123.114 5.81663L137.846 20.5489V43.15H16.1682L1.4359 28.4177V5.81663H123.114ZM123.703 4.38074H0V28.992L15.5795 44.5859H139.282V19.9459L123.703 4.38074V4.38074Z" fill="white"/>
<path d="M12.1046 44.5859H7.29436L0 37.3059V32.4957L12.1046 44.5859Z" fill="white"/>
<path opacity="0.5" d="M2.18262 0.274109H25.3293L25.559 0.503852L29.6226 4.56744L28.4165 5.7736L24.6113 1.98283H2.18262V0.274109Z" fill="white"/>
<path d="M19.2697 5.81667H0V0.274109H13.7415L19.2697 5.81667Z" fill="white"/>
</svg>
