<svg width="154" height="45" viewBox="0 0 154 45" fill="none" xmlns="http://www.w3.org/2000/svg">
<g clip-path="url(#clip0_718_234)">
<path d="M0 37.408V37.4225L7.35968 44.7967L0 37.408Z" fill="white"/>
<g opacity="0.25">
<path d="M153.871 19.8871V44.7967H15.75L0 29.0467V4.15158H138.121L153.871 19.8871Z" fill="white"/>
</g>
<path d="M137.526 5.60319L152.419 20.4967V43.3451H16.3452L1.45161 28.4516V5.60319H137.526ZM138.121 4.15158H0V29.0322L15.75 44.7967H153.871V19.8871L138.121 4.15158Z" fill="white"/>
<path d="M12.2371 44.7967H7.37419L0 37.4371V32.5742L12.2371 44.7967Z" fill="white"/>
<path opacity="0.5" d="M2.20654 0H25.6065L25.8388 0.232258L29.9469 4.34032L28.7275 5.55968L24.8807 1.72742H2.20654V0Z" fill="white"/>
<path d="M19.4806 5.60323H0V0H13.8919L19.4806 5.60323Z" fill="white"/>
<g filter="url(#filter0_bd_718_234)">
<path d="M23.6482 20.6739C24.4407 20.6739 25.1201 20.8132 25.6862 21.0919V23.0516L25.6732 23.0647C25.438 22.6989 24.9372 22.455 24.1707 22.3331C23.9443 22.2982 23.6569 22.2808 23.3085 22.2808C22.9688 22.2721 22.6291 22.3331 22.2895 22.4637C21.9585 22.5943 21.6885 22.7816 21.4795 23.0255C21.0701 23.4871 20.8654 24.1447 20.8654 24.9982C20.8654 25.9998 21.1267 26.7445 21.6493 27.2322C22.0848 27.6416 22.6596 27.8463 23.3738 27.8463C24.1838 27.8463 24.837 27.6764 25.3335 27.3368C25.5164 27.2148 25.6732 27.0581 25.8038 26.8664L25.8169 26.8795V28.6693C25.1637 29.2093 24.2883 29.4793 23.1909 29.4793C21.8932 29.4793 20.8741 29.0656 20.1338 28.2382C19.4283 27.4543 19.0756 26.4135 19.0756 25.1158C19.0756 23.7397 19.4632 22.6597 20.2383 21.8758C21.0222 21.0745 22.1588 20.6739 23.6482 20.6739ZM28.7883 29.3618C28.379 29.3356 27.8912 29.3226 27.3251 29.3226H27.1291V20.8045C27.3904 20.8219 27.5777 20.835 27.6909 20.8437H27.9522C28.2919 20.8437 28.5706 20.8263 28.7883 20.7914V24.1882H31.7801V20.8045C32.1372 20.8219 32.4812 20.835 32.8122 20.8437C33.1432 20.8437 33.3522 20.8263 33.4393 20.7914V29.3618C33.239 29.3356 32.834 29.3226 32.2243 29.3226H31.7801V25.7168H28.7883V29.3618ZM36.4151 29.3748C36.0493 29.34 35.6225 29.3226 35.1347 29.3226H34.6383L37.408 21.5492C37.5299 21.2008 37.5909 20.9961 37.5909 20.9352V20.8306V20.8176C37.8696 20.8263 38.1657 20.835 38.4793 20.8437C38.7318 20.8437 39.0367 20.8393 39.3938 20.8306V20.8437C39.3851 20.8611 39.3807 20.8829 39.3807 20.909C39.3807 20.9874 39.446 21.2008 39.5767 21.5492L42.4117 29.3356C42.4117 29.3356 42.3115 29.3356 42.1112 29.3356L41.7846 29.3226C41.7846 29.3226 41.6888 29.3226 41.4972 29.3226H40.5043L39.9033 27.4805H37.016L36.4151 29.3748ZM39.4068 25.9519L38.4401 22.9863L37.4994 25.9519H39.4068ZM43.5351 29.3226C43.5612 29.1745 43.5743 29.0177 43.5743 28.8522V20.8437H44.8546L48.2383 26.161V21.2748C48.2383 21.0397 48.2166 20.896 48.173 20.8437H49.8975C49.8801 21.0179 49.8671 21.2052 49.8583 21.4055V29.3226H48.5388L45.2074 24.2143V29.3226H43.5351ZM58.7921 24.2013C58.7137 24.3493 58.6745 24.6977 58.6745 25.2464V27.2192C58.6745 27.8202 58.3653 28.3427 57.747 28.7869C57.1024 29.2485 56.3142 29.4793 55.3823 29.4793C54.0933 29.4793 53.0612 29.0743 52.286 28.2643C51.5457 27.4892 51.1755 26.5006 51.1755 25.2987C51.1755 24.0271 51.5544 22.9645 52.3121 22.111C53.157 21.1529 54.3197 20.6739 55.8003 20.6739C56.7933 20.6739 57.5771 20.8655 58.152 21.2487L58.0474 23.13L58.0083 23.1431C57.8602 22.8818 57.5641 22.6727 57.1199 22.516C56.7018 22.3592 56.262 22.2808 55.8003 22.2808C55.3474 22.2721 54.9512 22.3418 54.6115 22.4898C54.2718 22.6379 53.98 22.8426 53.7362 23.1039C53.231 23.6526 52.9828 24.3798 52.9915 25.2856C52.9915 26.0695 53.2136 26.701 53.6578 27.18C54.102 27.6503 54.6681 27.8855 55.3562 27.8855C56.1226 27.8855 56.6452 27.6852 56.9239 27.2845C57.011 27.1539 57.0502 27.0102 57.0415 26.8534V25.7952H56.2184C55.7742 25.7952 55.5347 25.8343 55.4999 25.9127L55.4868 25.8997L55.4215 24.2405C55.5434 24.2753 56.0268 24.2927 56.8716 24.2927H57.6294C58.0997 24.2927 58.4829 24.2579 58.7791 24.1882L58.7921 24.2013ZM64.3815 27.794C64.6428 27.794 64.8257 27.7679 64.9302 27.7156H64.9563L64.891 29.3226H60.1094V20.7914C60.2226 20.8002 60.3489 20.8089 60.4883 20.8176L60.9325 20.8306C61.2286 20.8393 61.5552 20.8437 61.9123 20.8437C62.8878 20.8437 63.8502 20.8263 64.7996 20.7914C64.756 21.166 64.7342 21.6624 64.7342 22.2808C64.7342 22.2808 64.7342 22.3331 64.7342 22.4376V22.4637C64.5165 22.4027 64.1986 22.3679 63.7805 22.3592H61.7686V23.9922H63.2841C63.7544 23.9922 64.0375 23.9792 64.1333 23.9531L64.1463 25.5208C63.946 25.5034 63.6847 25.4947 63.3625 25.4947H61.7686V27.794H64.3815ZM70.4054 20.7914C70.9976 20.7131 71.6029 20.6739 72.2213 20.6739C73.3797 20.6739 74.2594 20.9482 74.8604 21.4969C75.4613 22.0369 75.7618 22.8469 75.7618 23.9269C75.7618 24.8937 75.4308 25.6558 74.7689 26.2132C74.1505 26.7445 73.3579 27.0102 72.3912 27.0102C72.2779 27.0102 72.156 27.0014 72.0254 26.984V29.3226H70.4054V20.7914ZM72.4173 22.2155C72.2866 22.2155 72.156 22.2198 72.0254 22.2285V25.5861C72.1647 25.6035 72.3302 25.6122 72.5218 25.6122C72.7221 25.6122 72.9268 25.5731 73.1358 25.4947C73.3536 25.4076 73.5321 25.29 73.6715 25.1419C73.9763 24.8284 74.1287 24.419 74.1287 23.9139C74.1287 22.7816 73.5583 22.2155 72.4173 22.2155ZM78.5813 29.3748C78.2155 29.34 77.7887 29.3226 77.301 29.3226H76.8045L79.5742 21.5492C79.6961 21.2008 79.7571 20.9961 79.7571 20.9352V20.8306V20.8176C80.0358 20.8263 80.3319 20.835 80.6455 20.8437C80.8981 20.8437 81.2029 20.8393 81.56 20.8306V20.8437C81.5513 20.8611 81.5469 20.8829 81.5469 20.909C81.5469 20.9874 81.6123 21.2008 81.7429 21.5492L84.5779 29.3356C84.5779 29.3356 84.4777 29.3356 84.2774 29.3356L83.9508 29.3226C83.9508 29.3226 83.855 29.3226 83.6634 29.3226H82.6705L82.0695 27.4805H79.1823L78.5813 29.3748ZM81.5731 25.9519L80.6063 22.9863L79.6656 25.9519H81.5731ZM91.0317 21.314L90.9141 23.1822L90.8618 23.1953C90.5483 22.725 90.0126 22.4202 89.2549 22.2808C89.0197 22.2372 88.7933 22.2155 88.5755 22.2155C88.3578 22.2155 88.1705 22.2329 88.0138 22.2677C87.857 22.3026 87.722 22.3592 87.6088 22.4376C87.3823 22.5943 87.2691 22.7947 87.2691 23.0385C87.2691 23.3608 87.3693 23.6003 87.5696 23.7571C87.8222 23.9487 88.2446 24.0881 88.8368 24.1752C89.4291 24.2535 89.9038 24.3624 90.2609 24.5018C90.618 24.6324 90.9097 24.8022 91.1362 25.0113C91.5717 25.4032 91.7894 25.9563 91.7894 26.6705C91.7894 27.6024 91.4367 28.321 90.7312 28.8261C90.1302 29.2616 89.3681 29.4793 88.4449 29.4793C87.7046 29.4793 86.973 29.34 86.2501 29.0613C86.0062 28.9655 85.7972 28.8566 85.623 28.7347L85.7013 26.6052L85.7275 26.5921C86.2588 27.4979 87.1254 27.9508 88.3273 27.9508C89.1809 27.9508 89.7426 27.7461 90.0126 27.3368C90.1084 27.1974 90.1563 27.0406 90.1563 26.8664C90.1563 26.6922 90.1259 26.5485 90.0649 26.4353C90.0126 26.3221 89.9255 26.2263 89.8036 26.1479C89.5597 25.9824 89.146 25.8735 88.5625 25.8213C87.9789 25.769 87.4999 25.6645 87.1254 25.5077C86.7596 25.351 86.4634 25.1637 86.237 24.946C85.8363 24.5366 85.636 23.9661 85.636 23.2345C85.636 22.4768 85.906 21.8627 86.446 21.3924C86.986 20.9134 87.7133 20.6782 88.6278 20.6869C89.5423 20.6869 90.3436 20.896 91.0317 21.314ZM98.406 21.314L98.2884 23.1822L98.2361 23.1953C97.9226 22.725 97.387 22.4202 96.6292 22.2808C96.394 22.2372 96.1676 22.2155 95.9499 22.2155C95.7321 22.2155 95.5449 22.2329 95.3881 22.2677C95.2313 22.3026 95.0963 22.3592 94.9831 22.4376C94.7566 22.5943 94.6434 22.7947 94.6434 23.0385C94.6434 23.3608 94.7436 23.6003 94.9439 23.7571C95.1965 23.9487 95.6189 24.0881 96.2111 24.1752C96.8034 24.2535 97.2781 24.3624 97.6352 24.5018C97.9923 24.6324 98.284 24.8022 98.5105 25.0113C98.946 25.4032 99.1637 25.9563 99.1637 26.6705C99.1637 27.6024 98.811 28.321 98.1055 28.8261C97.5045 29.2616 96.7424 29.4793 95.8192 29.4793C95.0789 29.4793 94.3473 29.34 93.6244 29.0613C93.3805 28.9655 93.1715 28.8566 92.9973 28.7347L93.0757 26.6052L93.1018 26.5921C93.6331 27.4979 94.4997 27.9508 95.7016 27.9508C96.5552 27.9508 97.117 27.7461 97.387 27.3368C97.4828 27.1974 97.5307 27.0406 97.5307 26.8664C97.5307 26.6922 97.5002 26.5485 97.4392 26.4353C97.387 26.3221 97.2999 26.2263 97.1779 26.1479C96.934 25.9824 96.5203 25.8735 95.9368 25.8213C95.3532 25.769 94.8742 25.6645 94.4997 25.5077C94.1339 25.351 93.8378 25.1637 93.6113 24.946C93.2107 24.5366 93.0103 23.9661 93.0103 23.2345C93.0103 22.4768 93.2803 21.8627 93.8203 21.3924C94.3603 20.9134 95.0876 20.6782 96.0021 20.6869C96.9166 20.6869 97.7179 20.896 98.406 21.314ZM104.343 29.3487C104.213 29.3313 103.999 29.3226 103.703 29.3226H102.958C102.81 29.3226 102.693 29.3269 102.606 29.3356L102.593 29.3226C102.61 29.2964 102.619 29.266 102.619 29.2311C102.619 29.1876 102.614 29.144 102.606 29.1005C102.606 29.0569 102.588 28.9829 102.553 28.8784C102.527 28.7652 102.488 28.604 102.436 28.395L100.267 20.8176C100.537 20.835 100.864 20.8437 101.247 20.8437C101.639 20.8437 101.891 20.8263 102.005 20.7914L103.507 26.566L104.983 20.8176C105.044 20.8176 105.101 20.8219 105.153 20.8306H105.297C105.436 20.8393 105.61 20.8437 105.819 20.8437C106.037 20.8437 106.255 20.8263 106.473 20.7914L107.975 26.566L109.255 20.8176C109.508 20.835 109.839 20.8437 110.248 20.8437C110.666 20.8437 110.919 20.8263 111.006 20.7914L109.177 27.5197C108.942 28.2948 108.816 28.7564 108.798 28.9045C108.789 29.0439 108.785 29.144 108.785 29.205C108.785 29.2572 108.794 29.2964 108.811 29.3226L108.798 29.3487C108.659 29.3313 108.441 29.3226 108.145 29.3226C108.145 29.3226 107.914 29.3226 107.453 29.3226C107.244 29.3226 107.095 29.3269 107.008 29.3356L106.995 29.3226C107.013 29.2964 107.021 29.266 107.021 29.2311C107.021 29.1876 107.017 29.1484 107.008 29.1135C107.008 29.07 107 28.996 106.982 28.8914C106.965 28.7782 106.934 28.6171 106.891 28.4081L106.721 27.5327L105.663 23.5611L104.67 27.5197C104.469 28.3297 104.365 28.7956 104.356 28.9176C104.339 29.1527 104.339 29.2877 104.356 29.3226L104.343 29.3487ZM113.299 28.3166C112.916 27.9421 112.611 27.4979 112.385 26.984C112.167 26.4614 112.058 25.891 112.058 25.2726C112.058 24.6542 112.158 24.0706 112.359 23.5219C112.568 22.9645 112.864 22.4768 113.247 22.0587C113.639 21.6406 114.109 21.3053 114.658 21.0527C115.207 20.8002 115.821 20.6739 116.5 20.6739C117.676 20.6739 118.664 21.044 119.466 21.7843C120.328 22.5769 120.759 23.6439 120.759 24.9852C120.759 26.2829 120.315 27.3672 119.427 28.2382C118.887 28.7695 118.242 29.1353 117.493 29.3356C117.127 29.4314 116.692 29.4793 116.187 29.4793C115.69 29.4793 115.181 29.3792 114.658 29.1789C114.144 28.9698 113.691 28.6824 113.299 28.3166ZM113.822 25.1942C113.822 25.5861 113.887 25.9476 114.018 26.2785C114.157 26.6095 114.34 26.8969 114.567 27.1408C115.063 27.646 115.703 27.8942 116.487 27.8855C117.227 27.8855 117.828 27.646 118.29 27.1669C118.752 26.6705 118.978 25.9911 118.969 25.1289C118.969 24.3189 118.752 23.6439 118.316 23.1039C117.846 22.529 117.201 22.2416 116.383 22.2416C115.59 22.2416 114.959 22.5334 114.488 23.1169C114.044 23.6743 113.822 24.3668 113.822 25.1942ZM124.833 26.0303C124.702 26.039 124.563 26.0434 124.415 26.0434C124.275 26.0434 124.062 26.0303 123.775 26.0042V29.3226H122.089V20.7914C122.682 20.7131 123.413 20.6739 124.284 20.6739C125.469 20.6739 126.348 20.8916 126.923 21.3271C127.507 21.7626 127.798 22.4376 127.798 23.3521C127.798 24.0576 127.533 24.6629 127.002 25.1681C126.827 25.3335 126.627 25.4729 126.401 25.5861L127.707 28.3297C127.96 28.8958 128.156 29.2311 128.295 29.3356L128.256 29.3618C127.846 29.2921 127.198 29.2964 126.309 29.3748L124.833 26.0303ZM124.402 22.1893C124.184 22.1893 123.975 22.1981 123.775 22.2155V24.6585C123.984 24.6847 124.228 24.6977 124.506 24.6977C124.794 24.6977 125.033 24.676 125.225 24.6324C125.416 24.5802 125.582 24.5018 125.721 24.3972C126.026 24.1708 126.174 23.8355 126.165 23.3913C126.165 22.9384 126.009 22.6205 125.695 22.4376C125.399 22.2721 124.968 22.1893 124.402 22.1893ZM131.41 29.4793C130.722 29.4793 130.073 29.4271 129.464 29.3226V20.7784C130.021 20.7087 130.67 20.6739 131.41 20.6739C132.159 20.6739 132.834 20.7784 133.435 20.9874C134.036 21.1877 134.541 21.4752 134.951 21.8497C135.769 22.5987 136.174 23.6439 136.166 24.9852C136.166 26.4919 135.713 27.6416 134.807 28.4342C133.988 29.131 132.856 29.4793 131.41 29.4793ZM131.123 27.9247C131.402 27.9769 131.676 28.0031 131.946 28.0031C132.225 28.0031 132.525 27.9508 132.847 27.8463C133.17 27.7331 133.448 27.5632 133.683 27.3368C134.189 26.849 134.437 26.1435 134.428 25.2203C134.428 23.6961 133.875 22.7598 132.769 22.4114C132.403 22.2982 131.981 22.2416 131.502 22.2416H131.319C131.319 22.2416 131.253 22.2416 131.123 22.2416V27.9247Z" fill="white"/>
</g>
</g>
<defs>
<filter id="filter0_bd_718_234" x="4.55955" y="6.15773" width="146.135" height="37.8377" filterUnits="userSpaceOnUse" color-interpolation-filters="sRGB">
<feFlood flood-opacity="0" result="BackgroundImageFix"/>
<feGaussianBlur in="BackgroundImage" stdDeviation="5.80645"/>
<feComposite in2="SourceAlpha" operator="in" result="effect1_backgroundBlur_718_234"/>
<feColorMatrix in="SourceAlpha" type="matrix" values="0 0 0 0 0 0 0 0 0 0 0 0 0 0 0 0 0 0 127 0" result="hardAlpha"/>
<feOffset/>
<feGaussianBlur stdDeviation="7.25806"/>
<feComposite in2="hardAlpha" operator="out"/>
<feColorMatrix type="matrix" values="0 0 0 0 1 0 0 0 0 1 0 0 0 0 1 0 0 0 0.75 0"/>
<feBlend mode="normal" in2="effect1_backgroundBlur_718_234" result="effect2_dropShadow_718_234"/>
<feBlend mode="normal" in="SourceGraphic" in2="effect2_dropShadow_718_234" result="shape"/>
</filter>
<clipPath id="clip0_718_234">
<rect width="153.871" height="45" fill="white"/>
</clipPath>
</defs>
</svg>
