<svg width="120" height="45" viewBox="0 0 120 45" fill="none" xmlns="http://www.w3.org/2000/svg">
<path d="M0.820312 37.2771V37.2915L8.10031 44.5858L0.820312 37.2771Z" fill="white"/>
<g opacity="0.25">
<path d="M120 19.9459V44.5859H16.4003L0.820801 29.0064V4.38074H104.421L120 19.9459Z" fill="white"/>
</g>
<path d="M103.832 5.81663L118.564 20.5489V43.15H16.9885L2.25621 28.4177V5.81663H103.832ZM104.42 4.38074H0.820312V28.992L16.3998 44.5859H120V19.9459L104.42 4.38074Z" fill="white"/>
<path d="M12.9249 44.5859H8.11467L0.820312 37.3059V32.4957L12.9249 44.5859Z" fill="white"/>
<path opacity="0.5" d="M3.00293 0.274109H26.1496L26.3793 0.503852L30.4429 4.56744L29.2368 5.7736L25.4316 1.98283H3.00293V0.274109Z" fill="white"/>
<path d="M20.0901 5.81667H0.820312V0.274109H14.5619L20.0901 5.81667Z" fill="white"/>
</svg>
