<svg width="154" height="45" viewBox="0 0 154 45" fill="none" xmlns="http://www.w3.org/2000/svg">
<path d="M0 37.408V37.4225L7.35968 44.7967L0 37.408Z" fill="white"/>
<g opacity="0.25">
<path d="M153.871 19.8871V44.7967H15.75L0 29.0467V4.15158H138.121L153.871 19.8871Z" fill="white"/>
</g>
<path d="M137.526 5.60319L152.419 20.4967V43.3451H16.3452L1.45161 28.4516V5.60319H137.526ZM138.121 4.15158H0V29.0322L15.75 44.7967H153.871V19.8871L138.121 4.15158Z" fill="white"/>
<path d="M12.2371 44.7967H7.37419L0 37.4371V32.5742L12.2371 44.7967Z" fill="white"/>
<path opacity="0.5" d="M2.20654 0H25.6065L25.8388 0.232258L29.9469 4.34032L28.7275 5.55968L24.8807 1.72742H2.20654V0Z" fill="white"/>
<path d="M19.4806 5.60323H0V0H13.8919L19.4806 5.60323Z" fill="white"/>
</svg>
