<svg width="130" height="45" viewBox="0 0 130 45" fill="none" xmlns="http://www.w3.org/2000/svg">
<g clip-path="url(#clip0_1223_464)">
<path d="M0 37.0029V37.0173L7.89084 44.3116L0 37.0029Z" fill="white"/>
<g opacity="0.25">
<path d="M129.18 19.6717V44.3117H16.8872L0.000488281 28.7322V4.10657H112.293L129.18 19.6717Z" fill="white"/>
</g>
<path d="M111.655 5.54246L127.623 20.2748V42.8758H17.5248L1.55638 28.1435V5.54246H111.655ZM112.293 4.10657H0V28.7178L16.8867 44.3117H129.179V19.6717L112.293 4.10657Z" fill="white"/>
<path d="M13.1203 44.3117H7.90641L0 37.0317V32.2214L13.1203 44.3117Z" fill="white"/>
<path opacity="0.5" d="M2.36572 0H27.4546L27.7036 0.229744L32.1081 4.29333L30.8008 5.49949L26.6764 1.70872H2.36572V0Z" fill="white"/>
<path d="M20.8866 5.54256H0V0H14.8946L20.8866 5.54256Z" fill="white"/>
<g filter="url(#filter0_bd_1223_464)">
<path d="M41.3469 17.8625C42.5602 17.8625 43.6002 18.0759 44.4669 18.5025V21.5025L44.4469 21.5225C44.0869 20.9625 43.3202 20.5892 42.1469 20.4025C41.8002 20.3492 41.3602 20.3225 40.8269 20.3225C40.3069 20.3092 39.7869 20.4025 39.2669 20.6025C38.7602 20.8025 38.3469 21.0892 38.0269 21.4625C37.4002 22.1692 37.0869 23.1759 37.0869 24.4825C37.0869 26.0159 37.4869 27.1559 38.2869 27.9025C38.9536 28.5292 39.8336 28.8425 40.9269 28.8425C42.1669 28.8425 43.1669 28.5825 43.9269 28.0625C44.2069 27.8759 44.4469 27.6359 44.6469 27.3425L44.6669 27.3625V30.1025C43.6669 30.9292 42.3269 31.3425 40.6469 31.3425C38.6602 31.3425 37.1002 30.7092 35.9669 29.4425C34.8869 28.2425 34.3469 26.6492 34.3469 24.6625C34.3469 22.5559 34.9402 20.9025 36.1269 19.7025C37.3269 18.4759 39.0669 17.8625 41.3469 17.8625ZM48.5758 31.1025C47.6158 31.1025 46.9825 31.1225 46.6758 31.1625V18.0625C46.8358 18.1025 47.1558 18.1225 47.6358 18.1225C48.1291 18.1225 48.7025 18.1092 49.3558 18.0825V28.7625H51.3758C51.9625 28.7625 52.4358 28.7425 52.7958 28.7025C52.7558 30.2225 52.7291 31.0159 52.7158 31.0825V31.1625C52.0758 31.1225 51.0091 31.1025 49.5158 31.1025H48.5758ZM57.0827 31.1825C56.5227 31.1292 55.8694 31.1025 55.1227 31.1025H54.3627L58.6027 19.2025C58.7894 18.6692 58.8827 18.3559 58.8827 18.2625V18.1025V18.0825C59.3094 18.0959 59.7627 18.1092 60.2427 18.1225C60.6294 18.1225 61.096 18.1159 61.6427 18.1025V18.1225C61.6294 18.1492 61.6227 18.1825 61.6227 18.2225C61.6227 18.3425 61.7227 18.6692 61.9227 19.2025L66.2627 31.1225C66.2627 31.1225 66.1094 31.1225 65.8027 31.1225L65.3027 31.1025C65.3027 31.1025 65.156 31.1025 64.8627 31.1025H63.3427L62.4227 28.2825H58.0027L57.0827 31.1825ZM61.6627 25.9425L60.1827 21.4025L58.7427 25.9425H61.6627ZM68.0625 18.0825C68.7159 18.1092 69.1092 18.1225 69.2425 18.1225H69.9425C70.2892 18.1225 70.5692 18.0959 70.7825 18.0425L70.7625 31.1025H68.0625V18.0825ZM75.5649 31.1625C75.2582 31.1225 74.6515 31.1025 73.7449 31.1025H72.9649V18.0825C73.3782 18.1092 73.8382 18.1225 74.3449 18.1225C74.8515 18.1225 75.2049 18.0959 75.4049 18.0425L78.7049 23.6025L81.8449 18.0425C82.0582 18.0959 82.4582 18.1225 83.0449 18.1225C83.6315 18.1225 84.1315 18.1092 84.5449 18.0825V31.1025H83.7649C82.8715 31.1025 82.2715 31.1225 81.9649 31.1625V22.4025L78.7649 28.1225L75.5649 22.8625V31.1625Z" fill="white"/>
</g>
</g>
<defs>
<filter id="filter0_bd_1223_464" x="19.9877" y="3.50358" width="78.9162" height="42.1979" filterUnits="userSpaceOnUse" color-interpolation-filters="sRGB">
<feFlood flood-opacity="0" result="BackgroundImageFix"/>
<feGaussianBlur in="BackgroundImage" stdDeviation="5.74359"/>
<feComposite in2="SourceAlpha" operator="in" result="effect1_backgroundBlur_1223_464"/>
<feColorMatrix in="SourceAlpha" type="matrix" values="0 0 0 0 0 0 0 0 0 0 0 0 0 0 0 0 0 0 127 0" result="hardAlpha"/>
<feOffset/>
<feGaussianBlur stdDeviation="7.17949"/>
<feComposite in2="hardAlpha" operator="out"/>
<feColorMatrix type="matrix" values="0 0 0 0 1 0 0 0 0 1 0 0 0 0 1 0 0 0 0.75 0"/>
<feBlend mode="normal" in2="effect1_backgroundBlur_1223_464" result="effect2_dropShadow_1223_464"/>
<feBlend mode="normal" in="SourceGraphic" in2="effect2_dropShadow_1223_464" result="shape"/>
</filter>
<clipPath id="clip0_1223_464">
<rect width="129.179" height="44.3118" fill="white"/>
</clipPath>
</defs>
</svg>
