<svg width="188" height="48" viewBox="0 0 188 48" fill="none" xmlns="http://www.w3.org/2000/svg">
<path d="M14.3418 13.8049L13.226 14.9207L5.0835 6.77815H7.31505L14.3418 13.8049Z" fill="white"/>
<path d="M14.3677 33.8224L14.3413 33.8488V33.796L14.3677 33.8224Z" fill="white"/>
<path d="M169.449 41.8723L167.869 43.453H2.48096L4.06164 41.8723H169.449Z" fill="white"/>
<path d="M170.471 6.77824H5.08362L3.50293 5.19756H168.891L170.471 6.77824Z" fill="white"/>
<path d="M14.3425 33.796V33.8491L12.7618 35.4298L6.30626 41.8721H4.07471L12.7618 33.185L13.2533 32.6935L14.3425 33.796Z" fill="white"/>
<path d="M14.3429 13.8051V33.7961L13.2537 32.6936L12.7622 33.1851V13.8051H14.3429Z" fill="white"/>
<path d="M187.301 13.8046L187.328 33.8222L179.265 41.8718L177.684 43.4525H167.483L177.777 33.1581L177.751 14.4555L170.086 6.77788L168.506 5.19719H178.707L180.288 6.77788L187.301 13.8046Z" fill="white"/>
<path d="M-0.000509508 8.33889L8.99756 17.337L10.1153 16.2192L1.1172 7.22118L-0.000509508 8.33889Z" fill="white"/>
<path d="M10.1308 31.405V31.4582L8.5501 33.0388L1.15142 40.4242L0.0356445 39.3085L8.5501 30.794L9.02829 30.3158L10.1308 31.405Z" fill="white"/>
<path d="M10.1587 31.4314L10.1323 31.4578V31.4049L10.1587 31.4314Z" fill="white"/>
<path d="M10.132 16.2092V31.405L9.02946 30.3158L8.55127 30.794V16.2092H10.132Z" fill="white"/>
<g opacity="0.5">
<path d="M81.8198 1.65088H21.3286V0.0701904H80.2391L81.8198 1.65088Z" fill="white"/>
<path d="M29.2987 5.19868H3.50293L7.03623 1.6521L8.61691 0.0714111H24.1847L29.2987 5.19868Z" fill="white"/>
<path d="M85.3527 5.19746H71.0866L67.5533 1.65088L65.9727 0.0701904H80.2387L81.8194 1.65088L85.3527 5.19746Z" fill="white"/>
</g>
<path opacity="0.5" d="M20.5713 47.8894H14.8994L20.1197 42.6691H25.7915L20.5713 47.8894Z" fill="white"/>
<path d="M34.1992 47.8893H28.5273L33.7609 42.6691H39.4328L34.1992 47.8893Z" fill="white"/>
<path opacity="0.5" d="M47.8271 47.8893H42.1553L47.3888 42.6691H53.0607L47.8271 47.8893Z" fill="white"/>
<path d="M61.4702 47.8893H55.7983L61.0319 42.6691H66.6905L61.4702 47.8893Z" fill="white"/>
<path opacity="0.5" d="M75.0967 47.8893H69.4248L74.6583 42.6691H80.3302L75.0967 47.8893Z" fill="white"/>
<path d="M39.7837 23.0763V25.9853V23.0763ZM30.2797 21.9805V23.0763H39.7837V27.8184C39.7837 27.8715 39.7837 27.9047 39.7837 27.918C39.7572 28.4892 39.5314 28.9806 39.1063 29.3924C38.6812 29.8042 38.1765 30.0101 37.592 30.0101C37.592 30.0101 33.9392 30.0101 26.6335 30.0101V27.0812H36.1375V25.9853H26.6335V21.2432C26.6335 21.2034 26.6335 21.1702 26.6335 21.1436C26.6601 20.5592 26.8859 20.0677 27.3109 19.6692C27.7493 19.2574 28.254 19.0515 28.8252 19.0515H39.7837V21.9805H30.2797ZM53.5278 19.0515C54.1389 19.0515 54.6569 19.2641 55.082 19.6891C55.507 20.1142 55.7195 20.6322 55.7195 21.2432V24.1722C55.7195 24.7699 55.507 25.2879 55.082 25.7263C54.6569 26.1513 54.1389 26.3639 53.5278 26.3639H46.2155V30.0101H42.5693V19.0515H53.5278ZM52.0733 23.4349V21.9805H46.2155V23.4349H52.0733ZM69.4039 19.0515C70.0016 19.0515 70.513 19.2641 70.9381 19.6891C71.3764 20.1142 71.5956 20.6322 71.5956 21.2432V30.0101H67.9294V26.3639H62.0915V30.0101H58.4453V21.2432C58.4453 20.6322 58.6579 20.1142 59.0829 19.6891C59.508 19.2641 60.026 19.0515 60.637 19.0515H69.4039ZM67.9294 23.4349V21.9805H62.0915V23.4349H67.9294ZM78.0871 21.9805V27.0812H87.5911V30.0101H76.6326C76.0216 30.0101 75.5035 29.7975 75.0785 29.3725C74.6534 28.9474 74.4409 28.4294 74.4409 27.8184V21.2432C74.4409 20.6322 74.6534 20.1142 75.0785 19.6891C75.5035 19.2641 76.0216 19.0515 76.6326 19.0515H87.5911V21.9805H78.0871ZM94.0229 21.9805V23.0763H101.893V25.9853H94.0229V27.0812H103.527V30.0101H92.5684C91.9574 30.0101 91.4393 29.7975 91.0143 29.3725C90.5892 28.9474 90.3767 28.4294 90.3767 27.8184V21.2432C90.3767 20.6322 90.5892 20.1142 91.0143 19.6891C91.4393 19.2641 91.9574 19.0515 92.5684 19.0515H103.527V21.9805H94.0229ZM119.463 23.0763V25.9853V23.0763ZM109.959 21.9805V23.0763H119.463V27.8184C119.463 27.8715 119.463 27.9047 119.463 27.918C119.436 28.4892 119.21 28.9806 118.785 29.3924C118.36 29.8042 117.855 30.0101 117.271 30.0101C117.271 30.0101 113.618 30.0101 106.313 30.0101V27.0812H115.817V25.9853H106.313V21.2432C106.313 21.2034 106.313 21.1702 106.313 21.1436C106.339 20.5592 106.565 20.0677 106.99 19.6692C107.428 19.2574 107.933 19.0515 108.504 19.0515H119.463V21.9805H109.959ZM135.399 19.0515V30.0101H131.752V25.9853H125.895V30.0101H122.248V19.0515H125.895V23.0763H131.752V19.0515H135.399ZM137.746 30.0101V19.0515H141.412V30.0101H137.746ZM154.727 19.0515C155.338 19.0515 155.856 19.2641 156.281 19.6891C156.706 20.1142 156.919 20.6322 156.919 21.2432V24.1722C156.919 24.7699 156.706 25.2879 156.281 25.7263C155.856 26.1513 155.338 26.3639 154.727 26.3639H147.415V30.0101H143.768V19.0515H154.727ZM153.272 23.4349V21.9805H147.415V23.4349H153.272ZM159.326 24.0128V21.1038H162.235V24.0128H159.326ZM159.326 28.0375V25.1086H162.235V28.0375H159.326Z" fill="white"/>
</svg>
