<svg width="188" height="48" viewBox="0 0 188 48" fill="none" xmlns="http://www.w3.org/2000/svg">
<path d="M14.3418 13.8049L13.226 14.9207L5.0835 6.77815H7.31505L14.3418 13.8049Z" fill="white"/>
<path d="M14.3677 33.8224L14.3413 33.8488V33.796L14.3677 33.8224Z" fill="white"/>
<path d="M169.449 41.8723L167.869 43.453H2.48096L4.06164 41.8723H169.449Z" fill="white"/>
<path d="M170.471 6.77824H5.08362L3.50293 5.19756H168.891L170.471 6.77824Z" fill="white"/>
<path d="M14.3425 33.796V33.8491L12.7618 35.4298L6.30626 41.8721H4.07471L12.7618 33.185L13.2533 32.6935L14.3425 33.796Z" fill="white"/>
<path d="M14.3429 13.8051V33.7961L13.2537 32.6936L12.7622 33.1851V13.8051H14.3429Z" fill="white"/>
<path d="M187.301 13.8046L187.328 33.8222L179.265 41.8718L177.684 43.4525H167.483L177.777 33.1581L177.751 14.4555L170.086 6.77788L168.506 5.19719H178.707L180.288 6.77788L187.301 13.8046Z" fill="white"/>
<path d="M-0.000509508 8.33889L8.99756 17.337L10.1153 16.2192L1.1172 7.22118L-0.000509508 8.33889Z" fill="white"/>
<path d="M10.1308 31.405V31.4582L8.5501 33.0388L1.15142 40.4242L0.0356445 39.3085L8.5501 30.794L9.02829 30.3158L10.1308 31.405Z" fill="white"/>
<path d="M10.1587 31.4314L10.1323 31.4578V31.4049L10.1587 31.4314Z" fill="white"/>
<path d="M10.132 16.2092V31.405L9.02946 30.3158L8.55127 30.794V16.2092H10.132Z" fill="white"/>
<g opacity="0.5">
<path d="M81.8198 1.65088H21.3286V0.0701904H80.2391L81.8198 1.65088Z" fill="white"/>
<path d="M29.2987 5.19868H3.50293L7.03623 1.6521L8.61691 0.0714111H24.1847L29.2987 5.19868Z" fill="white"/>
<path d="M85.3527 5.19746H71.0866L67.5533 1.65088L65.9727 0.0701904H80.2387L81.8194 1.65088L85.3527 5.19746Z" fill="white"/>
</g>
<path opacity="0.5" d="M20.5713 47.8894H14.8994L20.1197 42.6691H25.7915L20.5713 47.8894Z" fill="white"/>
<path d="M34.1992 47.8893H28.5273L33.7609 42.6691H39.4328L34.1992 47.8893Z" fill="white"/>
<path opacity="0.5" d="M47.8271 47.8893H42.1553L47.3888 42.6691H53.0607L47.8271 47.8893Z" fill="white"/>
<path d="M61.4702 47.8893H55.7983L61.0319 42.6691H66.6905L61.4702 47.8893Z" fill="white"/>
<path opacity="0.5" d="M75.0967 47.8893H69.4248L74.6583 42.6691H80.3302L75.0967 47.8893Z" fill="white"/>
</svg>
