<svg width="144" height="48" viewBox="0 0 144 48" fill="none" xmlns="http://www.w3.org/2000/svg">
<path d="M14.3418 13.7493L13.226 14.865L5.0835 6.7225H7.31505L14.3418 13.7493Z" fill="white"/>
<path d="M14.3677 33.7668L14.3413 33.7933V33.7404L14.3677 33.7668Z" fill="white"/>
<path d="M125.615 41.8167L124.034 43.3974H2.48096L4.06164 41.8167H125.615Z" fill="white"/>
<path d="M126.637 6.72298H5.08362L3.50293 5.14229H125.056L126.637 6.72298Z" fill="white"/>
<path d="M14.3425 33.7407V33.7939L12.7618 35.3746L6.30626 41.8169H4.07471L12.7618 33.1297L13.2533 32.6382L14.3425 33.7407Z" fill="white"/>
<path d="M14.3429 13.7494V33.7405L13.2537 32.638L12.7622 33.1294V13.7494H14.3429Z" fill="white"/>
<path d="M143.467 13.7494L143.494 33.767L135.431 41.8165L133.85 43.3972H123.649L133.943 33.1028L133.917 14.4002L126.252 6.72261L124.672 5.14192H134.873L136.454 6.72261L143.467 13.7494Z" fill="white"/>
<path d="M-0.000509508 8.28365L8.99756 17.2817L10.1153 16.164L1.1172 7.16594L-0.000509508 8.28365Z" fill="white"/>
<path d="M10.1308 31.3498V31.4029L8.5501 32.9836L1.15142 40.369L0.0356445 39.2532L8.5501 30.7387L9.02829 30.2605L10.1308 31.3498Z" fill="white"/>
<path d="M10.1587 31.3761L10.1323 31.4025V31.3496L10.1587 31.3761Z" fill="white"/>
<path d="M10.132 16.1536V31.3494L9.02946 30.2602L8.55127 30.7384V16.1536H10.132Z" fill="white"/>
<g opacity="0.5">
<path d="M81.8198 1.59517H21.3286V0.0144806H80.2391L81.8198 1.59517Z" fill="white"/>
<path d="M29.2987 5.14207H3.50293L7.03623 1.59549L8.61691 0.014801H24.1847L29.2987 5.14207Z" fill="white"/>
<path d="M85.3527 5.14175H71.0866L67.5533 1.59517L65.9727 0.0144806H80.2387L81.8194 1.59517L85.3527 5.14175Z" fill="white"/>
</g>
<path d="M20.5713 47.835H14.8994L20.1197 42.6148H25.7915L20.5713 47.835Z" fill="white"/>
<path opacity="0.5" d="M34.1992 47.8339H28.5273L33.7609 42.6137H39.4328L34.1992 47.8339Z" fill="white"/>
<path d="M47.8271 47.8339H42.1553L47.3888 42.6137H53.0607L47.8271 47.8339Z" fill="white"/>
<path opacity="0.5" d="M61.4702 47.8339H55.7983L61.0319 42.6137H66.6905L61.4702 47.8339Z" fill="white"/>
<path d="M75.0967 47.8339H69.4248L74.6583 42.6137H80.3302L75.0967 47.8339Z" fill="white"/>
</svg>
